<svg width="197" height="24" viewBox="0 0 197 24" fill="none" xmlns="http://www.w3.org/2000/svg">
<g clip-path="url(#clip0)">
<path fill-rule="evenodd" clip-rule="evenodd" d="M94.0589 4.52874V21.6605C94.055 22.238 93.8249 22.7904 93.4191 23.1968C93.0133 23.6032 92.4647 23.8305 91.8936 23.8289C91.6118 23.8293 91.3328 23.7735 91.0724 23.6647C90.812 23.5558 90.5755 23.3961 90.3762 23.1947C90.177 22.9932 90.0191 22.754 89.9114 22.4908C89.8038 22.2275 89.7486 21.9453 89.749 21.6605V4.52874H84.0687C83.4978 4.53114 82.9492 4.30452 82.5433 3.89859C82.1374 3.49266 81.9072 2.94053 81.9033 2.36328C81.9064 1.78357 82.1356 1.22851 82.541 0.818585C82.9464 0.408664 83.4953 0.176979 84.0687 0.173828H99.7392C100.311 0.177002 100.858 0.409268 101.261 0.819698C101.663 1.23013 101.888 1.78523 101.887 2.36328C101.887 2.64827 101.832 2.93053 101.724 3.19382C101.616 3.45712 101.458 3.69626 101.258 3.8975C101.059 4.09874 100.822 4.25811 100.561 4.36644C100.3 4.47477 100.021 4.52993 99.7392 4.52874H94.0589Z" fill="#007EC4"/>
<path d="M27.4319 21.9187C27.4319 22.9184 27.0898 23.4183 26.4055 23.4183H25.5157C24.8315 23.4183 24.4894 22.9184 24.4894 21.9187V7.07838L15.8843 22.2966C15.4256 23.1064 14.8086 23.5063 14.0334 23.4963C13.2583 23.4863 12.6324 23.0864 12.1558 22.2966L3.37282 7.0004V21.9187C3.37282 22.9184 3.02676 23.4183 2.33464 23.4183H1.47147C0.787259 23.4183 0.445155 22.9184 0.445155 21.9187V2.66049C0.425981 2.08521 0.618314 1.52316 0.985007 1.08288C1.12546 0.899144 1.30508 0.749793 1.5105 0.645939C1.71592 0.542085 1.94185 0.486402 2.1715 0.483032C2.79737 0.483032 3.33722 0.857939 3.79105 1.61675L14.0601 19.0124L24.1008 1.60475C24.2626 1.28636 24.5091 1.01996 24.8125 0.835556C25.1159 0.651152 25.4642 0.556069 25.8182 0.561013C26.894 0.561013 27.4319 1.32482 27.4319 2.85244V21.9187Z" fill="#EC2327" stroke="#EC2327" stroke-width="0.556167" stroke-miterlimit="10"/>
<path d="M58.1883 19.5488H58.2447L58.2706 19.4987L67.6141 1.44043C67.8077 1.06906 68.1055 0.764069 68.4699 0.563724C68.8343 0.363385 69.2491 0.276593 69.6621 0.314189L69.6706 0.314958L69.679 0.314181C70.0891 0.276479 70.501 0.363359 70.862 0.563792C71.2231 0.764231 71.517 1.06916 71.7058 1.43968L71.7061 1.44019L81.0527 19.4987L81.0786 19.5488H81.135L82.0065 19.5488C82.0067 19.5488 82.0068 19.5488 82.0069 19.5488C82.5538 19.5519 83.0776 19.7729 83.4646 20.1643C83.8517 20.5556 84.0707 21.0857 84.0738 21.6395C84.0698 22.1911 83.8501 22.7184 83.4628 23.1062C83.0754 23.4941 82.5521 23.7108 82.0073 23.7093H82.0071H56.7556L56.7553 23.7093C56.2106 23.7108 55.6872 23.4941 55.2998 23.1062C54.9125 22.7183 54.6927 22.1908 54.6889 21.6392V21.6339C54.6935 21.081 54.9131 20.5523 55.3 20.1622C55.6869 19.7721 56.2099 19.5519 56.7558 19.5488C56.7559 19.5488 56.756 19.5488 56.7561 19.5488L58.1883 19.5488ZM69.7529 6.61874L69.6706 6.45942L69.5882 6.61865L62.9646 19.4135L62.8946 19.5488H63.047H76.2763H76.4285L76.3587 19.4135L69.7529 6.61874Z" fill="#EC2327" stroke="#EC2327" stroke-width="0.185389"/>
<path d="M47.5337 11.9821L47.504 12.462C47.4477 13.3857 47.0621 13.8506 46.3442 13.8506H35.0756V17.5967C35.0756 19.2103 36.4924 20.0161 39.3261 20.0141H51.019C51.7922 20.0141 52.1798 20.5059 52.1818 21.4897V21.9516C52.1818 22.9353 51.7932 23.4242 51.019 23.4242H39.1689C38.7085 23.4171 38.2489 23.382 37.7926 23.3192C33.7684 22.7974 31.7563 20.9378 31.7563 17.7406V6.45746C31.7563 4.32599 32.7451 2.73939 34.7226 1.69765C36.0425 0.998822 39.4685 0.64791 39.4685 0.64791C39.4685 0.64791 50.3664 0.48595 51.1614 0.64791C51.7042 0.64791 52.3212 1.60767 52.3212 2.10555C52.3365 2.25912 52.3365 2.41386 52.3212 2.56743C52.3212 2.56743 52.4962 4.26201 50.313 4.04306C49.4766 4.10605 39.338 4.04306 39.338 4.04306L38.4185 4.11204C36.1701 4.292 35.0459 5.0738 35.0459 6.45746V10.4375H46.3472C47.1955 10.4375 47.591 10.9523 47.5337 11.9821Z" fill="#EC2327" stroke="#EC2327" stroke-width="0.556167" stroke-miterlimit="10"/>
<path d="M196.331 21.0006C196.358 21.1793 196.371 21.3598 196.37 21.5405C196.396 22.0708 196.229 22.5923 195.901 23.0071C195.759 23.1862 195.578 23.3299 195.372 23.4271C195.167 23.5244 194.942 23.5725 194.715 23.5679C194.222 23.5679 193.78 23.19 193.386 22.4402L190.6 17.1735H177.336L174.55 22.4552C174.49 22.6246 174.404 22.7834 174.295 22.9261C174.213 23.039 174.106 23.1308 173.982 23.1943C173.858 23.2579 173.722 23.2913 173.583 23.292C173.304 23.3014 173.028 23.227 172.79 23.0781C172.553 22.9292 172.364 22.7124 172.248 22.4552C172.132 22.2407 172.068 22.0011 172.062 21.7564C172.058 21.6312 172.076 21.5063 172.115 21.3875L182.058 1.64942C182.489 0.799635 183.13 0.399735 183.98 0.449722C184.994 0.49771 185.599 0.89761 185.795 1.64942L196.331 21.0006ZM188.755 13.8024L183.98 4.66367L179.178 13.8024H188.755Z" fill="#007EC4" stroke="#007EC4" stroke-width="0.537326" stroke-miterlimit="10"/>
<path fill-rule="evenodd" clip-rule="evenodd" d="M152.387 0.212797C152.957 0.21597 153.503 0.447604 153.904 0.85691C154.306 1.26622 154.53 1.81979 154.529 2.39625V8.80565L166.124 0.527718C166.592 0.191232 167.172 0.0553831 167.739 0.149759C168.306 0.244134 168.812 0.561089 169.149 1.03159C169.48 1.50528 169.611 2.09245 169.514 2.66391C169.416 3.23538 169.098 3.74434 168.63 4.07883L157.542 11.9999L168.615 19.9179C168.848 20.0824 169.047 20.2917 169.2 20.5339C169.353 20.7762 169.457 21.0465 169.507 21.3295C169.557 21.6126 169.551 21.9027 169.489 22.1834C169.428 22.464 169.312 22.7297 169.149 22.9651C168.812 23.4303 168.31 23.745 167.749 23.8429C167.187 23.9409 166.61 23.8143 166.138 23.49L154.529 15.1911V21.6634C154.529 21.9478 154.474 22.2294 154.366 22.4921C154.259 22.7549 154.101 22.9935 153.902 23.1945C153.703 23.3954 153.467 23.5546 153.207 23.663C152.947 23.7713 152.668 23.8267 152.387 23.8259C151.817 23.8275 151.27 23.6008 150.866 23.1956C150.461 22.7903 150.231 22.2394 150.228 21.6634V2.39625C150.231 1.81813 150.459 1.26459 150.863 0.855797C151.268 0.447001 151.815 0.215947 152.387 0.212797Z" fill="#007EC4"/>
<path d="M146.543 2.51933V21.4836C146.543 22.139 146.286 22.7677 145.828 23.2311C145.369 23.6946 144.747 23.955 144.099 23.955C143.451 23.955 142.829 23.6946 142.371 23.2311C141.913 22.7677 141.655 22.139 141.655 21.4836V14.8852C140.128 15.2066 138.572 15.3654 137.013 15.3591C134.013 15.3591 131.739 14.6973 130.191 13.3736C128.642 12.05 127.844 10.1344 127.797 7.62706V2.52833C127.797 1.87288 128.054 1.24427 128.513 0.780799C128.971 0.317325 129.593 0.056948 130.241 0.056948C130.884 0.0624679 131.499 0.324048 131.953 0.784983C132.406 1.24592 132.662 1.86906 132.664 2.51933V7.53708C132.676 8.90474 133.004 9.88949 133.646 10.4913C134.289 11.0932 135.407 11.3931 137.001 11.3911C138.561 11.3964 140.117 11.2366 141.643 10.9142V2.51633C141.643 2.19179 141.706 1.87042 141.829 1.57058C141.952 1.27073 142.132 0.998291 142.359 0.768802C142.586 0.539313 142.855 0.357272 143.152 0.233074C143.449 0.108875 143.766 0.044951 144.087 0.044951C144.41 0.0433692 144.729 0.106225 145.027 0.229903C145.325 0.353581 145.596 0.53564 145.824 0.765604C146.053 0.995569 146.234 1.2689 146.357 1.56987C146.48 1.87085 146.544 2.19352 146.543 2.51933Z" fill="#007EC4"/>
<path fill-rule="evenodd" clip-rule="evenodd" d="M108.401 0.773705C104.984 1.91042 103.999 3.15211 103.892 7.47703C103.83 9.83444 103.687 16.8467 104.076 18.8142C105.242 24.4408 115.597 24.6267 120.791 23.0761C124.128 22.0624 124.78 20.6317 124.842 16.4778C124.905 13.3976 124.884 10.6442 124.905 8.32882C124.925 3.73397 123.881 0.941663 118.951 0.383803C115.84 0.0118956 111.177 -0.135068 108.415 0.776705L108.401 0.773705ZM120.817 17.3866V7.10512C120.9 4.20785 116.623 4.57975 114.517 4.57975C112.165 4.60075 108.051 4.33082 108.051 7.10512V17.4075C108.051 18.8532 109.851 19.3931 111.907 19.537C114.096 19.681 116.549 19.435 117.542 19.3721C119.465 19.2281 120.713 18.6882 120.805 17.3866H120.817Z" fill="#007EC4"/>
</g>
<defs>
<clipPath id="clip0">
<rect width="196.8" height="24" fill="white"/>
</clipPath>
</defs>
</svg>
