<svg width="150" height="150" viewBox="0 0 150 150" fill="none" xmlns="http://www.w3.org/2000/svg">
<path d="M132.111 135.548H21.8885C13.3976 135.548 6.45223 128.62 6.45223 120.172V34.8277C6.45223 26.3801 13.3976 19.4522 21.8885 19.4522H132.109C140.603 19.4522 147.548 26.3802 147.548 34.8277V120.172C147.548 128.62 140.602 135.548 132.111 135.548Z" fill="#0070C0" stroke="#0070C0" stroke-width="2.90447"/>
<path d="M127.111 130.548H16.8885C8.3976 130.548 1.45223 123.62 1.45223 115.172V29.8277C1.45223 21.3801 8.3976 14.4522 16.8885 14.4522H127.109C135.603 14.4522 142.548 21.3802 142.548 29.8277V115.172C142.548 123.62 135.602 130.548 127.111 130.548Z" fill="white" stroke="#0070C0" stroke-width="2.90447"/>
<path d="M39.9292 77.4345C41.8492 77.4345 43.3132 78.0105 44.3212 79.1625C45.3532 80.2905 45.8692 82.1265 45.8692 84.6705V93.5265C45.8692 94.2225 45.6532 94.7625 45.2212 95.1465C44.8132 95.5065 44.2732 95.6865 43.6012 95.6865C42.9532 95.6865 42.4132 95.5065 41.9812 95.1465C41.5732 94.7625 41.3692 94.2225 41.3692 93.5265V84.6705C41.3692 83.3505 41.1292 82.4145 40.6492 81.8625C40.1932 81.2865 39.4852 80.9985 38.5252 80.9985C37.3492 80.9985 36.4132 81.4065 35.7172 82.2225C35.0212 83.0145 34.6732 84.1065 34.6732 85.4985V93.5265C34.6732 94.2225 34.4572 94.7625 34.0252 95.1465C33.6172 95.5065 33.0892 95.6865 32.4412 95.6865C31.7932 95.6865 31.2532 95.5065 30.8212 95.1465C30.3892 94.7625 30.1732 94.2225 30.1732 93.5265V84.6705C30.1732 83.3505 29.9332 82.4145 29.4532 81.8625C28.9972 81.2865 28.2892 80.9985 27.3292 80.9985C26.1532 80.9985 25.2172 81.4065 24.5212 82.2225C23.8492 83.0145 23.5132 84.1065 23.5132 85.4985V93.5265C23.5132 94.2225 23.2972 94.7625 22.8652 95.1465C22.4332 95.5065 21.8932 95.6865 21.2452 95.6865C20.5972 95.6865 20.0572 95.5065 19.6252 95.1465C19.2172 94.7625 19.0132 94.2225 19.0132 93.5265V79.5945C19.0132 78.9225 19.2292 78.4065 19.6612 78.0465C20.0932 77.6865 20.6332 77.5065 21.2812 77.5065C21.9052 77.5065 22.4092 77.6865 22.7932 78.0465C23.2012 78.3825 23.4052 78.8745 23.4052 79.5225V80.3865C23.9572 79.4265 24.6892 78.6945 25.6012 78.1905C26.5372 77.6865 27.6052 77.4345 28.8052 77.4345C31.4452 77.4345 33.2092 78.5385 34.0972 80.7465C34.6252 79.7385 35.4052 78.9345 36.4372 78.3345C37.4692 77.7345 38.6332 77.4345 39.9292 77.4345ZM59.2269 92.3385C60.4269 92.4105 61.0269 92.9505 61.0269 93.9585C61.0269 94.5345 60.7869 94.9785 60.3069 95.2905C59.8509 95.5785 59.1909 95.6985 58.3269 95.6505L57.3549 95.5785C53.3229 95.2905 51.3069 93.1305 51.3069 89.0985V81.2505H49.5069C48.8589 81.2505 48.3549 81.1065 47.9949 80.8185C47.6589 80.5305 47.4909 80.1105 47.4909 79.5585C47.4909 79.0065 47.6589 78.5865 47.9949 78.2985C48.3549 78.0105 48.8589 77.8665 49.5069 77.8665H51.3069V74.5545C51.3069 73.9065 51.5109 73.3905 51.9189 73.0065C52.3269 72.6225 52.8789 72.4305 53.5749 72.4305C54.2469 72.4305 54.7869 72.6225 55.1949 73.0065C55.6029 73.3905 55.8069 73.9065 55.8069 74.5545V77.8665H58.8669C59.5149 77.8665 60.0069 78.0105 60.3429 78.2985C60.7029 78.5865 60.8829 79.0065 60.8829 79.5585C60.8829 80.1105 60.7029 80.5305 60.3429 80.8185C60.0069 81.1065 59.5149 81.2505 58.8669 81.2505H55.8069V89.4225C55.8069 91.1985 56.6229 92.1465 58.2549 92.2665L59.2269 92.3385ZM65.8391 95.6865C65.0711 95.6865 64.4351 95.4345 63.9311 94.9305C63.4271 94.4025 63.1751 93.7545 63.1751 92.9865C63.1751 92.2185 63.4271 91.5825 63.9311 91.0785C64.4351 90.5505 65.0711 90.2865 65.8391 90.2865C66.6071 90.2865 67.2431 90.5505 67.7471 91.0785C68.2511 91.5825 68.5031 92.2185 68.5031 92.9865C68.5031 93.7545 68.2511 94.4025 67.7471 94.9305C67.2431 95.4345 66.6071 95.6865 65.8391 95.6865ZM74.5168 95.6865C73.8688 95.6865 73.3288 95.5065 72.8968 95.1465C72.4888 94.7625 72.2848 94.2225 72.2848 93.5265V72.0345C72.2848 71.3385 72.4888 70.8105 72.8968 70.4505C73.3288 70.0905 73.8688 69.9105 74.5168 69.9105C75.1648 69.9105 75.7048 70.0905 76.1368 70.4505C76.5688 70.8105 76.7848 71.3385 76.7848 72.0345V93.5265C76.7848 94.2225 76.5688 94.7625 76.1368 95.1465C75.7048 95.5065 75.1648 95.6865 74.5168 95.6865ZM83.2974 95.6865C82.6494 95.6865 82.1094 95.5065 81.6774 95.1465C81.2694 94.7625 81.0654 94.2225 81.0654 93.5265V79.6305C81.0654 78.9345 81.2694 78.4065 81.6774 78.0465C82.1094 77.6865 82.6494 77.5065 83.2974 77.5065C83.9454 77.5065 84.4854 77.6865 84.9174 78.0465C85.3494 78.4065 85.5654 78.9345 85.5654 79.6305V93.5265C85.5654 94.2225 85.3494 94.7625 84.9174 95.1465C84.4854 95.5065 83.9454 95.6865 83.2974 95.6865ZM83.2974 74.3025C82.4814 74.3025 81.8334 74.0865 81.3534 73.6545C80.8734 73.1985 80.6334 72.6105 80.6334 71.8905C80.6334 71.1705 80.8734 70.5945 81.3534 70.1625C81.8334 69.7305 82.4814 69.5145 83.2974 69.5145C84.0894 69.5145 84.7254 69.7305 85.2054 70.1625C85.7094 70.5945 85.9614 71.1705 85.9614 71.8905C85.9614 72.6105 85.7214 73.1985 85.2414 73.6545C84.7614 74.0865 84.1134 74.3025 83.2974 74.3025ZM100.07 77.4345C102.182 77.4345 103.754 78.0345 104.786 79.2345C105.818 80.4345 106.334 82.2465 106.334 84.6705V93.5265C106.334 94.1985 106.13 94.7265 105.722 95.1105C105.338 95.4945 104.798 95.6865 104.102 95.6865C103.406 95.6865 102.854 95.4945 102.446 95.1105C102.038 94.7265 101.834 94.1985 101.834 93.5265V84.9225C101.834 83.5545 101.57 82.5585 101.042 81.9345C100.538 81.3105 99.734 80.9985 98.63 80.9985C97.334 80.9985 96.29 81.4065 95.498 82.2225C94.73 83.0385 94.346 84.1305 94.346 85.4985V93.5265C94.346 94.1985 94.142 94.7265 93.734 95.1105C93.326 95.4945 92.774 95.6865 92.078 95.6865C91.382 95.6865 90.83 95.4945 90.422 95.1105C90.038 94.7265 89.846 94.1985 89.846 93.5265V79.5945C89.846 78.9705 90.05 78.4665 90.458 78.0825C90.866 77.6985 91.418 77.5065 92.114 77.5065C92.738 77.5065 93.242 77.6985 93.626 78.0825C94.034 78.4425 94.238 78.9225 94.238 79.5225V80.4945C94.838 79.5105 95.642 78.7545 96.65 78.2265C97.658 77.6985 98.798 77.4345 100.07 77.4345ZM126.205 91.9785C126.685 92.4345 126.925 92.9505 126.925 93.5265C126.925 94.0785 126.721 94.5705 126.313 95.0025C125.929 95.4345 125.473 95.6505 124.945 95.6505C124.417 95.6505 123.925 95.4345 123.469 95.0025L115.045 87.3705V93.5265C115.045 94.2225 114.829 94.7505 114.397 95.1105C113.965 95.4705 113.425 95.6505 112.777 95.6505C112.129 95.6505 111.589 95.4705 111.157 95.1105C110.749 94.7505 110.545 94.2225 110.545 93.5265V72.0345C110.545 71.3385 110.749 70.8105 111.157 70.4505C111.589 70.0905 112.129 69.9105 112.777 69.9105C113.425 69.9105 113.965 70.0905 114.397 70.4505C114.829 70.8105 115.045 71.3385 115.045 72.0345V85.5705L122.749 78.1905C123.181 77.7585 123.673 77.5425 124.225 77.5425C124.777 77.5425 125.257 77.7465 125.665 78.1545C126.073 78.5625 126.277 79.0425 126.277 79.5945C126.277 80.1465 126.049 80.6505 125.593 81.1065L119.941 86.3625L126.205 91.9785Z" fill="#0070C0"/>
<path d="M16 30C17.6569 30 19 28.6569 19 27C19 25.3431 17.6569 24 16 24C14.3431 24 13 25.3431 13 27C13 28.6569 14.3431 30 16 30Z" fill="#117DC1"/>
<path d="M27 30C28.6569 30 30 28.6569 30 27C30 25.3431 28.6569 24 27 24C25.3431 24 24 25.3431 24 27C24 28.6569 25.3431 30 27 30Z" fill="#117DC1"/>
<path d="M38 30C39.6569 30 41 28.6569 41 27C41 25.3431 39.6569 24 38 24C36.3431 24 35 25.3431 35 27C35 28.6569 36.3431 30 38 30Z" fill="#117DC1"/>
<line x1="2" y1="38.5" x2="143" y2="38.5" stroke="#0070C0" stroke-width="3"/>
</svg>
