<svg width="150" height="150" viewBox="0 0 150 150" fill="none" xmlns="http://www.w3.org/2000/svg">
<path fill-rule="evenodd" clip-rule="evenodd" d="M118.123 26.3026C124.375 20.5631 133.933 21.1068 139.463 27.511C144.994 33.9151 144.453 43.8235 138.261 49.563L82.4153 130.3C79.2293 133.26 75.2016 134.589 71.2942 134.287C70.4959 134.246 69.6276 134.26 68.7309 134.275C65.7111 134.324 62.3679 134.379 60.2821 132.329L25.0067 92.2172C18.9352 86.2964 17.2309 76.3375 22.9418 70.0542C23.239 69.7241 23.5466 69.4103 23.8636 69.1129L20.7221 65.0892L32.2423 65.186C36.4947 64.6819 40.9223 66.0527 44.2821 69.3292L72.4965 95.5401L118.123 26.3026Z" fill="#117DC1"/>
<path d="M59.7821 95.3292C61.03 96.1615 61.0302 96.1613 61.0305 96.1608L61.0321 96.1585L61.0382 96.1493L61.0626 96.1127L61.1591 95.9681L61.5363 95.403C61.8671 94.9074 62.3532 94.1797 62.9742 93.2508C64.216 91.393 65.9971 88.7307 68.154 85.5132C72.4679 79.0781 78.2848 70.4225 84.2968 61.54C90.3095 52.6567 96.5151 43.5497 101.607 36.2106C106.727 28.8314 110.658 23.333 112.159 21.5872C114.951 18.3409 118.509 17.2034 122.037 17.5639C125.611 17.9292 129.204 19.8452 131.863 22.8081C134.365 25.6284 135.13 29.175 134.717 32.807C134.301 36.4616 132.693 40.1143 130.582 42.9292L130.562 42.956L130.543 42.9837L71.91 128.907C68.9994 131.428 65.2626 132.58 61.6938 132.313L61.6754 132.312L61.657 132.311C58.3984 132.148 55.2588 130.903 52.7073 128.514L52.6992 128.507L11.9108 90.8775C11.909 90.8757 11.9071 90.874 11.9052 90.8722C6.27257 85.5588 6.00465 76.6721 11.3138 71.0379C16.6266 65.3998 25.5173 65.13 31.1534 70.4409L31.154 70.4414L58.754 96.4214L60.0457 97.6373L61.03 96.1615L59.7821 95.3292Z" fill="white" stroke="#117DC1" stroke-width="3"/>
</svg>
