<svg width="40" height="40" viewBox="0 0 40 40" fill="none" xmlns="http://www.w3.org/2000/svg">
<path d="M0 8C0 3.58172 3.58172 0 8 0H32C36.4183 0 40 3.58172 40 8V32C40 36.4183 36.4183 40 32 40H8C3.58172 40 0 36.4183 0 32V8Z" fill="#F7F7F7"/>
<g clip-path="url(#clip0_9318:9812)">
<path d="M31.2218 22.6729C30.7324 19.8967 28.167 18.0285 25.4918 18.5001C22.8166 18.9717 21.0447 21.6045 21.5341 24.3806C22.0234 27.1568 24.5888 29.025 27.264 28.5534C29.9392 28.0818 31.7112 25.449 31.2218 22.6729Z" fill="white"/>
<path d="M26.4273 29.327C23.6895 29.327 21.3229 27.3085 20.8357 24.5011C20.2789 21.3689 22.3206 18.3527 25.36 17.8191C25.6848 17.7727 25.9864 17.7263 26.3113 17.7263C29.049 17.7263 31.4156 19.7448 31.9028 22.5522C32.1812 24.0835 31.8564 25.6148 30.998 26.8677C30.1395 28.1438 28.8634 28.979 27.3785 29.2342C27.0769 29.3038 26.7521 29.327 26.4273 29.327ZM26.3113 19.1184C26.0792 19.1184 25.8472 19.1416 25.592 19.188C23.2951 19.5824 21.7638 21.8794 22.2046 24.2691C22.5758 26.4037 24.3623 27.935 26.4273 27.935C26.6593 27.935 26.8913 27.9118 27.1465 27.8654C28.2602 27.6797 29.2114 27.0301 29.8611 26.0788C30.5107 25.1276 30.7427 23.9443 30.5571 22.7842C30.1627 20.6729 28.3994 19.1184 26.3113 19.1184Z" fill="#949494"/>
<path d="M27.9122 21.0209C27.7962 20.9281 27.6338 20.8817 27.4946 20.8817C27.2626 20.8817 27.0306 20.9977 26.8914 21.2065L24.664 25.0116C24.432 25.3364 24.5248 25.8004 24.8497 26.0324C24.9657 26.1253 25.1281 26.1717 25.2673 26.1717C25.4993 26.1717 25.7313 26.0556 25.8705 25.8468L28.0979 22.0418C28.3299 21.717 28.2371 21.2529 27.9122 21.0209Z" fill="#DCDCDC"/>
<path d="M9.18842 22.7378L14.6176 13.2948C15.6848 11.4387 18.0282 10.8122 19.8843 11.8795L19.9075 11.9027C21.7404 12.9699 22.39 15.3365 21.3228 17.1694L15.8936 26.6124C14.8264 28.4685 12.483 29.095 10.6269 28.0277L10.6037 28.0045C8.77079 26.9372 8.14435 24.5707 9.18842 22.7378Z" fill="white"/>
<path d="M15.9168 26.5892L18.6314 21.9025L11.9262 18.0279L9.21159 22.7146C8.14432 24.5707 8.77076 26.9372 10.6269 28.0045C12.483 29.0949 14.8495 28.4453 15.9168 26.5892Z" fill="#DCDCDC"/>
<path d="M12.5759 29.2343C11.7871 29.2343 10.9982 29.0254 10.3022 28.631L10.279 28.6078C8.09806 27.3549 7.35561 24.5708 8.60849 22.3898L14.0376 12.9468C14.8497 11.5315 16.3578 10.6731 17.9819 10.6731C18.7707 10.6731 19.5596 10.8819 20.2556 11.2763L20.2788 11.2995C22.4598 12.5524 23.2022 15.3366 21.9493 17.5175L16.5202 26.9605C15.6849 28.3758 14.1768 29.2343 12.5759 29.2343ZM17.9819 12.0652C16.845 12.0652 15.8009 12.6684 15.2441 13.6429L9.79177 23.0859C8.91011 24.594 9.44374 26.5429 10.9518 27.4013L10.975 27.4245C11.4623 27.703 11.9959 27.8422 12.5527 27.8422C13.6896 27.8422 14.7337 27.2389 15.2905 26.2645L20.7428 16.8215C21.6245 15.3134 21.0909 13.3644 19.5828 12.506L19.5596 12.4828C19.0723 12.2044 18.5155 12.0652 17.9819 12.0652Z" fill="#949494"/>
<path opacity="0.8" d="M10.8823 24.3851C10.7662 24.3851 10.6502 24.3619 10.5342 24.2923C10.2094 24.1067 10.0934 23.6659 10.279 23.341L15.7082 13.9444C15.8938 13.6196 16.3346 13.5036 16.6594 13.6892C16.9842 13.8748 17.1002 14.3157 16.9146 14.6405L11.4855 24.0371C11.3695 24.2691 11.1143 24.3851 10.8823 24.3851Z" fill="white"/>
</g>
<defs>
<clipPath id="clip0_9318:9812">
<rect width="24" height="24" fill="white" transform="translate(8 8)"/>
</clipPath>
</defs>
</svg>
