<svg width="200" height="200" viewBox="0 0 200 200" fill="none" xmlns="http://www.w3.org/2000/svg">
<rect width="200" height="200" rx="4" fill="white"/>
<path d="M60 68C60 63.5817 63.5817 60 68 60H132C136.418 60 140 63.5817 140 68V132C140 136.418 136.418 140 132 140H68C63.5817 140 60 136.418 60 132V68Z" fill="white"/>
<g clip-path="url(#clip0_2956_36370)">
<path fill-rule="evenodd" clip-rule="evenodd" d="M76.0001 94.4057L75.9999 113.782C75.9999 117.762 79.1399 121 82.9999 121H117C120.86 121 124 117.762 124 113.782L124 94.4057C124 90.4253 120.86 87.1872 117 87.1872H111C110.57 87.1872 110.188 86.9046 110.052 86.4819L109.42 84.5267C108.738 82.4169 106.832 81 104.676 81H95.324C93.168 81 91.262 82.4169 90.582 84.5247L89.9501 86.4819C89.8121 86.9046 89.43 87.1872 89.0001 87.1872H83.0001C79.1401 87.1872 76.0001 90.4253 76.0001 94.4057ZM107.673 87.2493C108.13 88.6685 109.447 89.6872 111 89.6872H117C119.407 89.6872 121.5 91.733 121.5 94.4057L121.5 113.782C121.5 116.454 119.407 118.5 117 118.5H82.9999C80.5925 118.5 78.4999 116.454 78.4999 113.782L78.5001 94.4057C78.5001 91.733 80.5927 89.6872 83.0001 89.6872H89.0001C90.5549 89.6872 91.8665 88.6673 92.3267 87.2577L92.9611 85.2929C93.3205 84.1788 94.2933 83.5 95.324 83.5H104.676C105.706 83.5 106.68 84.1774 107.041 85.2956C107.041 85.2956 107.041 85.2956 107.041 85.2956L107.672 87.2476C107.672 87.2482 107.673 87.2488 107.673 87.2493Z" fill="#949494"/>
<circle cx="99.5" cy="102.5" r="10.5" fill="white"/>
<path fill-rule="evenodd" clip-rule="evenodd" d="M100 91C93.3818 91 88 96.3818 88 103C88 109.618 93.3818 115 100 115C106.618 115 112 109.618 112 103C112 96.3818 106.618 91 100 91ZM91.9123 108.451C90.8593 106.894 90.2439 105.017 90.2439 103C90.2439 97.6205 94.6205 93.2439 100 93.2439C105.38 93.2439 109.756 97.6205 109.756 103C109.756 108.38 105.38 112.756 100 112.756C97.3102 112.756 94.8712 111.662 93.1046 109.895C92.663 109.454 92.2633 108.97 91.9123 108.451Z" fill="#949494"/>
<path fill-rule="evenodd" clip-rule="evenodd" d="M100.5 95.0442C95.9223 95.0442 92.2 98.7665 92.2 103.344C92.2 104.062 92.7824 104.644 93.5 104.644C94.2178 104.644 94.8 104.062 94.8 103.344C94.8 100.202 97.3577 97.6442 100.5 97.6442C101.218 97.6442 101.8 97.0619 101.8 96.3442C101.8 95.6264 101.218 95.0442 100.5 95.0442ZM101.421 95.9551C101.472 96.0747 101.5 96.2062 101.5 96.3442C101.5 96.8962 101.052 97.3442 100.5 97.3442C97.192 97.3442 94.5 100.036 94.5 103.344C94.5 103.896 94.052 104.344 93.5 104.344C93.3026 104.344 93.1185 104.287 92.9634 104.188C93.1185 104.287 93.3026 104.344 93.5 104.344C94.052 104.344 94.5 103.896 94.5 103.344C94.5 100.036 97.192 97.3442 100.5 97.3442C101.052 97.3442 101.5 96.8962 101.5 96.3442C101.5 96.2062 101.472 96.0747 101.421 95.9551Z" fill="#949494"/>
</g>
<defs>
<clipPath id="clip0_2956_36370">
<rect width="48" height="48" fill="white" transform="translate(76 76)"/>
</clipPath>
</defs>
</svg>
