<svg width="40" height="40" viewBox="0 0 40 40" fill="none" xmlns="http://www.w3.org/2000/svg">
<path d="M0 8C0 3.58172 3.58172 0 8 0H32C36.4183 0 40 3.58172 40 8V32C40 36.4183 36.4183 40 32 40H8C3.58172 40 0 36.4183 0 32V8Z" fill="#F7F7F7"/>
<g clip-path="url(#clip0)">
<path d="M22.866 26.6288C22.8234 26.6288 22.8234 26.6288 22.8021 26.6288C22.7808 26.6288 22.7595 26.6288 22.7382 26.6288H22.7168C22.7168 26.6288 22.6955 26.6288 22.6955 26.6501H22.6742L19.9887 27.7584L17.3245 26.6714C17.2605 26.6501 17.1966 26.6288 17.1113 26.6288V26.5009C18.0278 25.9467 19.0509 24.9449 19.9887 23.1545C20.0952 23.3463 20.1805 23.5382 20.2871 23.7087C21.1396 25.1581 22.0348 26.0106 22.866 26.5009V26.6288Z" fill="#E4EBF1"/>
<path d="M22.5463 27.3748C22.2266 28.5045 20.9052 29.1439 19.9461 29.2718V29.2931C19.7969 29.2931 19.5411 29.2718 19.5198 29.2718C18.6033 29.1013 17.7507 28.4832 17.4523 27.3961L12.7207 29.3144C12.7207 29.4849 12.742 29.6341 12.7846 29.7833C14.8094 31.1688 17.3032 32 19.9887 32C22.7382 32 25.2745 31.1262 27.3632 29.6555C27.3419 29.5276 27.3206 29.3997 27.278 29.2931L22.5463 27.3748Z" fill="white"/>
<path d="M22.5464 26.1386V27.524C21.8004 30.0817 18.1771 30.0817 17.4524 27.524V26.1386" fill="#F7F7F7"/>
<path d="M26.8731 17.1652C26.8731 11.5382 24.081 8.66075 19.9888 8.66075C15.8966 8.66075 13.1045 11.5382 13.1045 17.1652C11.783 17.2718 12.0814 20.2771 13.5734 20.1066C13.9996 21.3215 14.4685 22.3233 14.9588 23.1758C16.6639 26.032 18.5821 26.8632 19.9888 26.8632C21.8005 26.8632 24.486 25.4565 26.3829 20.0853C27.8962 20.2558 28.1946 17.2505 26.8731 17.1652Z" fill="#F7F7F7"/>
<path d="M18.4968 21.1084C17.4737 22.0888 16.5572 23.389 15.7473 24.2842C17.218 26.2451 18.7952 26.8632 19.9887 26.8632C21.1823 26.8632 22.7595 26.2451 24.2302 24.2842C23.4203 23.389 22.5038 22.0888 21.4807 21.1084C20.6495 20.2984 19.328 20.2984 18.4968 21.1084Z" fill="white"/>
<path d="M19.9886 27.5027C18.795 27.5027 16.4931 26.9698 14.4257 23.4743C13.8928 22.5578 13.4026 21.492 12.9763 20.2984C12.8485 19.9574 13.0403 19.5951 13.36 19.4885C13.701 19.3606 14.0633 19.5524 14.1699 19.8721C14.5749 20.9805 15.0225 21.9823 15.5127 22.8348C17.2604 25.7975 19.0507 26.2452 19.9672 26.2452C21.0329 26.2452 23.7185 25.627 25.7646 19.8935C25.8925 19.5524 26.2548 19.3819 26.5745 19.5098C26.9155 19.6377 27.086 20 26.9581 20.3197C24.6776 26.7993 21.3313 27.5027 19.9886 27.5027Z" fill="#CCCCCC"/>
<path d="M26.8731 17.8046C26.5108 17.8046 26.2337 17.5275 26.2337 17.1652C26.2337 12.1776 23.9531 9.30018 19.9888 9.30018C17.1754 9.30018 15.2145 10.7282 14.298 13.4139C13.957 14.4156 13.7865 15.5666 13.7438 16.8668C13.7438 17.2078 13.4455 17.4849 13.1044 17.4849C13.1044 17.4849 13.1044 17.4849 13.0831 17.4849C12.7208 17.4849 12.4437 17.1865 12.465 16.8242C12.4863 15.3961 12.6995 14.1172 13.0831 12.9876C14.1701 9.79041 16.6212 8.02132 19.9888 8.02132C24.6991 8.02132 27.5125 11.4316 27.5125 17.1652C27.5125 17.5062 27.2141 17.8046 26.8731 17.8046Z" fill="#CCCCCC"/>
<path d="M12.7421 30.0817C12.4863 30.0817 12.2519 29.9325 12.1453 29.6767C12.0174 29.357 12.1666 28.9734 12.4863 28.8455L17.1966 26.9272C17.5163 26.7993 17.9 26.9485 18.0279 27.2682C18.1558 27.5879 18.0066 27.9716 17.6868 28.0995L12.9765 30.0178C12.8913 30.0817 12.806 30.0817 12.7421 30.0817Z" fill="#CCCCCC"/>
<path d="M27.2569 30.0817C27.1717 30.0817 27.0864 30.0604 27.0225 30.0391L22.3121 28.1208C21.9924 27.9929 21.8219 27.6092 21.9711 27.2895C22.099 26.9698 22.4826 26.7993 22.8024 26.9485L27.5127 28.8668C27.8324 28.9947 28.0029 29.3783 27.8537 29.698C27.7471 29.9325 27.4914 30.0817 27.2569 30.0817Z" fill="#CCCCCC"/>
<path d="M19.9889 30.0817C18.4756 30.0817 17.2395 29.1438 16.8345 27.6945C16.7279 27.3534 16.9411 26.9911 17.2821 26.9058C17.6231 26.7993 17.9854 27.0124 18.0707 27.3534C18.3904 28.4405 19.2643 28.8241 20.0102 28.8241C20.7562 28.8241 21.6301 28.4405 21.9498 27.3534L23.186 27.7158C22.7384 29.1438 21.5022 30.0817 19.9889 30.0817Z" fill="#CCCCCC"/>
<path d="M13.4667 20.746C12.9339 20.746 12.4437 20.4902 12.1027 20C11.5911 19.2753 11.4846 18.167 11.8469 17.3996C12.0813 16.8881 12.5289 16.5471 13.0831 16.5258C13.4454 16.5044 13.7438 16.7602 13.7651 17.1226C13.7864 17.4849 13.5307 17.7833 13.1683 17.8046C13.1257 17.8046 13.0831 17.8046 12.9978 17.9538C12.8273 18.2949 12.9126 18.9343 13.147 19.2753C13.2962 19.4671 13.4241 19.4885 13.5307 19.4671C13.8717 19.4245 14.1914 19.6803 14.234 20.0213C14.2766 20.3623 14.0209 20.6821 13.6799 20.7247C13.5946 20.7247 13.5307 20.746 13.4667 20.746Z" fill="#CCCCCC"/>
<path d="M26.5106 20.746C26.4467 20.746 26.3828 20.746 26.3188 20.746C25.9778 20.7034 25.722 20.3837 25.7647 20.0426C25.8073 19.7016 26.127 19.4458 26.468 19.4885C26.5746 19.5098 26.7025 19.4885 26.8517 19.2966C27.0861 18.9556 27.1714 18.3375 27.0009 17.9752C26.9369 17.826 26.873 17.826 26.8303 17.826C26.468 17.8046 26.2122 17.4849 26.2336 17.1439C26.2549 16.7816 26.5746 16.5258 26.9156 16.5471C27.4484 16.5897 27.896 16.9094 28.1518 17.421C28.5141 18.1883 28.4076 19.318 27.896 20.0213C27.5337 20.4689 27.0435 20.746 26.5106 20.746Z" fill="#CCCCCC"/>
<path d="M26.8732 17.1652H13.1045L13.3816 11.6661C13.4668 9.96092 14.8735 8.61812 16.5786 8.61812H23.399C25.1041 8.61812 26.5108 9.96092 26.5961 11.6661L26.8732 17.1652Z" fill="white"/>
<path d="M26.8731 17.8046C26.5321 17.8046 26.255 17.5488 26.2337 17.1865L25.9566 11.7087C25.8927 10.3446 24.763 9.27886 23.399 9.27886H16.5786C15.2145 9.27886 14.0849 10.3446 14.0209 11.7087L13.7439 17.1865C13.7225 17.5488 13.4242 17.8046 13.0831 17.7833C12.7208 17.762 12.465 17.4636 12.4863 17.1226L12.7421 11.6448C12.8487 9.59858 14.5325 8 16.5786 8H23.399C25.4451 8 27.1289 9.59858 27.2354 11.6448L27.5125 17.1226C27.5338 17.4849 27.2568 17.7833 26.9157 17.7833C26.8944 17.8046 26.8731 17.8046 26.8731 17.8046Z" fill="#CCCCCC"/>
<path d="M20.628 11.389H19.3491V14.5862H20.628V11.389Z" fill="#CCCCCC"/>
<path d="M21.5872 12.3482H18.3901V13.627H21.5872V12.3482Z" fill="#CCCCCC"/>
</g>
<defs>
<clipPath id="clip0">
<rect width="23.9992" height="24" fill="white" transform="translate(7.99976 8)"/>
</clipPath>
</defs>
</svg>
