<svg width="40" height="40" viewBox="0 0 40 40" fill="none" xmlns="http://www.w3.org/2000/svg">
<path d="M0 8C0 3.58172 3.58172 0 8 0H32C36.4183 0 40 3.58172 40 8V32C40 36.4183 36.4183 40 32 40H8C3.58172 40 0 36.4183 0 32V8Z" fill="#F7F7F7"/>
<g clip-path="url(#clip0)">
<path d="M29.3515 11.3103H26.1653V31.3793H29.3515V11.3103Z" fill="white"/>
<g opacity="0.1">
<path opacity="0.1" d="M29.3515 11.3103H26.1653V31.3793H29.3515V11.3103Z" fill="#CCCCCC"/>
</g>
<path d="M29.3516 32H26.1654C25.8136 32 25.5447 31.7311 25.5447 31.3793V11.3104C25.5447 10.9586 25.8136 10.6897 26.1654 10.6897H29.3516C29.7033 10.6897 29.9723 10.9586 29.9723 11.3104V31.3793C29.9723 31.7311 29.7033 32 29.3516 32ZM26.7861 30.7586H28.7309V11.9311H26.7861V30.7586Z" fill="#CCCCCC"/>
<path d="M26.2482 11.3103H10.6482V31.3793H26.2482V11.3103Z" fill="white"/>
<path d="M23.331 24.531H13.5862V31.3793H23.331V24.531Z" fill="#E6E6E6"/>
<path d="M17.4758 17.4345H13.5862V21.6965H17.4758V17.4345Z" fill="#E6E6E6"/>
<path d="M17.4759 22.338H13.5863C13.2345 22.338 12.9656 22.069 12.9656 21.7173V17.4345C12.9656 17.0828 13.2345 16.8138 13.5863 16.8138H17.4759C17.8276 16.8138 18.0966 17.0828 18.0966 17.4345V21.6966C18.0966 22.0483 17.8276 22.338 17.4759 22.338ZM14.207 21.0966H16.8552V18.0552H14.207V21.0966Z" fill="#CCCCCC"/>
<path d="M23.3105 17.4345H19.4209V21.6965H23.3105V17.4345Z" fill="#E6E6E6"/>
<path d="M23.3308 22.3379H19.4205C19.0688 22.3379 18.7998 22.069 18.7998 21.7173V17.4345C18.7998 17.0828 19.0688 16.8138 19.4205 16.8138H23.3102C23.6619 16.8138 23.9308 17.0828 23.9308 17.4345V21.6966C23.9515 22.0483 23.6619 22.3379 23.3308 22.3379ZM20.0412 21.0966H22.6895V18.0552H20.0412V21.0966Z" fill="#CCCCCC"/>
<path d="M23.3308 32H13.586C13.2343 32 12.9653 31.731 12.9653 31.3793V24.531C12.9653 24.1793 13.2343 23.9103 13.586 23.9103H23.3308C23.6826 23.9103 23.9515 24.1793 23.9515 24.531V31.3793C23.9515 31.731 23.6619 32 23.3308 32ZM14.2067 30.7586H22.7102V25.1517H14.2067V30.7586Z" fill="#CCCCCC"/>
<path d="M18.4481 32C18.0964 32 17.8274 31.731 17.8274 31.3793V24.531C17.8274 24.1793 18.0964 23.9103 18.4481 23.9103C18.7998 23.9103 19.0688 24.1793 19.0688 24.531V31.3793C19.0688 31.731 18.7998 32 18.4481 32Z" fill="#CCCCCC"/>
<path d="M26.248 32H10.648C10.2963 32 10.0273 31.7311 10.0273 31.3793V11.3104C10.0273 10.9586 10.2963 10.6897 10.648 10.6897H26.248C26.5998 10.6897 26.8687 10.9586 26.8687 11.3104V31.3793C26.8687 31.7311 26.5998 32 26.248 32ZM11.2687 30.7586H25.6273V11.9311H11.2687V30.7586Z" fill="#CCCCCC"/>
<path opacity="0.3" d="M30.3243 11.3103H9.67603V14.5172H30.3243V11.3103Z" fill="#E6E6E6"/>
<g opacity="0.2">
<path opacity="0.2" d="M30.3243 11.3103H27.2622V14.5172H30.3243V11.3103Z" fill="#CCCCCC"/>
</g>
<path d="M30.3241 15.1379H9.67587C9.32414 15.1379 9.05518 14.869 9.05518 14.5173V11.3104C9.05518 10.9586 9.32414 10.6897 9.67587 10.6897H30.3241C30.6759 10.6897 30.9448 10.9586 30.9448 11.3104V14.5173C30.9448 14.8483 30.6759 15.1379 30.3241 15.1379ZM10.2966 13.8966H29.7035V11.9311H10.2966V13.8966Z" fill="#CCCCCC"/>
<path d="M27.2205 15.1379C26.8688 15.1379 26.5999 14.869 26.5999 14.5173V11.3104C26.5999 10.9586 26.8688 10.6897 27.2205 10.6897C27.5723 10.6897 27.8412 10.9586 27.8412 11.3104V14.5173C27.8412 14.8483 27.5723 15.1379 27.2205 15.1379Z" fill="#CCCCCC"/>
<path d="M19.2758 13.1724C20.3613 13.1724 21.2413 12.2924 21.2413 11.2069C21.2413 10.1214 20.3613 9.24136 19.2758 9.24136C18.1903 9.24136 17.3103 10.1214 17.3103 11.2069C17.3103 12.2924 18.1903 13.1724 19.2758 13.1724Z" fill="white"/>
<path d="M21.862 11.8276C21.5102 11.8276 21.2413 11.5586 21.2413 11.2069C21.2413 10.131 20.3516 9.24138 19.2757 9.24138C18.1999 9.24138 17.3102 10.131 17.3102 11.2069C17.3102 11.5586 17.0413 11.8276 16.6895 11.8276C16.3378 11.8276 16.0688 11.5586 16.0688 11.2069C16.0688 9.44828 17.5171 8 19.2757 8C21.0344 8 22.4826 9.44828 22.4826 11.2069C22.4826 11.5586 22.2137 11.8276 21.862 11.8276Z" fill="#CCCCCC"/>
<path d="M19.6898 10.1104V10.9172H18.9863V10.1104H18.2622V12.469H18.9863V11.6414H19.6898V12.469H20.4139V10.1104H19.6898Z" fill="#CCCCCC"/>
</g>
<defs>
<clipPath id="clip0">
<rect width="24" height="24" fill="white" transform="translate(8 8)"/>
</clipPath>
</defs>
</svg>
