<svg width="150" height="150" viewBox="0 0 150 150" fill="none" xmlns="http://www.w3.org/2000/svg">
<path d="M65.8921 93.4341C66.0015 96.2791 67.424 98.6864 70.0501 100.656C72.6762 102.626 75.7948 103.556 79.4604 103.61C83.0713 103.665 86.1898 102.735 88.816 100.875C91.4968 98.9599 92.9193 96.6074 93.1381 93.7624L96.9679 28.3828C97.2415 23.8418 95.7643 19.8479 92.5363 16.4559C89.1989 13.0091 85.0956 11.2036 80.1716 11.2036C75.193 11.2036 70.9802 12.8997 67.6428 16.3464C64.3602 19.6838 62.8283 23.6777 63.0471 28.2187L65.8921 93.4341Z" fill="#0070C0"/>
<path d="M75.193 105.361L84.7674 102.844L87.6124 98.3582L81.8131 96.6074L73.3876 101.094L75.193 105.361Z" fill="#0070C0"/>
<path d="M74.6459 10.1641L82.8525 11.3677L85.8616 15.4163L75.7948 17.1671L74.6459 10.1641Z" fill="#0070C0"/>
<path d="M93.4665 123.306C93.4665 115.483 87.12 109.136 79.2964 109.136C78.3663 109.136 77.4362 109.246 76.5608 109.41H76.5061C75.9043 109.519 75.3025 109.683 74.7006 109.902L68.6277 111.598L69.1201 113.458C66.6581 116.03 65.1262 119.477 65.1262 123.306C65.1262 129.817 69.5031 135.288 75.4666 136.929L75.0836 137.422L75.959 139.884L84.4939 136.437C89.8009 134.413 93.4665 129.27 93.4665 123.306Z" fill="#0070C0"/>
<path d="M58.528 95.1294L58.5275 95.1183L55.5184 27.4409L55.5183 27.4378C55.3192 23.1581 56.744 19.464 59.8404 16.3676L59.8404 16.3677L59.8486 16.3594C63.0513 13.1066 67.0354 11.5 71.8009 11.5C76.4756 11.5 80.3546 13.1902 83.5218 16.4558C86.5747 19.661 87.9504 23.4132 87.7015 27.694L83.7077 95.4249L83.7074 95.43C83.5728 97.853 82.3896 99.9224 79.9085 101.674L79.9085 101.674L79.8971 101.682C77.4564 103.439 74.5539 104.295 71.1118 104.244H71.1114C67.5924 104.193 64.637 103.281 62.2579 101.485C59.791 99.6103 58.617 97.533 58.528 95.1294Z" fill="white" stroke="#0070C0" stroke-width="3"/>
<path d="M84.0881 126.151C84.0881 133.421 78.1951 139.314 70.9256 139.314C63.6561 139.314 57.7631 133.421 57.7631 126.151C57.7631 118.882 63.6561 112.989 70.9256 112.989C78.1951 112.989 84.0881 118.882 84.0881 126.151Z" fill="white" stroke="#0070C0" stroke-width="3"/>
</svg>
