<svg width="151" height="150" viewBox="0 0 151 150" fill="none" xmlns="http://www.w3.org/2000/svg">
<path d="M38.6871 35.7651C34.4194 34.6215 30.0327 37.1542 28.8892 41.4219L12.2212 103.628L8.01074 100.861L12.9733 109.751L12.9845 109.74C14.0064 111.527 15.7134 112.922 17.859 113.497L118.098 140.355C122.365 141.499 126.752 138.966 127.896 134.699L144.583 72.4219C145.336 69.6113 144.494 66.7492 142.613 64.7957L138.132 58.0742L135.225 61.6323L38.6871 35.7651Z" fill="#0070C0"/>
<path d="M24.0154 34.3033C25.1589 30.0356 29.5456 27.5029 33.8133 28.6465L134.052 55.5053C138.32 56.6489 140.852 61.0356 139.709 65.3033L123.264 126.676C122.121 130.944 117.734 133.477 113.466 132.333L13.2274 105.474C8.9597 104.331 6.42704 99.9439 7.57057 95.6762L24.0154 34.3033Z" fill="white"/>
<path fill-rule="evenodd" clip-rule="evenodd" d="M33.0368 31.5447L133.275 58.4035C133.666 58.5082 134.033 58.6563 134.374 58.8413L72.6798 82.6654C72.4743 82.7447 72.2411 82.6803 72.1055 82.5067L32.1986 31.3943C32.4772 31.4202 32.7574 31.4698 33.0368 31.5447ZM29.011 32.1864C28.0147 32.8359 27.2451 33.841 26.9131 35.0802L10.4683 96.4531C9.75355 99.1204 11.3365 101.862 14.0038 102.577L114.242 129.436C116.91 130.15 119.651 128.567 120.366 125.9L136.811 64.5273C137.118 63.3812 137.001 62.2213 136.556 61.2145L73.7605 85.464C72.3222 86.0194 70.6898 85.5682 69.7409 84.3529L29.011 32.1864ZM24.0153 34.3038C25.1588 30.036 29.5455 27.5034 33.8133 28.6469L134.052 55.5058C138.32 56.6493 140.852 61.036 139.709 65.3037L123.264 126.677C122.12 130.944 117.734 133.477 113.466 132.333L13.2273 105.475C8.9596 104.331 6.42694 99.9444 7.57048 95.6766L24.0153 34.3038Z" fill="#0070C0"/>
<path d="M124.417 24.0542C124.416 24.0578 124.415 24.0614 124.415 24.065C120.177 42.6969 117.902 52.6985 113.009 67.2879L72.3042 82.7276L51.2673 56.0558C57.6929 39.1999 61.2673 26.6349 63.436 11.616C63.6892 9.86227 65.3842 8.67884 67.1106 9.0775C74.0687 10.6842 80.1196 12.1357 85.5189 13.4309C100.887 17.1176 110.977 19.538 121.685 20.6668C123.39 20.8466 124.625 22.3792 124.417 24.0542Z" fill="white"/>
<path d="M124.417 24.0544C124.625 22.3793 123.39 20.8467 121.685 20.6669C110.977 19.5381 100.887 17.1177 85.5189 13.431C80.1196 12.1358 74.0687 10.6843 67.1106 9.07762C65.3842 8.67896 63.6892 9.86239 63.436 11.6161C61.2673 26.635 57.6929 39.2 51.2673 56.0559L53.4294 58.7971C60.3042 40.9755 64.1233 27.8481 66.4052 12.0448C66.4063 12.0368 66.4078 12.0324 66.4086 12.0303C66.4094 12.0279 66.4105 12.0258 66.412 12.0234C66.4153 12.0181 66.4214 12.0112 66.4298 12.0053C66.4328 12.0033 66.4352 12.0019 66.437 12.001C73.2837 13.582 79.2742 15.0192 84.647 16.3082C100.107 20.0172 110.453 22.4994 121.37 23.6503C121.39 23.6524 121.4 23.6571 121.408 23.6615C121.418 23.6673 121.428 23.6756 121.435 23.685C121.436 23.6873 121.438 23.6893 121.439 23.6909C117.665 43.3537 114.345 56.2291 110.344 68.2989L113.009 67.288C117.902 52.6986 120.177 42.697 124.415 24.0651C124.415 24.0615 124.416 24.0579 124.417 24.0544Z" fill="#0070C0"/>
<path d="M71.7663 22.5691L109.974 32.0476C111.428 32.3868 112.175 33.9046 111.531 35.1496C111.09 36.0286 109.998 36.4974 108.954 36.2539L70.5885 26.9453C69.0223 26.5801 68.3211 24.8663 69.1518 23.6647L69.2835 23.437C69.8134 22.6821 70.8082 22.294 71.7663 22.5691Z" fill="#C1DDEE"/>
<path d="M69.3317 30.5918L97.5434 37.7393C98.6184 37.99 99.0931 39.4443 98.5364 40.7097C98.1538 41.6023 97.3047 42.1278 96.5329 41.9478L68.1928 34.9771C67.035 34.7071 66.6061 33.0568 67.3006 31.8235L67.4129 31.5913C67.8553 30.816 68.6426 30.4311 69.3317 30.5918Z" fill="#C1DDEE"/>
<path d="M67.5163 38.7619L95.7279 45.9093C96.803 46.16 97.2777 47.6143 96.721 48.8798C96.3384 49.7724 95.4893 50.2978 94.7174 50.1178L66.3774 43.1472C65.2196 42.8772 64.7907 41.2269 65.4852 39.9936L65.5975 39.7614C66.0398 38.986 66.8271 38.6012 67.5163 38.7619Z" fill="#C1DDEE"/>
<path d="M62.5163 55.4219L72.6638 58.3043C73.7389 58.555 74.2135 60.0093 73.6569 61.2747C73.2743 62.1674 72.4252 62.6928 71.6533 62.5128L61.3774 59.8072C60.2196 59.5372 59.7907 57.8869 60.4852 56.6536L60.5975 56.4214C61.0398 55.6461 61.8271 55.2612 62.5163 55.4219Z" fill="#C1DDEE"/>
</svg>
