<svg width="150" height="150" viewBox="0 0 150 150" fill="none" xmlns="http://www.w3.org/2000/svg">
<path d="M62.9152 12.3468L62.0411 11.5976L67.9157 10.2537L68.6327 11.4704L62.9152 12.3468Z" fill="#0070C0" stroke="#0070C0" stroke-width="2"/>
<path d="M118.047 135.285L111.902 139.246L110.09 135.739L113.218 130.051L118.133 130.135L118.047 135.285Z" fill="#0070C0" stroke="#0070C0" stroke-width="2"/>
<path d="M106.018 34.9268L106.018 34.9253C98.6448 19.258 79.7141 12.6625 63.7461 20.187C47.7865 27.7075 40.6848 46.3932 48.0611 62.0679C55.4335 77.7343 74.3626 84.33 90.33 76.8075C106.297 69.3408 113.335 50.5403 106.018 34.9268ZM40.569 65.6174C31.3443 45.9744 40.1777 22.3846 60.3085 12.9174C80.4951 3.45019 104.285 11.7329 113.51 31.3758C122.733 51.0168 113.847 74.6079 93.7141 84.076C73.5846 93.5424 49.794 85.2614 40.569 65.6174Z" fill="#0070C0" stroke="#0070C0" stroke-width="2"/>
<path d="M117.887 135.333L117.833 135.351L117.782 135.375C114.432 136.928 110.519 135.519 108.972 132.185L108.97 132.181L87.3045 86.0085C87.3042 86.0078 87.3039 86.0071 87.3036 86.0065C85.7591 82.6734 87.1465 78.7836 90.4451 77.2218L90.5569 77.1846L90.6103 77.1668L90.6614 77.1431C94.0115 75.5894 97.9246 76.9982 99.4711 80.3329L99.4711 80.3329L99.473 80.337L121.141 126.513L121.141 126.514C122.678 129.78 121.253 133.73 117.996 135.297L117.887 135.333Z" fill="#0070C0" stroke="#0070C0" stroke-width="2"/>
<mask id="path-5-inside-1_3315:112" fill="white">
<path fill-rule="evenodd" clip-rule="evenodd" d="M30.9187 68.9947C21.2267 48.3852 30.1389 23.821 50.7484 14.1289C71.3579 4.43692 95.9221 13.3491 105.614 33.9586C114.179 52.1718 108.215 73.4737 92.488 84.8702L114.192 131.046C115.975 134.889 114.304 139.512 110.46 141.295C106.617 143.133 101.994 141.462 100.211 137.563L78.5335 91.4437C59.713 96.3079 39.4943 87.2301 30.9187 68.9947ZM40.2209 64.65C47.462 80.135 65.9548 86.8191 81.4398 79.5223C96.9248 72.2811 103.609 53.7883 96.312 38.3033C89.0709 22.8183 70.5781 16.1899 55.0931 23.4311C39.6081 30.6722 32.9797 49.1651 40.2209 64.65Z"/>
</mask>
<path fill-rule="evenodd" clip-rule="evenodd" d="M30.9187 68.9947C21.2267 48.3852 30.1389 23.821 50.7484 14.1289C71.3579 4.43692 95.9221 13.3491 105.614 33.9586C114.179 52.1718 108.215 73.4737 92.488 84.8702L114.192 131.046C115.975 134.889 114.304 139.512 110.46 141.295C106.617 143.133 101.994 141.462 100.211 137.563L78.5335 91.4437C59.713 96.3079 39.4943 87.2301 30.9187 68.9947ZM40.2209 64.65C47.462 80.135 65.9548 86.8191 81.4398 79.5223C96.9248 72.2811 103.609 53.7883 96.312 38.3033C89.0709 22.8183 70.5781 16.1899 55.0931 23.4311C39.6081 30.6722 32.9797 49.1651 40.2209 64.65Z" fill="white"/>
<path d="M50.7484 14.1289L49.4717 11.4142L50.7484 14.1289ZM30.9187 68.9947L28.204 70.2714L30.9187 68.9947ZM105.614 33.9586L108.329 32.6819L105.614 33.9586ZM92.488 84.8702L90.7276 82.4409L88.7164 83.8984L89.773 86.1463L92.488 84.8702ZM114.192 131.046L116.914 129.784L116.911 129.777L116.907 129.77L114.192 131.046ZM110.46 141.295L109.198 138.573L109.182 138.581L109.166 138.589L110.46 141.295ZM100.211 137.563L102.94 136.316L102.933 136.301L102.926 136.287L100.211 137.563ZM78.5335 91.4437L81.2486 90.1676L80.1907 87.9169L77.7828 88.5392L78.5335 91.4437ZM81.4398 79.5223L80.169 76.8047L80.161 76.8085L81.4398 79.5223ZM40.2209 64.65L42.9384 63.3792L40.2209 64.65ZM96.312 38.3033L93.5945 39.5741L93.5983 39.5821L96.312 38.3033ZM55.0931 23.4311L53.8223 20.7135L55.0931 23.4311ZM49.4717 11.4142C27.37 21.808 17.8035 48.1555 28.204 70.2714L33.6335 67.718C24.6499 48.6149 32.9079 25.834 52.0251 16.8437L49.4717 11.4142ZM108.329 32.6819C97.9352 10.5802 71.5876 1.01373 49.4717 11.4142L52.0251 16.8437C71.1282 7.86012 93.9091 16.1181 102.899 35.2353L108.329 32.6819ZM94.2483 87.2994C111.115 75.0768 117.521 52.2292 108.329 32.6819L102.899 35.2353C110.837 52.1144 105.314 71.8706 90.7276 82.4409L94.2483 87.2994ZM89.773 86.1463L111.477 132.322L116.907 129.77L95.203 83.594L89.773 86.1463ZM111.471 132.308C112.562 134.662 111.525 137.494 109.198 138.573L111.722 144.017C117.083 141.531 119.387 135.116 116.914 129.784L111.471 132.308ZM109.166 138.589C106.838 139.702 104.026 138.692 102.94 136.316L97.4828 138.81C99.9613 144.232 106.396 146.564 111.755 144.001L109.166 138.589ZM102.926 136.287L81.2486 90.1676L75.8185 92.7199L97.4962 138.839L102.926 136.287ZM28.204 70.2714C37.4022 89.831 59.088 99.568 79.2842 94.3483L77.7828 88.5392C60.338 93.0478 41.5864 84.6292 33.6335 67.718L28.204 70.2714ZM80.161 76.8085C66.1776 83.3977 49.4761 77.3599 42.9384 63.3792L37.5033 65.9208C45.4479 82.9101 65.7321 90.2405 82.7186 82.236L80.161 76.8085ZM93.5983 39.5821C100.188 53.5655 94.1497 70.267 80.169 76.8047L82.7106 82.2398C99.6999 74.2952 107.03 54.011 99.0258 37.0245L93.5983 39.5821ZM56.3639 26.1486C70.3601 19.6036 87.0608 25.6021 93.5945 39.5741L99.0296 37.0325C91.0809 20.0346 70.796 12.7762 53.8223 20.7135L56.3639 26.1486ZM42.9384 63.3792C36.3934 49.383 42.3919 32.6823 56.3639 26.1486L53.8223 20.7135C36.8244 28.6622 29.566 48.9471 37.5033 65.9208L42.9384 63.3792Z" fill="#0070C0" mask="url(#path-5-inside-1_3315:112)"/>
</svg>
