<svg width="24" height="24" viewBox="0 0 24 24" fill="none" xmlns="http://www.w3.org/2000/svg">
<path d="M5.128 13.254C5.674 13.254 5.947 13.0183 5.947 12.547C5.947 12.071 5.674 11.833 5.128 11.833H4.092V13.254H5.128Z" fill="#FF6464"/>
<path d="M9.51678 15.053C10.5668 15.053 11.0918 14.5233 11.0918 13.464C11.0918 12.4093 10.5668 11.882 9.51678 11.882H8.76778V15.053H9.51678Z" fill="#FF6464"/>
<path fill-rule="evenodd" clip-rule="evenodd" d="M21.7071 5.70711L16.2929 0.292893C16.1054 0.105357 15.851 0 15.5858 0H7C5.34315 0 4 1.34315 4 3V9C2.89543 9 2 9.89543 2 11V16C2 17.1046 2.89543 18 4 18V21C4 22.6569 5.34315 24 7 24H19C20.6569 24 22 22.6569 22 21V6.41421C22 6.149 21.8946 5.89464 21.7071 5.70711ZM5 21C5 22.1046 5.89543 23 7 23H19C20.1046 23 21 22.1046 21 21V6.5H17C16.175 6.5 15.5 5.825 15.5 5V1H7C5.89543 1 5 1.89543 5 3V9H16C17.1046 9 18 9.89543 18 11V16C18 17.1046 17.1046 18 16 18H5V21ZM3.546 15.977C3.378 15.977 3.245 15.928 3.147 15.83C3.049 15.732 3 15.599 3 15.431V11.511C3 11.3477 3.04433 11.2217 3.133 11.133C3.22167 11.0443 3.34767 11 3.511 11H5.268C5.80467 11 6.22233 11.1353 6.521 11.406C6.81967 11.6767 6.969 12.0547 6.969 12.54C6.969 13.0253 6.81967 13.4033 6.521 13.674C6.22233 13.9447 5.80467 14.08 5.268 14.08H4.092V15.431C4.092 15.599 4.043 15.732 3.945 15.83C3.847 15.928 3.714 15.977 3.546 15.977ZM8.18678 15.935C8.02345 15.935 7.89745 15.8907 7.80878 15.802C7.72011 15.7133 7.67578 15.5873 7.67578 15.424V11.511C7.67578 11.3477 7.72011 11.2217 7.80878 11.133C7.89745 11.0443 8.02345 11 8.18678 11H9.59378C10.1304 11 10.5924 11.098 10.9798 11.294C11.3671 11.49 11.6634 11.7723 11.8688 12.141C12.0741 12.5097 12.1768 12.9507 12.1768 13.464C12.1768 13.9773 12.0741 14.4207 11.8688 14.794C11.6681 15.1627 11.3741 15.445 10.9868 15.641C10.5994 15.837 10.1351 15.935 9.59378 15.935H8.18678ZM13.1616 15.83C13.2643 15.928 13.3973 15.977 13.5606 15.977C13.724 15.977 13.8523 15.928 13.9456 15.83C14.0436 15.732 14.0926 15.599 14.0926 15.431V13.856H15.7936C15.971 13.856 16.1017 13.821 16.1856 13.751C16.2696 13.681 16.3116 13.5737 16.3116 13.429C16.3116 13.2797 16.2696 13.17 16.1856 13.1C16.1017 13.03 15.971 12.995 15.7936 12.995H14.0926V11.861H15.9336C16.111 11.861 16.2416 11.826 16.3256 11.756C16.4096 11.686 16.4516 11.5787 16.4516 11.434C16.4516 11.2847 16.4096 11.175 16.3256 11.105C16.2416 11.035 16.111 11 15.9336 11H13.5256C13.3623 11 13.2363 11.0443 13.1476 11.133C13.059 11.2217 13.0146 11.3477 13.0146 11.511V15.431C13.0146 15.5943 13.0636 15.7273 13.1616 15.83Z" fill="#FF6464"/>
</svg>
