<svg width="150" height="150" viewBox="0 0 150 150" fill="none" xmlns="http://www.w3.org/2000/svg">
<path fill-rule="evenodd" clip-rule="evenodd" d="M38 120.172C38 129.427 45.6005 137 54.8885 137H101.111C110.399 137 118 129.427 118 120.172V26.8277C118 17.5731 110.4 10 101.109 10H54.8885C45.6005 10 38 17.5731 38 26.8277V120.172Z" fill="#0070C0"/>
<path d="M96.1115 140H49.8885C40.6005 140 33 132.427 33 123.172V29.8277C33 20.5731 40.6005 13 49.8885 13H96.1093C105.4 13 113 20.5731 113 29.8277V123.172C113 132.427 105.399 140 96.1115 140Z" fill="white"/>
<path fill-rule="evenodd" clip-rule="evenodd" d="M49.8885 137.096H96.1115C103.805 137.096 110.096 130.813 110.096 123.172V29.8277C110.096 22.1873 103.806 15.9045 96.1093 15.9045H49.8885C42.1947 15.9045 35.9045 22.1871 35.9045 29.8277V123.172C35.9045 130.813 42.1947 137.096 49.8885 137.096ZM49.8885 140H96.1115C105.399 140 113 132.427 113 123.172V29.8277C113 20.5731 105.4 13 96.1093 13H49.8885C40.6005 13 33 20.5731 33 29.8277V123.172C33 132.427 40.6005 140 49.8885 140Z" fill="#0070C0"/>
<path d="M96.1115 140H49.8885C40.6005 140 33 132.427 33 123.172V121H113V123.172C113 132.427 105.399 140 96.1115 140Z" fill="#0070C0"/>
<path fill-rule="evenodd" clip-rule="evenodd" d="M73 53C61.402 53 52 62.402 52 74C52 85.598 61.402 95 73 95C84.598 95 94 85.598 94 74C94 62.402 84.598 53 73 53ZM49 74C49 60.7452 59.7452 50 73 50C86.2548 50 97 60.7452 97 74C97 87.2548 86.2548 98 73 98C59.7452 98 49 87.2548 49 74ZM63.9843 74.3594C64.57 73.7736 65.5198 73.7736 66.1056 74.3594L71.5 79.7538V64.625C71.5 63.7966 72.1716 63.125 73 63.125C73.8284 63.125 74.5 63.7966 74.5 64.625V79.7535L79.8941 74.3594C80.4799 73.7736 81.4296 73.7736 82.0154 74.3594C82.6012 74.9452 82.6012 75.8949 82.0154 76.4807L74.0751 84.421C74.0079 84.4901 73.9342 84.5526 73.8549 84.6077C73.7961 84.6486 73.735 84.6848 73.6721 84.7163C73.4699 84.8178 73.2416 84.875 73 84.875C72.805 84.875 72.6187 84.8378 72.4478 84.7701C72.2625 84.6969 72.089 84.5854 71.9392 84.4356L63.9843 76.4807C63.3985 75.8949 63.3985 74.9452 63.9843 74.3594Z" fill="#0070C0"/>
<path d="M73 29C74.6569 29 76 27.6569 76 26C76 24.3431 74.6569 23 73 23C71.3431 23 70 24.3431 70 26C70 27.6569 71.3431 29 73 29Z" fill="#117DC1"/>
<path fill-rule="evenodd" clip-rule="evenodd" d="M63 129.5C63 128.672 63.6716 128 64.5 128H81.5C82.3284 128 83 128.672 83 129.5C83 130.328 82.3284 131 81.5 131H64.5C63.6716 131 63 130.328 63 129.5Z" fill="white"/>
</svg>
