<svg width="150" height="150" viewBox="0 0 150 150" fill="none" xmlns="http://www.w3.org/2000/svg">
<path d="M132.224 96.0433L112.997 77.703L131.337 58.4754C135.232 54.3833 135.084 47.8755 130.992 43.9314L115.462 29.0916C114.919 28.5492 114.328 28.1055 113.687 27.7604L102.545 20.9568L103.827 27.366C102.791 27.859 101.805 28.5986 100.967 29.486L82.6268 48.7136L63.3991 30.3734C62.7089 29.6832 61.9201 29.1409 61.082 28.6972V28.6479L46.5873 21.4991L50.2849 29.486C49.7919 29.8311 49.3482 30.2255 48.9044 30.7185L34.0646 46.2486C30.1698 50.3406 30.3177 56.8484 34.4097 60.7926L53.6374 79.1328L35.2972 98.3605C31.4023 102.452 31.5502 108.96 35.6423 112.904L45.3547 122.173L42.791 128.73L55.5109 130.209C59.0606 131.195 63.0047 130.259 65.7163 127.399L84.0566 108.171L100.573 123.948L97.9103 127.399L107.573 128.977C111.123 129.963 115.067 129.026 117.779 126.167L132.619 110.637C136.464 106.446 136.316 99.9381 132.224 96.0433Z" fill="#0070C0"/>
<path d="M120.293 93.4313L120.299 93.4369C124.027 96.9528 124.157 102.842 120.551 106.532L120.545 106.539L120.538 106.546L104.966 122.906C104.965 122.907 104.964 122.909 104.962 122.91C101.386 126.61 95.5293 126.771 91.7972 123.208L91.7967 123.208L71.583 103.931L70.4975 102.896L69.4623 103.981L50.1917 124.188C50.1907 124.189 50.1897 124.19 50.1887 124.191C46.612 127.892 40.7552 128.053 37.023 124.49L37.0215 124.489L20.661 108.917C20.6598 108.915 20.6586 108.914 20.6574 108.913C16.9568 105.336 16.7967 99.4799 20.3591 95.7479L20.3595 95.7474L39.6365 75.5337L40.6717 74.4482L39.5862 73.413L19.3792 54.1424C19.3781 54.1414 19.377 54.1403 19.3759 54.1393C15.6753 50.5629 15.5147 44.7068 19.0763 40.9746C19.0766 40.9743 19.0769 40.974 19.0772 40.9737L34.6999 24.661C34.7006 24.6603 34.7013 24.6596 34.702 24.6589C38.2786 20.9568 44.1361 20.7962 47.8686 24.3591L47.8691 24.3595L68.0828 43.6365L69.1684 44.6717L70.2036 43.5862L89.4741 23.3792C89.4751 23.3782 89.476 23.3772 89.477 23.3762C93.0536 19.675 98.9106 19.5146 102.643 23.0772L102.644 23.0787L119.005 38.6506C119.006 38.6518 119.007 38.6529 119.008 38.6541C122.709 42.2308 122.869 48.0873 119.307 51.8193L119.306 51.8198L100.029 72.0335L98.9941 73.1191L100.08 74.1543L120.293 93.4313Z" fill="white" stroke="#0070C0" stroke-width="3"/>
</svg>
