<svg width="150" height="150" viewBox="0 0 150 150" fill="none" xmlns="http://www.w3.org/2000/svg">
<path d="M71.2588 83.7292C71.2588 86.1357 73.3628 87.3245 75.8992 87.3825L138.299 89.5861L138.357 89.7021L139.827 89.7311C142.536 89.7891 144.756 87.8174 144.756 85.2949V36.3229C144.756 33.8294 142.508 31.7997 139.798 31.7997L75.8127 32.0897C73.2764 32.0897 71.23 34.0613 71.23 36.4969V83.7292H71.2588ZM123.341 38.5555C123.341 36.3809 125.243 34.6122 127.578 34.5832C129.912 34.5832 131.814 36.3519 131.814 38.5265C131.814 40.7011 129.912 42.4988 127.578 42.4988C125.243 42.4988 123.341 40.7301 123.341 38.5555ZM103.165 38.5555C103.165 36.4099 105.01 34.6412 107.316 34.6412C109.621 34.6412 111.495 36.3809 111.495 38.5555C111.495 40.7301 109.621 42.4698 107.316 42.4698C105.039 42.4698 103.165 40.7301 103.165 38.5555ZM83.4218 38.5845C83.4218 36.4389 85.2376 34.6992 87.4858 34.6992C89.7339 34.6992 91.5785 36.4389 91.5785 38.5845C91.5785 40.7301 89.7339 42.4698 87.4858 42.4698C85.2376 42.4698 83.4218 40.7301 83.4218 38.5845Z" fill="#1E70AC"/>
<path d="M139.999 31.8578L135.532 31.8868V89.5862L138.472 89.7021L138.529 89.8181L139.999 89.8471C142.708 89.9051 144.928 87.9335 144.928 85.4109V36.381C144.957 33.8874 142.708 31.8578 139.999 31.8578Z" fill="#BFC8D6"/>
<path d="M142.276 47.5438V36.2649C142.276 34.8152 141.527 33.5684 140.403 32.7276C139.567 32.1187 138.5 31.7997 137.376 31.7997L73.5349 32.0897C70.9985 32.0897 69.0098 34.0033 69.0098 36.4389V45.1953L142.276 47.5438ZM89.243 38.5845C89.243 40.7301 87.4272 42.4698 85.1791 42.4698C82.9309 42.4698 81.1151 40.7301 81.1151 38.6135C81.1151 36.4679 82.9309 34.7282 85.1791 34.7282C87.4272 34.6992 89.243 36.4389 89.243 38.5845ZM109.159 38.5555C109.159 40.7301 107.286 42.4698 105.009 42.4698C102.732 42.4698 100.858 40.7301 100.858 38.5555C100.858 36.4099 102.703 34.6412 105.009 34.6412C107.286 34.6412 109.159 36.3809 109.159 38.5555ZM129.45 38.5265C129.45 40.7011 127.548 42.4698 125.213 42.4698C122.879 42.4698 120.976 40.7011 120.976 38.5265C120.976 36.3519 122.879 34.5832 125.213 34.5832C127.548 34.5832 129.45 36.3519 129.45 38.5265Z" fill="#117DC1"/>
<path d="M142.276 44.9924V85.295C142.276 87.7885 140.172 89.7892 137.463 89.7312L73.5637 88.1944C71.0273 88.1365 69.0098 86.1358 69.0098 83.7003V44.8184L142.276 44.9924Z" fill="#F7F7F7"/>
<path d="M84.0552 62.0123C84.0552 61.4324 84.5452 60.9974 85.1504 60.9974L91.1455 61.0554C91.7507 61.0554 92.2119 61.5193 92.2119 62.0992V67.8402C92.2119 68.4201 91.7507 68.855 91.1743 68.855L85.1504 68.768C84.5452 68.768 84.084 68.3041 84.084 67.7242V62.0123H84.0552Z" fill="#117DC1"/>
<path d="M125.617 24.0002C129.566 23.9712 132.794 27.2476 133.111 31.8288H129.797C129.537 29.0743 127.722 26.9866 125.617 26.9866C123.341 27.0156 121.409 29.5382 121.409 32.4956C121.409 35.4821 123.341 38.0046 125.617 37.9756C126.799 37.9756 127.894 37.2797 128.673 36.2069C129.134 36.8448 129.883 38.2656 129.163 39.9763C128.096 40.6141 126.886 40.9911 125.617 40.9911C121.496 40.9911 118.153 37.1928 118.153 32.4956C118.124 27.8565 121.467 24.0292 125.617 24.0002Z" fill="#BFC8D6"/>
<path d="M105.412 24.1452C109.275 24.1162 112.445 27.3636 112.762 31.8868H109.505C109.246 29.1613 107.459 27.1027 105.412 27.1027C103.164 27.1317 101.291 29.6252 101.291 32.5827C101.291 35.5401 103.164 38.0337 105.412 38.0337C106.565 38.0337 107.632 37.3378 108.41 36.294C108.842 36.9029 109.62 38.3236 108.9 40.0053C107.862 40.6432 106.681 41.0201 105.441 41.0201C101.406 41.0201 98.1203 37.2508 98.1203 32.6117C98.0915 27.9725 101.377 24.1742 105.412 24.1452Z" fill="#BFC8D6"/>
<path d="M85.5544 24.3192C89.3301 24.2902 92.4429 27.5086 92.7599 32.0028H89.5895C89.3301 29.3062 87.6007 27.2476 85.5832 27.2766C83.3927 27.3056 81.5481 29.7702 81.5481 32.6986C81.5481 35.6271 83.3927 38.0916 85.5832 38.0916C86.7361 38.0916 87.7737 37.4248 88.5231 36.3519C88.9554 36.9608 89.7048 38.3526 88.9842 40.0343C87.9754 40.6722 86.8225 41.0201 85.5832 41.0201C81.6345 41.0201 78.4064 37.3088 78.4064 32.6986C78.3776 28.1175 81.6057 24.3482 85.5544 24.3192Z" fill="#BFC8D6"/>
<path d="M95.21 51.2552C95.21 50.6753 95.6999 50.2404 96.3052 50.2404L102.3 50.2984C102.906 50.2984 103.367 50.7623 103.367 51.3422V57.0832C103.367 57.663 102.906 58.098 102.329 58.098L96.3052 58.011C95.6999 58.011 95.2388 57.5471 95.2388 56.9672V51.2552H95.21Z" fill="#117DC1"/>
<path d="M98.2365 56.5613C98.1788 56.5613 98.1212 56.5613 98.0635 56.5323L96.6224 55.6624C96.4783 55.5754 96.4495 55.4015 96.5648 55.2565C96.6513 55.1115 96.853 55.0825 96.9683 55.1405L98.1788 55.8944L101.666 51.8061C101.782 51.6902 101.955 51.6612 102.07 51.7481C102.185 51.8351 102.185 52.0381 102.099 52.1541L98.4382 56.4453C98.4094 56.5323 98.3229 56.5613 98.2365 56.5613Z" fill="white" stroke="white" stroke-width="1.6054" stroke-miterlimit="10"/>
<path d="M84.1997 51.3422C84.1997 50.7623 84.6897 50.3274 85.295 50.3274L91.29 50.3854C91.8953 50.3854 92.3564 50.8493 92.3564 51.4292V57.1701C92.3564 57.75 91.8953 58.1849 91.3188 58.1849L85.295 58.098C84.6897 58.098 84.2285 57.634 84.2285 57.0542V51.3422H84.1997Z" fill="#117DC1"/>
<path d="M87.2257 56.6772C87.1681 56.6772 87.1105 56.6772 87.0528 56.6482L85.6117 55.7784C85.4676 55.6914 85.4388 55.5174 85.554 55.3725C85.6405 55.2275 85.8423 55.1985 85.9576 55.2565L87.1681 56.0103L90.6556 51.9221C90.7709 51.8061 90.9438 51.7771 91.0591 51.8641C91.1744 51.9511 91.1744 52.1541 91.0879 52.27L87.4275 56.5612C87.3987 56.6192 87.3122 56.6482 87.2257 56.6772Z" fill="white" stroke="white" stroke-width="1.6054" stroke-miterlimit="10"/>
<path d="M128.96 51.6031C128.96 51.0232 129.393 50.5883 129.998 50.5883L136.339 50.6173C136.944 50.6173 137.694 51.0812 137.694 51.6611V57.4311C137.694 58.011 136.915 58.4459 136.31 58.4459L130.142 58.3879C129.537 58.3879 128.96 57.924 128.96 57.3441V51.6031Z" fill="#BFC8D6"/>
<path d="M117.778 51.5451C117.778 50.9653 118.268 50.5303 118.873 50.5303L124.868 50.5593C125.473 50.5593 125.935 51.0232 125.935 51.6031V57.3441C125.935 57.924 125.473 58.3589 124.897 58.3589L118.873 58.3009C118.268 58.3009 117.807 57.837 117.807 57.2571V51.5451H117.778Z" fill="#BFC8D6"/>
<path d="M106.507 51.4872C106.507 50.9363 107.026 50.4724 107.603 50.4724L113.598 50.5013C114.203 50.5013 114.693 50.9653 114.693 51.5162V57.2281C114.693 57.779 114.203 58.2429 113.598 58.2429L107.603 58.1849C107.026 58.1849 106.479 57.721 106.479 57.1701V51.4872H106.507Z" fill="#BFC8D6"/>
<path d="M95.2388 62.1282C95.2388 61.5483 95.6711 61.1134 96.2764 61.1134L102.617 61.1714C103.223 61.1714 103.972 61.6353 103.972 62.2152V67.9851C103.972 68.565 103.194 69 102.588 69L96.4205 68.913C95.8152 68.913 95.2388 68.4491 95.2388 67.8692V62.1282Z" fill="#BFC8D6"/>
<path d="M72.7866 61.8963C72.7866 61.3454 73.3054 60.8815 73.8819 60.8815L79.8769 60.9395C80.4822 60.9395 80.9722 61.4034 80.9722 61.9833V67.6952C80.9722 68.2461 80.4822 68.71 79.8769 68.71L73.8819 68.623C73.3054 68.623 72.7578 68.1591 72.7578 67.5792V61.8963H72.7866Z" fill="#BFC8D6"/>
<path d="M129.507 62.5052C129.507 61.9253 130.055 61.4614 130.689 61.4614L136.943 61.5194C137.578 61.5194 138.039 61.9833 138.039 62.5922V68.4491C138.039 69.029 137.606 69.493 136.972 69.493L130.66 69.406C130.026 69.406 129.536 68.9131 129.536 68.3332V62.5052H129.507Z" fill="#BFC8D6"/>
<path d="M117.979 62.3602C117.979 61.7803 118.44 61.3164 119.045 61.3164L125.358 61.3744C125.963 61.3744 126.568 61.8673 126.568 62.4472V68.2751C126.568 68.855 125.963 69.3189 125.329 69.3189L119.103 69.232C118.498 69.232 117.979 68.7391 117.979 68.1592V62.3602Z" fill="#BFC8D6"/>
<path d="M106.652 62.2442C106.652 61.6643 107.113 61.2004 107.718 61.2004L114.03 61.2584C114.636 61.2584 115.299 61.7223 115.299 62.3022V68.1011C115.299 68.681 114.636 69.1449 114.002 69.1159L107.776 69.0289C107.171 69.0289 106.623 68.565 106.623 67.9851V62.2442H106.652Z" fill="#BFC8D6"/>
<path d="M95.2388 72.6243C95.2388 72.0444 95.6711 71.6095 96.2764 71.6095L102.617 71.6965C103.223 71.6965 103.972 72.1894 103.972 72.7403V78.5102C103.972 79.0901 103.194 79.525 102.588 79.525L96.4205 79.4091C95.8152 79.4091 95.2388 78.9161 95.2388 78.3653V72.6243Z" fill="#BFC8D6"/>
<path d="M84.0552 72.4503C84.0552 71.8704 84.5452 71.4355 85.1504 71.4355L91.1455 71.5225C91.7507 71.5225 92.2119 72.0154 92.2119 72.5663V78.3072C92.2119 78.8871 91.7507 79.322 91.1743 79.322L85.1504 79.206C84.5452 79.206 84.084 78.7131 84.084 78.1622V72.4503H84.0552Z" fill="#BFC8D6"/>
<path d="M72.728 72.0154C72.728 71.4355 73.2757 70.9716 73.9097 70.9716L80.1642 71.0585C80.7983 71.0585 81.2594 71.5515 81.2594 72.1313V77.9883C81.2594 78.5682 80.8271 79.0321 80.193 79.0321L73.8809 78.9451C73.2468 78.9451 72.7569 78.4522 72.7569 77.8723V72.0154H72.728Z" fill="#BFC8D6"/>
<path d="M117.979 73.0011C117.979 72.4213 118.44 71.9573 119.045 71.9863L125.358 72.0733C125.963 72.0733 126.568 72.5662 126.568 73.1461V78.945C126.568 79.5249 125.963 79.9889 125.329 79.9599L119.103 79.8439C118.498 79.8439 117.979 79.351 117.979 78.7711V73.0011Z" fill="#BFC8D6"/>
<path d="M106.652 72.8273C106.652 72.2474 107.113 71.7835 107.718 71.8124L114.03 71.8994C114.636 71.8994 115.299 72.3923 115.299 72.9432V78.7422C115.299 79.3221 114.636 79.786 114.002 79.757L107.776 79.641C107.171 79.641 106.623 79.1481 106.623 78.5972V72.8273H106.652Z" fill="#BFC8D6"/>
<path d="M87.1105 67.3183C87.0529 67.3183 86.9952 67.3183 86.9376 67.2893L85.4965 66.4194C85.3523 66.3325 85.3235 66.1585 85.4388 66.0135C85.5253 65.8685 85.727 65.8395 85.8423 65.8975L87.0529 66.6514L90.5404 62.5632C90.6556 62.4472 90.8286 62.4182 90.9439 62.5052C91.0592 62.5922 91.0592 62.7951 90.9727 62.9111L87.3123 67.2023C87.2546 67.2603 87.197 67.3183 87.1105 67.3183Z" fill="white" stroke="white" stroke-width="1.6054" stroke-miterlimit="10"/>
<path d="M54.9162 66.2165C55.6656 68.1012 56.5014 69.9858 57.4525 71.7835C58.2307 73.2332 59.0954 74.683 60.1618 75.9297C60.94 76.7996 61.9488 77.6984 63.1305 77.9014C64.3987 78.1043 65.5804 77.5534 66.4163 76.5966C67.915 74.9149 68.6644 72.5953 69.2985 70.4787C69.6156 69.3769 67.915 68.913 67.598 70.0148C67.0792 71.8125 66.4739 73.5232 65.4075 75.0599C65.2922 75.2339 65.4363 75.0309 65.3499 75.1469C65.2922 75.2049 65.2634 75.2628 65.2057 75.2918C65.1193 75.4078 65.004 75.5238 64.8887 75.6108C64.8311 75.6398 64.8022 75.6978 64.7446 75.7268C64.7158 75.7558 64.5428 75.9007 64.6581 75.8137C64.7734 75.7268 64.6293 75.8427 64.6005 75.8717C64.5428 75.9007 64.4852 75.9587 64.4275 75.9877C64.3699 76.0167 64.3411 76.0457 64.2834 76.0747C64.1681 76.1327 64.1681 76.1037 64.2834 76.0747C64.1681 76.1037 64.0817 76.1617 63.9664 76.1907C63.9087 76.1907 63.8799 76.2197 63.8223 76.2197C63.6782 76.2487 64.0528 76.2197 63.8511 76.2197C63.7646 76.2197 63.6493 76.2197 63.5629 76.2197C63.3611 76.2197 63.6205 76.2487 63.5917 76.2197C63.5629 76.1907 63.5052 76.1907 63.4476 76.1907C63.3323 76.1617 63.217 76.1327 63.1305 76.1037C63.0152 76.0747 62.9864 76.0457 63.1305 76.1037C63.0729 76.0747 63.0441 76.0747 62.9864 76.0457C62.8711 75.9877 62.7558 75.9297 62.6694 75.8717C62.5541 75.8137 62.4676 75.7268 62.3812 75.6688C62.237 75.5818 62.41 75.6978 62.3812 75.6688C62.3235 75.6108 62.2659 75.5528 62.2082 75.5238C61.9776 75.3208 61.7759 75.1179 61.5741 74.9149C61.3724 74.683 61.1706 74.451 60.9689 74.19C61.0842 74.335 60.9112 74.1321 60.9112 74.1031C60.8536 74.0451 60.8248 73.9871 60.7671 73.9001C60.6518 73.7551 60.5365 73.5812 60.4501 73.4362C60.0177 72.7693 59.6142 72.1024 59.2107 71.3776C58.2307 69.5799 57.3949 67.6952 56.6455 65.8396C56.4726 65.4047 56.0691 65.0857 55.5503 65.2307C55.1179 65.2307 54.7432 65.7816 54.9162 66.2165Z" fill="black"/>
<path d="M33.3284 45.6593C17.6779 45.6593 4.99609 58.417 4.99609 74.1611C4.99609 81.9896 8.13772 89.0933 13.2393 94.2544C12.1728 98.6326 10.2994 103.069 7.15777 103.069C9.31944 105.997 19.2055 102.083 23.6441 100.952C26.6705 102.054 29.9274 102.663 33.3284 102.663C48.9789 102.663 61.6607 89.9052 61.6607 74.1611C61.6607 58.417 48.9789 45.6593 33.3284 45.6593Z" fill="#117DC1"/>
<path d="M5.05372 72.9433C5.0249 73.3492 5.0249 73.7551 5.0249 74.1901C5.0249 82.0186 8.16653 89.1223 13.2681 94.2834C12.2017 98.6616 10.3282 103.098 7.18657 103.098C9.34825 106.026 19.2343 102.112 23.6729 100.981C26.6993 102.083 29.9562 102.692 33.3572 102.692C43.3874 102.692 52.207 97.4438 57.2221 89.5282C51.7747 92.5727 45.5491 94.3124 38.9487 94.3124C24.2782 94.3124 11.5099 85.672 5.05372 72.9433Z" fill="#1E70AC"/>
<path d="M32.2335 99.3864C32.2335 103.214 31.8012 107.099 31.3689 110.897C30.8789 115.247 30.3601 119.451 29.5819 123.771C29.4666 124.438 29.236 125.192 29.6395 125.801C30.1583 126.641 31.2824 126.467 32.1183 126.496C33.8764 126.554 35.6346 126.583 37.4216 126.641C38.5456 126.67 38.5456 124.902 37.4216 124.873C35.9228 124.844 34.424 124.786 32.8965 124.757C32.5506 124.757 32.2047 124.728 31.83 124.728C31.6283 124.728 31.4553 124.728 31.2536 124.699C31.1671 124.699 31.0518 124.67 30.9942 124.699C30.9077 124.757 30.9654 124.67 30.9942 124.728C30.9942 124.728 31.1959 124.989 31.1671 124.989C31.1671 124.989 31.1671 124.815 31.1671 124.931C31.1671 124.844 31.1959 124.728 31.2248 124.641C31.2536 124.409 31.3112 124.206 31.3401 123.974C31.6859 122.031 31.9741 120.06 32.2335 118.088C32.8388 113.71 33.3576 109.303 33.7035 104.895C33.8476 103.069 33.9917 101.213 33.9917 99.3864C33.9917 98.2556 32.2335 98.2556 32.2335 99.3864Z" fill="black"/>
<path d="M43.9354 99.0384C44.166 102.982 43.9066 106.925 43.3878 110.839C43.1284 112.782 42.8113 114.725 42.4655 116.667C42.2925 117.595 42.1196 118.552 41.9467 119.48C41.8602 119.915 41.8026 120.349 41.9467 120.784C42.1484 121.393 42.696 121.683 43.3013 121.741C44.3389 121.828 45.4342 121.799 46.4718 121.828C47.5958 121.857 48.7199 121.886 49.8728 121.915C50.9969 121.944 50.9969 120.176 49.8728 120.147C48.0282 120.089 46.2124 120.06 44.3677 120.002C44.1372 120.002 43.9066 120.002 43.676 119.973C43.6472 119.973 43.4454 119.973 43.4454 119.973C43.4454 119.973 44.2236 120.61 43.6472 120.234C43.676 120.263 43.5607 120.407 43.6472 120.176C43.6184 120.292 43.676 120.06 43.676 120.031C43.7336 119.77 43.7625 119.509 43.8201 119.248C43.993 118.32 44.166 117.421 44.3101 116.493C44.9442 112.782 45.5206 109.042 45.7224 105.272C45.8377 103.185 45.8665 101.097 45.7224 99.0094C45.6936 98.5165 45.3477 98.1106 44.8289 98.1106C44.3677 98.1396 43.9066 98.5455 43.9354 99.0384Z" fill="black"/>
<path d="M49.8144 60.5625C50.8808 60.3305 51.9184 60.2146 52.8696 60.2146C53.1578 59.4897 53.2443 58.6778 53.0713 57.837C52.6102 55.6914 50.5926 54.3286 48.575 54.7636C46.5575 55.1985 45.2893 57.2861 45.7505 59.4317C45.9234 60.2725 46.3557 60.9684 46.9034 61.5193C47.768 61.1424 48.748 60.7944 49.8144 60.5625Z" fill="black"/>
<path d="M47.6457 60.4539C47.7674 60.2856 47.6261 59.9735 47.33 59.7568C47.0339 59.5401 46.6952 59.5009 46.5735 59.6693C46.4517 59.8376 46.593 60.1498 46.8891 60.3664C47.1852 60.5831 47.5239 60.6223 47.6457 60.4539Z" fill="white"/>
<path d="M50.8274 57.9903C51.3097 57.8853 51.6079 57.3688 51.4934 56.8366C51.3789 56.3045 50.8952 55.9582 50.4129 56.0632C49.9305 56.1682 49.6323 56.6847 49.7468 57.2168C49.8613 57.749 50.3451 58.0953 50.8274 57.9903Z" fill="white"/>
<path d="M30.6767 64.7377C31.7431 64.5058 32.7807 64.3898 33.7319 64.3898C34.0201 63.6649 34.1066 62.8531 33.9336 62.0122C33.4725 59.8666 31.4549 58.5039 29.4374 58.9388C27.4198 59.3737 26.1516 61.4613 26.6128 63.6069C26.7857 64.4478 27.218 65.1436 27.7657 65.6945C28.6303 65.2886 29.6103 64.9697 30.6767 64.7377Z" fill="black"/>
<path d="M28.4943 64.6147C28.616 64.4464 28.4747 64.1342 28.1786 63.9176C27.8825 63.7009 27.5438 63.6617 27.4221 63.8301C27.3003 63.9984 27.4417 64.3105 27.7378 64.5272C28.0338 64.7439 28.3725 64.7831 28.4943 64.6147Z" fill="white"/>
<path d="M31.6916 62.1662C32.1739 62.0612 32.4721 61.5447 32.3577 61.0126C32.2432 60.4804 31.7594 60.1342 31.2771 60.2392C30.7948 60.3441 30.4966 60.8607 30.6111 61.3928C30.7255 61.925 31.2093 62.2712 31.6916 62.1662Z" fill="white"/>
<path d="M45.5491 63.549C45.9815 64.9407 45.7797 66.2165 44.8862 67.3763C44.1657 68.2751 43.2145 68.739 42.0905 68.826C40.3323 68.942 39.0353 68.1301 38.2571 66.5934C37.9689 66.0135 37.8536 65.3177 37.7095 64.6798C37.6518 64.3898 37.9689 64.1289 38.2859 64.1289C39.7847 64.1579 41.2258 63.7809 42.6381 63.346C43.2722 63.1431 43.8486 62.8241 44.4251 62.5052C44.8862 62.2732 45.2033 62.3892 45.3474 62.8821C45.4338 63.0851 45.4915 63.317 45.5491 63.549Z" fill="black"/>
<path d="M82.2683 52.705C82.2683 52.705 85.1793 50.9653 85.237 51.3422C85.2946 51.7192 83.2482 53.9517 83.2482 53.9517L81.8359 54.0097L82.2683 52.705Z" fill="black"/>
<path d="M37.3923 95.6171L36.5277 96.342C35.0001 97.5887 32.7519 97.3568 31.5126 95.8201L31.3397 95.5881C30.1003 94.0514 30.3309 91.7898 31.8585 90.543L32.7231 89.8182L37.3923 95.6171Z" fill="#CCCCCC"/>
<path d="M74.6094 55.3722L32.687 89.8131L37.3904 95.6069L79.3127 61.166L74.6094 55.3722Z" fill="#D8D8D8"/>
<path opacity="0.3" d="M78.6518 58.6298L76.9746 56.5638L40.2312 86.75L41.9083 88.816L78.6518 58.6298Z" stroke="#939393" stroke-width="1.57" stroke-miterlimit="10"/>
<path d="M37.3919 95.6171L32.6938 89.8182L34.3944 88.4264L35.5473 87.4696L39.15 84.5121L43.8481 90.3111L40.2453 93.2685L39.0924 94.2253L37.3919 95.6171Z" fill="#939393"/>
<path d="M35.5674 87.4729L34.3843 88.4451L39.0884 94.2388L40.2715 93.2667L35.5674 87.4729Z" fill="#D8D8D8"/>
<path d="M74.6025 55.4015L82.5863 52.473C82.5863 52.473 82.7304 53.2559 83.6527 53.6618L79.3294 61.2004L74.6025 55.4015Z" fill="#939393"/>
<path d="M20.9347 79.7279C23.6728 80.9457 26.728 81.4386 29.6678 81.7866C33.04 82.2215 36.4987 82.3955 39.8998 81.9605C41.485 81.7576 43.0702 81.4676 44.5113 80.7428C44.9437 80.5398 45.0589 79.9309 44.8284 79.525C44.569 79.0901 44.0502 79.0031 43.6178 79.206C43.5025 79.264 43.3873 79.322 43.2431 79.38C43.1855 79.409 43.3873 79.322 43.2143 79.38C43.1279 79.409 43.0414 79.438 42.9837 79.467C42.6955 79.583 42.4073 79.67 42.1191 79.7279C41.4562 79.9019 40.7932 80.0469 40.1303 80.1339C40.0727 80.1339 40.015 80.1629 39.9574 80.1629C39.9862 80.1629 40.1015 80.1339 39.9862 80.1629C39.8998 80.1629 39.8133 80.1919 39.7268 80.1919C39.5251 80.2209 39.3233 80.2499 39.1216 80.2499C38.718 80.2788 38.3434 80.3078 37.9398 80.3368C37.1328 80.3948 36.297 80.3948 35.4899 80.3948C32.1177 80.3658 28.9473 80.0179 25.7192 79.322C24.9698 79.1481 24.2204 78.9741 23.471 78.7421C23.154 78.6551 22.8081 78.5392 22.4911 78.4232C22.347 78.3652 22.2029 78.3072 22.0588 78.2492C21.9723 78.2202 21.9146 78.1912 21.8282 78.1622C21.7129 78.1043 22.0011 78.2492 21.7705 78.1332C21.3382 77.9303 20.8194 78.0173 20.56 78.4522C20.4159 78.8871 20.5024 79.525 20.9347 79.7279Z" fill="black"/>
<path d="M48.0844 78.6262C49.8137 79.0612 50.4478 80.6849 50.1884 81.6417C49.929 82.5985 48.2861 83.0624 46.5856 82.6275C44.8563 82.1926 42.954 81.1198 43.2999 79.931C43.5305 78.9742 46.355 78.1913 48.0844 78.6262Z" fill="black"/>
<path d="M43.8192 78.6262C44.5397 78.0753 46.3556 76.9445 46.8744 77.6984C47.1914 78.1333 45.3468 80.4529 43.7904 80.7138C42.8104 80.8588 43.0986 79.1771 43.8192 78.6262Z" fill="black"/>
<path d="M67.6845 69.5509C67.6556 69.5219 67.598 69.5219 67.5692 69.4929C67.6268 69.5509 67.6845 69.5798 67.7421 69.6378C67.6845 69.6088 67.6556 69.5509 67.6268 69.5219C67.6845 69.5799 67.7133 69.6378 67.7709 69.6958C67.7421 69.6378 67.6845 69.5799 67.6556 69.5219C67.6845 69.5799 67.7133 69.6668 67.7421 69.7248C67.7133 69.6378 67.6845 69.5798 67.6845 69.4929C67.6845 69.5798 67.7133 69.6378 67.7133 69.7248C67.7133 69.6378 67.7133 69.5509 67.7133 69.4639C67.7133 69.5509 67.6845 69.6088 67.6845 69.6958C67.7133 69.5799 67.7421 69.4929 67.7709 69.3769C67.7421 69.4349 67.7133 69.4929 67.6845 69.5509C67.7421 69.4059 67.8574 69.2609 67.9727 69.1159C67.915 69.1739 67.8862 69.2319 67.8286 69.2899C68.0303 69.029 68.2609 68.768 68.5203 68.565C68.4627 68.623 68.405 68.652 68.3474 68.71C68.4338 68.623 68.5491 68.565 68.6644 68.507C68.6068 68.536 68.5203 68.565 68.4627 68.594C68.5491 68.565 68.6068 68.536 68.6932 68.536C68.6068 68.536 68.5491 68.565 68.4627 68.565C68.5491 68.565 68.6356 68.565 68.6932 68.565C68.6068 68.565 68.5491 68.536 68.4627 68.536C68.5203 68.536 68.5779 68.565 68.6644 68.594C68.6068 68.565 68.5203 68.536 68.4627 68.507C68.5203 68.536 68.5779 68.565 68.6356 68.594C68.5779 68.536 68.5203 68.507 68.4627 68.4491C68.5203 68.507 68.5779 68.565 68.6356 68.623C68.5779 68.565 68.5491 68.507 68.4915 68.4491C68.5491 68.536 68.5779 68.594 68.6356 68.681C68.6068 68.623 68.5779 68.536 68.5491 68.4781C68.6068 68.594 68.6356 68.71 68.6356 68.826C68.6356 68.739 68.6068 68.681 68.6068 68.594C68.6068 68.71 68.6068 68.797 68.6068 68.913C68.6068 68.826 68.6356 68.768 68.6356 68.681C68.6068 68.797 68.5779 68.913 68.5491 69.029C68.5779 68.971 68.6068 68.884 68.6356 68.826C68.5779 68.971 68.4915 69.0869 68.405 69.2029C68.4627 69.1449 68.4915 69.0869 68.5491 69.029C68.3762 69.2319 68.1744 69.4059 67.9727 69.5799C68.0303 69.5219 68.088 69.4929 68.1456 69.4349C68.0591 69.4929 67.9727 69.5798 67.8574 69.6378C67.915 69.6088 68.0015 69.5799 68.0591 69.5509C68.0015 69.5799 67.9727 69.5799 67.9439 69.5799C68.0303 69.5799 68.088 69.5509 68.1744 69.5509H68.1456C68.2321 69.5509 68.2897 69.5799 68.3762 69.5799C68.3474 69.5799 68.3185 69.5799 68.2897 69.5509C68.3474 69.5799 68.4338 69.6088 68.4915 69.6378C68.4627 69.6378 68.4338 69.6088 68.4338 69.6088C68.4915 69.6668 68.5491 69.6958 68.6068 69.7538C68.5779 69.7248 68.5779 69.7248 68.5491 69.6958C68.6068 69.7538 68.6356 69.8118 68.6932 69.8698C68.6356 69.8118 68.6068 69.7538 68.5779 69.6668C68.6068 69.7248 68.6356 69.8118 68.6644 69.8698C68.6068 69.7538 68.5779 69.6378 68.5779 69.5219C68.5779 69.6088 68.6068 69.6668 68.6068 69.7538C68.6068 69.6378 68.6068 69.5219 68.6068 69.4059C68.6068 69.4929 68.5779 69.5509 68.5779 69.6378C68.6068 69.5219 68.6356 69.4059 68.6644 69.2899C68.6356 69.3479 68.6068 69.4349 68.5779 69.4929C68.6356 69.3769 68.6932 69.2899 68.7509 69.1739C68.6932 69.2319 68.6644 69.2899 68.6068 69.3479C68.6644 69.2609 68.7509 69.1739 68.8373 69.1159C68.7797 69.1739 68.7221 69.2029 68.6644 69.2609C68.7221 69.2029 68.8085 69.1739 68.8662 69.1449C68.8085 69.1739 68.7221 69.2029 68.6644 69.2319C68.6932 69.2029 68.7509 69.2029 68.7797 69.2029C68.6932 69.2029 68.6356 69.2319 68.5491 69.2319C68.6068 69.2319 68.6356 69.2319 68.6644 69.2319C68.5779 69.2319 68.5203 69.2029 68.4338 69.2029C68.4627 69.2029 68.4915 69.2029 68.5203 69.2319C68.4627 69.2029 68.3762 69.1739 68.3185 69.1449C68.3474 69.1449 68.3762 69.1739 68.405 69.1739C68.3474 69.1159 68.2897 69.0869 68.2321 69.029C68.2609 69.0579 68.2897 69.0869 68.3185 69.1159C68.2609 69.0579 68.2321 69 68.1744 68.942C68.2033 68.971 68.2033 69 68.2321 69.0579C68.2033 69 68.1744 68.913 68.1456 68.855C68.1744 68.913 68.1744 68.942 68.1744 69C68.1744 68.913 68.1456 68.855 68.1456 68.768C68.1456 68.826 68.1456 68.884 68.1456 68.971C68.1456 68.884 68.1744 68.826 68.1744 68.739C68.1744 68.797 68.1456 68.855 68.1456 68.884C68.1744 68.826 68.2033 68.739 68.2321 68.681C68.2033 68.71 68.2033 68.768 68.1744 68.797C68.2321 68.739 68.2609 68.681 68.3185 68.623C68.2609 68.681 68.2033 68.739 68.1456 68.797C68.2033 68.739 68.2609 68.71 68.3185 68.652C68.2321 68.71 68.1456 68.768 68.0303 68.826C68.088 68.797 68.1744 68.768 68.2321 68.739C68.0015 68.826 67.7709 68.913 67.5403 68.942C67.6268 68.942 67.6845 68.913 67.7709 68.913C67.6845 68.913 67.5692 68.942 67.4827 68.913C67.5692 68.913 67.6268 68.942 67.7133 68.942C67.6556 68.942 67.598 68.913 67.5403 68.913C67.598 68.942 67.6845 68.971 67.7421 69C67.7133 68.971 67.6556 68.971 67.6268 68.942C67.6845 69 67.7421 69.029 67.7997 69.0869C67.7709 69.0579 67.7421 69.029 67.7421 69.029C67.7997 69.0869 67.8286 69.1449 67.8862 69.2029C67.8574 69.1739 67.8574 69.1739 67.8574 69.1449C67.8862 69.2029 67.915 69.2899 67.9439 69.3479C67.915 69.3189 67.915 69.2609 67.915 69.2319C67.915 69.3189 67.9439 69.3769 67.9439 69.4639C67.9439 69.4059 67.9439 69.3769 67.9439 69.3479C67.9439 69.4349 67.915 69.4929 67.915 69.5799C67.915 69.4929 67.9439 69.4349 67.9727 69.3769C67.9439 69.4349 67.915 69.5219 67.8862 69.5799C67.915 69.4929 67.9727 69.4059 68.0303 69.3479C67.9727 69.4059 67.9439 69.4639 67.8862 69.5219C67.9727 69.4059 68.0591 69.3189 68.1744 69.2319C68.1168 69.2899 68.0591 69.3189 68.0015 69.3769C68.2033 69.2029 68.4627 69.0869 68.6932 68.971C68.6356 69 68.5491 69.029 68.4915 69.0579C68.6356 69 68.8085 68.942 68.9815 68.913C68.895 68.913 68.8373 68.942 68.7509 68.942C68.8373 68.942 68.9526 68.913 69.0391 68.942C68.9526 68.942 68.895 68.913 68.8085 68.913C68.8662 68.913 68.9526 68.942 69.0103 68.971C68.9526 68.942 68.8662 68.913 68.8085 68.884C68.8662 68.913 68.895 68.942 68.9526 68.971C68.895 68.913 68.8374 68.884 68.7797 68.826C68.8374 68.855 68.8662 68.913 68.895 68.942C68.8373 68.884 68.8085 68.826 68.7509 68.768C68.7797 68.797 68.8085 68.855 68.8085 68.884C68.7797 68.826 68.7509 68.739 68.7221 68.681C68.7509 68.739 68.7509 68.797 68.7797 68.855C68.7797 68.768 68.7509 68.71 68.7509 68.623C68.7509 68.681 68.7509 68.739 68.7509 68.797C68.7509 68.71 68.7797 68.652 68.7797 68.565C68.7797 68.652 68.7509 68.739 68.7221 68.826C68.7509 68.768 68.7797 68.681 68.8085 68.623C68.7797 68.71 68.7221 68.797 68.6644 68.855C68.7221 68.797 68.7509 68.739 68.8085 68.681C68.7221 68.768 68.6644 68.855 68.5491 68.913C68.6068 68.855 68.6644 68.826 68.7221 68.768C68.4915 68.942 68.2321 69.0579 67.9727 69.1449C67.7709 69.2319 67.6268 69.4929 67.5692 69.6668C67.5115 69.8698 67.5403 70.1597 67.6556 70.3627C67.7709 70.5657 67.9727 70.7106 68.1744 70.7686C68.2609 70.7686 68.3185 70.7976 68.405 70.7976C68.5779 70.7976 68.7221 70.7686 68.8373 70.6816C69.2697 70.5077 69.702 70.2757 69.9902 69.9278C70.3649 69.4639 70.5955 68.826 70.4226 68.2461C70.2208 67.5792 69.6444 67.2023 68.9815 67.1443C68.5203 67.1153 68.0303 67.2893 67.6268 67.4922C67.1657 67.7242 66.791 68.0141 66.4739 68.4201C66.0704 68.971 66.0416 69.8118 66.5604 70.3047C66.9927 70.7396 67.6556 70.7396 68.2033 70.5947C68.6644 70.4787 69.1544 70.2757 69.4714 69.9278C69.875 69.4349 69.9902 68.768 69.6732 68.1881C69.5291 67.8982 69.2409 67.6662 68.9238 67.5792C68.5491 67.4632 68.1168 67.5502 67.7997 67.7532C66.9639 68.2461 66.5316 69.3769 66.8486 70.3047C66.9639 70.6527 67.1368 70.9716 67.4539 71.2036C67.8286 71.4645 68.3474 71.4355 68.7221 71.2036C68.9526 71.0876 69.1256 70.9136 69.3273 70.7396C69.5291 70.5657 69.6732 70.3627 69.8461 70.1597C70.4514 69.3479 70.4514 68.1881 69.7597 67.4052C69.3562 66.9703 68.7509 66.8254 68.1744 66.9123C67.6845 66.9993 67.2521 67.3473 66.9062 67.7242C66.5316 68.1011 66.2145 68.536 66.0416 69.029C65.8686 69.5219 65.8975 70.1307 66.1857 70.5947C66.3298 70.8266 66.5316 71.0586 66.791 71.1746C67.0215 71.2905 67.2233 71.3195 67.4827 71.2615C67.6845 71.2036 67.915 71.0586 68.0015 70.8556C68.2321 70.3627 68.1456 69.7538 67.6845 69.5509Z" fill="black"/>
</svg>
