<svg width="176" height="175" viewBox="0 0 176 175" fill="none" xmlns="http://www.w3.org/2000/svg">
<path d="M27.5324 64.454C27.5324 64.454 23.0602 30.7564 21.4786 26.2141C21.4786 26.2141 11.8876 15.5257 21.4786 10.4488C31.0696 5.3719 102.748 3.22932 109.818 11.7833C116.889 20.3373 118.137 53.7411 118.137 53.7411L116.897 90.4955L56.2648 95.4337L27.5324 64.454Z" fill="#DBDBDB"/>
<path d="M150.626 61.0581C150.626 61.0581 145.825 56.4138 119.727 53.7407C119.727 53.7407 106.948 54.5569 110.408 88.4832L132.802 95.421C132.802 95.421 136.522 56.6138 150.626 61.0581Z" fill="#A3A3A3"/>
<path d="M32.4155 118.777V150.226H35.7779L39.0914 118.051L32.4155 118.777Z" fill="black"/>
<path d="M32.4155 118.778L29.476 117.61L30.1143 147.892L32.4155 150.227V118.778Z" fill="black"/>
<path d="M52.9068 138.551V170H56.265L59.5827 137.82L52.9068 138.551Z" fill="black"/>
<path d="M52.9068 138.551L49.9672 137.384L50.6056 167.661L52.9068 170V138.551Z" fill="black"/>
<path d="M147.008 128.667V160.116H150.37L153.683 127.936L147.008 128.667Z" fill="black"/>
<path d="M147.008 128.666L144.068 127.495L144.706 157.777L147.008 160.115V128.666Z" fill="black"/>
<path d="M126.516 108.893V140.342H129.879L133.196 108.167L126.516 108.893Z" fill="black"/>
<path d="M126.516 108.893L123.581 107.726L124.215 138.008L126.516 140.342V108.893Z" fill="black"/>
<path d="M146.987 79.6312C146.987 79.6312 155.973 78.4069 154.273 67.9307C152.574 57.4545 142.133 57.6953 138.01 61.1071C133.888 64.5189 129.753 70.8568 133.879 105.954L134.123 125.45H148.447C148.447 125.45 151.602 119.846 146.987 79.6312Z" fill="#C6C6C6"/>
<path d="M47.3123 83.6759L25.882 78.2113C25.882 78.2113 15.8966 65.768 28.4108 59.3566C28.4108 59.3566 51.687 57.3977 56.265 62.7194L47.3123 83.6759Z" fill="#6E9996"/>
<path d="M26.0324 78.5176C26.0324 78.5176 22.3245 117.619 26.0324 121.626C29.7403 125.634 45.7145 133.919 45.7145 133.919C45.7145 133.919 54.1021 100.454 47.3123 83.6761L26.0324 78.5176Z" fill="#A3A3A3"/>
<path d="M47.3123 83.6763C47.3123 83.6763 37.4611 82.3377 39.3273 70.8453C41.1934 59.3529 52.6384 59.6222 57.1636 63.3646C61.6887 67.107 66.2179 74.053 61.6846 112.538L61.4163 133.919H45.7145C45.7145 133.919 42.2546 127.773 47.3123 83.6763Z" fill="#C6C6C6"/>
<path d="M45.3201 104.265C45.3201 104.265 42.7872 128.842 45.7267 133.919C45.7267 133.919 50.2559 140.065 57.4441 138.196C64.6323 136.327 135.469 132.678 154.497 132.143C154.497 132.143 163.803 114.648 151.732 100.18C151.72 100.18 99.4958 88.5083 45.3201 104.265Z" fill="#DBDBDB"/>
<path d="M110.412 88.4833C110.412 88.4833 81.139 84.3001 63.567 90.3565L63.132 97.4862C63.132 97.4862 45.5803 100.49 45.3201 104.265C45.3201 104.265 45.9828 108.285 65.4169 104.265C84.851 100.245 151.72 100.184 151.72 100.184C151.72 100.184 152.273 94.8784 132.806 95.4375L110.412 88.4833Z" fill="#A3A3A3"/>
<path d="M130.017 43.2692C130.956 45.643 132.013 47.968 133.184 50.2356C134.131 52.1138 135.297 53.8728 136.656 55.4758C137.661 56.6103 138.99 57.7449 140.527 58.002C141.363 58.1297 142.218 58.0369 143.008 57.7328C143.798 57.4288 144.495 56.9238 145.032 56.2675C146.943 54.1168 147.922 51.2029 148.723 48.4889C148.811 48.0904 148.744 47.6731 148.534 47.3234C148.324 46.9736 147.989 46.7181 147.597 46.6096C147.205 46.5011 146.786 46.548 146.428 46.7405C146.069 46.9331 145.798 47.2566 145.67 47.6441C145.463 48.3502 145.239 49.0562 144.991 49.75C144.902 50.0112 144.804 50.2683 144.706 50.5254L144.532 50.9662C144.458 51.1417 144.45 51.158 144.532 51.007C144.491 51.0968 144.45 51.1865 144.414 51.2763C144.027 52.1456 143.561 52.9775 143.023 53.7617C142.82 54.0637 143.259 53.5005 143.023 53.7617C142.958 53.8311 142.901 53.9086 142.836 53.9821C142.771 54.0556 142.633 54.2066 142.523 54.3127C142.404 54.4305 142.279 54.5422 142.149 54.6473C142.121 54.6188 142.507 54.4065 142.214 54.5861C142.141 54.631 142.068 54.684 141.995 54.7249L141.832 54.8146C141.657 54.9167 141.612 54.8146 141.958 54.7698C141.826 54.7988 141.697 54.8397 141.572 54.8922C141.519 54.8922 141.462 54.8922 141.409 54.9248C141.238 54.9861 141.865 54.9248 141.604 54.9004C141.454 54.8922 141.303 54.8922 141.153 54.9004C140.885 54.9004 141.56 55.0024 141.312 54.9208C141.271 54.9208 141.226 54.9208 141.181 54.8963L140.775 54.782C140.576 54.7208 140.645 54.6269 140.893 54.8391C140.831 54.8021 140.765 54.7707 140.698 54.7453C140.563 54.6759 140.429 54.6024 140.291 54.5208C140.148 54.4409 140.012 54.3494 139.885 54.2474C139.885 54.2474 140.214 54.5208 139.945 54.2882L139.811 54.178C139.525 53.9215 139.254 53.649 138.998 53.3618C138.876 53.2271 138.754 53.0883 138.636 52.9537C138.518 52.819 138.148 52.3333 138.429 52.7047C138.157 52.3497 137.896 51.9824 137.648 51.611C137.12 50.8152 136.632 49.9785 136.177 49.1623C135.595 48.1053 135.063 47.0197 134.55 45.9219C134.278 45.3383 134.018 44.7506 133.762 44.163L133.583 43.7549L133.465 43.4733C133.526 43.6202 133.522 43.6079 133.465 43.4325C133.327 43.1019 133.188 42.7672 133.058 42.4367C132.745 41.6694 131.989 41.0409 131.111 41.3266C130.375 41.5674 129.671 42.4571 130.005 43.2815L130.017 43.2692Z" fill="#231300"/>
<path d="M147.841 46.6521C147.792 46.4529 147.752 46.2513 147.723 46.0481L147.776 46.4358C147.719 45.9751 147.719 45.509 147.776 45.0483L147.723 45.436C147.775 45.0679 147.862 44.7058 147.983 44.3545C148.035 44.167 148.048 43.9712 148.023 43.7785C147.998 43.5858 147.935 43.4001 147.837 43.2322C147.741 43.0668 147.614 42.9221 147.462 42.8063C147.31 42.6904 147.138 42.6058 146.953 42.5573C146.769 42.5088 146.577 42.4973 146.388 42.5234C146.199 42.5496 146.017 42.6129 145.853 42.7098C145.537 42.9147 145.301 43.2234 145.186 43.5832C144.77 44.8225 144.72 46.1565 145.044 47.4235C145.147 47.7892 145.386 48.1015 145.711 48.2968C146.05 48.489 146.451 48.5417 146.829 48.4437C147.195 48.3335 147.505 48.0857 147.693 47.7519C147.882 47.4181 147.935 47.0242 147.841 46.6521Z" fill="#231300"/>
<path d="M147.235 51.0434C147.481 51.2984 147.79 51.4829 148.13 51.578C148.321 51.6344 148.52 51.6645 148.719 51.6678C149.022 51.6667 149.323 51.6242 149.614 51.5413C150.113 51.3969 150.592 51.1913 151.041 50.9291C151.634 50.5968 152.118 50.0993 152.435 49.4967C152.757 48.7847 152.949 48.0201 153 47.2398C153.092 46.5572 153.045 45.8632 152.862 45.1993C152.622 44.3915 152.107 43.694 151.407 43.2281C150.71 42.7987 149.884 42.6304 149.075 42.7528C148.267 42.8753 147.527 43.2807 146.987 43.8974C146.387 44.5639 146.028 45.4133 145.967 46.3093C145.93 47.2031 146.321 47.9418 146.727 48.7049C146.985 49.1388 147.402 49.4538 147.888 49.5821C148.375 49.7103 148.892 49.6415 149.329 49.3906C149.756 49.127 150.065 48.7085 150.192 48.222C150.319 47.7356 150.255 47.2186 150.012 46.7787C149.89 46.5542 149.76 46.3379 149.654 46.1053L149.85 46.5624C149.789 46.418 149.744 46.2675 149.715 46.1134L149.785 46.6195C149.77 46.4988 149.77 46.3769 149.785 46.2563L149.715 46.7623C149.741 46.5985 149.786 46.4382 149.85 46.2849L149.658 46.7419C149.735 46.5734 149.829 46.4134 149.939 46.2644L149.642 46.6522C149.741 46.5225 149.854 46.4048 149.98 46.3012L149.597 46.5991C149.705 46.5145 149.823 46.4433 149.947 46.3869L149.492 46.5787C149.598 46.5375 149.709 46.5061 149.821 46.4848L149.313 46.5542C149.488 46.5297 149.666 46.5297 149.841 46.5542L149.337 46.4848C149.47 46.5086 149.599 46.5469 149.724 46.5991L149.272 46.4032C149.367 46.4512 149.458 46.5058 149.545 46.5664L149.158 46.2685C149.256 46.3465 149.345 46.4355 149.423 46.5338L149.126 46.1461C149.201 46.25 149.266 46.3606 149.321 46.4767L149.126 46.0196C149.205 46.2089 149.258 46.4079 149.284 46.6113L149.219 46.1053C149.259 46.5131 149.25 46.9241 149.191 47.3296L149.26 46.8236C149.221 47.2103 149.132 47.5903 148.996 47.954L149.187 47.501C149.127 47.6355 149.052 47.7628 148.963 47.8806L149.26 47.4969C149.188 47.5888 149.106 47.6723 149.016 47.7459L149.423 47.448C149.172 47.6294 148.898 47.7775 148.61 47.8887L149.065 47.6969C148.847 47.7926 148.62 47.8624 148.386 47.9051L148.89 47.8357C148.829 47.8438 148.768 47.8438 148.707 47.8357L149.215 47.9051H149.162L149.614 48.0969H149.593L149.98 48.3948C149.966 48.3886 149.955 48.3786 149.947 48.3662C149.681 48.0976 149.342 47.9143 148.972 47.8398C148.602 47.7652 148.218 47.8027 147.87 47.9475C147.521 48.0923 147.223 48.3378 147.014 48.6529C146.805 48.968 146.694 49.3384 146.695 49.7171C146.718 50.2175 146.915 50.6941 147.252 51.0638L147.235 51.0434Z" fill="#231300"/>
<path d="M91.7465 6.65724C83.0661 6.65117 74.5786 9.22779 67.3565 14.0616C60.1343 18.8954 54.5015 25.7694 51.1696 33.8152C47.8378 41.861 46.9564 50.7176 48.6369 59.2661C50.3174 67.8145 54.4843 75.6711 60.6112 81.8434C58.9362 88.6262 56.0455 95.4906 51.1869 95.4906C54.5493 100.021 69.8892 93.9724 76.7481 92.1972C82.7703 94.3763 89.1944 95.2072 95.5703 94.6319C101.946 94.0565 108.12 92.0887 113.658 88.8663C119.197 85.644 123.966 81.245 127.633 75.9775C131.299 70.7101 133.774 64.7016 134.884 58.373C135.993 52.0445 135.711 45.5489 134.056 39.3414C132.402 33.1339 129.415 27.3646 125.306 22.4377C121.196 17.5108 116.063 13.5455 110.266 10.8196C104.469 8.09364 98.1481 6.67302 91.7465 6.65724Z" fill="#117DC1"/>
<path d="M47.8612 48.8237C47.8368 49.4563 47.8164 50.093 47.8164 50.7296C47.8086 56.5021 48.9338 62.2196 51.1277 67.5555C53.3217 72.8914 56.5415 77.7411 60.6031 81.8276C58.928 88.6104 56.0373 95.4748 51.1788 95.4748C54.5411 100.005 69.8811 93.9566 76.7399 92.1814C86.1324 95.6012 96.4053 95.7065 105.865 92.4801C115.326 89.2538 123.408 82.8882 128.781 74.4326C120.15 79.3535 110.393 81.9384 100.467 81.9337C77.6954 81.9337 57.9157 68.5273 47.8612 48.8237Z" fill="#1E70AC"/>
<path d="M61.9367 59.214C61.7131 63.5318 65.2178 67.0252 68.8932 68.6577C71.1667 69.6885 73.6373 70.208 76.1319 70.1798C78.6264 70.1516 81.0847 69.5764 83.3346 68.4944C86.2863 66.9647 88.7461 64.6272 90.4293 61.7525C90.6422 61.3866 90.7017 60.9508 90.5946 60.541C90.4874 60.1311 90.2225 59.7808 89.858 59.567C89.4936 59.3533 89.0594 59.2936 88.6511 59.4011C88.2428 59.5086 87.8938 59.7746 87.6808 60.1404C87.4979 60.4383 87.3109 60.7322 87.1116 61.0219C87.01 61.1729 86.9043 61.3199 86.7986 61.4668L86.6766 61.63C86.4164 61.9892 86.8799 61.3892 86.5994 61.728C86.1846 62.2455 85.7422 62.7401 85.2739 63.2094C85.0544 63.4257 84.8267 63.6175 84.595 63.8379C84.4893 63.9318 84.3835 64.0256 84.2738 64.1154L84.0867 64.2664C83.916 64.4133 84.3917 64.042 84.0867 64.2664C83.6057 64.6264 83.1048 64.9589 82.5865 65.2622C82.3426 65.405 82.0945 65.5397 81.8384 65.6703L81.4318 65.8662C81.2977 65.9274 80.9724 66.0621 81.3058 65.9274C80.2705 66.3556 79.1903 66.665 78.0857 66.8498L77.8784 66.8824C77.5857 66.9314 77.9678 66.8579 77.9882 66.8824C77.9191 66.8457 77.6507 66.9232 77.5816 66.9314C77.3011 66.9599 77.0246 66.9803 76.7441 66.9926C76.2115 67.0171 75.6748 67.013 75.1422 66.9926C74.886 66.9926 74.6299 66.9559 74.3738 66.9273C74.2558 66.9273 73.8086 66.8865 74.2924 66.9273C74.1558 66.9155 74.02 66.8951 73.8859 66.8661C72.8756 66.7009 71.8842 66.4357 70.926 66.0743L70.5642 65.9356C70.3162 65.8376 70.8935 66.0866 70.5032 65.907C70.2755 65.805 70.0478 65.6989 69.8202 65.5846C69.4136 65.3642 68.9826 65.1275 68.5801 64.8663C68.3931 64.7439 68.2061 64.6174 68.0231 64.4827L67.9011 64.3929C68.1207 64.5603 67.7751 64.2909 67.7182 64.2419C67.3776 63.9585 67.0557 63.6531 66.7546 63.3278C66.5838 63.1441 66.4294 62.9482 66.2667 62.7605C66.1651 62.6421 66.3928 62.9156 66.3887 62.9197C66.3846 62.9237 66.2505 62.7319 66.2423 62.7238L66.0594 62.4544C65.9293 62.2544 65.8073 62.0463 65.6975 61.8382C65.6447 61.7443 65.5999 61.6504 65.5552 61.5566C65.5105 61.4627 65.3519 61.1117 65.4739 61.3933C65.5959 61.6749 65.4414 61.2872 65.417 61.2219C65.3926 61.1566 65.3519 61.026 65.3235 60.9281C65.2549 60.7073 65.2006 60.4824 65.1608 60.2547C65.1608 60.2057 65.1608 60.1568 65.1324 60.1037C65.0795 59.8466 65.1608 60.4588 65.1324 60.2629C65.1324 60.1486 65.1324 60.0343 65.1039 59.92C65.0917 59.6876 65.0917 59.4546 65.1039 59.2222C65.1018 58.7996 64.9336 58.395 64.636 58.0962C64.3383 57.7974 63.9352 57.6286 63.5142 57.6265C63.0955 57.6358 62.6966 57.8069 62.4005 58.1042C62.1043 58.4014 61.9339 58.8019 61.9245 59.2222L61.9367 59.214Z" fill="#231300"/>
<g style="mix-blend-mode:multiply">
<path d="M103.183 50.5211C97.0848 50.3783 92.4336 49.5947 92.4336 48.652C92.4336 47.7093 96.9059 46.9583 102.805 46.791C102.804 48.0441 102.931 49.294 103.183 50.5211Z" fill="#F0FCFB"/>
</g>
<path d="M96.2432 34.0502C96.378 33.9916 96.5233 33.9613 96.6701 33.9613C96.817 33.9613 96.9623 33.9916 97.097 34.0502C97.213 34.1402 97.309 34.2535 97.379 34.3827C97.449 34.512 97.4914 34.6545 97.5036 34.8011C97.581 35.8374 98.005 36.8169 98.7069 37.5807C99.4088 38.3446 100.347 38.8478 101.37 39.0087C102.344 39.1447 103.336 38.9565 104.194 38.473C105.051 37.9895 105.727 37.2373 106.119 36.3315C106.359 35.7105 106.496 35.0543 106.525 34.3889C106.566 33.8217 106.798 33.5278 107.339 33.4788C107.879 33.4299 108.18 33.7645 108.225 34.3685C108.4 36.6335 106.814 39.2658 104.736 40.1718C101.659 41.5023 98.4875 40.58 96.7148 37.7232C96.2432 36.9437 95.6212 34.3726 96.2432 34.0502Z" fill="black"/>
<path d="M115.324 30.6828C116.868 30.6174 118.416 30.7076 119.942 30.9522C120.583 29.9099 120.897 28.6987 120.845 27.4751C120.711 24.1816 118.076 21.6187 114.958 21.7616C111.839 21.9044 109.424 24.6591 109.558 27.9526C109.606 29.1764 110.018 30.3578 110.742 31.344C112.243 30.9706 113.778 30.7492 115.324 30.6828Z" fill="black"/>
<path d="M112.119 29.9385C112.35 29.7142 112.227 29.2109 111.844 28.8142C111.461 28.4176 110.964 28.2779 110.733 28.5021C110.502 28.7264 110.626 29.2297 111.009 29.6264C111.391 30.023 111.889 30.1627 112.119 29.9385Z" fill="white"/>
<path d="M117.494 27.1354C118.241 27.1048 118.819 26.4137 118.786 25.5917C118.753 24.7697 118.12 24.1281 117.373 24.1586C116.626 24.1891 116.047 24.8802 116.081 25.7022C116.114 26.5242 116.747 27.1659 117.494 27.1354Z" fill="white"/>
<path d="M85.8147 31.891C87.3593 31.8253 88.9066 31.9156 90.4333 32.1604C91.0761 31.1173 91.392 29.9045 91.34 28.6792C91.2058 25.3898 88.5712 22.8228 85.4528 22.9656C82.3344 23.1085 79.9153 25.8632 80.0495 29.1567C80.0982 30.3809 80.5118 31.5623 81.2367 32.5481C82.737 32.1764 84.2707 31.9563 85.8147 31.891Z" fill="black"/>
<path d="M82.613 31.146C82.8436 30.9217 82.7203 30.4184 82.3375 30.0218C81.9547 29.6251 81.4575 29.4854 81.2269 29.7097C80.9962 29.9339 81.1196 30.4373 81.5023 30.8339C81.8851 31.2305 82.3824 31.3702 82.613 31.146Z" fill="white"/>
<path d="M87.9889 28.3429C88.736 28.3124 89.3147 27.6213 89.2813 26.7993C89.248 25.9773 88.6154 25.3356 87.8682 25.3661C87.1211 25.3967 86.5425 26.0878 86.5758 26.9098C86.6091 27.7318 87.2418 28.3734 87.9889 28.3429Z" fill="white"/>
<path d="M90.8602 59.6712C91.1472 59.6712 91.4279 59.5858 91.6665 59.4257C91.9052 59.2656 92.0913 59.038 92.2011 58.7718C92.311 58.5056 92.3397 58.2127 92.2837 57.93C92.2277 57.6474 92.0895 57.3878 91.8865 57.1841C91.6835 56.9803 91.4249 56.8415 91.1433 56.7853C90.8618 56.7291 90.5699 56.758 90.3047 56.8682C90.0395 56.9785 89.8128 57.1652 89.6533 57.4048C89.4938 57.6444 89.4087 57.9261 89.4087 58.2143C89.414 58.599 89.5686 58.9666 89.8396 59.2387C90.1107 59.5107 90.4769 59.6659 90.8602 59.6712Z" fill="black"/>
<path d="M144.894 41.5751L145.235 44.9991C145.24 45.3804 145.385 45.7464 145.642 46.0276C145.914 46.2991 146.282 46.4529 146.666 46.4561C147.051 46.4519 147.42 46.2983 147.695 46.0276C147.827 45.8919 147.932 45.7311 148.001 45.5545C148.071 45.3779 148.105 45.1891 148.101 44.9991L147.764 41.5751C147.751 41.1916 147.599 40.826 147.337 40.5466C147.067 40.2775 146.701 40.1265 146.321 40.1265C145.94 40.1265 145.574 40.2775 145.304 40.5466C145.171 40.6819 145.067 40.8427 144.997 41.0194C144.927 41.196 144.893 41.385 144.898 41.5751H144.894Z" fill="#231300"/>
<path d="M42.5758 82.4474L26.256 79.5906C26.256 79.5906 15.429 65.9067 27.9392 59.4953C27.9392 59.4953 51.2114 57.5364 55.7934 62.8581L39.5875 77.1909C39.3842 77.3746 42.8482 82.4311 42.5758 82.4474Z" fill="#A3A3A3"/>
<path d="M55.6593 62.6344C40.6446 53.7294 30.834 82.5379 46.7797 80.3994L60.4649 82.3094C63.9127 69.1927 58.6476 64.4056 55.6593 62.6344Z" fill="#C6C6C6"/>
<path d="M112.937 87.8183C113.551 87.6755 114.157 87.5449 114.791 87.4102C115.08 87.3571 115.372 87.3082 115.665 87.2633L116.072 87.2061C116.251 87.1776 116.003 87.2061 115.986 87.2061L116.238 87.1776C117.233 87.0506 118.236 86.9946 119.239 87.0103C119.694 87.0103 120.145 87.047 120.597 87.096C120.658 87.096 120.983 87.1449 120.723 87.096C120.463 87.047 120.78 87.096 120.841 87.1164C121.048 87.149 121.247 87.1857 121.459 87.2306C121.814 87.3077 122.166 87.403 122.512 87.5163L122.963 87.6796C123.268 87.7938 122.703 87.553 122.918 87.6796L123.158 87.7938C123.439 87.9333 123.71 88.09 123.971 88.2632C124.089 88.3407 124.199 88.4264 124.317 88.5039C124.435 88.5815 124.02 88.255 124.252 88.459L124.435 88.6141C124.655 88.8092 124.861 89.0192 125.053 89.2426L125.183 89.3936C125.378 89.6181 124.996 89.1202 125.13 89.3242C125.207 89.4426 125.297 89.5609 125.374 89.6793C125.532 89.9254 125.676 90.1802 125.805 90.4425C125.837 90.5159 125.87 90.5853 125.907 90.6588C126.012 90.8832 125.907 90.6588 125.858 90.5445C125.903 90.6833 125.956 90.8196 126.016 90.9526C126.218 91.5493 126.367 92.1624 126.464 92.785C126.504 93.038 126.464 92.8136 126.464 92.6707C126.467 92.7446 126.476 92.8182 126.488 92.8911C126.51 93.0652 126.526 93.2407 126.537 93.4176C126.561 93.7522 126.573 94.0869 126.577 94.4175C126.577 95.1153 126.545 95.8132 126.48 96.507L126.419 97.0416C126.419 97.1069 126.37 97.4048 126.419 97.1273C126.468 96.8498 126.419 97.1885 126.399 97.2579C126.346 97.6211 126.285 97.9843 126.22 98.3476C126.081 99.0876 125.92 99.8208 125.736 100.547C125.362 102.025 124.902 103.482 124.39 104.918C124.141 105.604 123.881 106.284 123.609 106.959C123.544 107.122 123.479 107.285 123.41 107.448C123.382 107.526 123.349 107.599 123.321 107.673C123.199 107.963 123.349 107.608 123.321 107.64C123.187 107.95 123.057 108.261 122.914 108.571C122.662 109.15 122.398 109.722 122.125 110.293C121.828 110.798 121.658 111.368 121.629 111.954C121.643 112.39 121.761 112.815 121.973 113.195C122.185 113.576 122.486 113.899 122.849 114.137C123.491 114.486 124.153 114.794 124.833 115.06C126.146 115.66 127.46 116.264 128.761 116.884C129.521 117.247 130.273 117.614 131.025 117.99C131.377 118.184 131.79 118.235 132.178 118.133C132.566 118.03 132.9 117.782 133.111 117.439C133.313 117.088 133.369 116.672 133.267 116.28C133.165 115.888 132.913 115.552 132.566 115.345C130.062 114.092 127.513 112.954 124.976 111.774C124.894 111.738 124.451 111.452 124.37 111.481C124.524 111.428 124.695 111.938 124.585 111.623C124.646 111.791 124.646 111.974 124.585 112.142C124.536 112.346 124.585 112.142 124.618 112.085C124.65 112.027 124.687 111.942 124.719 111.868C124.99 111.289 125.262 110.705 125.533 110.117C126.799 107.316 127.832 104.414 128.623 101.441C129.371 98.5108 129.842 95.4132 129.436 92.3892C129.053 89.5324 127.708 86.9001 125.171 85.4145C121.829 83.4515 117.596 83.7821 113.945 84.4432C113.327 84.5575 112.726 84.6881 112.095 84.8309C111.902 84.8845 111.721 84.9758 111.563 85.0996C111.405 85.2233 111.273 85.3771 111.174 85.5522C111.075 85.7273 111.011 85.9202 110.987 86.12C110.962 86.3197 110.977 86.5224 111.03 86.7164C111.084 86.9104 111.174 87.092 111.298 87.2507C111.421 87.4094 111.574 87.5422 111.749 87.6415C111.923 87.7408 112.115 87.8047 112.314 87.8294C112.513 87.8541 112.715 87.8393 112.909 87.7857L112.937 87.8183Z" fill="#231300"/>
<path d="M90.3805 92.6136C93.2491 91.6208 96.1984 90.8807 99.1949 90.4017C99.4795 90.3568 99.1746 90.4017 99.1299 90.4017L99.3535 90.3731L99.7926 90.32C100.093 90.2874 100.394 90.2588 100.695 90.2384C101.236 90.1976 101.777 90.1772 102.321 90.1772C102.797 90.1772 103.273 90.1976 103.744 90.2425L104.082 90.2751H104.245C104.448 90.2996 104.151 90.3282 104.078 90.2547C104.159 90.3364 104.578 90.3364 104.7 90.3608C105.096 90.4336 105.488 90.5332 105.871 90.6588C106.046 90.7118 106.216 90.7771 106.391 90.8383C106.66 90.9404 106.42 90.8914 106.302 90.7975C106.396 90.8531 106.495 90.8982 106.599 90.9322C106.898 91.0775 107.187 91.2424 107.465 91.426L107.664 91.5607C107.839 91.6831 107.814 91.7974 107.591 91.4995C107.707 91.6177 107.834 91.7256 107.969 91.8219C108.189 92.0339 108.398 92.2573 108.595 92.4912C108.79 92.7116 108.363 92.1606 108.53 92.4014C108.57 92.4667 108.619 92.5238 108.66 92.585C108.749 92.7197 108.835 92.8544 108.916 92.9931C109.071 93.2543 109.172 93.5482 109.323 93.8094C109.034 93.3278 109.29 93.7482 109.355 93.9277C109.42 94.1073 109.461 94.242 109.506 94.4052C109.595 94.7222 109.669 95.0437 109.725 95.3684L109.762 95.5806C109.762 95.6459 109.819 95.9887 109.762 95.65C109.705 95.3112 109.762 95.6499 109.762 95.7234L109.786 96.0091C109.844 96.715 109.854 97.4241 109.815 98.1313C109.794 98.5067 109.762 98.8863 109.721 99.2576C109.721 99.3515 109.721 99.4454 109.689 99.5352C109.656 99.6249 109.64 99.9188 109.689 99.6127C109.737 99.3066 109.689 99.6617 109.689 99.7229L109.64 100.037C109.515 100.815 109.358 101.587 109.168 102.351C108.782 103.916 108.314 105.46 107.765 106.975C107.494 107.715 107.214 108.45 106.924 109.179C106.855 109.35 106.786 109.526 106.712 109.701L106.607 109.958C106.586 110.003 106.57 110.044 106.554 110.089C106.46 110.313 106.684 109.775 106.611 109.942C106.464 110.285 106.322 110.628 106.172 110.966C105.903 111.583 105.623 112.191 105.359 112.803C105.094 113.415 104.545 114.207 104.415 114.917C104.313 115.446 104.37 115.994 104.58 116.49C104.791 116.986 105.144 117.407 105.594 117.7C105.906 117.871 106.228 118.024 106.558 118.157C108.042 118.839 109.526 119.508 111.002 120.198C111.929 120.639 112.852 121.087 113.771 121.545C114.122 121.74 114.535 121.793 114.924 121.691C115.313 121.589 115.649 121.341 115.86 120.998C116.06 120.645 116.115 120.229 116.012 119.837C115.909 119.444 115.658 119.108 115.311 118.9C113.527 118.006 111.721 117.157 109.904 116.329L108.009 115.464C107.892 115.407 107.233 114.99 107.119 115.035C107.184 115.011 107.367 115.26 107.4 115.296C107.29 115.178 107.4 115.125 107.4 115.296C107.412 115.398 107.412 115.501 107.4 115.602C107.4 115.602 107.249 115.913 107.334 115.758C107.42 115.602 107.461 115.5 107.522 115.374C107.656 115.092 107.79 114.811 107.928 114.529C108.221 113.909 108.505 113.284 108.782 112.656C110.147 109.674 111.254 106.58 112.091 103.408C112.852 100.364 113.34 97.0538 112.591 93.9522C112.237 92.4494 111.487 91.0699 110.419 89.9584C109.351 88.8469 108.005 88.0442 106.521 87.6347C104.584 87.1202 102.571 86.9612 100.577 87.1653C97.6805 87.4336 94.8192 88.0026 92.0393 88.8631C91.2261 89.1025 90.413 89.3582 89.5999 89.6303C89.2058 89.7437 88.8718 90.0077 88.6696 90.3656C88.4674 90.7235 88.4131 91.1467 88.5184 91.5444C88.6303 91.9335 88.8895 92.2633 89.2406 92.4631C89.5916 92.6629 90.0065 92.7169 90.3967 92.6136H90.3805Z" fill="#231300"/>
<path d="M111.742 104.759C112.205 104.759 112.742 104.787 113.018 105.167C113.295 105.546 113.152 106.085 112.994 106.53L110.176 114.353C111.26 114.29 112.346 114.449 113.366 114.821C114.387 115.193 115.321 115.77 116.112 116.516C117.633 117.969 118.511 119.957 119.365 121.887C119.528 122.182 119.604 122.518 119.584 122.854C119.517 123.088 119.394 123.3 119.225 123.474C119.056 123.648 118.847 123.777 118.617 123.85C116.84 124.622 114.767 124.013 113.067 123.087C111.368 122.161 109.814 120.908 107.997 120.275C106.712 119.834 105.326 119.712 104.086 119.161C102.846 118.61 101.716 117.427 101.842 116.068C101.951 115.414 102.199 114.792 102.569 114.243C104.506 110.83 106.092 107.229 107.302 103.494" fill="#494949"/>
<path d="M128.261 102.298C128.724 102.298 129.257 102.326 129.537 102.706C129.818 103.086 129.671 103.624 129.513 104.069L126.695 111.893C127.78 111.83 128.865 111.99 129.886 112.363C130.906 112.735 131.84 113.313 132.631 114.06C134.152 115.512 135.03 117.496 135.884 119.43C136.046 119.725 136.121 120.061 136.099 120.398C136.033 120.631 135.911 120.843 135.743 121.017C135.574 121.191 135.366 121.32 135.136 121.393C133.359 122.161 131.286 121.553 129.586 120.626C127.887 119.7 126.334 118.447 124.516 117.818C123.231 117.373 121.845 117.251 120.605 116.7C119.365 116.149 118.235 114.966 118.357 113.611C118.469 112.956 118.719 112.333 119.088 111.782C121.026 108.37 122.611 104.768 123.821 101.033" fill="#494949"/>
<path d="M99.8007 63.9844L98.8371 63.3151C98.1297 63.7233 97.4832 64.2416 96.6498 64.3517C95.7542 64.4559 94.8469 64.3697 93.9867 64.0987C93.3848 63.9318 92.8226 63.6449 92.3336 63.255C91.8446 62.8652 91.4389 62.3804 91.1407 61.8296C90.3845 60.3115 90.7667 57.7485 92.767 57.5118C93.199 57.4879 93.6309 57.5604 94.0316 57.7242C94.4323 57.8879 94.7919 58.1387 95.0845 58.4586C95.5205 58.9616 95.9034 59.5087 96.2269 60.0911C96.4058 60.3645 96.3855 60.4992 96.7148 60.4992C96.8002 60.4992 97.528 59.9605 97.528 59.9809C96.8409 58.8749 96.1294 57.7404 95.0885 56.9609C94.0477 56.1814 92.5841 55.8263 91.4294 56.4262C89.5063 57.4261 88.99 60.3441 89.8031 62.1806C90.3481 63.3238 91.2563 64.2527 92.3848 64.8211C93.5781 65.4339 94.9222 65.6879 96.2557 65.5525C97.5893 65.4171 98.8555 64.8982 99.9023 64.0579L99.8007 63.9844Z" fill="#FFA733"/>
<path d="M110.315 62.65C109.625 64.7657 109.199 66.959 109.046 69.1797C109.046 69.747 107.013 70.1878 104.509 70.1674C102.004 70.147 99.9837 69.6695 99.9877 69.0981C99.9877 67.5146 99.3616 64.964 98.6298 62.5684L110.315 62.65Z" fill="#59A4EF"/>
<path d="M110.315 62.65C109.625 64.7657 109.199 66.959 109.046 69.1797C109.046 69.747 107.013 70.1878 104.509 70.1674C102.004 70.147 99.9837 69.6695 99.9877 69.0981C99.9877 67.5146 99.3616 64.964 98.6298 62.5684L110.315 62.65Z" fill="black"/>
<path d="M93.8037 55.1084C95.06 59.1895 94.9665 64.2419 99.0891 66.7967C100.276 67.5313 101.768 67.6904 103.13 67.7884C106.546 68.0373 109.026 67.87 111.209 65.507C113.555 62.9604 113.51 60.4954 115.092 55.3043L93.8037 55.1084Z" fill="#FFC82C"/>
<path d="M114.059 57.1036C107.713 58.2993 101.183 58.6911 94.8731 56.9362C94.7552 56.6424 94.6413 56.3445 94.5356 56.0425C101.041 57.9606 107.806 57.5321 114.356 56.2629C114.262 56.5485 114.165 56.8261 114.059 57.1036Z" fill="#FFA733"/>
<path d="M94.1412 55.0799C94.1412 55.2473 94.3689 55.4064 94.7877 55.5574C96.2595 56.0757 100.073 56.4757 104.525 56.5124C108.977 56.5491 112.799 56.2226 114.283 55.7247C114.689 55.5819 114.937 55.4268 114.941 55.2636C114.941 54.5208 110.294 53.8801 104.554 53.8311C98.8127 53.7821 94.1453 54.3412 94.1412 55.0799Z" fill="#F5FAFF"/>
<path d="M94.7877 55.5576C96.2595 56.0759 100.073 56.4758 104.525 56.5125C108.977 56.5493 112.799 56.2228 114.283 55.7249C112.811 55.2025 108.997 54.8066 104.545 54.7699C100.093 54.7332 96.2676 55.0597 94.7877 55.5576Z" fill="#44332F"/>
<path d="M97.3572 55.753C95.2634 55.4959 94.5112 55.2183 94.2673 55.0796C94.5234 54.949 95.2715 54.6715 97.3694 54.4633C102.145 54.0456 106.95 54.088 111.717 54.5899C113.811 54.847 114.563 55.1245 114.807 55.2592C114.551 55.3938 113.803 55.6673 111.705 55.8754C109.32 56.1012 106.925 56.1965 104.529 56.1611C102.133 56.1534 99.7389 56.0172 97.3572 55.753ZM104.549 53.8308C98.6257 53.7777 93.8201 54.3368 93.8119 55.0551C93.8038 55.7734 98.6054 56.4386 104.525 56.4916C110.445 56.5447 115.096 56.006 115.096 55.2673C115.096 54.5286 110.457 53.8634 104.525 53.8145L104.549 53.8308Z" fill="white"/>
<path fill-rule="evenodd" clip-rule="evenodd" d="M104.375 61.6747C104.307 61.6049 104.26 61.5174 104.24 61.4221C104.219 61.3269 104.226 61.2277 104.259 61.1361C104.292 61.0445 104.35 60.9641 104.427 60.9042C104.503 60.8443 104.595 60.8072 104.692 60.7973L106.07 60.6381C106.155 60.6299 106.237 60.6005 106.308 60.5528C106.379 60.5051 106.437 60.4405 106.477 60.3647L107.131 59.1404C107.186 59.054 107.262 58.9833 107.352 58.9355C107.442 58.8876 107.543 58.8642 107.645 58.8675C107.746 58.8708 107.846 58.9007 107.932 58.9543C108.019 59.0079 108.091 59.0833 108.14 59.173L108.713 60.4422C108.749 60.5185 108.802 60.5851 108.869 60.6369C108.935 60.6886 109.012 60.724 109.095 60.7401L110.465 60.9809C110.56 60.9983 110.649 61.0419 110.721 61.1069C110.793 61.1719 110.845 61.2558 110.872 61.349C110.899 61.4423 110.9 61.5413 110.874 61.6348C110.848 61.7284 110.796 61.8129 110.725 61.8788L109.66 62.8133C109.598 62.8704 109.551 62.9419 109.522 63.0216C109.494 63.1013 109.485 63.1867 109.497 63.2704L109.693 64.6498C109.706 64.7464 109.692 64.8449 109.653 64.9341C109.613 65.0232 109.55 65.0995 109.47 65.1543C109.389 65.2091 109.295 65.2402 109.198 65.2441C109.101 65.248 109.005 65.2245 108.92 65.1763L107.7 64.4907C107.612 64.453 107.516 64.4335 107.42 64.4335C107.323 64.4335 107.228 64.453 107.139 64.4907L105.891 65.1028C105.804 65.1448 105.707 65.1616 105.611 65.1514C105.515 65.1412 105.424 65.1044 105.348 65.0451C105.271 64.9858 105.213 64.9064 105.179 64.8157C105.145 64.725 105.137 64.6266 105.155 64.5315L105.432 63.1643C105.448 63.081 105.444 62.995 105.421 62.9134C105.398 62.8318 105.355 62.7569 105.298 62.695L104.375 61.6747Z" fill="white"/>
<path d="M89.5429 60.5687C89.5063 60.201 89.5063 59.8305 89.5429 59.4627L89.4941 59.8708C89.5182 59.7329 89.5507 59.5966 89.5917 59.4627C89.6405 59.2832 89.4169 59.7606 89.5551 59.5648C89.5917 59.5199 89.7259 59.324 89.5551 59.528C89.3844 59.7321 89.5551 59.577 89.5551 59.528C89.6608 59.4056 89.2624 59.7076 89.4657 59.5974C89.509 59.5753 89.5511 59.5508 89.5917 59.5239C89.3356 59.6953 89.3478 59.6219 89.5226 59.5892L89.116 59.6382C89.1891 59.6321 89.2625 59.6321 89.3356 59.6382L88.9493 59.5852C89.0266 59.5852 89.0998 59.6301 89.177 59.6423C88.9656 59.5443 88.9087 59.5239 89.0062 59.5811C89.0998 59.6382 89.055 59.5811 88.8761 59.4668C88.9162 59.5213 88.9642 59.5694 89.0184 59.6096C89.1323 59.7158 88.8477 59.3199 88.9615 59.5403C89.0022 59.6178 89.0469 59.6913 89.0835 59.7688C89.2258 60.0341 88.9778 59.4505 89.0835 59.7402C89.1323 59.8953 89.1892 60.0504 89.238 60.2055C89.4999 60.8925 89.7066 61.5994 89.856 62.3195L89.8031 61.9359C89.8296 62.1623 89.8296 62.391 89.8031 62.6174L89.856 62.2093C89.8468 62.2882 89.8305 62.366 89.8072 62.4419L89.8926 62.2338C89.9481 62.1325 90.0295 62.048 90.1284 61.9889C90.2341 61.9155 90.2544 61.8951 90.1934 61.9359C90.1324 61.9767 90.1568 61.9644 90.3804 61.8583C90.31 61.864 90.2405 61.8777 90.1731 61.8991L90.5797 61.8461C90.4296 61.8603 90.2785 61.8603 90.1284 61.8461L90.5146 61.8951C90.4114 61.8609 90.3052 61.8363 90.1975 61.8216C90.4049 61.9195 90.4577 61.94 90.3601 61.8828C90.2625 61.8257 90.3113 61.8828 90.4943 61.9971L90.3845 61.8869C90.5187 62.0706 90.5553 62.1154 90.4943 62.0257C90.4333 61.9359 90.3967 61.8665 90.352 61.7849C90.1487 61.4012 89.982 60.9931 89.8031 60.6014C89.6134 60.2726 89.3022 60.0322 88.9371 59.932C88.7503 59.8816 88.5554 59.8686 88.3635 59.8938C88.1717 59.919 87.9867 59.9819 87.8191 60.079C87.4951 60.2812 87.2607 60.6004 87.1639 60.9708C87.0671 61.3412 87.1153 61.7347 87.2986 62.0705C87.4877 62.5358 87.7035 62.9895 87.9451 63.4296C88.1297 63.7474 88.3778 64.0235 88.6737 64.2405C88.9697 64.4575 89.3071 64.6107 89.6649 64.6906C90.3501 64.8594 91.0731 64.7709 91.6977 64.4417C92.0478 64.2038 92.3282 63.8764 92.5098 63.4932C92.6914 63.11 92.7675 62.685 92.7304 62.2624C92.6953 61.6225 92.5665 60.9913 92.3483 60.3891C92.1938 59.9116 92.0474 59.426 91.8766 58.9526C91.6683 58.2794 91.2684 57.6822 90.726 57.2344C90.4215 56.9909 90.0619 56.8263 89.6791 56.7552C89.2962 56.684 88.9018 56.7084 88.5306 56.8263C88.1327 56.9721 87.7714 57.2032 87.4715 57.5035C87.1717 57.8037 86.9407 58.1659 86.7945 58.5649C86.5802 59.2096 86.5122 59.8942 86.5953 60.5687C86.5953 60.9551 86.7482 61.3257 87.0204 61.5989C87.2926 61.8722 87.6618 62.0257 88.0467 62.0257C88.4317 62.0257 88.8009 61.8722 89.0731 61.5989C89.3453 61.3257 89.4982 60.9551 89.4982 60.5687H89.5429Z" fill="black"/>
</svg>
