<svg width="175" height="175" viewBox="0 0 175 175" fill="none" xmlns="http://www.w3.org/2000/svg">
<path d="M56.9933 79.3559C56.0111 81.7738 54.942 84.1608 53.7299 86.4731C53.1953 87.4863 52.6359 88.4808 52.0267 89.4505C51.7594 89.8794 51.4797 90.3021 51.1876 90.7124C50.8084 91.2469 50.7587 91.3153 50.4044 91.7504C49.876 92.3844 49.3041 92.9874 48.6577 93.5033C48.9933 93.2423 48.5147 93.5966 48.4401 93.6401C48.2909 93.7333 48.1418 93.8265 47.9926 93.9074C47.8745 93.9695 47.458 94.1187 47.8869 93.9695C47.7191 94.0255 47.5575 94.0814 47.3896 94.1311C47.1659 94.1933 46.9918 94.156 47.3337 94.1622C47.1907 94.1622 47.0291 94.1622 46.8861 94.1747C46.538 94.2057 47.2031 94.2927 46.7867 94.1622C46.6251 94.1125 46.4572 94.0628 46.2956 94.013C46.6375 94.1187 46.3764 94.0441 46.2024 93.9446C46.1278 93.9011 45.7113 93.6214 45.8854 93.752C46.0594 93.8825 45.6678 93.5655 45.6181 93.5158C45.4503 93.3604 45.2949 93.1925 45.1395 93.0247C45.0587 92.9315 44.9778 92.8382 44.9033 92.745C45.0524 92.9315 44.8908 92.7325 44.8349 92.6455C44.6733 92.4155 44.5179 92.1793 44.3687 91.9431C44.0268 91.3899 43.7284 90.818 43.4487 90.2337C42.7277 88.7108 42.2055 87.1009 41.7269 85.491C41.1178 83.4521 37.9228 84.3224 38.5381 86.3736C39.3897 89.2268 40.3905 92.2477 42.2118 94.6408C43.3866 96.1824 44.9965 97.5064 47.0291 97.494C48.9312 97.4815 50.5971 96.3378 51.89 95.0387C53.5123 93.4039 54.7866 91.3961 55.9055 89.4008C57.5527 86.4607 58.9078 83.3651 60.1758 80.2447C60.5115 79.418 59.8091 78.4235 59.0197 78.2121C58.081 77.9386 57.3351 78.5229 56.9933 79.3559Z" fill="#231300"/>
<path d="M146.316 109.646C145.284 107.377 144.339 105.581 143.538 104.182C143.426 103.915 143.314 103.642 143.202 103.374C145.52 99.1661 146.844 94.3425 146.844 89.2268V59.6638C146.844 43.434 133.567 30.1567 117.337 30.1567H78.8669C64.6635 30.1567 53.0459 41.7743 53.0459 55.9777V81.8547C53.0459 102.144 69.6425 118.74 89.9313 118.74H117.337C121.316 118.74 125.114 117.932 128.582 116.484C129.042 116.565 129.39 116.627 129.552 116.67C143.295 120.282 147.242 129.034 147.242 129.034C147.242 129.034 151.935 122.003 146.316 109.646Z" fill="#EC2327"/>
<path d="M143.537 104.182C143.426 103.915 143.314 103.642 143.202 103.374C145.52 99.1661 146.844 94.3425 146.844 89.2268V77.8392C136.899 96.0332 112.644 108.894 84.2747 108.894C76.5732 108.894 69.1824 107.937 62.2889 106.19C69.0581 113.867 78.9539 118.734 89.9312 118.734H117.337C121.315 118.734 125.113 117.926 128.582 116.477C129.042 116.558 129.39 116.62 129.552 116.664C143.295 120.275 147.242 129.027 147.242 129.027C147.242 129.027 151.941 122.003 146.322 109.646C145.284 107.377 144.339 105.581 143.537 104.182Z" fill="#C91720"/>
<path d="M104.265 66.2651C104.532 66.0973 105.104 66.1595 105.545 66.3522C105.987 66.5386 106.03 66.7127 106.366 66.9054C106.701 67.0981 107.149 67.5891 108.007 67.3218C108.703 67.0981 116.1 64.2822 118.735 63.2815C119.369 63.0391 120.992 62.5542 121.651 62.6972C122.714 62.921 123.261 63.7663 123.292 64.332C124.199 70.032 121.999 71.1882 118.3 72.7111C112.028 74.7872 109.536 70.6225 109.306 70.3241C109.076 70.0258 108.094 69.5161 107.168 69.3109C106.241 69.1058 105.06 68.6769 104.569 68.1921C104.209 67.8378 103.581 66.7127 104.265 66.2651Z" fill="black"/>
<path d="M111.377 68.9939C111.308 68.8199 111.345 68.4655 111.557 68.2666C111.774 68.0677 121.651 62.6909 121.745 65.8735C121.757 66.234 121.794 67.4586 121.546 68.0926C121.297 68.7266 120.98 69.3233 120.383 69.8455C119.787 70.3676 117.512 71.3622 115.808 71.6668C113.061 72.1454 111.519 69.3606 111.377 68.9939Z" fill="white"/>
<path d="M85.6296 67.2037C85.3623 67.0421 84.8029 67.1105 84.3678 67.2907C83.9326 67.471 83.8891 67.6326 83.5597 67.8191C83.2302 68.0056 82.7889 68.4718 81.9497 68.2169C81.2598 68.0118 73.9498 65.37 71.3454 64.4314C70.7176 64.2076 69.1201 63.7538 68.4674 63.8906C67.4231 64.1082 66.8885 64.9162 66.8575 65.4508C66.0059 70.8649 68.1877 71.9465 71.8426 73.3761C78.0399 75.3155 80.4641 71.356 80.6941 71.07C80.9179 70.7841 81.8814 70.2992 82.7951 70.1003C83.7089 69.9014 84.865 69.4912 85.3499 69.025C85.6917 68.6955 86.3071 67.6264 85.6296 67.2037Z" fill="black"/>
<path d="M78.6432 69.8268C78.7116 69.659 78.6743 69.3233 78.4567 69.1369C78.2454 68.9504 68.4677 63.8906 68.3993 66.9115C68.3931 67.2534 68.362 68.4158 68.6107 69.0125C68.8593 69.6093 69.1763 70.1749 69.7731 70.6722C70.3636 71.1633 72.6137 72.1019 74.2983 72.3754C77.0084 72.8291 78.5065 70.1811 78.6432 69.8268Z" fill="white"/>
<path d="M116.298 69.5074C117.592 69.5074 118.641 68.4582 118.641 67.164C118.641 65.8698 117.592 64.8206 116.298 64.8206C115.004 64.8206 113.954 65.8698 113.954 67.164C113.954 68.4582 115.004 69.5074 116.298 69.5074Z" fill="black"/>
<path d="M74.0659 70.4223C75.3602 70.4223 76.4093 69.3731 76.4093 68.0789C76.4093 66.7847 75.3602 65.7355 74.0659 65.7355C72.7717 65.7355 71.7225 66.7847 71.7225 68.0789C71.7225 69.3731 72.7717 70.4223 74.0659 70.4223Z" fill="black"/>
<path d="M136.197 74.7995C140.02 78.5291 143.942 82.6689 146.099 87.6292C146.211 87.8841 145.975 87.306 146.142 87.7349C146.192 87.8654 146.248 87.996 146.292 88.1327C146.372 88.3441 146.447 88.5616 146.509 88.7792C146.652 89.2329 146.758 89.6867 146.845 90.1467C146.857 90.2151 146.907 90.6253 146.863 90.2213C146.876 90.3207 146.888 90.414 146.895 90.5134C146.907 90.7248 146.919 90.9361 146.919 91.1412C146.919 91.3277 146.907 91.508 146.895 91.6944C146.87 92.0674 146.963 91.3588 146.895 91.7193C146.876 91.825 146.857 91.9307 146.832 92.0301C146.795 92.2042 146.739 92.3658 146.689 92.5336C146.665 92.6144 146.515 92.9376 146.689 92.5647C146.646 92.6579 146.602 92.7574 146.553 92.8506C146.472 93.006 146.379 93.1552 146.285 93.3044C146.248 93.3665 146.205 93.4225 146.161 93.4784C146.397 93.1428 146.111 93.5281 146.055 93.5965C145.931 93.7333 145.794 93.87 145.658 93.9943C145.571 94.0752 145.484 94.1497 145.39 94.2181C145.633 94.0192 145.465 94.1622 145.409 94.1995C144.974 94.4978 144.526 94.7527 144.048 94.9703C144.01 94.9889 143.787 95.0821 144.017 94.9889C143.83 95.0635 143.644 95.1319 143.457 95.2002C143.153 95.3059 142.848 95.3929 142.537 95.4799C141.841 95.6664 141.132 95.8032 140.424 95.9026C138.652 96.1451 136.725 96.1699 134.898 96.1202C132.952 96.0705 132.952 99.0914 134.898 99.1474C139.771 99.2779 147.348 99.079 149.505 93.6463C151.227 89.3137 148.094 84.2788 145.639 80.916C143.47 77.9448 140.983 75.2284 138.354 72.6612C136.943 71.2937 134.805 73.432 136.197 74.7995Z" fill="#231300"/>
<path d="M136.172 100.098C135.967 100.03 135.762 99.9554 135.563 99.8684C135.681 99.9182 135.805 99.9679 135.923 100.024C135.594 99.8809 135.277 99.713 134.985 99.4955C135.084 99.5763 135.19 99.6509 135.289 99.7317C135.103 99.5887 134.935 99.4271 134.792 99.2406C134.873 99.3401 134.947 99.4457 135.028 99.5452C134.922 99.4022 134.842 99.2593 134.767 99.0976C134.817 99.2157 134.866 99.3401 134.922 99.4582C134.848 99.2779 134.798 99.0914 134.773 98.8987C134.792 99.0355 134.81 99.166 134.829 99.3028C134.817 99.1536 134.817 99.0106 134.829 98.8614C134.81 98.9982 134.792 99.1287 134.773 99.2655C134.792 99.1412 134.823 99.023 134.873 98.9049C134.823 99.023 134.773 99.1474 134.717 99.2655C134.767 99.1474 134.829 99.0479 134.904 98.9422C134.823 99.0417 134.748 99.1474 134.668 99.2468C134.742 99.1536 134.823 99.0728 134.916 98.9982C134.817 99.079 134.711 99.1536 134.612 99.2344C134.736 99.1412 134.873 99.0603 135.016 98.9982C134.898 99.0479 134.773 99.0976 134.655 99.1536C134.885 99.0603 135.121 99.0044 135.37 98.9671C135.233 98.9858 135.103 99.0044 134.966 99.0231C135.376 98.9733 135.793 98.9671 136.203 99.0106C136.066 98.992 135.936 98.9733 135.799 98.9547C135.923 98.9733 136.035 98.9982 136.153 99.0417C136.035 98.992 135.911 98.9422 135.793 98.8863C135.88 98.9236 135.954 98.9671 136.029 99.0231C135.929 98.9422 135.824 98.8677 135.724 98.7868C135.793 98.8428 135.849 98.905 135.905 98.9733C135.824 98.8739 135.749 98.7682 135.668 98.6687C135.861 98.936 135.985 99.2468 136.128 99.539C136.29 99.8871 136.458 100.229 136.619 100.583C136.57 100.465 136.52 100.341 136.464 100.223C136.501 100.31 136.526 100.397 136.545 100.49C136.526 100.353 136.507 100.223 136.489 100.086C136.495 100.129 136.495 100.173 136.489 100.217C136.507 100.08 136.526 99.9492 136.545 99.8125C136.539 99.8311 136.532 99.856 136.526 99.8746C136.576 99.7565 136.626 99.6322 136.682 99.5141C136.669 99.5328 136.663 99.5514 136.65 99.5701C136.731 99.4706 136.806 99.3649 136.887 99.2655C136.868 99.2966 136.837 99.3276 136.806 99.3463C136.905 99.2655 137.011 99.1909 137.11 99.1101C137.079 99.1349 137.048 99.1536 137.011 99.166C137.129 99.1163 137.253 99.0666 137.371 99.0106C137.141 99.1039 136.887 99.1411 136.638 99.1722C136.775 99.1536 136.905 99.1349 137.042 99.1163C136.632 99.166 136.228 99.1598 135.817 99.1101C135.954 99.1287 136.085 99.1474 136.222 99.166C136.004 99.1349 135.793 99.0914 135.594 99.0106C135.712 99.0604 135.836 99.1101 135.954 99.166C135.873 99.1287 135.799 99.0852 135.724 99.0355C135.824 99.1163 135.929 99.1909 136.029 99.2717C135.979 99.2282 135.936 99.1909 135.892 99.1412C135.973 99.2406 136.047 99.3463 136.128 99.4457C136.091 99.396 136.066 99.3525 136.041 99.2966C136.091 99.4147 136.141 99.539 136.197 99.6571C136.178 99.6011 136.166 99.5514 136.153 99.4892C136.172 99.626 136.19 99.7565 136.209 99.8933C136.203 99.856 136.203 99.8187 136.209 99.7814C136.19 99.9181 136.172 100.049 136.153 100.185C136.159 100.148 136.166 100.111 136.178 100.08C136.128 100.198 136.079 100.322 136.023 100.44C136.035 100.403 136.054 100.372 136.072 100.341C135.992 100.44 135.917 100.546 135.836 100.645C135.861 100.614 135.892 100.583 135.923 100.558C135.824 100.639 135.718 100.714 135.619 100.795C135.656 100.77 135.693 100.745 135.737 100.726C135.619 100.776 135.494 100.826 135.376 100.882C135.482 100.844 135.587 100.819 135.699 100.801C135.563 100.819 135.432 100.838 135.295 100.857C135.488 100.832 135.675 100.832 135.861 100.851C135.724 100.832 135.594 100.813 135.457 100.795C135.668 100.826 135.867 100.875 136.066 100.956C135.948 100.906 135.824 100.857 135.706 100.801C135.898 100.888 136.085 100.987 136.253 101.118C136.153 101.037 136.047 100.962 135.948 100.882C136.097 101 136.228 101.13 136.346 101.286C136.265 101.186 136.19 101.081 136.11 100.981C136.19 101.087 136.259 101.199 136.321 101.323C136.271 101.205 136.222 101.081 136.166 100.962C136.197 101.031 136.215 101.099 136.234 101.174C136.215 101.037 136.197 100.906 136.178 100.77C136.184 100.819 136.19 100.863 136.184 100.913C136.203 100.776 136.222 100.645 136.24 100.509C136.234 100.558 136.222 100.602 136.203 100.645C136.253 100.527 136.302 100.403 136.358 100.285C136.34 100.322 136.315 100.359 136.284 100.397C136.364 100.297 136.439 100.192 136.52 100.092C136.47 100.142 136.427 100.185 136.371 100.223C136.47 100.142 136.576 100.067 136.675 99.9865C136.532 100.092 136.377 100.179 136.215 100.248C136.333 100.198 136.458 100.148 136.576 100.092C136.389 100.167 136.197 100.217 135.998 100.241C136.134 100.223 136.265 100.204 136.402 100.185C136.203 100.21 136.004 100.204 135.805 100.179C135.942 100.198 136.072 100.217 136.209 100.235C136.01 100.204 135.824 100.154 135.637 100.074C135.755 100.123 135.88 100.173 135.998 100.229C135.954 100.21 135.917 100.192 135.88 100.173C135.513 99.9927 135.115 99.9119 134.711 100.018C134.363 100.117 133.978 100.384 133.81 100.714C133.449 101.398 133.598 102.404 134.351 102.784C135.5 103.356 136.818 103.374 137.956 102.759C138.782 102.311 139.311 101.528 139.187 100.571C139.1 99.9119 138.708 99.2903 138.217 98.849C137.284 98.0161 136.072 97.6618 134.835 97.8918C133.897 98.072 133.176 98.8677 133.176 99.8373C133.176 100.652 133.679 101.447 134.419 101.783C135.034 102.063 135.706 102.175 136.383 102.187C136.669 102.193 136.955 102.162 137.241 102.125C137.533 102.087 137.838 102.05 138.117 101.957C138.59 101.795 139.05 101.503 139.286 101.043C139.528 100.565 139.584 99.9989 139.404 99.4892C139.205 98.9174 138.901 98.3704 138.64 97.8234C138.372 97.2515 138.043 96.7294 137.502 96.3751C136.961 96.0208 136.29 95.9586 135.662 95.9586C134.587 95.9524 133.474 96.1948 132.672 96.9594C131.609 97.9726 131.566 99.6322 132.274 100.857C132.939 102.007 134.158 102.61 135.364 103.02C136.116 103.275 137.048 102.728 137.222 101.963C137.421 101.124 136.974 100.372 136.172 100.098Z" fill="#231300"/>
<path d="M139.236 100.894C141.182 100.894 141.188 97.8669 139.236 97.8669C137.291 97.8731 137.291 100.894 139.236 100.894Z" fill="#231300"/>
<path d="M98.7329 79.1693C98.6397 79.1071 98.534 79.0636 98.4345 79.0139C98.708 79.1569 98.4283 79.0139 98.2978 78.9704C97.987 78.8647 97.6638 78.7839 97.3467 78.7093C96.4454 78.5104 95.8176 78.4296 94.935 78.3488C93.9591 78.2618 92.9707 78.2183 91.9886 78.2307C91.0873 78.2431 90.0182 78.3053 89.266 78.4296C88.6133 78.5353 87.9482 78.2618 87.7556 77.5718C87.5939 76.9875 87.9545 76.167 88.6134 76.0613C90.7516 75.7132 92.9272 75.7008 95.0779 75.9059C96.6506 76.0551 98.5837 76.1919 99.9637 77.0434C101.313 77.8764 100.082 80.0022 98.7329 79.1693Z" fill="#231300"/>
<path d="M103.4 115.943C105.39 126.361 107.565 136.748 109.921 147.091C110.592 150.037 111.282 152.984 111.985 155.924C112.513 155.234 113.035 154.544 113.564 153.854C108.821 154.252 104.066 154.382 99.3104 154.239C97.2032 154.177 97.2094 157.447 99.3104 157.509C104.066 157.652 108.821 157.521 113.564 157.124C114.639 157.03 115.403 156.154 115.142 155.054C112.681 144.735 110.4 134.373 108.305 123.974C107.708 121.009 107.124 118.044 106.558 115.073C106.39 114.202 105.346 113.711 104.544 113.929C103.637 114.178 103.239 115.073 103.4 115.943Z" fill="#231300"/>
<path d="M88.5137 117.565C88.1531 123.377 88.5012 129.201 89.2223 134.976C89.589 137.941 90.0428 140.9 90.5463 143.84C90.7949 145.288 91.056 146.743 91.3171 148.191C91.4476 148.887 91.5719 149.59 91.7024 150.286C91.7335 150.448 91.777 150.777 91.8143 150.864C91.8143 150.932 91.8205 151.001 91.8205 151.075C92.0195 150.852 92.2122 150.622 92.4111 150.398C92.4111 150.392 92.3551 150.435 92.2494 150.41C91.9076 150.323 91.3854 150.435 91.0249 150.441C90.5649 150.454 90.1049 150.466 89.6512 150.479C88.8369 150.504 88.0226 150.522 87.2083 150.547C85.5238 150.591 83.8455 150.64 82.161 150.684C80.06 150.74 80.0538 154.016 82.161 153.953C85.3187 153.866 88.4764 153.786 91.6403 153.698C92.3862 153.68 93.188 153.699 93.8531 153.319C94.5928 152.897 95.0155 152.113 95.0777 151.281C95.1212 150.659 94.972 150.031 94.8601 149.422C94.7047 148.577 94.5431 147.725 94.3939 146.88C93.2751 140.738 92.2681 134.566 91.8454 128.331C91.603 124.751 91.5657 121.158 91.7832 117.571C91.8392 116.689 90.9938 115.937 90.1485 115.937C89.2161 115.93 88.5696 116.683 88.5137 117.565Z" fill="#231300"/>
<path d="M42.6584 85.2424C44.604 85.2424 44.6102 82.2152 42.6584 82.2152C40.7128 82.2152 40.7128 85.2424 42.6584 85.2424Z" fill="black"/>
<path d="M43.4987 122.482C42.8336 122.519 42.2617 122.003 42.2244 121.338L38.6502 55.5115C38.6129 54.8464 39.1288 54.2745 39.794 54.2372C40.4591 54.1999 41.0309 54.7097 41.0682 55.381L44.6424 121.208C44.6797 121.873 44.17 122.445 43.4987 122.482Z" fill="#444444"/>
<path d="M39.7937 84.627C40.0423 84.4529 39.5202 84.6829 39.7067 84.6394C39.8994 84.5959 39.3026 84.6332 39.6072 84.6518C39.5824 84.6518 39.2218 84.571 39.4705 84.6394C39.6445 84.6829 39.4767 84.714 39.3648 84.5897C39.3524 84.5772 39.5202 84.6891 39.5264 84.6829C39.4705 84.6456 39.4207 84.6021 39.3648 84.5648C39.4456 84.6581 39.4518 84.6518 39.371 84.5524C39.3524 84.5275 39.3337 84.5027 39.3151 84.4778C39.3524 84.5337 39.3897 84.5959 39.427 84.6581C39.4518 84.6145 39.3213 84.3473 39.4145 84.6456C39.4394 84.7326 39.458 84.8197 39.4829 84.9067C39.5202 85.0248 39.458 85.118 39.4829 84.8259C39.4705 84.9813 39.514 85.1678 39.5202 85.3232C39.5388 85.7334 39.5389 86.1437 39.514 86.5539C39.5016 86.7466 39.4891 86.9393 39.4705 87.132C39.4643 87.219 39.4518 87.306 39.4456 87.3868C39.4207 87.6417 39.5078 87.0201 39.4394 87.4366C39.371 87.8406 39.2964 88.2446 39.1907 88.6424C39.1721 88.7108 39.1597 88.773 39.1348 88.8414C39.0478 89.1273 39.11 88.7854 39.1659 88.7854C39.1597 88.7854 39.0664 88.9595 39.0726 88.9408C39.1162 88.8227 39.2591 88.6984 39.3648 88.6362C39.5326 88.5927 39.7005 88.543 39.8621 88.4995C40.0859 88.4871 40.2661 88.5554 40.4091 88.6922C40.434 88.7108 40.4526 88.7295 40.4775 88.7543C40.3842 88.6549 40.378 88.6549 40.465 88.7481C40.4899 88.8041 40.6515 89.1397 40.5583 88.86C40.5521 88.8227 40.5396 88.7854 40.5334 88.7481C40.5583 88.9595 40.5645 88.9781 40.5458 88.8041C40.521 88.0022 40.4526 87.2066 40.4215 86.4109C40.4091 86.0069 40.3967 85.6029 40.3904 85.2051C40.3842 85.0061 40.3842 84.801 40.3842 84.6021C40.3842 84.5151 40.3967 84.4218 40.3842 84.341C40.3904 84.2229 40.378 84.2602 40.3594 84.4467C40.3345 84.54 40.291 84.6208 40.2288 84.6953C40.204 84.7326 39.8807 85.0621 39.8372 84.9751C39.8372 84.9688 40.0424 84.9191 40.0237 84.9191C40.291 84.8445 39.918 84.9564 39.9056 84.9316C39.9367 84.9316 39.9678 84.9316 39.9988 84.9316C40.1294 84.9378 40.1231 84.9378 39.9864 84.9191C39.7875 84.8321 39.9367 84.9129 40.0175 84.9316C40.0423 84.9378 40.2412 85.0061 40.2412 84.9999C40.2226 85.0186 39.8994 84.8259 40.1418 84.9626C40.1915 84.9937 40.3345 85.1056 40.3904 85.1118C40.235 85.0807 40.1853 84.9316 40.3158 85.0559C40.3656 85.0994 40.4153 85.1429 40.4588 85.1926C40.4837 85.2175 40.5023 85.2423 40.5272 85.2672C40.6142 85.3667 40.6142 85.3667 40.5396 85.2672C40.521 85.2423 40.5023 85.2175 40.4837 85.1926C40.521 85.2486 40.5583 85.2983 40.5956 85.3542C40.6204 85.3915 40.8007 85.6899 40.782 85.7023C40.7758 85.7023 40.6577 85.3542 40.7572 85.6961C40.7883 85.7956 40.8007 85.895 40.8318 85.9883C40.9312 86.355 40.8318 85.7707 40.838 86.0069C40.8442 86.125 40.8566 86.2493 40.8566 86.3674C40.8566 86.5726 40.8504 86.7777 40.8318 86.9766C40.8193 87.076 40.838 87.3371 40.8318 87.0015C40.838 87.1196 40.7883 87.2563 40.7696 87.3682C40.7323 87.5671 40.6826 87.7722 40.6329 87.9711C40.5893 88.1576 40.5396 88.3503 40.4775 88.5368C40.4588 88.5927 40.434 88.6984 40.4029 88.7543C40.6018 88.4498 40.3967 88.717 40.3532 88.7978C40.1853 89.1149 40.4899 88.6362 40.3532 88.7854C40.2475 88.9035 40.6204 88.6549 40.3842 88.7606C40.7385 88.6052 40.521 88.6984 40.4277 88.7357C40.3096 88.7606 40.3656 88.7543 40.5893 88.7108C40.8318 88.7543 40.8691 88.7543 40.7074 88.7108C39.9491 88.4808 39.0229 88.9843 38.8489 89.7675C38.6624 90.5818 39.0975 91.3837 39.9056 91.6261C40.5956 91.8374 41.385 91.7131 41.9942 91.3215C42.6531 90.8988 43.0447 90.2772 43.3182 89.5624C43.4984 89.0838 43.6103 88.5617 43.7035 88.0582C43.8154 87.449 43.9087 86.815 43.8776 86.1934C43.8154 84.9751 43.3927 83.7443 42.4541 82.9238C41.528 82.122 40.2413 81.6433 39.0291 82.0598C38.2459 82.3333 37.5622 82.9176 37.413 83.7692C37.2949 84.4156 37.357 85.0994 37.3695 85.752C37.4006 86.9766 37.4006 88.2384 37.587 89.4505C37.6989 90.1902 38.1403 90.8926 38.8054 91.2594C39.6383 91.7256 40.6453 91.5702 41.329 90.9237C41.7828 90.4948 42.0066 89.867 42.1433 89.2703C42.2925 88.6362 42.392 87.9898 42.4666 87.3371C42.6095 86.0628 42.6593 84.6145 42.1558 83.4149C41.559 81.9976 39.657 81.028 38.2646 82.0163C37.6181 82.4763 37.2514 83.3589 37.7238 84.0862C38.134 84.7202 39.1037 85.1118 39.7937 84.627Z" fill="black"/>
<path d="M42.4475 69.9263C53.5772 69.9263 62.5996 58.5022 62.5996 44.4098C62.5996 30.3175 53.5772 18.8934 42.4475 18.8934C31.3178 18.8934 22.2954 30.3175 22.2954 44.4098C22.2954 58.5022 31.3178 69.9263 42.4475 69.9263Z" fill="#A80018"/>
<path d="M38.8801 69.5347C50.0098 69.5347 59.0322 58.1106 59.0322 44.0183C59.0322 29.9259 50.0098 18.5018 38.8801 18.5018C27.7504 18.5018 18.728 29.9259 18.728 44.0183C18.728 58.1106 27.7504 69.5347 38.8801 69.5347Z" fill="#EC2327"/>
<path d="M38.8615 22.3619C29.4132 22.3681 21.7614 32.0712 21.7738 44.0307C21.7863 55.9901 29.4505 65.6808 38.8988 65.6684C48.347 65.6621 55.9988 55.959 55.9864 43.9996C55.974 32.0401 48.3097 22.3557 38.8615 22.3619Z" fill="white"/>
<path d="M39.3849 30.0526C33.2363 30.0526 28.234 35.5024 28.234 42.2012C28.234 44.5428 28.8459 46.811 30.0063 48.7723C29.7866 51.7136 29.1978 53.8972 28.3429 54.9316C28.23 55.0684 28.2017 55.2776 28.2731 55.4504C28.3363 55.6048 28.4663 55.6997 28.6057 55.6997C28.6228 55.6997 28.6399 55.6983 28.6574 55.6952C28.8079 55.6695 32.3049 55.0603 34.8342 53.2929C36.2705 53.9944 37.8004 54.3498 39.3849 54.3498C45.5335 54.3498 50.5358 48.9001 50.5358 42.2012C50.5358 35.5024 45.5335 30.0526 39.3849 30.0526ZM34.1812 44.001C33.3612 44.001 32.6944 43.1938 32.6944 42.2012C32.6944 41.2086 33.3612 40.4014 34.1812 40.4014C35.0011 40.4014 35.668 41.2086 35.668 42.2012C35.668 43.1938 35.0011 44.001 34.1812 44.001ZM39.3849 44.001C38.565 44.001 37.8981 43.1938 37.8981 42.2012C37.8981 41.2086 38.565 40.4014 39.3849 40.4014C40.2049 40.4014 40.8717 41.2086 40.8717 42.2012C40.8717 43.1938 40.2049 44.001 39.3849 44.001ZM44.5887 44.001C43.7687 44.001 43.1019 43.1938 43.1019 42.2012C43.1019 41.2086 43.7687 40.4014 44.5887 40.4014C45.4086 40.4014 46.0755 41.2086 46.0755 42.2012C46.0755 43.1938 45.4086 44.001 44.5887 44.001Z" fill="#212121"/>
<path d="M58.74 43.2413C58.74 48.3694 57.7889 52.8884 55.7625 57.165C54.6064 59.6016 53.0959 61.8207 51.2125 63.7601C50.0625 64.9411 48.7882 65.9792 47.371 66.8556C46.1216 67.6202 44.8163 68.2169 43.4363 68.6831C41.1302 69.4663 38.7619 69.6963 36.3688 69.3606C34.5973 69.112 32.8879 68.5961 31.2655 67.7942C30.2647 67.3032 29.3199 66.7313 28.4186 66.0973C27.2935 65.3016 26.2555 64.3692 25.3293 63.3374C23.9804 61.8207 22.7994 60.1859 21.8297 58.4019C20.0519 55.1261 18.9704 51.639 18.4855 47.9529C17.9323 43.7945 18.181 39.6857 19.2066 35.6205C20.0271 32.3944 21.3449 29.3921 23.2221 26.6385C24.3845 24.9291 25.7582 23.3751 27.3495 22.0573C28.3564 21.2182 29.4629 20.4909 30.6315 19.8569C31.9679 19.1296 33.3914 18.6883 34.821 18.2407C35.2188 18.1164 35.654 18.1289 36.0642 18.048C37.0525 17.8616 38.0471 17.7372 39.0603 17.8056C40.664 17.9175 42.2429 18.2221 43.7658 18.7194C45.1271 19.1607 46.42 19.8072 47.6196 20.5966C49.0928 21.5663 50.4168 22.71 51.6103 24.0216C55.5885 28.3914 57.6584 33.6003 58.4602 39.3812C58.6467 40.786 58.7462 42.2094 58.74 43.2413ZM36.8536 38.7782C37.3012 39.4247 37.7922 40.0338 38.2895 40.6492C39.253 41.8427 40.1792 43.0734 41.124 44.2917C41.8264 45.1931 42.5039 46.113 43.2374 46.9833C43.7844 47.6297 44.1947 48.3818 44.8598 48.9288C44.9965 49.2956 45.3011 49.5504 45.5311 49.8488C46.5816 51.2101 47.6507 52.5589 48.7074 53.9078C49.4596 54.8713 50.2117 55.8348 50.97 56.7982C51.1192 56.9909 51.2871 57.0096 51.3865 56.7671C51.5419 56.3818 51.8092 56.071 52.0019 55.7167C53.0772 53.7276 53.8604 51.6266 54.3515 49.4137C55.1658 45.7401 55.1906 42.0602 54.4572 38.3804C53.848 35.347 52.7167 32.5063 50.9763 29.9329C50.2366 28.8389 49.4098 27.8133 48.4277 26.912C47.6383 26.1847 46.8116 25.5258 45.9227 24.9229C44.4682 23.9345 42.8582 23.3502 41.1924 22.9027C40.5086 22.7224 39.7938 22.71 39.0914 22.6789C37.4255 22.6043 35.7783 22.7473 34.2056 23.3378C33.0743 23.7605 31.9803 24.2702 30.9547 24.9415C29.9664 25.588 29.1148 26.3836 28.2197 27.1295C28.0084 27.3036 27.9648 27.5274 28.1513 27.7201C28.7045 28.3106 29.0899 29.044 29.6991 29.5973C29.7861 29.9889 30.0783 30.2686 30.3269 30.5359C30.6626 30.8902 30.8304 31.3999 31.2904 31.6361C31.6509 32.1893 32.086 32.6928 32.4963 33.2087C33.957 35.0611 35.4053 36.9196 36.8536 38.7782ZM37.0028 44.6647C36.9282 44.5528 36.8661 44.4409 36.7853 44.3353C36.058 43.3967 35.3432 42.4518 34.5848 41.5319C34.274 41.1589 34.0813 40.6741 33.6089 40.4441C33.3168 39.723 32.7511 39.2071 32.2538 38.6415C31.4831 37.5102 30.6128 36.4597 29.7364 35.4092C29.3075 34.6819 28.7729 34.0479 28.1575 33.476C28.114 33.3703 28.114 33.2585 28.0332 33.159C27.3308 32.3012 26.6284 31.4434 25.9571 30.5607C25.752 30.2935 25.7209 30.2997 25.5406 30.5856C23.4521 33.9111 22.3519 37.5599 22.0473 41.4448C21.637 46.6538 22.5694 51.6017 25.205 56.1766C26.1684 57.8487 27.337 59.3592 28.7605 60.6645C29.842 61.6529 31.0355 62.4796 32.3409 63.1758C33.8016 63.9528 35.3556 64.3755 36.9469 64.6303C38.1466 64.823 39.3711 64.7546 40.5956 64.506C42.0066 64.2201 43.3306 63.7974 44.6173 63.1571C46.19 62.3739 47.5202 61.2924 48.782 60.1051C48.9374 59.9559 48.9499 59.8503 48.8131 59.6824C47.9491 58.5946 47.0975 57.5006 46.2397 56.4004C45.2017 55.0702 44.1884 53.7213 43.1193 52.416C42.7899 52.012 42.5599 51.5085 42.0937 51.2163C42.0937 50.9242 41.8264 50.8061 41.6834 50.6134C40.4527 49.0159 39.2468 47.3997 37.9849 45.8209C37.6803 45.4293 37.469 44.932 37.0028 44.6647Z" fill="#F10203"/>
</svg>
