<svg width="176" height="175" viewBox="0 0 176 175" fill="none" xmlns="http://www.w3.org/2000/svg">
<path d="M91.6995 97.7235C91.6505 97.8075 91.6015 97.8845 91.549 97.965C91.5175 98.0105 91.486 98.056 91.451 98.1015C91.5665 97.9475 91.5035 98.035 91.4755 98.0665C91.3425 98.217 91.206 98.3535 91.0555 98.4866C90.919 98.6091 91.206 98.385 91.052 98.49C91.024 98.511 90.996 98.532 90.9645 98.5495C90.891 98.595 90.8175 98.644 90.744 98.686C90.667 98.728 90.59 98.7665 90.513 98.805C90.3485 98.8855 90.688 98.7455 90.5165 98.805C90.4675 98.8225 90.4185 98.84 90.3695 98.8575C90.205 98.91 90.037 98.9451 89.869 98.9801C89.694 99.015 90.0195 98.966 89.904 98.9765C89.862 98.98 89.8165 98.987 89.7745 98.987C89.6695 98.9905 89.5645 98.9976 89.4595 98.9941C89.372 98.9906 89.2845 98.9835 89.197 98.9765C89.0535 98.966 89.2355 98.9835 89.253 98.987C89.2005 98.9765 89.148 98.9695 89.0955 98.959C88.8995 98.917 88.7105 98.8575 88.5215 98.7945C88.3185 98.728 88.602 98.8505 88.406 98.7455C88.322 98.7 88.238 98.6615 88.154 98.6125C88.07 98.5635 87.9895 98.5146 87.909 98.4586C87.8775 98.4376 87.846 98.413 87.811 98.392C87.6815 98.301 87.9195 98.4935 87.762 98.3535C87.615 98.224 87.4715 98.0945 87.335 97.951C87.2615 97.874 87.1915 97.79 87.125 97.706C87.2335 97.8425 87.0165 97.552 86.978 97.4925C86.404 96.6175 86.138 95.585 86.075 94.528C85.9595 92.652 86.383 90.797 86.9745 89.0295C87.3035 88.039 85.7425 87.6155 85.417 88.599C84.43 91.56 83.772 95.2875 85.4765 98.133C86.5265 99.883 88.5565 101.01 90.604 100.478C91.661 100.201 92.557 99.484 93.0995 98.5426C93.6175 97.6361 92.221 96.8205 91.6995 97.7235Z" fill="#231300"/>
<path d="M48.7511 78.6274C35.976 78.6274 25.623 88.9839 25.623 101.756C25.623 108.122 28.1955 113.883 32.357 118.066C31.475 121.622 29.9525 125.223 27.3975 125.223C29.165 127.6 37.2465 124.429 40.8551 123.498C43.3191 124.394 45.979 124.884 48.7511 124.884C61.5261 124.884 71.8791 114.527 71.8791 101.756C71.8791 88.9839 61.5226 78.6274 48.7511 78.6274Z" fill="#117DC1"/>
<path d="M25.6475 100.755C25.6335 101.087 25.623 101.42 25.623 101.756C25.623 108.122 28.1955 113.883 32.357 118.066C31.475 121.622 29.9525 125.223 27.3975 125.223C29.165 127.6 37.2466 124.429 40.8551 123.498C43.3191 124.394 45.9791 124.884 48.7511 124.884C56.9481 124.884 64.1406 120.617 68.2496 114.188C63.8151 116.697 58.7366 118.122 53.3396 118.122C41.3521 118.125 30.936 111.09 25.6475 100.755Z" fill="#1E70AC"/>
<path d="M47.736 123.211C48.975 123.316 50.522 123.799 51.824 124.296C53.4725 124.922 55.065 125.696 56.6085 126.546C58.2395 127.446 59.825 128.44 61.3265 129.546C61.9915 130.039 62.639 130.557 63.255 131.11C63.514 131.341 63.7695 131.583 64.0145 131.828C64.347 132.16 64.6445 132.584 65.103 132.741C65.7365 132.958 66.3035 132.717 66.6605 132.174C66.909 131.8 67.196 131.45 67.469 131.089C67.9835 130.403 68.4525 129.686 68.9285 128.972C69.506 128.104 68.1095 127.295 67.532 128.156C67.1015 128.804 66.678 129.458 66.216 130.081C66.055 130.298 65.8905 130.512 65.726 130.725C65.5965 130.893 65.4004 131.075 65.313 131.271C65.166 131.597 65.6525 131.058 65.698 131.25C65.6875 131.205 65.5335 131.072 65.502 131.04C64.3925 129.864 63.1115 128.846 61.799 127.901C58.9115 125.822 55.7335 124.079 52.412 122.798C50.9105 122.217 49.3459 121.734 47.7324 121.597C47.2984 121.559 46.924 121.996 46.924 122.406C46.9275 122.868 47.2985 123.172 47.736 123.211Z" fill="#231300"/>
<path d="M60.8855 94.5385C61.813 94.5105 62.695 94.5805 63.4965 94.7205C63.85 94.1605 64.053 93.4885 64.032 92.7675C63.9795 90.9125 62.506 89.4461 60.742 89.4986C58.978 89.5476 57.5885 91.0946 57.641 92.9495C57.662 93.674 57.9035 94.332 58.2885 94.871C59.0795 94.682 59.9545 94.563 60.8855 94.5385Z" fill="black"/>
<path d="M59.085 94.0986C59.2171 93.9738 59.1509 93.6892 58.9371 93.463C58.7233 93.2368 58.443 93.1546 58.3109 93.2795C58.1788 93.4043 58.2451 93.6888 58.4588 93.915C58.6726 94.1412 58.953 94.2234 59.085 94.0986Z" fill="white"/>
<path d="M62.1418 92.5438C62.565 92.5317 62.8973 92.146 62.8841 91.6823C62.8709 91.2185 62.5171 90.8524 62.0939 90.8644C61.6708 90.8765 61.3385 91.2622 61.3517 91.726C61.3649 92.1897 61.7187 92.5558 62.1418 92.5438Z" fill="white"/>
<path d="M44.1836 95.0145C45.1111 94.9865 45.9931 95.0565 46.7946 95.1965C47.1481 94.6365 47.3511 93.9645 47.3301 93.2435C47.2776 91.3885 45.8041 89.922 44.0401 89.9745C42.2761 90.027 40.8866 91.5705 40.9391 93.4255C40.9601 94.15 41.2016 94.808 41.5866 95.347C42.3776 95.158 43.2561 95.039 44.1836 95.0145Z" fill="black"/>
<path d="M42.3822 94.5754C42.5142 94.4506 42.448 94.1661 42.2342 93.9399C42.0204 93.7137 41.7401 93.6315 41.608 93.7563C41.476 93.8811 41.5422 94.1657 41.756 94.3918C41.9697 94.618 42.2501 94.7002 42.3822 94.5754Z" fill="white"/>
<path d="M45.4399 93.0233C45.863 93.0113 46.1953 92.6256 46.1821 92.1618C46.1689 91.6981 45.8151 91.3319 45.392 91.344C44.9688 91.3561 44.6365 91.7418 44.6497 92.2055C44.663 92.6692 45.0167 93.0354 45.4399 93.0233Z" fill="white"/>
<path d="M60.0735 120.407C61.631 118.856 63.5105 117.065 65.6665 116.512C66.069 116.407 66.174 116.389 66.5905 116.396C66.6605 116.396 66.7305 116.403 66.8005 116.406C66.9825 116.417 66.727 116.385 66.8985 116.417C67.0455 116.445 67.189 116.483 67.3325 116.529C67.3675 116.539 67.4025 116.553 67.434 116.567C67.5285 116.602 67.322 116.518 67.4165 116.557C67.4725 116.581 67.532 116.609 67.588 116.641C67.7245 116.711 67.854 116.795 67.9765 116.886C68.0395 116.931 67.945 116.861 67.9415 116.858C67.9695 116.879 68.001 116.903 68.0255 116.928C68.0815 116.977 68.1375 117.026 68.19 117.075C68.2985 117.18 68.3965 117.292 68.498 117.408C68.617 117.544 68.505 117.411 68.5645 117.491C68.603 117.547 68.645 117.604 68.6835 117.66C68.778 117.803 68.869 117.95 68.9495 118.1C69.0265 118.237 69.0965 118.377 69.163 118.52C69.268 118.744 69.2295 118.653 69.3205 118.888C69.583 119.563 69.772 120.267 69.919 120.974C70.206 122.36 70.3215 123.658 70.3775 125.146C70.4125 126.038 70.2095 127.333 71.347 127.61C71.816 127.722 72.3865 127.613 72.8625 127.596C73.818 127.561 74.7735 127.536 75.7325 127.533C76.6425 127.533 76.6425 126.119 75.7325 126.119C74.868 126.119 74 126.14 73.1355 126.171C72.656 126.189 72.0855 126.123 71.613 126.224C71.6235 126.22 71.5535 126.224 71.5535 126.224C71.662 125.99 71.823 126.434 71.823 126.434C71.823 126.434 71.8195 126.241 71.8195 126.231C71.816 126.087 71.816 125.941 71.8125 125.797C71.8055 125.479 71.795 125.16 71.7775 124.838C71.704 123.312 71.55 121.779 71.214 120.288C70.8955 118.884 70.395 117.446 69.4395 116.34C68.477 115.23 67.091 114.818 65.6665 115.066C64.634 115.244 63.6575 115.745 62.786 116.305C61.428 117.18 60.2135 118.268 59.0725 119.402C58.432 120.05 59.4295 121.047 60.0735 120.407Z" fill="#231300"/>
<path d="M49.703 96.236C49.808 96.1765 50.0355 96.1555 50.1545 96.222C50.27 96.285 50.368 96.4705 50.382 96.614C50.508 97.7515 51.32 98.6055 52.4645 98.7875C53.455 98.9415 54.5365 98.329 54.9425 97.335C55.072 97.02 55.114 96.656 55.135 96.3095C55.1525 96.0085 55.2715 95.8545 55.5515 95.823C55.828 95.7915 55.9995 95.9665 56.031 96.2815C56.1465 97.468 55.3345 98.8715 54.246 99.365C52.636 100.096 50.956 99.6415 49.99 98.161C49.7275 97.755 49.3845 96.411 49.703 96.236Z" fill="black"/>
<path d="M35.5035 106.921C35.402 109.039 37.11 110.726 38.916 111.535C41.184 112.55 43.8265 112.553 46.063 111.447C47.526 110.726 48.6915 109.529 49.542 108.15C50.032 107.359 48.7825 106.631 48.296 107.422C47.085 109.386 45.1005 110.733 42.8045 110.845C40.9705 110.933 39.0315 110.334 37.7995 109.029C37.6 108.819 37.579 108.794 37.4285 108.567C37.3655 108.472 37.306 108.374 37.2535 108.273C37.2255 108.22 37.1065 107.972 37.1555 108.08C37.075 107.888 37.0225 107.685 36.977 107.482C36.97 107.447 36.949 107.299 36.9665 107.447C36.9595 107.394 36.9525 107.338 36.9525 107.282C36.9455 107.159 36.9455 107.041 36.9525 106.918C36.991 105.994 35.5455 105.997 35.5035 106.921Z" fill="black"/>
<path d="M48.8909 106.281C49.8184 106.281 49.8219 104.839 48.8909 104.839C47.9599 104.839 47.9599 106.281 48.8909 106.281Z" fill="black"/>
<path d="M134.463 114.247C133.997 113.222 133.57 112.41 133.206 111.776C133.157 111.654 133.105 111.531 133.056 111.409C134.102 109.508 134.701 107.328 134.701 105.014V91.6545C134.701 84.322 128.701 78.3195 121.366 78.3195H103.981C97.562 78.3195 92.312 83.5695 92.312 89.9885V101.682C92.312 110.849 99.8125 118.349 108.979 118.349H121.366C123.165 118.349 124.88 117.985 126.448 117.331C126.654 117.366 126.815 117.397 126.885 117.415C133.094 119.046 134.879 123.001 134.879 123.001C134.879 123.001 137 119.83 134.463 114.247Z" fill="#EC2327"/>
<path d="M133.206 111.776C133.157 111.654 133.104 111.531 133.055 111.409C134.102 109.508 134.7 107.328 134.7 105.014V99.869C130.206 108.091 119.244 113.904 106.424 113.904C102.945 113.904 99.606 113.47 96.491 112.683C99.55 116.151 104.019 118.349 108.982 118.349H121.369C123.168 118.349 124.883 117.985 126.451 117.331C126.657 117.366 126.818 117.397 126.888 117.415C133.097 119.046 134.882 123.001 134.882 123.001C134.882 123.001 137.003 119.826 134.466 114.244C133.997 113.222 133.57 112.41 133.206 111.776Z" fill="#C91720"/>
<path d="M102.91 115.433C100.19 116.844 97.6914 118.629 95.3289 120.571C94.1319 121.555 92.9664 122.584 91.8254 123.634C91.2724 124.141 90.7229 124.652 90.1769 125.167C89.9144 125.415 89.6484 125.664 89.3859 125.912C89.2984 125.993 89.0604 126.147 89.0114 126.262C89.1899 126.28 89.3684 126.297 89.5504 126.315C89.5469 126.315 89.5469 126.315 89.5434 126.315C89.5434 126.224 89.3859 126.073 89.3369 126C88.2974 124.39 87.2579 122.78 86.2219 121.17C85.5884 120.186 84.0099 121.1 84.6469 122.09C85.6409 123.627 86.6314 125.167 87.6254 126.703C88.1084 127.452 88.6649 128.278 89.6904 127.928C90.0859 127.792 90.3799 127.48 90.6774 127.2C90.9959 126.899 91.3179 126.595 91.6364 126.294C94.0234 124.05 96.4629 121.842 99.1229 119.924C100.624 118.842 102.189 117.859 103.83 117.005C104.87 116.466 103.949 114.894 102.91 115.433Z" fill="#231300"/>
<path d="M119.51 117.159C122.296 118.632 124.876 120.459 127.315 122.454C128.526 123.445 129.709 124.47 130.878 125.513C131.48 126.052 132.082 126.595 132.681 127.137C133.293 127.694 134.133 128.163 134.858 127.466C135.187 127.148 135.411 126.707 135.66 126.325C135.922 125.919 136.184 125.513 136.447 125.111C136.99 124.278 137.528 123.441 138.071 122.608C138.666 121.691 137.199 120.837 136.604 121.751C136.093 122.538 135.582 123.322 135.071 124.11C134.823 124.491 134.578 124.873 134.329 125.254C134.207 125.443 134.081 125.636 133.958 125.825C133.895 125.919 133.832 126.014 133.773 126.112C133.675 126.273 133.706 126.164 133.752 126.161C133.902 126.161 134.053 126.161 134.203 126.161C133.969 126.126 133.769 125.835 133.591 125.674C133.321 125.429 133.048 125.184 132.779 124.939C132.236 124.449 131.69 123.963 131.141 123.483C130.024 122.503 128.89 121.541 127.725 120.617C125.408 118.779 122.982 117.079 120.368 115.696C119.405 115.182 118.544 116.648 119.51 117.159Z" fill="#231300"/>
<path d="M116.7 94.4545C116.826 94.374 117.099 94.4055 117.309 94.4965C117.519 94.5875 117.54 94.668 117.701 94.759C117.862 94.85 118.076 95.0845 118.482 94.955C118.814 94.85 122.335 93.5095 123.588 93.03C123.889 92.9145 124.659 92.6835 124.978 92.75C125.482 92.8585 125.744 93.261 125.758 93.5305C126.189 96.243 125.142 96.7925 123.382 97.5205C120.396 98.5075 119.21 96.5265 119.098 96.383C118.989 96.2395 118.524 95.998 118.079 95.9C117.638 95.802 117.078 95.599 116.84 95.368C116.676 95.2035 116.375 94.668 116.7 94.4545Z" fill="black"/>
<path d="M120.085 95.7564C120.053 95.6724 120.067 95.5045 120.172 95.41C120.274 95.3155 124.978 92.7535 125.02 94.2725C125.023 94.444 125.041 95.0285 124.925 95.3295C124.806 95.6304 124.656 95.9139 124.372 96.1624C124.089 96.4109 123.004 96.8869 122.195 97.0269C120.89 97.2579 120.155 95.9314 120.085 95.7564Z" fill="white"/>
<path d="M107.831 94.9059C107.705 94.8289 107.436 94.8604 107.229 94.9479C107.023 95.0354 107.002 95.1089 106.844 95.1999C106.687 95.2874 106.477 95.5114 106.078 95.3889C105.749 95.2909 102.27 94.0345 101.031 93.5865C100.733 93.478 99.97 93.2644 99.6585 93.3274C99.1615 93.4324 98.906 93.8139 98.892 94.0694C98.486 96.6454 99.5255 97.1634 101.265 97.8424C104.216 98.7664 105.371 96.8799 105.476 96.7434C105.584 96.6069 106.039 96.3759 106.473 96.2814C106.907 96.1869 107.457 95.9909 107.688 95.7704C107.863 95.6129 108.157 95.1054 107.831 94.9059Z" fill="black"/>
<path d="M104.506 96.152C104.538 96.0715 104.52 95.9105 104.419 95.823C104.317 95.7355 99.6621 93.3275 99.6306 94.766C99.6271 94.9305 99.6131 95.4835 99.7321 95.767C99.8511 96.054 100.002 96.32 100.285 96.558C100.565 96.7925 101.64 97.237 102.438 97.37C103.726 97.58 104.44 96.32 104.506 96.152Z" fill="white"/>
<path d="M109.329 98.126C110.624 97.4085 112.171 97.272 113.575 97.7375C114.002 97.8775 114.184 97.2055 113.76 97.0655C112.182 96.544 110.428 96.719 108.976 97.5275C108.584 97.741 108.937 98.343 109.329 98.126Z" fill="black"/>
<path d="M113.869 96.103C113.655 96.8344 113.613 97.5869 113.718 98.3394C113.743 98.5214 113.984 98.6369 114.149 98.5844C114.348 98.5214 114.418 98.3499 114.394 98.1539C114.401 98.1994 114.387 98.0874 114.383 98.0769C114.38 98.0314 114.373 97.9894 114.369 97.9439C114.362 97.8669 114.359 97.7899 114.355 97.7129C114.352 97.5484 114.355 97.3805 114.366 97.216C114.38 97.0305 114.39 96.9465 114.422 96.775C114.453 96.6105 114.492 96.4494 114.537 96.2884C114.59 96.1134 114.474 95.9 114.292 95.858C114.11 95.8195 113.921 95.9175 113.869 96.103Z" fill="black"/>
<path d="M108.202 97.1354C108.251 97.1739 108.3 97.2159 108.342 97.2614C108.363 97.2824 108.384 97.3069 108.405 97.3314C108.416 97.3419 108.423 97.3524 108.433 97.3629C108.461 97.3944 108.388 97.2999 108.423 97.3524C108.458 97.4049 108.493 97.4574 108.521 97.5134C108.535 97.5414 108.549 97.5694 108.563 97.5974C108.566 97.6079 108.587 97.6534 108.566 97.6044C108.542 97.5484 108.57 97.6149 108.573 97.6219C108.594 97.6779 108.612 97.7339 108.626 97.7934C108.633 97.8249 108.64 97.8564 108.643 97.8844C108.657 97.9579 108.636 97.8214 108.64 97.8634C108.64 97.8774 108.643 97.8914 108.643 97.9054C108.65 97.9684 108.65 98.0314 108.647 98.0944C108.647 98.1259 108.64 98.1574 108.64 98.1889C108.64 98.1749 108.654 98.1119 108.643 98.1574C108.64 98.1784 108.636 98.1994 108.633 98.2204C108.598 98.3989 108.685 98.6054 108.878 98.6509C109.053 98.6894 109.266 98.5984 109.308 98.4059C109.438 97.7654 109.217 97.0549 108.696 96.6454C108.619 96.5859 108.549 96.5439 108.451 96.5439C108.367 96.5439 108.262 96.5824 108.206 96.6454C108.087 96.7679 108.048 97.0164 108.202 97.1354Z" fill="black"/>
<path d="M121.873 96.789C122.49 96.789 122.99 96.2891 122.99 95.6725C122.99 95.0558 122.49 94.556 121.873 94.556C121.256 94.556 120.757 95.0558 120.757 95.6725C120.757 96.2891 121.256 96.789 121.873 96.789Z" fill="black"/>
<path d="M102.91 97.3455C103.527 97.3455 104.027 96.8456 104.027 96.229C104.027 95.6124 103.527 95.1125 102.91 95.1125C102.293 95.1125 101.794 95.6124 101.794 96.229C101.794 96.8456 102.293 97.3455 102.91 97.3455Z" fill="black"/>
<path d="M129.258 143.843L129.549 144.105C129.559 144.112 129.542 144.123 129.528 144.119L129.069 143.951L129.258 143.843Z" fill="#3B3B3B"/>
<path d="M127.697 143.206L114.019 135.285V135.502L127.697 143.423V143.206Z" fill="#EE9B1E"/>
<path d="M127.83 142.974L114.152 135.054L114.019 135.285L127.697 143.205L127.83 142.974Z" fill="#FFB821"/>
<path d="M128.018 142.866L114.34 134.946L114.151 135.054L127.829 142.975L128.018 142.866Z" fill="#FFC343"/>
<path d="M127.571 142.943L128.152 142.971C128.236 142.982 128.432 143.09 128.477 143.132L129.37 143.941C129.265 143.881 129.205 143.965 129.244 144.014L127.854 143.507C127.798 143.468 127.714 143.433 127.697 143.384L127.508 142.982L127.571 142.943Z" fill="#F5DFC1"/>
<path d="M128.344 143.052C128.309 143.136 128.176 143.087 128.127 143.122C128.057 143.171 128.394 143.36 128.184 143.391C128.082 143.405 127.953 143.339 127.858 143.314C127.827 143.307 127.781 143.3 127.771 143.321C127.743 143.37 127.868 143.419 127.851 143.51L127.029 143.02L127.435 142.53L128.344 143.052Z" fill="#FFB821"/>
<path d="M127.438 142.53L127.683 142.67L128.344 143.052C128.309 143.132 128.18 143.087 128.127 143.118C128.12 143.125 128.12 143.132 128.12 143.139L127.228 142.625L127.438 142.53Z" fill="#FFC343"/>
<path d="M127.133 142.88L127.914 143.332C127.896 143.325 127.875 143.318 127.858 143.314C127.826 143.307 127.781 143.3 127.77 143.321C127.742 143.37 127.868 143.419 127.851 143.51L126.885 142.954L127.133 142.88Z" fill="#EE9B1E"/>
<path d="M123.693 146.864L107.737 137.648V137.554L123.693 146.766V146.864Z" fill="#D1A15A"/>
<path d="M125.734 145.684L123.693 146.863V146.765L125.734 145.589V145.684Z" fill="#EEBA65"/>
<path d="M123.693 146.766L107.737 137.554L109.774 136.374L125.733 145.59L123.693 146.766Z" fill="#FFD079"/>
<path d="M118.797 141.585L118.818 141.599L118.163 141.977L118.142 141.963L118.797 141.585ZM118.762 142.1L118.783 142.114L119.248 141.844L119.227 141.83L118.762 142.1ZM119.189 142.348L119.21 142.362L119.675 142.093L119.654 142.079L119.189 142.348ZM117.904 141.606L117.925 141.62L118.391 141.351L118.37 141.337L117.904 141.606ZM116.62 140.864L116.641 140.879L117.106 140.609L117.085 140.595L116.62 140.864ZM116.004 140.725L116.025 140.738L116.679 140.361L116.658 140.346L116.004 140.725ZM117.477 141.358L117.498 141.372L117.964 141.102L117.943 141.088L117.477 141.358ZM119.619 142.593L119.64 142.607L120.106 142.338L120.085 142.324L119.619 142.593ZM117.047 141.11L117.068 141.123L117.533 140.854L117.512 140.84L117.047 141.11ZM121.331 143.584L121.352 143.598L121.817 143.328L121.796 143.314L121.331 143.584ZM122.188 144.077L122.209 144.091L122.675 143.822L122.654 143.808L122.188 144.077ZM121.761 143.832L121.782 143.846L122.248 143.577L122.227 143.563L121.761 143.832ZM123.532 144.319L123.511 144.305L123.046 144.574L123.067 144.588L123.532 144.319ZM122.426 144.434L122.447 144.448L123.102 144.07L123.081 144.056L122.426 144.434ZM115.762 140.367L115.783 140.381L116.249 140.112L116.228 140.098L115.762 140.367ZM120.284 143.199L120.305 143.213L120.96 142.835L120.939 142.821L120.284 143.199ZM120.904 143.335L120.925 143.349L121.39 143.08L121.369 143.066L120.904 143.335ZM120.046 142.842L120.067 142.856L120.533 142.586L120.512 142.572L120.046 142.842ZM110.194 137.155L110.215 137.169L110.68 136.899L110.659 136.885L110.194 137.155ZM123.938 144.553L123.473 144.823L123.494 144.837L123.959 144.567L123.938 144.553ZM109.578 137.018L109.599 137.032L110.253 136.654L110.232 136.64L109.578 137.018ZM110.624 137.403L110.645 137.417L111.111 137.148L111.09 137.134L110.624 137.403ZM111.051 137.648L111.072 137.662L111.538 137.393L111.517 137.379L111.051 137.648ZM124.33 145.316L124.351 145.33L124.817 145.061L124.796 145.047L124.33 145.316ZM125.244 145.306L125.223 145.292L124.568 145.67L124.589 145.684L125.244 145.306ZM111.478 137.897L111.499 137.911L111.965 137.641L111.944 137.627L111.478 137.897ZM124.386 144.812L124.365 144.798L123.9 145.068L123.921 145.082L124.386 144.812ZM114.908 139.874L114.929 139.888L115.395 139.619L115.374 139.605L114.908 139.874ZM113.862 139.489L113.883 139.503L114.537 139.125L114.516 139.111L113.862 139.489ZM114.478 139.629L114.499 139.643L114.964 139.374L114.943 139.36L114.478 139.629ZM111.72 138.254L111.741 138.268L112.395 137.89L112.374 137.876L111.72 138.254ZM113.62 139.132L113.641 139.146L114.107 138.877L114.086 138.863L113.62 139.132ZM115.335 140.123L115.356 140.137L115.822 139.867L115.801 139.853L115.335 140.123ZM112.336 138.39L112.357 138.404L112.822 138.135L112.801 138.121L112.336 138.39ZM112.766 138.639L112.787 138.653L113.253 138.383L113.232 138.369L112.766 138.639ZM113.193 138.887L113.214 138.901L113.68 138.632L113.659 138.618L113.193 138.887Z" fill="#CE9D4E"/>
<path d="M164.373 23.4639L164.808 23.0194L147.874 6.45398L147.699 6.50998L95.532 22.8339L95.7175 23.4219L147.706 7.15398L164.373 23.4639Z" fill="#2A2D38"/>
<path d="M101.226 41.573V46.8125C101.226 47.5545 101.832 48.16 102.574 48.16C103.316 48.16 103.921 47.5545 103.921 46.8125H104.639C104.639 47.95 103.711 48.8775 102.574 48.8775C101.436 48.8775 100.509 47.95 100.509 46.8125V41.573H101.226Z" fill="#EC2327"/>
<path d="M105.675 34.272H104.922V40.1835H105.675V34.272Z" fill="#EC2327"/>
<path d="M97.6565 34.272H96.9041V40.1835H97.6565V34.272Z" fill="#EC2327"/>
<path d="M107.684 30.6355H94.6465V33.4565H107.684V30.6355Z" fill="#EC2327"/>
<path d="M106.546 38.5945H95.889V42.3745H106.546V38.5945Z" fill="#FFD04F"/>
<path d="M103.764 33.4565C103.764 34.3035 104.45 34.993 105.297 34.993C106.144 34.993 106.83 34.307 106.83 33.4565C106.83 32.606 106.144 31.92 105.297 31.92C104.45 31.9235 103.764 32.6095 103.764 33.4565Z" fill="#FFD04F"/>
<path d="M95.931 33.4565C95.931 34.2475 96.5715 34.888 97.3625 34.888C98.1535 34.888 98.794 34.2475 98.794 33.4565C98.794 32.6655 98.1535 32.025 97.3625 32.025C96.5715 32.025 95.931 32.6655 95.931 33.4565Z" fill="#FFD04F"/>
<path d="M140.388 109.466V30.429C140.388 30.282 140.507 30.1665 140.651 30.1665H147.892C148.039 30.1665 148.154 30.2855 148.154 30.429V109.466C148.154 109.613 148.035 109.728 147.892 109.728H140.651C140.507 109.732 140.388 109.613 140.388 109.466ZM147.629 30.6915H140.917V109.203H147.629V30.6915Z" fill="#2A2D38"/>
<path d="M140.874 109.732C140.934 109.732 140.993 109.711 141.042 109.673L147.839 104.027C147.899 103.978 147.934 103.901 147.934 103.824C147.934 103.747 147.899 103.67 147.839 103.621L141.287 98.1785L147.839 92.736C147.899 92.687 147.934 92.6135 147.934 92.533C147.934 92.456 147.899 92.379 147.839 92.33L141.287 86.8875L147.839 81.445C147.899 81.396 147.934 81.319 147.934 81.242C147.934 81.165 147.899 81.088 147.839 81.039L141.287 75.5965L147.839 70.154C147.899 70.105 147.934 70.028 147.934 69.951C147.934 69.874 147.899 69.797 147.839 69.748L141.287 64.3055L147.839 58.863C147.899 58.814 147.934 58.737 147.934 58.66C147.934 58.583 147.899 58.506 147.839 58.457L141.287 53.0145L147.839 47.572C147.899 47.523 147.934 47.446 147.934 47.369C147.934 47.292 147.899 47.215 147.839 47.166L141.287 41.7235L147.839 36.281C147.899 36.232 147.934 36.155 147.934 36.078C147.934 36.001 147.899 35.924 147.839 35.875L141.042 30.2295C140.93 30.135 140.766 30.1525 140.671 30.2645C140.58 30.3765 140.594 30.541 140.706 30.6355L147.258 36.078L140.706 41.5205C140.647 41.5695 140.612 41.6465 140.612 41.7235C140.612 41.8005 140.647 41.8775 140.706 41.9265L147.258 47.369L140.706 52.8115C140.647 52.8605 140.612 52.9375 140.612 53.0145C140.612 53.0915 140.647 53.1685 140.706 53.2175L147.258 58.66L140.706 64.1025C140.647 64.1515 140.612 64.225 140.612 64.3055C140.612 64.3825 140.647 64.4595 140.706 64.5085L147.258 69.951L140.706 75.3935C140.647 75.4425 140.612 75.5195 140.612 75.5965C140.612 75.6735 140.647 75.7505 140.706 75.7995L147.258 81.242L140.706 86.6845C140.647 86.7335 140.612 86.8105 140.612 86.8875C140.612 86.9645 140.647 87.0415 140.706 87.0905L147.258 92.533L140.706 97.9755C140.647 98.0245 140.612 98.1015 140.612 98.1785C140.612 98.2555 140.647 98.3325 140.706 98.3815L147.258 103.824L140.706 109.267C140.594 109.361 140.58 109.526 140.671 109.638C140.724 109.697 140.797 109.732 140.874 109.732Z" fill="#2A2D38"/>
<path d="M147.671 109.732C147.748 109.732 147.822 109.701 147.874 109.638C147.969 109.526 147.951 109.361 147.839 109.267L141.287 103.824L147.839 98.3815C147.899 98.3325 147.934 98.2555 147.934 98.1785C147.934 98.1015 147.899 98.0245 147.839 97.9755L141.287 92.533L147.839 87.0905C147.899 87.0415 147.934 86.9645 147.934 86.8875C147.934 86.8105 147.899 86.7335 147.839 86.6845L141.287 81.242L147.839 75.7995C147.899 75.7505 147.934 75.6735 147.934 75.5965C147.934 75.5195 147.899 75.4425 147.839 75.3935L141.287 69.951L147.839 64.5085C147.899 64.4595 147.934 64.3825 147.934 64.3055C147.934 64.2285 147.899 64.1515 147.839 64.1025L141.287 58.66L147.839 53.2175C147.899 53.1685 147.934 53.0915 147.934 53.0145C147.934 52.9375 147.899 52.8605 147.839 52.8115L141.287 47.369L147.839 41.9265C147.899 41.8775 147.934 41.8005 147.934 41.7235C147.934 41.6465 147.899 41.5695 147.839 41.5205L141.287 36.078L147.839 30.6355C147.951 30.5445 147.965 30.3765 147.874 30.2645C147.78 30.1525 147.615 30.1385 147.503 30.2295L140.706 35.875C140.647 35.924 140.612 35.9975 140.612 36.078C140.612 36.155 140.647 36.232 140.706 36.281L147.258 41.7235L140.706 47.166C140.647 47.215 140.612 47.2885 140.612 47.369C140.612 47.446 140.647 47.523 140.706 47.572L147.258 53.0145L140.706 58.457C140.647 58.506 140.612 58.583 140.612 58.66C140.612 58.737 140.647 58.814 140.706 58.863L147.258 64.3055L140.706 69.748C140.647 69.797 140.612 69.874 140.612 69.951C140.612 70.028 140.647 70.105 140.706 70.154L147.258 75.5965L140.706 81.039C140.647 81.088 140.612 81.165 140.612 81.242C140.612 81.319 140.647 81.396 140.706 81.445L147.258 86.8875L140.706 92.33C140.647 92.379 140.612 92.4525 140.612 92.533C140.612 92.61 140.647 92.687 140.706 92.736L147.258 98.1785L140.706 103.621C140.647 103.67 140.612 103.744 140.612 103.824C140.612 103.901 140.647 103.978 140.706 104.027L147.5 109.669C147.549 109.711 147.612 109.732 147.671 109.732Z" fill="#2A2D38"/>
<path d="M89.645 30.4291C89.645 30.3521 89.6765 30.2855 89.729 30.2365L95.504 23.0231C95.553 22.9601 95.63 22.925 95.7105 22.925H134.879C134.956 22.925 135.033 22.9601 135.082 23.0196L141.053 30.261C141.12 30.3415 141.13 30.45 141.088 30.541C141.046 30.6321 140.952 30.6915 140.85 30.6915H89.9145H89.911C89.764 30.6915 89.645 30.5726 89.645 30.4291ZM134.753 23.4536H95.8365L90.464 30.1665H140.29L134.753 23.4536Z" fill="#2A2D38"/>
<path d="M90.0125 30.569C90.0895 30.569 90.1665 30.534 90.219 30.471L95.5635 23.828L101.003 30.3765C101.104 30.4955 101.307 30.4955 101.409 30.3765L106.851 23.8245L112.294 30.3765C112.395 30.4955 112.598 30.4955 112.7 30.3765L118.142 23.8245L123.585 30.3765C123.686 30.4955 123.889 30.4955 123.99 30.3765L129.433 23.8245L134.875 30.3765C134.973 30.4955 135.18 30.4955 135.281 30.3765L137.998 27.1075C138.089 26.9955 138.074 26.831 137.962 26.7365C137.85 26.642 137.686 26.6595 137.591 26.7715L135.079 29.799L129.636 23.247C129.534 23.128 129.331 23.128 129.23 23.247L123.788 29.799L118.345 23.247C118.244 23.128 118.041 23.128 117.939 23.247L112.497 29.799L107.054 23.247C106.953 23.128 106.75 23.128 106.648 23.247L101.206 29.799L95.763 23.247C95.714 23.1875 95.6405 23.1455 95.56 23.1525C95.4795 23.1525 95.406 23.1875 95.357 23.2505L89.8095 30.1455C89.7185 30.2575 89.736 30.4255 89.8515 30.5165C89.8935 30.5515 89.953 30.569 90.0125 30.569Z" fill="#2A2D38"/>
<path d="M140.84 30.6914C140.899 30.6914 140.959 30.6704 141.008 30.6319C141.12 30.5409 141.137 30.3729 141.042 30.2609C140.713 29.8619 135.225 23.1979 135.169 23.1279C135.117 23.0649 135.04 23.0334 134.963 23.0334C134.882 23.0334 134.809 23.0719 134.76 23.1349L129.51 29.8059L123.987 23.2399C123.938 23.1804 123.864 23.1454 123.784 23.1454C123.707 23.1454 123.633 23.1804 123.581 23.2399L118.138 29.7919L112.696 23.2399C112.594 23.1209 112.391 23.1209 112.29 23.2399L106.847 29.7919L101.405 23.2434C101.303 23.1244 101.1 23.1244 100.999 23.2434L95.553 29.8024L92.921 26.7504C92.8265 26.6384 92.6585 26.6279 92.55 26.7224C92.4415 26.8169 92.4275 26.9849 92.522 27.0934L95.357 30.3799C95.406 30.4394 95.4795 30.4674 95.56 30.4709C95.637 30.4709 95.7105 30.4359 95.7595 30.3764L101.202 23.8244L106.644 30.3764C106.746 30.4954 106.949 30.4954 107.05 30.3764L112.493 23.8244L117.935 30.3764C118.037 30.4954 118.24 30.4954 118.341 30.3764L123.787 23.8209L129.314 30.3904C129.366 30.4499 129.44 30.4849 129.52 30.4849C129.601 30.4814 129.674 30.4464 129.723 30.3834L134.97 23.7124C135.982 24.9409 140.343 30.2399 140.637 30.5934C140.689 30.6599 140.763 30.6914 140.84 30.6914Z" fill="#2A2D38"/>
<path d="M170.6 30.7475L147.857 30.695C147.755 30.695 147.664 30.6355 147.619 30.5445C147.577 30.4535 147.587 30.345 147.65 30.2645L153.446 23.023C153.499 22.96 153.576 22.918 153.653 22.925L164.629 22.9775C164.706 22.9775 164.779 23.0125 164.832 23.072L170.803 30.3135C170.869 30.3905 170.88 30.5025 170.838 30.5935C170.796 30.688 170.701 30.7475 170.6 30.7475ZM153.779 23.4535L148.403 30.1665L170.04 30.219L164.503 23.506L153.779 23.4535Z" fill="#2A2D38"/>
<path d="M147.955 30.569C148.032 30.569 148.109 30.534 148.162 30.471L153.506 23.828L158.945 30.3765C158.994 30.436 159.067 30.471 159.148 30.471C159.225 30.471 159.302 30.436 159.351 30.3765L164.996 23.5795C165.091 23.4675 165.073 23.303 164.961 23.2085C164.849 23.114 164.685 23.1315 164.59 23.2435L159.148 29.7955L153.706 23.2435C153.657 23.184 153.58 23.142 153.503 23.149C153.422 23.149 153.349 23.184 153.3 23.247L147.752 30.142C147.661 30.254 147.679 30.422 147.794 30.513C147.84 30.5515 147.899 30.569 147.955 30.569Z" fill="#2A2D38"/>
<path d="M153.502 30.471C153.583 30.471 153.656 30.436 153.705 30.3765L159.148 23.8245L164.59 30.3765C164.692 30.4955 164.895 30.4955 164.996 30.3765L167.765 27.041C167.859 26.929 167.842 26.7645 167.73 26.67C167.618 26.5755 167.453 26.593 167.359 26.705L164.793 29.7955L159.351 23.2435C159.249 23.1245 159.046 23.1245 158.945 23.2435L153.499 29.8025L150.867 26.7505C150.772 26.6385 150.608 26.628 150.496 26.7225C150.387 26.817 150.373 26.985 150.468 27.0935L153.303 30.38C153.355 30.436 153.425 30.471 153.502 30.471Z" fill="#2A2D38"/>
<path d="M140.444 21.161V14.882C140.444 14.819 140.469 14.756 140.511 14.707L147.637 6.56949C147.71 6.48549 147.826 6.45748 147.927 6.49598C148.029 6.53448 148.099 6.63249 148.099 6.74099V21.1575C148.099 21.3045 147.98 21.42 147.836 21.42H140.71C140.563 21.4235 140.444 21.3045 140.444 21.161ZM147.574 7.44448L140.973 14.98V20.895H147.574V7.44448Z" fill="#2A2D38"/>
<path d="M147.836 21.203C147.91 21.203 147.983 21.1715 148.032 21.112C148.127 21.0035 148.116 20.8355 148.008 20.741L141.113 14.6825C141.004 14.588 140.836 14.5985 140.742 14.707C140.647 14.8155 140.658 14.9835 140.766 15.078L147.661 21.1365C147.71 21.1785 147.773 21.203 147.836 21.203Z" fill="#2A2D38"/>
<path d="M140.728 21.301C140.784 21.301 140.84 21.2835 140.889 21.245L147.899 15.8655C147.955 15.82 147.994 15.757 148.001 15.6835C148.008 15.61 147.987 15.54 147.938 15.484L144.126 11.0355C144.032 10.9235 143.864 10.913 143.755 11.0075C143.643 11.102 143.633 11.27 143.727 11.3785L147.357 15.617L140.57 20.825C140.455 20.9125 140.434 21.0805 140.521 21.1925C140.57 21.266 140.651 21.301 140.728 21.301Z" fill="#2A2D38"/>
<path d="M153.741 19.9604H134.841V38.4999H153.741V19.9604Z" fill="#FFD04F"/>
<path d="M150.801 22.001H137.774V29.2985H150.801V22.001Z" fill="white"/>
<path d="M149.428 100.79H138.652V110.135H149.428V100.79Z" fill="#117DC1"/>
<path d="M17.5975 112.581H16.11V139.944H17.5975V112.581Z" fill="#B2B2B2"/>
<path d="M18.637 139.163H15.0775V141.491H18.637V139.163Z" fill="#B2B2B2"/>
<path d="M28.5559 103.733C29.0949 104.272 29.0949 105.147 28.5559 105.686L17.9299 116.312C17.3909 116.851 16.5159 116.851 15.9769 116.312L5.30543 105.641C4.76643 105.102 4.76643 104.227 5.30543 103.688L15.9314 93.0615C16.4704 92.5225 17.3454 92.5225 17.8844 93.0615L28.5559 103.733Z" fill="#FFD04F"/>
<path d="M16.95 114.87C16.586 114.87 16.2465 114.73 15.9875 114.471L7.1465 105.63C6.618 105.102 6.618 104.237 7.1465 103.709L15.9525 94.9025C16.208 94.647 16.551 94.5035 16.915 94.5035C17.279 94.5035 17.6185 94.6435 17.8775 94.9025L26.7185 103.747C27.2505 104.276 27.2505 105.14 26.7185 105.669L17.9125 114.475C17.6535 114.73 17.314 114.87 16.95 114.87ZM16.9115 94.9375C16.663 94.9375 16.432 95.0355 16.2535 95.2105L7.4475 104.017C7.087 104.377 7.087 104.969 7.4475 105.329L16.292 114.174C16.467 114.349 16.7015 114.447 16.95 114.447C17.1985 114.447 17.4295 114.349 17.6045 114.174L26.4105 105.368C26.771 105.007 26.771 104.416 26.4105 104.055L17.566 95.2105C17.3945 95.032 17.16 94.9375 16.9115 94.9375Z" fill="#2A2D38"/>
<path d="M18.231 108.787C18.231 109.508 17.6465 110.096 16.922 110.096C16.201 110.096 15.613 109.512 15.613 108.787C15.613 108.066 16.1975 107.478 16.922 107.478C17.6465 107.478 18.231 108.063 18.231 108.787Z" fill="black"/>
<path d="M17.923 106.785H15.921L15.438 99.96L18.4725 99.981L17.923 106.785Z" fill="black"/>
<path d="M17.006 107.482V110.093C17.6885 110.051 18.231 109.48 18.231 108.787C18.231 108.091 17.6885 107.524 17.006 107.482Z" fill="black"/>
<path d="M17.006 99.9705V106.785H17.923L18.4725 99.981L17.006 99.9705Z" fill="black"/>
<path d="M155.186 144.371L147.703 127.25H145.848L138.319 144.371H155.186Z" fill="#EC2327"/>
<path d="M144.437 130.459L143.384 132.853H150.153L149.106 130.459H144.437Z" fill="#FFD04F"/>
<path d="M142.533 134.788L141.277 137.644H152.246L151 134.788H142.533Z" fill="#FFD04F"/>
<path d="M154.363 142.485L152.96 139.276H140.559L139.149 142.485H154.363Z" fill="#FFD04F"/>
<path d="M156.096 145.694C156.096 145.806 156.008 145.897 155.9 145.897H137.763C137.654 145.897 137.567 145.806 137.567 145.694V144.42C137.567 144.308 137.654 144.217 137.763 144.217H155.9C156.008 144.217 156.096 144.308 156.096 144.42V145.694Z" fill="#EC2327"/>
<path d="M123.935 78.1515C123.935 78.1515 124.092 80.6715 118.079 82.32C112.339 83.895 104.86 83.9685 101.139 82.3795C97.093 80.6505 101.888 77.6545 101.888 77.6545L123.935 78.1515Z" fill="#FFD04F"/>
<path d="M123.938 78.1515L122.706 78.1235C122.156 79.0055 120.756 80.2865 117.207 81.2595C111.467 82.8345 103.988 82.908 100.267 81.319C99.991 81.2035 99.76 81.081 99.564 80.9515C99.697 81.4625 100.159 81.9595 101.146 82.3795C104.866 83.9685 112.349 83.895 118.086 82.3235C124.092 80.6715 123.938 78.1515 123.938 78.1515Z" fill="#FAB271"/>
<path d="M123.935 78.1515C123.63 72.513 118.804 67.5325 112.906 67.5325C107.009 67.5325 102.193 72.0125 101.888 77.651C101.888 77.651 101.409 80.01 111.45 80.052C120.487 80.0905 123.935 78.1515 123.935 78.1515Z" fill="#FCB94D"/>
<path d="M112.91 67.536C111.093 67.536 109.375 67.963 107.863 68.7155C108.073 70.0805 108.143 71.463 108.013 72.8315C107.891 74.1405 107.6 75.4565 107.268 76.727C107.093 77.3955 106.886 78.05 106.613 78.6835C106.463 79.0405 106.277 79.3975 106.043 79.709C106.977 79.849 108.118 79.9575 109.518 80.01C109.546 79.3065 109.63 78.5995 109.777 77.9135C110.106 76.377 110.726 74.8825 111.573 73.556C112.423 72.219 113.484 70.931 114.73 69.944C115.503 69.328 116.34 68.8415 117.236 68.4705C115.906 67.872 114.446 67.536 112.91 67.536Z" fill="#FFD04F"/>
<path d="M35.9515 81.2244C35.9515 81.2244 35.794 83.9124 42.206 85.6519C48.331 87.3144 56.304 87.3739 60.2694 85.6694C64.5814 83.8144 59.4574 80.6329 59.4574 80.6329L35.9515 81.2244Z" fill="#FFD04F"/>
<path d="M35.9515 81.2245L37.264 81.193C37.852 82.131 39.3465 83.4925 43.137 84.5215C49.2585 86.184 57.2349 86.2435 61.1969 84.539C61.4874 84.413 61.7324 84.28 61.9459 84.147C61.8059 84.6895 61.3159 85.2215 60.2659 85.673C56.3004 87.3775 48.3275 87.318 42.2025 85.6555C35.794 83.909 35.9515 81.2245 35.9515 81.2245Z" fill="#FAB271"/>
<path d="M35.9521 81.2246C36.2636 75.2151 41.3946 69.8914 47.6841 69.8739C53.9701 69.8564 59.1151 74.6199 59.4581 80.6294C59.4581 80.6294 59.9761 83.1425 49.2696 83.2125C39.6376 83.2824 35.9521 81.2246 35.9521 81.2246Z" fill="#FCB94D"/>
<path d="M47.6835 69.8775C49.6225 69.874 51.453 70.322 53.0665 71.1235C52.846 72.5795 52.7725 74.053 52.916 75.509C53.0525 76.9055 53.364 78.3055 53.721 79.66C53.91 80.374 54.1305 81.067 54.4245 81.746C54.5855 82.124 54.7815 82.5055 55.037 82.838C54.043 82.9885 52.825 83.1075 51.334 83.1705C51.3025 82.4215 51.208 81.669 51.0505 80.934C50.697 79.296 50.032 77.707 49.129 76.293C48.219 74.872 47.0815 73.5 45.7515 72.45C44.9255 71.7955 44.033 71.2775 43.074 70.8855C44.4845 70.245 46.0455 69.881 47.6835 69.8775Z" fill="#FFD04F"/>
<path d="M87.972 85.2775C87.454 84.0385 85.935 84.084 85.0845 84.6545C84.234 85.225 83.9645 86.6915 84.4825 87.9305C85.0005 89.1695 86.145 90.3315 87.1705 89.6455C88.021 89.0785 88.49 86.52 87.972 85.2775Z" fill="black"/>
<path d="M88.3045 88.7356C88.7455 87.9656 89.624 86.0861 88.903 85.9321C88.4795 85.8411 86.544 88.1476 86.4495 89.4881C86.3865 90.3386 87.86 89.5091 88.3045 88.7356Z" fill="black"/>
<path d="M83.408 94.5525C82.8165 94.465 81.9205 94.0135 81.5005 93.5935C81.3185 93.4115 81.287 93.1315 81.4235 92.9145C83.0475 90.335 85.3435 85.883 88.0595 80.7415C88.882 79.1875 89.9705 77.2975 90.828 75.691C90.9155 75.523 91.1255 75.4635 91.29 75.5545L92.7075 76.3315C92.879 76.426 92.935 76.6395 92.837 76.8075C90.954 79.9575 89.253 84.0175 87.587 87.36C86.0365 90.468 84.4965 92.939 83.996 94.213C83.9015 94.444 83.66 94.591 83.408 94.5525Z" fill="#EEAF50"/>
<path d="M96.7396 77.8261L93.5056 77.0596C93.3691 77.0281 93.2395 76.9756 93.117 76.9091L88.4795 74.3716C88.3675 74.3086 88.3255 74.1686 88.385 74.0531L89.253 72.4676C89.316 72.3556 89.456 72.3136 89.5715 72.3731L94.1951 74.9001C94.3176 74.9666 94.4296 75.0506 94.5311 75.1451L96.9391 77.4621C96.9811 77.5041 96.9915 77.5706 96.9635 77.6231L96.8901 77.7561C96.8586 77.8121 96.7956 77.8401 96.7396 77.8261Z" fill="black"/>
<path d="M89.3052 72.3939C89.3332 72.3414 89.3857 72.3134 89.4382 72.3029C89.4837 72.2924 89.5747 72.3134 89.6167 72.3379L91.9057 73.5909L94.1842 74.8369C94.2402 74.8684 94.3417 74.9314 94.3907 74.9664C94.4362 74.9979 94.4747 75.0364 94.5202 75.0679C94.5377 75.0819 94.6917 75.2254 94.7057 75.2394C94.7057 75.2394 96.7357 77.1819 96.9037 77.3394C96.9457 77.3814 96.9632 77.4409 96.9527 77.4864C96.9632 77.4969 96.9142 77.6089 96.9107 77.6194C96.8897 77.6789 96.8197 77.7139 96.7532 77.6999C96.7077 77.6929 93.7922 76.9789 93.7922 76.9789C93.7712 76.9719 93.5472 76.9159 93.5262 76.9089C93.4947 76.8984 93.4632 76.8879 93.4317 76.8774C93.3547 76.8529 93.2112 76.7864 93.1412 76.7479L91.0272 75.5929L90.8207 75.4809L88.6367 74.2874C88.6227 74.2804 88.5142 74.2069 88.5212 74.1929C88.4372 74.1474 88.4337 73.9864 88.4792 73.9024L88.8782 73.1744L89.3052 72.3939Z" fill="white"/>
<path opacity="0.25" d="M89.3052 72.3939C89.3332 72.3414 89.3857 72.3134 89.4382 72.3029C89.4837 72.2924 89.5747 72.3134 89.6167 72.3379L91.9057 73.5909L94.1842 74.8369C94.2402 74.8684 94.3417 74.9314 94.3907 74.9664C94.4362 74.9979 94.4747 75.0364 94.5202 75.0679C94.5377 75.0819 94.6917 75.2254 94.7057 75.2394C94.7057 75.2394 96.7357 77.1819 96.9037 77.3394C96.9457 77.3814 96.9632 77.4409 96.9527 77.4864C96.9632 77.4969 96.9142 77.6089 96.9107 77.6194C96.8897 77.6789 96.8197 77.7139 96.7532 77.6999C96.7077 77.6929 93.7922 76.9789 93.7922 76.9789C93.7712 76.9719 93.5472 76.9159 93.5262 76.9089C93.4947 76.8984 93.4632 76.8879 93.4317 76.8774C93.3547 76.8529 93.2112 76.7864 93.1412 76.7479L91.0272 75.5929L90.8207 75.4809L88.6367 74.2874C88.6227 74.2804 88.5142 74.2069 88.5212 74.1929C88.4372 74.1474 88.4337 73.9864 88.4792 73.9024L88.8782 73.1744L89.3052 72.3939Z" fill="#0A0B0B"/>
<path d="M89.3365 72.3902C89.3645 72.3377 89.4205 72.3097 89.473 72.3167C89.5045 72.3062 89.6165 72.3517 89.6445 72.3692L91.9125 73.6117L94.1595 74.8402C94.1945 74.8612 94.3309 74.9417 94.3659 74.9662C94.4114 74.9977 94.4534 75.0292 94.4954 75.0607C94.5269 75.0852 94.6529 75.1972 94.6809 75.2252C94.6809 75.2252 96.5184 76.9682 96.8544 77.2832C96.8964 77.3252 96.9244 77.3742 96.9279 77.4197C96.9489 77.4407 96.9209 77.5317 96.9139 77.5527C96.8929 77.6192 96.8229 77.6612 96.7459 77.6472C96.6514 77.6297 93.7885 76.9087 93.7885 76.9087C93.743 76.8982 93.5645 76.8492 93.5225 76.8317C93.491 76.8177 93.4595 76.8107 93.428 76.7967C93.3755 76.7827 93.1865 76.6847 93.141 76.6567L91.027 75.5017L90.8205 75.3897L88.633 74.1927C88.6085 74.1787 88.528 74.1087 88.542 74.0842C88.486 74.0527 88.5245 73.8777 88.5525 73.8182L88.913 73.1602L89.3365 72.3902Z" fill="white"/>
<path opacity="0.5" d="M89.3365 72.3902C89.3645 72.3377 89.4205 72.3097 89.473 72.3167C89.5045 72.3062 89.6165 72.3517 89.6445 72.3692L91.9125 73.6117L94.1595 74.8402C94.1945 74.8612 94.3309 74.9417 94.3659 74.9662C94.4114 74.9977 94.4534 75.0292 94.4954 75.0607C94.5269 75.0852 94.6529 75.1972 94.6809 75.2252C94.6809 75.2252 96.5184 76.9682 96.8544 77.2832C96.8964 77.3252 96.9244 77.3742 96.9279 77.4197C96.9489 77.4407 96.9209 77.5317 96.9139 77.5527C96.8929 77.6192 96.8229 77.6612 96.7459 77.6472C96.6514 77.6297 93.7885 76.9087 93.7885 76.9087C93.743 76.8982 93.5645 76.8492 93.5225 76.8317C93.491 76.8177 93.4595 76.8107 93.428 76.7967C93.3755 76.7827 93.1865 76.6847 93.141 76.6567L91.027 75.5017L90.8205 75.3897L88.633 74.1927C88.6085 74.1787 88.528 74.1087 88.542 74.0842C88.486 74.0527 88.5245 73.8777 88.5525 73.8182L88.913 73.1602L89.3365 72.3902Z" fill="#212222"/>
<path d="M89.3652 72.387C89.3932 72.3345 89.4527 72.3135 89.5052 72.331C89.5192 72.3275 89.6557 72.3905 89.6697 72.401L91.9202 73.6295L94.1322 74.8405C94.1497 74.851 94.3212 74.9455 94.3387 74.9595C94.3842 74.991 94.4262 75.019 94.4717 75.0505C94.5207 75.0855 94.6152 75.1695 94.6607 75.208C94.6607 75.208 96.3057 76.755 96.8097 77.2275C96.8517 77.2695 96.8797 77.315 96.9042 77.35C96.9322 77.385 96.9287 77.4515 96.9182 77.4865C96.9007 77.5565 96.8272 77.609 96.7432 77.595C96.6032 77.574 93.7857 76.8355 93.7857 76.8355C93.7192 76.818 93.5862 76.7795 93.5232 76.7515C93.4917 76.7375 93.4637 76.727 93.4322 76.7095C93.4077 76.7025 93.1732 76.5765 93.1487 76.5625L91.0312 75.404L90.8247 75.292L88.6337 74.095C88.5952 74.074 88.5462 74.0075 88.5672 73.969C88.5392 73.955 88.6162 73.759 88.6302 73.731L88.9557 73.1395L89.3652 72.387Z" fill="white"/>
<path opacity="0.75" d="M89.3652 72.387C89.3932 72.3345 89.4527 72.3135 89.5052 72.331C89.5192 72.3275 89.6557 72.3905 89.6697 72.401L91.9202 73.6295L94.1322 74.8405C94.1497 74.851 94.3212 74.9455 94.3387 74.9595C94.3842 74.991 94.4262 75.019 94.4717 75.0505C94.5207 75.0855 94.6152 75.1695 94.6607 75.208C94.6607 75.208 96.3057 76.755 96.8097 77.2275C96.8517 77.2695 96.8797 77.315 96.9042 77.35C96.9322 77.385 96.9287 77.4515 96.9182 77.4865C96.9007 77.5565 96.8272 77.609 96.7432 77.595C96.6032 77.574 93.7857 76.8355 93.7857 76.8355C93.7192 76.818 93.5862 76.7795 93.5232 76.7515C93.4917 76.7375 93.4637 76.727 93.4322 76.7095C93.4077 76.7025 93.1732 76.5765 93.1487 76.5625L91.0312 75.404L90.8247 75.292L88.6337 74.095C88.5952 74.074 88.5462 74.0075 88.5672 73.969C88.5392 73.955 88.6162 73.759 88.6302 73.731L88.9557 73.1395L89.3652 72.387Z" fill="#37393A"/>
<path d="M88.6336 74.0005C88.5811 73.9725 88.5636 73.9095 88.5916 73.8605L88.9941 73.122L89.3966 72.3835C89.4246 72.3345 89.4876 72.317 89.5401 72.345L91.9271 73.6505L94.3141 74.956C94.4331 75.019 94.5416 75.0995 94.6361 75.1905C94.6361 75.1905 96.2776 76.7165 96.8796 77.28C96.9916 77.385 96.8901 77.5635 96.7361 77.5425C96.5471 77.5145 93.7821 76.7655 93.7821 76.7655C93.6596 76.734 93.5406 76.6885 93.4286 76.629L91.0276 75.3165L88.6336 74.0005Z" fill="white"/>
<path d="M88.6336 74.0005C88.5811 73.9725 88.5636 73.9095 88.5916 73.8605L88.9941 73.122L89.3966 72.3835C89.4246 72.3345 89.4876 72.317 89.5401 72.345L91.9271 73.6505L94.3141 74.956C94.4331 75.019 94.5416 75.0995 94.6361 75.1905C94.6361 75.1905 96.2776 76.7165 96.8796 77.28C96.9916 77.385 96.8901 77.5635 96.7361 77.5425C96.5471 77.5145 93.7821 76.7655 93.7821 76.7655C93.6596 76.734 93.5406 76.6885 93.4286 76.629L91.0276 75.3165L88.6336 74.0005Z" fill="#4D5051"/>
<path d="M93.572 74.6236C93.145 74.3891 92.5535 74.0635 91.9025 73.7065C91.2481 73.353 90.6601 73.031 90.2296 72.7965C90.0161 72.681 89.8411 72.5865 89.7221 72.5235C89.6031 72.4605 89.5366 72.4255 89.5366 72.4255C89.5366 72.4255 89.7956 72.5795 90.2121 72.835C90.6286 73.0905 91.206 73.4405 91.857 73.794C92.508 74.151 93.1135 74.4486 93.5545 74.6621C93.9955 74.8721 94.265 75.0086 94.265 75.0086C94.265 75.0086 94.1985 74.9701 94.0795 74.9036C93.957 74.8371 93.7855 74.7391 93.572 74.6236Z" fill="white"/>
<path opacity="0.7" d="M93.572 74.6236C93.145 74.3891 92.5535 74.0635 91.9025 73.7065C91.2481 73.353 90.6601 73.031 90.2296 72.7965C90.0161 72.681 89.8411 72.5865 89.7221 72.5235C89.6031 72.4605 89.5366 72.4255 89.5366 72.4255C89.5366 72.4255 89.7956 72.5795 90.2121 72.835C90.6286 73.0905 91.206 73.4405 91.857 73.794C92.508 74.151 93.1135 74.4486 93.5545 74.6621C93.9955 74.8721 94.265 75.0086 94.265 75.0086C94.265 75.0086 94.1985 74.9701 94.0795 74.9036C93.957 74.8371 93.7855 74.7391 93.572 74.6236Z" fill="#F9F9F9"/>
<path d="M96.54 77.1505C96.484 77.0945 96.407 77.0175 96.309 76.923C96.113 76.7305 95.84 76.468 95.539 76.1775C95.238 75.8905 94.965 75.628 94.7655 75.439C94.6675 75.3445 94.587 75.271 94.531 75.215C94.475 75.1625 94.4435 75.1345 94.4435 75.1345C94.4435 75.1345 94.559 75.2605 94.7375 75.467C94.9195 75.6735 95.1715 75.957 95.4725 76.2475C95.7735 76.538 96.0675 76.7795 96.281 76.951C96.498 77.1225 96.6275 77.231 96.6275 77.231C96.6275 77.231 96.5925 77.2065 96.54 77.1505Z" fill="white"/>
<path opacity="0.7" d="M96.54 77.1505C96.484 77.0945 96.407 77.0175 96.309 76.923C96.113 76.7305 95.84 76.468 95.539 76.1775C95.238 75.8905 94.965 75.628 94.7655 75.439C94.6675 75.3445 94.587 75.271 94.531 75.215C94.475 75.1625 94.4435 75.1345 94.4435 75.1345C94.4435 75.1345 94.559 75.2605 94.7375 75.467C94.9195 75.6735 95.1715 75.957 95.4725 76.2475C95.7735 76.538 96.0675 76.7795 96.281 76.951C96.498 77.1225 96.6275 77.231 96.6275 77.231C96.6275 77.231 96.5925 77.2065 96.54 77.1505Z" fill="#F9F9F9"/>
<path d="M84.717 84.5145C84.493 84.8855 84.2655 85.253 84.0415 85.624C83.5725 86.394 83.849 87.5455 84.6575 87.976C85.494 88.417 86.509 88.179 87.0095 87.36C87.2335 86.989 87.461 86.6215 87.685 86.2505C88.154 85.4805 87.8775 84.329 87.069 83.8985C86.229 83.454 85.214 83.692 84.717 84.5145Z" fill="black"/>
<path d="M131.729 96.4565C133.944 98.623 136.223 101.013 137.462 103.894C137.403 103.754 137.536 104.079 137.557 104.132C137.609 104.275 137.662 104.422 137.707 104.569C137.784 104.825 137.844 105.08 137.896 105.339C137.903 105.381 137.931 105.612 137.903 105.378C137.91 105.444 137.917 105.511 137.921 105.577C137.928 105.686 137.931 105.791 137.931 105.899C137.931 106.004 137.924 106.109 137.917 106.211C137.914 106.267 137.872 106.466 137.917 106.221C137.903 106.302 137.889 106.379 137.868 106.456C137.844 106.554 137.812 106.645 137.784 106.739C137.714 106.967 137.847 106.655 137.735 106.855C137.676 106.96 137.62 107.061 137.557 107.163C137.536 107.198 137.511 107.229 137.487 107.261C137.627 107.061 137.466 107.282 137.431 107.32C137.361 107.397 137.284 107.474 137.207 107.544C137.158 107.59 137.109 107.632 137.056 107.674C137.224 107.534 137.049 107.677 137.017 107.698C136.79 107.849 136.559 107.982 136.314 108.097C136.08 108.209 136.475 108.038 136.227 108.136C136.122 108.178 136.017 108.216 135.908 108.251C135.737 108.311 135.565 108.36 135.39 108.409C134.998 108.514 134.602 108.591 134.2 108.65C133.178 108.797 132.037 108.808 130.969 108.78C129.842 108.748 129.842 110.498 130.969 110.53C133.78 110.607 138.155 110.491 139.412 107.366C140.413 104.874 138.635 101.983 137.221 100.04C135.957 98.301 134.501 96.712 132.968 95.2105C132.159 94.43 130.92 95.6655 131.729 96.4565Z" fill="#231300"/>
<path d="M131.715 111.086C131.596 111.044 131.477 111.002 131.362 110.953C131.432 110.981 131.502 111.013 131.572 111.041C131.379 110.957 131.197 110.859 131.029 110.733C131.089 110.778 131.148 110.824 131.208 110.869C131.103 110.785 131.005 110.691 130.921 110.586C130.966 110.645 131.012 110.705 131.057 110.764C130.998 110.684 130.949 110.596 130.907 110.505C130.935 110.575 130.966 110.645 130.994 110.715C130.952 110.61 130.921 110.505 130.907 110.393C130.917 110.47 130.928 110.547 130.938 110.624C130.928 110.537 130.928 110.456 130.938 110.369C130.928 110.446 130.917 110.523 130.907 110.6C130.917 110.526 130.938 110.46 130.963 110.39C130.935 110.46 130.903 110.53 130.875 110.6C130.903 110.533 130.942 110.474 130.984 110.414C130.938 110.474 130.893 110.533 130.847 110.593C130.893 110.54 130.938 110.491 130.991 110.449C130.931 110.495 130.872 110.54 130.812 110.586C130.886 110.53 130.963 110.488 131.047 110.449C130.977 110.477 130.907 110.509 130.837 110.537C130.97 110.484 131.106 110.449 131.25 110.428C131.173 110.439 131.096 110.449 131.019 110.46C131.253 110.428 131.495 110.428 131.733 110.453C131.656 110.442 131.579 110.432 131.502 110.421C131.572 110.432 131.638 110.446 131.705 110.47C131.635 110.442 131.565 110.411 131.495 110.383C131.544 110.404 131.589 110.432 131.631 110.463C131.572 110.418 131.512 110.372 131.453 110.327C131.491 110.362 131.523 110.397 131.558 110.435C131.512 110.376 131.467 110.316 131.421 110.257C131.533 110.411 131.607 110.589 131.687 110.761C131.782 110.96 131.88 111.163 131.971 111.363C131.943 111.293 131.911 111.223 131.883 111.153C131.904 111.202 131.922 111.251 131.929 111.307C131.918 111.23 131.908 111.153 131.897 111.076C131.901 111.1 131.901 111.125 131.897 111.149C131.908 111.072 131.918 110.995 131.929 110.918C131.925 110.929 131.922 110.943 131.918 110.953C131.946 110.883 131.978 110.813 132.006 110.743C131.999 110.754 131.995 110.764 131.988 110.778C132.034 110.719 132.079 110.659 132.125 110.6C132.111 110.617 132.097 110.635 132.079 110.649C132.139 110.603 132.198 110.558 132.258 110.512C132.24 110.526 132.219 110.537 132.198 110.544C132.268 110.516 132.338 110.484 132.408 110.456C132.275 110.509 132.128 110.53 131.985 110.551C132.062 110.54 132.139 110.53 132.216 110.519C131.978 110.547 131.743 110.547 131.505 110.516C131.582 110.526 131.659 110.537 131.736 110.547C131.61 110.53 131.488 110.505 131.372 110.46C131.442 110.488 131.512 110.519 131.582 110.547C131.533 110.526 131.491 110.502 131.449 110.47C131.509 110.516 131.568 110.561 131.628 110.607C131.6 110.582 131.575 110.558 131.551 110.53C131.596 110.589 131.642 110.649 131.687 110.708C131.666 110.68 131.652 110.652 131.638 110.621C131.666 110.691 131.698 110.761 131.726 110.831C131.715 110.799 131.708 110.768 131.701 110.733C131.712 110.81 131.722 110.887 131.733 110.964C131.729 110.943 131.729 110.922 131.733 110.897C131.722 110.974 131.712 111.051 131.701 111.128C131.705 111.107 131.708 111.086 131.715 111.065C131.687 111.135 131.656 111.205 131.628 111.275C131.635 111.254 131.645 111.237 131.656 111.219C131.61 111.279 131.565 111.338 131.519 111.398C131.533 111.377 131.551 111.363 131.568 111.345C131.509 111.391 131.449 111.436 131.39 111.482C131.411 111.468 131.435 111.454 131.46 111.443C131.39 111.471 131.32 111.503 131.25 111.531C131.313 111.51 131.372 111.496 131.439 111.485C131.362 111.496 131.285 111.506 131.208 111.517C131.316 111.503 131.425 111.503 131.537 111.513C131.46 111.503 131.383 111.492 131.306 111.482C131.428 111.499 131.544 111.531 131.659 111.576C131.589 111.548 131.519 111.517 131.449 111.489C131.561 111.538 131.666 111.597 131.764 111.671C131.705 111.625 131.645 111.58 131.586 111.534C131.673 111.604 131.75 111.681 131.817 111.765C131.771 111.706 131.726 111.646 131.68 111.587C131.726 111.65 131.768 111.713 131.803 111.783C131.775 111.713 131.743 111.643 131.715 111.573C131.733 111.615 131.743 111.65 131.754 111.695C131.743 111.618 131.733 111.541 131.722 111.464C131.726 111.492 131.729 111.52 131.726 111.545C131.736 111.468 131.747 111.391 131.757 111.314C131.754 111.342 131.747 111.366 131.736 111.394C131.764 111.324 131.796 111.254 131.824 111.184C131.813 111.209 131.799 111.23 131.782 111.247C131.827 111.188 131.873 111.128 131.918 111.069C131.89 111.097 131.862 111.121 131.831 111.146C131.89 111.1 131.95 111.055 132.009 111.009C131.925 111.069 131.838 111.118 131.743 111.16C131.813 111.132 131.883 111.1 131.953 111.072C131.845 111.114 131.733 111.142 131.621 111.16C131.698 111.149 131.775 111.139 131.852 111.128C131.736 111.142 131.621 111.139 131.505 111.125C131.582 111.135 131.659 111.146 131.736 111.156C131.621 111.139 131.512 111.107 131.404 111.062C131.474 111.09 131.544 111.121 131.614 111.149C131.589 111.139 131.568 111.128 131.544 111.114C131.334 111.009 131.103 110.96 130.868 111.027C130.665 111.083 130.445 111.24 130.347 111.429C130.137 111.825 130.224 112.409 130.662 112.626C131.327 112.959 132.086 112.966 132.748 112.612C133.224 112.353 133.532 111.898 133.458 111.345C133.406 110.967 133.182 110.603 132.898 110.351C132.359 109.868 131.656 109.662 130.942 109.798C130.399 109.903 129.983 110.365 129.983 110.925C129.983 111.394 130.273 111.856 130.704 112.052C131.061 112.217 131.449 112.28 131.841 112.287C132.009 112.29 132.17 112.273 132.335 112.252C132.503 112.227 132.678 112.21 132.842 112.154C133.115 112.059 133.381 111.891 133.518 111.625C133.658 111.349 133.689 111.02 133.588 110.726C133.472 110.397 133.297 110.078 133.147 109.763C132.989 109.431 132.804 109.13 132.489 108.927C132.174 108.724 131.789 108.689 131.425 108.685C130.802 108.682 130.158 108.822 129.696 109.263C129.08 109.851 129.055 110.81 129.465 111.517C129.85 112.182 130.553 112.532 131.253 112.766C131.687 112.913 132.23 112.598 132.331 112.154C132.436 111.678 132.177 111.244 131.715 111.086Z" fill="#231300"/>
<path d="M86.936 131.075L87.286 141.571L94.986 137.193L95.336 127.221L86.936 131.075Z" fill="#FF4545"/>
<path d="M78.886 127.081L86.936 131.075L87.286 141.571L79.467 137.928L78.886 127.081Z" fill="#FF1800"/>
<path d="M78.886 127.081L86.9361 131.075L95.3361 127.221L87.1636 124.071L78.886 127.081Z" fill="#FF7178"/>
<path d="M89.162 118.902L89.512 129.398L97.1735 126.088L97.562 115.049L89.162 118.902Z" fill="#53A5D5"/>
<path d="M81.112 114.909L89.162 118.902L89.512 129.399L81.693 125.755L81.112 114.909Z" fill="#348FB6"/>
<path d="M81.112 114.909L89.162 118.902L97.562 115.048L89.3895 111.898L81.112 114.909Z" fill="#AAE3F1"/>
<path d="M87.0025 109.69L87.3525 120.186L95.028 116.546L95.4025 105.836L87.0025 109.69Z" fill="#FF4545"/>
<path d="M78.9525 105.693L87.0025 109.69L87.3525 120.187L79.5335 116.543L78.9525 105.693Z" fill="#FF1800"/>
<path d="M78.9525 105.693L87.0025 109.69L95.4025 105.836L87.23 102.683L78.9525 105.693Z" fill="#FF7178"/>
<path d="M55.2086 106.61L55.4886 115.031L61.6346 112.378L61.9461 103.519L55.2086 106.61Z" fill="#53A5D5"/>
<path d="M48.751 103.407L55.2085 106.61L55.4885 115.031L49.2165 112.108L48.751 103.407Z" fill="#348FB6"/>
<path d="M48.751 103.408L55.2085 106.61L61.946 103.519L55.3905 100.992L48.751 103.408Z" fill="#AAE3F1"/>
<path d="M56.1115 107.275C55.261 107.849 55.6005 109.049 56.206 109.652C56.8115 110.254 57.991 110.275 58.8415 109.697C59.692 109.123 60.357 108.062 59.6255 107.338C59.02 106.736 56.962 106.697 56.1115 107.275Z" fill="black"/>
<path d="M58.7016 106.554C58.0226 106.302 56.4056 105.854 56.4301 106.449C56.4441 106.796 58.6001 108.031 59.6501 107.93C60.3151 107.867 59.3806 106.806 58.7016 106.554Z" fill="black"/>
<path d="M69.2086 101.584C69.3661 103.257 69.0056 104.986 67.9941 106.351C66.9056 107.814 65.1766 108.511 63.3846 108.49C61.9006 108.472 60.4341 108.031 59.0866 107.433C58.7681 107.293 58.4006 107.342 58.2081 107.664C58.0436 107.937 58.1206 108.402 58.4391 108.542C60.8436 109.61 63.6821 110.299 66.2196 109.267C68.1481 108.483 69.5306 106.845 70.1536 104.878C70.4896 103.821 70.5981 102.687 70.4931 101.584C70.4161 100.769 69.1316 100.758 69.2086 101.584Z" fill="black"/>
<path d="M49.1605 107.593C49.15 107.411 49.1394 107.229 49.1639 107.047C49.1569 107.11 49.1465 107.177 49.1395 107.24C49.15 107.173 49.171 107.11 49.1885 107.044C49.213 106.953 49.1009 107.191 49.1709 107.093C49.1884 107.068 49.255 106.974 49.178 107.072C49.108 107.166 49.1675 107.096 49.185 107.075C49.2375 107.012 49.038 107.163 49.1395 107.107C49.1605 107.096 49.1849 107.086 49.2024 107.072C49.0729 107.156 49.08 107.121 49.1675 107.103C49.1045 107.11 49.038 107.121 48.975 107.128C49.0135 107.124 49.0449 107.124 49.0834 107.124C49.0204 107.117 48.9539 107.107 48.8909 107.1C48.9294 107.107 48.9679 107.121 49.0064 107.128C48.9014 107.079 48.8735 107.068 48.9225 107.096C48.968 107.124 48.947 107.107 48.856 107.04C48.87 107.065 48.9085 107.093 48.926 107.11C48.982 107.163 48.842 106.967 48.898 107.079C48.919 107.117 48.9399 107.152 48.9574 107.191C49.0274 107.324 48.9049 107.033 48.9504 107.177C48.9749 107.254 49.0029 107.331 49.0274 107.408C49.1394 107.751 49.276 108.097 49.3355 108.454C49.3285 108.391 49.318 108.325 49.311 108.262C49.325 108.374 49.3284 108.486 49.3179 108.601C49.3249 108.538 49.3355 108.472 49.3425 108.409C49.3425 108.416 49.3284 108.524 49.3179 108.524C49.3319 108.489 49.346 108.458 49.36 108.423C49.388 108.37 49.4264 108.332 49.4754 108.3C49.5279 108.265 49.5385 108.255 49.507 108.272C49.458 108.3 49.4894 108.286 49.6014 108.234C49.5734 108.23 49.528 108.251 49.4965 108.255C49.5595 108.248 49.6259 108.237 49.6889 108.23C49.6154 108.237 49.5419 108.234 49.4649 108.227C49.5279 108.234 49.5944 108.244 49.6574 108.251C49.6154 108.244 49.5385 108.209 49.5 108.213C49.6015 108.262 49.6294 108.269 49.5804 108.244C49.5314 108.216 49.556 108.234 49.647 108.3C49.626 108.283 49.6084 108.265 49.5909 108.244C49.6574 108.335 49.675 108.36 49.6435 108.314C49.619 108.276 49.5945 108.237 49.5735 108.195C49.472 108.006 49.3914 107.803 49.3004 107.607C49.2304 107.453 49.0274 107.32 48.8699 107.275C48.6984 107.226 48.4675 107.25 48.3135 107.348C47.96 107.576 47.8864 107.968 48.0544 108.335C48.1559 108.559 48.2469 108.797 48.3764 109.007C48.5689 109.319 48.8629 109.56 49.2304 109.634C49.5699 109.7 49.941 109.693 50.2455 109.508C50.6235 109.28 50.7705 108.85 50.76 108.43C50.753 108.111 50.6689 107.803 50.5709 107.502C50.4939 107.264 50.4205 107.026 50.3365 106.792C50.214 106.452 50.053 106.162 49.7625 105.941C49.458 105.707 49.0415 105.609 48.6705 105.738C48.254 105.885 47.9705 106.197 47.8095 106.599C47.6835 106.911 47.687 107.261 47.7115 107.59C47.736 107.964 48.0264 108.328 48.4324 108.311C48.8104 108.297 49.1885 107.996 49.1605 107.593Z" fill="black"/>
</svg>
