<svg width="176" height="175" viewBox="0 0 176 175" fill="none" xmlns="http://www.w3.org/2000/svg">
<path d="M110.481 80.9804C109.81 82.6253 109.084 84.2554 108.258 85.8299C107.895 86.5189 107.513 87.2006 107.095 87.86C106.906 88.1601 106.709 88.4528 106.506 88.7417C106.417 88.864 106.328 88.9863 106.239 89.1048C106.128 89.253 106.383 88.927 106.191 89.1678C106.132 89.2419 106.072 89.316 106.013 89.3864C105.824 89.6123 105.624 89.8346 105.417 90.0458C105.32 90.1421 105.22 90.2384 105.116 90.3311C105.076 90.3681 105.039 90.4015 104.998 90.4348C104.976 90.4533 104.739 90.6385 104.861 90.5459C104.961 90.4718 104.716 90.646 104.664 90.6793C104.568 90.7423 104.468 90.8016 104.364 90.8571C104.283 90.9016 103.964 91.009 104.25 90.9201C104.131 90.9572 104.012 90.9979 103.894 91.0312C103.857 91.0424 103.812 91.0424 103.775 91.0572C103.583 91.1239 103.972 91.0461 103.838 91.0498C103.742 91.0498 103.638 91.0498 103.542 91.0535C103.327 91.0683 103.738 91.1202 103.49 91.0498C103.372 91.0164 103.257 90.9831 103.138 90.946C103.423 91.0387 103.116 90.9275 103.034 90.8794C102.934 90.8201 102.838 90.7534 102.745 90.6867C102.946 90.8275 102.701 90.6423 102.638 90.5793C102.527 90.4755 102.423 90.3681 102.323 90.257C102.142 90.0495 102.008 89.868 101.782 89.4975C101.549 89.1159 101.341 88.7195 101.152 88.3157C100.671 87.2895 100.319 86.2077 99.9966 85.1223C99.6224 83.8664 97.6515 84.3998 98.0294 85.6668C98.5999 87.5822 99.2742 89.6124 100.497 91.2202C101.271 92.239 102.345 93.1244 103.694 93.0985C104.946 93.0762 106.039 92.3242 106.891 91.461C107.995 90.3422 108.858 88.9751 109.621 87.6081C110.711 85.652 111.611 83.5959 112.455 81.525C112.663 81.0137 112.229 80.4025 111.744 80.2691C111.151 80.1061 110.688 80.4655 110.481 80.9804Z" fill="#231300"/>
<path d="M93.0652 82.0765C91.1091 82.4544 90.9424 84.2882 91.6722 85.4181C92.3983 86.5518 94.5767 87.163 96.5328 86.7852C98.4888 86.4073 100.426 85.2662 99.5484 83.8992C98.8222 82.7656 95.0249 81.6986 93.0652 82.0765Z" fill="black"/>
<path d="M98.3518 82.3582C97.2552 81.6766 94.5508 80.254 94.2026 81.0875C93.9988 81.5766 97.1848 84.3551 99.2002 84.733C100.475 84.9738 99.4484 83.0399 98.3518 82.3582Z" fill="black"/>
<path d="M57.752 80.88C58.5596 82.8657 59.4191 84.8329 60.4268 86.7222C61.2418 88.2486 62.1532 89.7564 63.3127 91.0493C64.1241 91.9533 65.1725 92.8387 66.4098 93.035C67.7435 93.2499 68.9439 92.6275 69.8145 91.6384C71.363 89.8787 72.1521 87.4928 72.8078 85.2848C73.1487 84.1401 71.363 83.6511 71.0222 84.7921C70.4776 86.6185 69.8478 88.4894 68.7253 90.0528C68.7068 90.0824 68.5808 90.238 68.6734 90.1231C68.6178 90.1935 68.5623 90.2602 68.503 90.3269C68.4104 90.4306 68.3178 90.5307 68.2177 90.627C68.1251 90.7159 68.0288 90.8011 67.9325 90.8826C68.1029 90.7455 67.7732 90.9863 67.7139 91.0197C67.6398 91.0641 67.362 91.1864 67.5842 91.0975C67.4805 91.1382 67.3731 91.1753 67.2619 91.2012C67.2138 91.2123 67.1619 91.216 67.1137 91.2346C66.9322 91.2938 67.3101 91.2531 67.1249 91.2309C67.0174 91.2197 66.8766 91.2197 66.7692 91.2272C66.621 91.2383 66.8062 91.2309 66.8359 91.2383C66.7766 91.2234 66.7173 91.2197 66.6581 91.2012C66.558 91.1753 66.458 91.1456 66.3617 91.1123C66.1172 91.0345 66.458 91.179 66.2246 91.053C66.1024 90.9863 65.9838 90.9234 65.8653 90.8493C65.7504 90.7789 65.643 90.7011 65.5355 90.6233C65.417 90.5344 65.7022 90.7641 65.5133 90.6048C65.454 90.5529 65.3911 90.5047 65.3355 90.4529C65.1021 90.2491 64.8872 90.0305 64.676 89.8008C64.1833 89.26 63.8944 88.8673 63.4831 88.2486C63.0312 87.5706 62.6162 86.8704 62.2235 86.1554C61.201 84.292 60.3341 82.347 59.5302 80.3798C59.3413 79.9167 58.9153 79.5907 58.3892 79.7315C57.9594 79.8612 57.5593 80.4132 57.752 80.88Z" fill="black"/>
<path d="M77.861 82.0171C79.7763 82.3875 79.9393 84.1806 79.2243 85.2883C78.513 86.396 76.3828 86.9962 74.4638 86.6257C72.5447 86.2552 70.6516 85.1364 71.5111 83.799C72.2261 82.6913 75.9456 81.6466 77.861 82.0171Z" fill="black"/>
<path d="M72.6893 82.2915C73.7636 81.6246 76.4088 80.2316 76.7496 81.0504C76.9497 81.5283 73.8303 84.2475 71.8594 84.618C70.6109 84.8551 71.6149 82.962 72.6893 82.2915Z" fill="black"/>
<path d="M35.1159 59.4632C18.7152 59.4632 5.42279 72.7593 5.42279 89.1563C5.42279 97.3289 8.72367 104.727 14.0658 110.099C12.9359 114.667 10.9798 119.29 7.69747 119.29C9.96845 122.343 20.3416 118.268 24.9762 117.075C28.14 118.223 31.5557 118.853 35.1159 118.853C51.5166 118.853 64.809 105.557 64.809 89.16C64.809 72.7593 51.5166 59.4632 35.1159 59.4632Z" fill="#117DC1"/>
<path d="M5.45278 87.8741C5.43425 88.3001 5.41943 88.7299 5.41943 89.1596C5.41943 97.3322 8.72032 104.73 14.0625 110.102C12.9326 114.67 10.9765 119.294 7.69412 119.294C9.96509 122.346 20.3382 118.271 24.9728 117.078C28.1366 118.227 31.5523 118.856 35.1126 118.856C45.6339 118.856 54.8697 113.377 60.1452 105.123C54.4511 108.346 47.9308 110.176 41.003 110.176C25.6174 110.173 12.2435 101.144 5.45278 87.8741Z" fill="#1E70AC"/>
<path d="M26.4991 114.07C26.5695 114.1 26.6362 114.126 26.7066 114.155C26.8918 114.229 26.5621 114.092 26.7474 114.174C26.9252 114.251 27.1067 114.329 27.2845 114.407C27.6513 114.57 28.0181 114.737 28.3811 114.907C29.211 115.292 30.0334 115.696 30.8522 116.104C32.8305 117.089 34.7828 118.119 36.7278 119.171C40.551 121.242 44.3484 123.384 48.0271 125.706C48.6421 126.095 49.3015 126.592 50.0758 126.403C51.002 126.177 51.2724 125.243 51.6096 124.476C52.332 122.832 53.0544 121.183 53.7768 119.538C54.0028 119.027 53.9287 118.423 53.4063 118.119C52.9655 117.864 52.2134 117.975 51.9874 118.49C51.3762 119.886 50.7649 121.279 50.1499 122.676C50.0017 123.009 49.8572 123.346 49.709 123.68C49.635 123.847 49.5646 124.013 49.4905 124.184C49.4645 124.239 49.3015 124.513 49.3052 124.58C49.4682 124.51 49.6313 124.443 49.7943 124.373C49.7424 124.332 49.6905 124.299 49.6312 124.269C49.546 124.217 49.4645 124.162 49.3793 124.11C49.1756 123.98 48.9718 123.85 48.7681 123.724C47.0676 122.661 45.3412 121.639 43.6037 120.638C39.8472 118.475 36.0387 116.389 32.1636 114.444C30.4854 113.603 28.7924 112.781 27.0511 112.069C26.5325 111.858 25.9101 112.299 25.7767 112.796C25.6137 113.388 25.9805 113.859 26.4991 114.07Z" fill="#231300"/>
<path d="M50.0647 113.185C53.8398 114.029 57.4926 115.348 61.0269 116.904C62.8163 117.693 64.5834 118.534 66.3394 119.397C67.1915 119.816 68.0399 120.242 68.8845 120.668C69.3513 120.905 69.8292 121.176 70.3701 121.187C70.9407 121.198 71.463 120.857 71.7409 120.372C72.015 119.897 72.1299 119.301 72.2966 118.782C72.4744 118.23 72.6485 117.678 72.8263 117.126C73.1894 115.993 73.5488 114.863 73.9118 113.729C74.3193 112.455 72.3151 111.91 71.9113 113.177C71.5593 114.281 71.2074 115.385 70.8554 116.485C70.6887 117.008 70.522 117.53 70.3553 118.053C70.2627 118.341 70.1701 118.634 70.0775 118.923C70.0404 119.038 69.9923 119.153 69.9663 119.271C69.907 119.546 70.1219 119.171 69.9145 119.338C70.0663 119.249 70.2182 119.16 70.3738 119.071C70.2775 119.112 69.7218 118.76 69.5551 118.679C69.1439 118.471 68.7327 118.267 68.3214 118.064C67.499 117.652 66.6728 117.249 65.843 116.848C64.2352 116.074 62.6162 115.33 60.975 114.633C57.6223 113.207 54.1843 111.981 50.6241 111.184C50.0795 111.062 49.5016 111.351 49.3497 111.91C49.1978 112.429 49.5164 113.062 50.0647 113.185Z" fill="#231300"/>
<path d="M6.87915 97.1178C6.73096 99.7963 7.17923 102.519 7.82014 105.116C8.51662 107.947 9.50578 110.714 10.7617 113.344C11.3729 114.626 12.062 115.875 12.8659 117.045C13.1957 117.523 13.8106 117.738 14.3367 117.431C14.8109 117.153 15.0517 116.441 14.722 115.96C13.2846 113.867 12.1917 111.54 11.3137 109.162C10.3542 106.568 9.60951 103.868 9.22052 101.126C9.04269 99.8815 8.95748 98.4441 9.02787 97.1178C9.06121 96.5361 8.50921 96.0434 7.95351 96.0434C7.34594 96.0434 6.91249 96.5361 6.87915 97.1178Z" fill="#231300"/>
<path d="M16.1816 120.441C15.9779 122.286 14.1144 123.216 12.8844 123.079C11.6545 122.942 10.8246 121.338 11.0284 119.493C11.2321 117.648 12.225 115.495 13.7069 115.658C14.9368 115.795 16.3854 118.596 16.1816 120.441Z" fill="black"/>
<path d="M15.3999 116.026C16.2038 116.675 17.9117 118.383 17.0856 119.042C16.6039 119.427 13.4587 117.886 12.8807 116.323C12.5177 115.33 14.596 115.378 15.3999 116.026Z" fill="black"/>
<path d="M51.3724 73.8968C52.5394 73.6449 53.6656 73.5226 54.7103 73.5115C55.0252 72.7224 55.1215 71.8259 54.9252 70.9182C54.4214 68.588 52.2171 67.0876 50.0016 67.5655C47.7862 68.0434 46.4007 70.3218 46.9045 72.652C47.1009 73.5597 47.5602 74.334 48.1715 74.923C49.1273 74.5044 50.2054 74.1487 51.3724 73.8968Z" fill="black"/>
<path d="M48.9912 73.7673C49.1284 73.5786 48.9781 73.2355 48.6555 73.0007C48.3328 72.766 47.96 72.7287 47.8228 72.9173C47.6856 73.1059 47.8359 73.4491 48.1586 73.6838C48.4812 73.9185 48.854 73.9559 48.9912 73.7673Z" fill="white"/>
<path d="M52.4851 71.0947C53.015 70.98 53.3426 70.4153 53.2166 69.8334C53.0907 69.2514 52.559 68.8726 52.0291 68.9873C51.4991 69.102 51.1716 69.6667 51.2975 70.2486C51.4235 70.8306 51.9551 71.2094 52.4851 71.0947Z" fill="white"/>
<path d="M30.4077 78.431C31.5746 78.1791 32.7009 78.0569 33.7456 78.0457C34.0605 77.2566 34.1568 76.3601 33.9605 75.4525C33.4566 73.1222 31.2523 71.6218 29.0369 72.0997C26.8215 72.5776 25.436 74.856 25.9398 77.1863C26.1361 78.0939 26.5955 78.8682 27.2068 79.4572C28.1626 79.0386 29.2407 78.683 30.4077 78.431Z" fill="black"/>
<path d="M28.0263 78.3051C28.1635 78.1165 28.0132 77.7733 27.6906 77.5386C27.3679 77.3039 26.9951 77.2665 26.8579 77.4552C26.7207 77.6438 26.871 77.987 27.1937 78.2217C27.5163 78.4564 27.8891 78.4938 28.0263 78.3051Z" fill="white"/>
<path d="M31.5189 75.6279C32.0489 75.5132 32.3764 74.9485 32.2505 74.3666C32.1245 73.7846 31.5928 73.4058 31.0629 73.5205C30.5329 73.6352 30.2054 74.1999 30.3313 74.7819C30.4573 75.3638 30.989 75.7426 31.5189 75.6279Z" fill="white"/>
<path d="M45.9413 77.5308C46.4304 79.0423 46.2044 80.4316 45.2226 81.6875C44.4483 82.6766 43.3962 83.1879 42.1737 83.2694C40.2472 83.399 38.8357 82.5099 37.9688 80.8317C37.6428 80.2019 37.5391 79.4536 37.3724 78.7497C37.302 78.4459 37.6465 78.1421 38.0059 78.1458C39.6508 78.1717 41.2216 77.7642 42.7664 77.2863C43.4481 77.0751 44.0853 76.7084 44.7188 76.3675C45.2115 76.1045 45.582 76.2268 45.7339 76.7788C45.808 77.027 45.8747 77.2789 45.9413 77.5308Z" fill="black"/>
<path d="M166.451 103.323C165.814 101.926 165.236 100.818 164.74 99.9551C164.669 99.7884 164.603 99.6216 164.532 99.4549C165.959 96.8616 166.774 93.8905 166.774 90.7378V72.5218C166.774 62.5228 158.594 54.3429 148.595 54.3429H124.892C116.142 54.3429 108.984 61.5003 108.984 70.2508V86.1958C108.984 98.6955 119.209 108.92 131.709 108.92H148.595C151.047 108.92 153.385 108.42 155.523 107.531C155.804 107.579 156.023 107.62 156.119 107.646C164.588 109.873 167.018 115.263 167.018 115.263C167.018 115.263 169.912 110.936 166.451 103.323Z" fill="#EC2327"/>
<path d="M164.74 99.9554C164.669 99.7887 164.603 99.622 164.532 99.4552C165.959 96.862 166.774 93.8908 166.774 90.7381V83.7251C160.646 94.9355 145.701 102.86 128.223 102.86C123.477 102.86 118.924 102.267 114.678 101.193C118.85 105.92 124.944 108.921 131.709 108.921H148.595C151.047 108.921 153.385 108.421 155.522 107.531C155.804 107.58 156.023 107.62 156.119 107.646C164.588 109.873 167.018 115.263 167.018 115.263C167.018 115.263 169.912 110.936 166.451 103.323C165.814 101.923 165.236 100.819 164.74 99.9554Z" fill="#C91720"/>
<path d="M123.436 104.938C119.683 106.883 116.238 109.354 112.985 112.04C111.355 113.385 109.777 114.785 108.221 116.212C107.454 116.919 106.691 117.631 105.932 118.346C105.572 118.683 105.213 119.024 104.853 119.364C104.805 119.413 104.653 119.52 104.616 119.59C104.527 119.75 104.309 119.664 104.816 119.683C104.564 119.672 105.235 119.646 105.198 119.757C105.217 119.702 104.953 119.383 104.928 119.338C103.512 117.149 102.101 114.956 100.686 112.766C100.323 112.203 99.5817 111.97 98.9852 112.322C98.4258 112.651 98.1739 113.455 98.5406 114.022C99.8892 116.112 101.238 118.201 102.586 120.291C102.897 120.772 103.183 121.306 103.635 121.672C104.257 122.176 105.087 122.224 105.78 121.821C106.276 121.532 106.684 121.061 107.095 120.672C107.495 120.294 107.891 119.92 108.295 119.542C111.492 116.545 114.756 113.6 118.316 111.04C120.35 109.577 122.473 108.243 124.696 107.087C125.292 106.78 125.466 105.946 125.14 105.387C124.781 104.783 124.033 104.631 123.436 104.938Z" fill="#231300"/>
<path d="M144.212 107.454C147.565 110.11 150.551 113.185 153.322 116.438C154.696 118.049 156.019 119.702 157.316 121.376C157.945 122.188 158.571 123.006 159.194 123.825C159.487 124.207 159.753 124.64 160.12 124.955C160.672 125.429 161.431 125.596 162.102 125.251C162.676 124.951 163.106 124.384 163.543 123.921C164.01 123.429 164.477 122.94 164.944 122.447C165.877 121.465 166.811 120.483 167.741 119.498C168.767 118.42 167.133 116.779 166.103 117.86C164.555 119.49 163.006 121.121 161.461 122.751C161.376 122.843 161.057 123.095 161.057 123.188C161.046 124.64 161.543 122.973 161.661 123.236C161.639 123.184 161.531 123.095 161.487 123.047C161.187 122.684 160.887 122.258 160.591 121.873C159.964 121.05 159.331 120.231 158.697 119.416C156.234 116.26 153.674 113.163 150.851 110.318C149.269 108.725 147.606 107.217 145.846 105.824C145.357 105.435 144.686 105.346 144.208 105.824C143.808 106.22 143.719 107.065 144.212 107.454Z" fill="#231300"/>
<path d="M139.248 72.7887C139.418 72.6886 139.774 72.7368 140.048 72.8628C140.322 72.9887 140.348 73.0961 140.552 73.2221C140.759 73.3481 141.033 73.663 141.571 73.5074C142.012 73.3814 146.691 71.7402 148.358 71.1549C148.758 71.0141 149.78 70.7363 150.195 70.8363C150.855 70.9956 151.188 71.5328 151.195 71.8884C151.67 75.4746 150.269 76.1599 147.932 77.0565C143.968 78.2531 142.475 75.6042 142.334 75.4116C142.193 75.2189 141.589 74.8855 141.011 74.741C140.433 74.6003 139.703 74.3076 139.4 73.9964C139.189 73.7741 138.811 73.0591 139.248 72.7887Z" fill="black"/>
<path d="M143.656 74.6151C143.616 74.5039 143.645 74.2816 143.782 74.1631C143.919 74.0445 150.199 70.8363 150.203 72.8331C150.203 73.0591 150.206 73.8259 150.04 74.2186C149.877 74.6113 149.665 74.9818 149.284 75.2967C148.902 75.6153 147.461 76.2007 146.387 76.36C144.66 76.6193 143.742 74.8522 143.656 74.6151Z" fill="white"/>
<path d="M127.559 73.0741C127.396 72.9703 127.041 73 126.767 73.1074C126.492 73.2148 126.463 73.3149 126.252 73.4223C126.044 73.5335 125.759 73.8187 125.237 73.6446C124.807 73.5038 120.272 71.7293 118.657 71.0995C118.268 70.9476 117.275 70.6364 116.864 70.7105C116.205 70.8327 115.856 71.3255 115.83 71.6626C115.208 75.0413 116.553 75.7563 118.82 76.7121C122.673 78.0273 124.255 75.5896 124.403 75.4117C124.548 75.2376 125.159 74.9449 125.733 74.8375C126.307 74.7301 127.041 74.4893 127.352 74.2077C127.574 74.0077 127.978 73.3482 127.559 73.0741Z" fill="black"/>
<path d="M123.14 74.6005C123.184 74.4968 123.166 74.2856 123.036 74.1633C122.906 74.0411 116.864 70.7105 116.771 72.6037C116.76 72.8185 116.723 73.5446 116.871 73.9262C117.016 74.3078 117.209 74.6672 117.572 74.9858C117.935 75.3044 119.328 75.9268 120.376 76.1268C122.065 76.4528 123.047 74.8191 123.14 74.6005Z" fill="white"/>
<path d="M145.357 75.6821C146.167 75.6821 146.824 75.0253 146.824 74.2151C146.824 73.4048 146.167 72.748 145.357 72.748C144.547 72.748 143.89 73.4048 143.89 74.2151C143.89 75.0253 144.547 75.6821 145.357 75.6821Z" fill="black"/>
<path d="M118.802 74.5373C119.612 74.5373 120.269 73.8805 120.269 73.0703C120.269 72.26 119.612 71.6032 118.802 71.6032C117.991 71.6032 117.334 72.26 117.334 73.0703C117.334 73.8805 117.991 74.5373 118.802 74.5373Z" fill="black"/>
<path d="M135.625 78.0978C135.565 78.1311 135.365 78.2052 135.576 78.1311C135.502 78.1571 135.428 78.1867 135.351 78.2089C135.154 78.2682 134.95 78.3164 134.75 78.3571C134.228 78.4608 133.82 78.5016 133.231 78.5386C132.05 78.6127 130.779 78.5942 129.682 78.3867C129.275 78.3089 128.852 78.5016 128.738 78.9239C128.634 79.2981 128.864 79.7908 129.275 79.8686C130.605 80.1205 131.976 80.1613 133.324 80.0687C134.317 80.002 135.517 79.9427 136.403 79.4241C137.255 78.9276 136.48 77.5976 135.625 78.0978Z" fill="#231300"/>
<path d="M162.335 78.5271C164.829 80.9611 167.34 83.5988 168.733 86.8293C168.648 86.6293 168.759 86.8886 168.767 86.9145C168.796 86.9923 168.826 87.0701 168.856 87.1479C168.904 87.2739 168.945 87.4036 168.985 87.5332C169.085 87.8518 169.148 88.1741 169.219 88.4964C169.271 88.7298 169.204 88.3371 169.219 88.4853C169.226 88.5446 169.23 88.6039 169.237 88.6594C169.248 88.7965 169.256 88.9336 169.252 89.0707C169.252 89.204 169.237 89.3337 169.23 89.4671C169.222 89.6856 169.263 89.2929 169.234 89.43C169.219 89.5041 169.208 89.5745 169.189 89.6486C169.159 89.7709 169.122 89.8894 169.085 90.0117C169.067 90.0746 168.971 90.2525 169.093 90.0117C169.063 90.0672 169.041 90.1265 169.011 90.1821C168.963 90.2747 168.911 90.3673 168.852 90.4525C168.819 90.5044 168.778 90.5562 168.741 90.6081C168.904 90.3784 168.73 90.6155 168.685 90.66C168.593 90.76 168.496 90.8526 168.396 90.9415C168.363 90.9712 168.326 91.0008 168.289 91.0304C168.104 91.186 168.463 90.9156 168.259 91.0527C167.978 91.2416 167.685 91.4083 167.374 91.5528C167.34 91.5676 167.203 91.6232 167.37 91.5565C167.259 91.601 167.148 91.6417 167.037 91.6825C166.825 91.7566 166.614 91.8195 166.399 91.8751C165.951 91.9937 165.492 92.0826 165.029 92.1493C163.962 92.2974 162.639 92.316 161.476 92.2863C160.22 92.253 160.22 94.2054 161.476 94.2387C164.617 94.3239 169.493 94.1943 170.897 90.7081C172.019 87.9148 170.012 84.6695 168.426 82.4948C167.022 80.5684 165.41 78.8087 163.706 77.1453C162.817 76.2673 161.431 77.6454 162.335 78.5271Z" fill="#231300"/>
<path d="M162.317 94.8538C162.184 94.8093 162.054 94.7612 161.924 94.7056C162.002 94.739 162.08 94.7723 162.158 94.8056C161.943 94.713 161.739 94.6056 161.554 94.4648C161.62 94.5167 161.687 94.5648 161.75 94.6167C161.632 94.5241 161.524 94.4203 161.432 94.2981C161.483 94.3648 161.532 94.4315 161.583 94.4944C161.517 94.4018 161.461 94.3092 161.417 94.2055C161.45 94.2833 161.483 94.3611 161.517 94.4389C161.469 94.3203 161.435 94.2018 161.42 94.0795C161.432 94.1647 161.443 94.2536 161.454 94.3388C161.443 94.2425 161.443 94.1499 161.454 94.0536C161.443 94.1388 161.432 94.2277 161.42 94.3129C161.432 94.2314 161.454 94.1573 161.483 94.0795C161.45 94.1573 161.417 94.2351 161.383 94.3129C161.417 94.2388 161.457 94.1721 161.506 94.1054C161.454 94.1721 161.406 94.2388 161.354 94.3018C161.402 94.2425 161.454 94.1907 161.517 94.1425C161.45 94.1944 161.383 94.2425 161.32 94.2944C161.402 94.2314 161.487 94.1832 161.583 94.1425C161.506 94.1758 161.428 94.2092 161.35 94.2425C161.498 94.1833 161.65 94.1462 161.809 94.124C161.724 94.1351 161.635 94.1462 161.55 94.1573C161.813 94.124 162.084 94.1203 162.347 94.1462C162.261 94.1351 162.172 94.124 162.087 94.1129C162.165 94.124 162.239 94.1388 162.313 94.1684C162.235 94.1351 162.158 94.1017 162.08 94.0684C162.135 94.0943 162.184 94.1203 162.232 94.1573C162.165 94.1054 162.098 94.0573 162.035 94.0054C162.08 94.0425 162.117 94.0832 162.15 94.1277C162.098 94.061 162.05 93.9943 161.998 93.9313C162.124 94.1017 162.206 94.3018 162.295 94.4944C162.402 94.7167 162.51 94.9427 162.61 95.1687C162.576 95.0909 162.543 95.0131 162.51 94.9353C162.532 94.9909 162.55 95.0464 162.561 95.1057C162.55 95.0205 162.539 94.9316 162.528 94.8464C162.532 94.876 162.532 94.902 162.528 94.9316C162.539 94.8464 162.55 94.7575 162.561 94.6723C162.558 94.6871 162.554 94.6982 162.55 94.713C162.584 94.6352 162.617 94.5574 162.65 94.4796C162.643 94.4907 162.636 94.5056 162.632 94.5167C162.684 94.45 162.732 94.3833 162.784 94.3203C162.769 94.3425 162.754 94.3574 162.732 94.3722C162.799 94.3203 162.865 94.2722 162.928 94.2203C162.91 94.2351 162.887 94.2462 162.865 94.2573C162.943 94.224 163.021 94.1907 163.099 94.1573C162.95 94.2166 162.784 94.2388 162.628 94.261C162.713 94.2499 162.802 94.2388 162.887 94.2277C162.624 94.2573 162.361 94.2573 162.095 94.2203C162.18 94.2314 162.269 94.2425 162.354 94.2536C162.213 94.2314 162.08 94.2055 161.946 94.1536C162.024 94.1869 162.102 94.2203 162.18 94.2536C162.128 94.2314 162.08 94.2018 162.032 94.1684C162.098 94.2203 162.165 94.2685 162.228 94.3203C162.195 94.2944 162.169 94.2685 162.139 94.2351C162.191 94.3018 162.239 94.3685 162.291 94.4315C162.269 94.3981 162.25 94.3685 162.235 94.3351C162.269 94.4129 162.302 94.4907 162.335 94.5685C162.324 94.5315 162.313 94.4981 162.31 94.4611C162.321 94.5463 162.332 94.6352 162.343 94.7204C162.339 94.6945 162.339 94.6723 162.343 94.6463C162.332 94.7315 162.321 94.8204 162.31 94.9057C162.313 94.8834 162.317 94.8575 162.324 94.8353C162.291 94.9131 162.258 94.9909 162.224 95.0687C162.232 95.0464 162.243 95.0242 162.258 95.0057C162.206 95.0724 162.158 95.1391 162.106 95.202C162.121 95.1798 162.139 95.1613 162.161 95.1465C162.095 95.1983 162.028 95.2465 161.965 95.2984C161.987 95.2798 162.013 95.265 162.043 95.2539C161.965 95.2872 161.887 95.3206 161.809 95.3539C161.88 95.328 161.946 95.3132 162.021 95.3021C161.935 95.3132 161.846 95.3243 161.761 95.3354C161.884 95.3206 162.006 95.3206 162.128 95.3317C162.043 95.3206 161.954 95.3095 161.869 95.2984C162.006 95.3169 162.135 95.3502 162.261 95.4021C162.184 95.3687 162.106 95.3354 162.028 95.3021C162.154 95.3576 162.272 95.4243 162.38 95.5058C162.313 95.454 162.247 95.4058 162.184 95.3539C162.28 95.4317 162.365 95.5169 162.443 95.6133C162.391 95.5466 162.343 95.4799 162.291 95.4169C162.343 95.4873 162.387 95.5577 162.424 95.6355C162.391 95.5577 162.358 95.4799 162.324 95.4021C162.343 95.4465 162.358 95.491 162.365 95.5392C162.354 95.454 162.343 95.365 162.332 95.2798C162.335 95.3095 162.339 95.3391 162.335 95.3725C162.347 95.2872 162.358 95.1983 162.369 95.1131C162.365 95.1428 162.358 95.1724 162.343 95.202C162.376 95.1242 162.41 95.0464 162.443 94.9686C162.432 94.9946 162.413 95.0168 162.395 95.039C162.447 94.9723 162.495 94.9057 162.547 94.8427C162.517 94.876 162.484 94.902 162.45 94.9279C162.517 94.876 162.584 94.8279 162.647 94.776C162.554 94.8427 162.454 94.8983 162.347 94.9427C162.424 94.9094 162.502 94.876 162.58 94.8427C162.458 94.8908 162.335 94.9205 162.206 94.939C162.291 94.9279 162.38 94.9168 162.465 94.9057C162.335 94.9205 162.21 94.9205 162.08 94.902C162.165 94.9131 162.254 94.9242 162.339 94.9353C162.21 94.9168 162.087 94.8834 161.969 94.8316C162.047 94.8649 162.124 94.8983 162.202 94.9316C162.176 94.9205 162.15 94.9094 162.124 94.8945C161.887 94.776 161.632 94.7241 161.372 94.7945C161.146 94.8575 160.902 95.0316 160.787 95.2428C160.554 95.6836 160.65 96.3357 161.139 96.5802C161.88 96.9507 162.728 96.9618 163.465 96.5617C163.999 96.2727 164.34 95.7651 164.258 95.1502C164.203 94.7278 163.951 94.324 163.632 94.0388C163.028 93.5016 162.247 93.2719 161.45 93.4238C160.846 93.5386 160.379 94.0536 160.379 94.6797C160.379 95.2057 160.705 95.717 161.183 95.9356C161.583 96.1171 162.013 96.1875 162.45 96.1949C162.636 96.1986 162.817 96.1801 163.002 96.1541C163.191 96.1282 163.388 96.106 163.569 96.0467C163.877 95.943 164.173 95.754 164.321 95.4577C164.477 95.1465 164.514 94.7834 164.399 94.4537C164.269 94.0869 164.073 93.7313 163.906 93.3793C163.732 93.0089 163.525 92.6754 163.169 92.4457C162.817 92.2198 162.387 92.179 161.98 92.1753C161.283 92.1716 160.565 92.3272 160.05 92.8199C159.364 93.4756 159.338 94.5463 159.794 95.3354C160.224 96.0763 161.009 96.4653 161.791 96.7321C162.276 96.8951 162.88 96.5431 162.991 96.0504C163.125 95.5132 162.836 95.0316 162.317 94.8538Z" fill="#231300"/>
<path d="M92.6606 45.0178C92.0992 44.9711 91.5065 45.0178 90.9139 45.1423L88.7929 45.298L89.1984 45.7805C88.1691 46.3254 87.327 47.1504 86.9995 48.1466C86.3289 46.1074 82.9447 44.8621 80.7301 45.0489L77.5643 45.2824L77.3771 46.2787C74.2269 48.6136 73.4783 53.6261 75.3965 57.2842C76.7221 59.8215 78.6403 62.0476 80.7301 64.0401C81.5411 64.8184 82.9603 66.0015 84.2391 67.0444L84.3483 68.71L87.4049 68.6322V68.5855C87.748 68.5232 88.0755 68.3831 88.3719 68.1496C89.8534 66.9666 92.1459 65.0986 93.2688 64.0245C95.3586 62.032 97.2768 59.806 98.6024 57.2686C101.082 52.5675 98.4933 45.5315 92.6606 45.0178Z" fill="#C91720"/>
<path d="M89.6911 45.3887C87.4762 45.2031 84.6957 46.456 84.036 48.4668C83.3762 46.456 79.9831 45.2186 77.7682 45.4197C71.9246 45.9301 69.961 52.8442 72.4272 57.4999C73.7625 60.0057 75.6789 62.2021 77.7682 64.1665C78.8992 65.2338 81.1927 67.0744 82.6693 68.2345C83.4704 68.8687 84.6015 68.8687 85.4026 68.2345C86.8792 67.0744 89.1727 65.2338 90.3037 64.1665C92.393 62.2021 94.3094 60.0057 95.6447 57.4999C98.1109 52.8287 95.5347 45.8837 89.6911 45.3887Z" fill="#EC2327"/>
</svg>
