<svg width="178" height="175" viewBox="0 0 178 175" fill="none" xmlns="http://www.w3.org/2000/svg">
<path d="M57.0067 84.307C58.2775 87.4059 59.6638 90.7343 61.9357 93.2211C62.6674 94.0245 63.6301 94.8279 64.7469 95.0192C65.9791 95.2105 67.1344 94.6749 67.943 93.7567C69.3293 92.1881 70.0225 90.0839 70.6001 88.1328C70.9852 86.8703 68.9828 86.2964 68.5977 87.5972C68.1356 89.1657 67.5965 90.7726 66.6338 92.1116C66.5182 92.2646 66.7108 91.9968 66.6338 92.1116C66.5952 92.1881 66.5182 92.2264 66.4797 92.3029C66.4027 92.3794 66.3257 92.4559 66.2487 92.5324C66.2102 92.5707 65.9406 92.8002 66.0561 92.7237C66.1331 92.6472 65.9021 92.8385 65.8251 92.8767C65.7481 92.915 65.4785 93.0298 65.7481 92.915C65.6711 92.9533 65.594 92.9533 65.517 92.9915C65.4785 92.9915 65.44 92.9915 65.4015 93.0298C65.209 93.1063 65.594 93.0298 65.4785 93.0298C65.363 93.0298 65.286 93.0298 65.1704 93.0298C65.0549 93.0298 65.44 93.1063 65.2475 93.0298C65.209 93.0298 65.1704 93.0298 65.1319 92.9915C65.0549 92.9533 64.9779 92.9533 64.9009 92.915C64.6698 92.8767 65.0549 92.9915 64.9394 92.915C64.9009 92.8767 64.8624 92.8767 64.8239 92.8385C64.7083 92.762 64.5928 92.7237 64.4773 92.6472C64.4003 92.6089 64.3233 92.5324 64.2462 92.4559C64.4388 92.6089 64.1692 92.3794 64.1307 92.3411C63.9382 92.1498 63.7456 91.9586 63.5531 91.7673C63.091 91.2699 62.937 91.0404 62.5519 90.4665C62.1668 89.8926 61.7817 89.2805 61.4736 88.6684C60.588 87.0616 59.8563 85.4165 59.1631 83.7331C58.9321 83.1975 58.47 82.8532 57.8924 83.0062C57.2377 83.1975 56.8141 83.8097 57.0067 84.307Z" fill="black"/>
<path d="M2.86417 102.709C3.51881 101.293 4.09643 100.184 4.59704 99.3036C4.67406 99.1506 4.75107 98.9593 4.78958 98.8062C3.32627 96.1665 2.51759 93.1823 2.51759 89.9687V71.452C2.51759 61.3136 10.8739 53.0117 21.0786 53.0117H45.2618C54.1957 53.0117 61.5123 60.2807 61.5123 69.1565V85.3395C61.5123 98.0028 51.0766 108.371 38.3303 108.371H21.0786C18.5756 108.371 16.188 107.873 13.9931 106.955C13.7235 106.993 13.4925 107.032 13.3769 107.07C4.75107 109.327 2.24804 114.798 2.24804 114.798C2.24804 114.798 -0.678595 110.437 2.86417 102.709Z" fill="#EC2327"/>
<path d="M4.59697 99.2653C4.67399 99.1122 4.751 98.921 4.78951 98.7679C3.3262 96.1281 2.51752 93.144 2.51752 89.9304V82.8145C8.75587 94.177 24.0437 102.211 41.873 102.211C46.7251 102.211 51.3461 101.599 55.6975 100.528C51.4231 105.31 45.2232 108.371 38.3302 108.371H21.0785C18.5755 108.371 16.188 107.873 13.993 106.955C13.7234 106.993 13.4924 107.032 13.3769 107.07C4.751 109.327 2.24796 114.798 2.24796 114.798C2.24796 114.798 -0.717175 110.398 2.82559 102.708C3.51874 101.293 4.09636 100.145 4.59697 99.2653Z" fill="#C91720"/>
<path d="M26.701 104.507C25.5073 110.781 24.1595 117.055 22.7347 123.291C22.3111 125.051 21.926 126.849 21.5024 128.609C21.3484 129.26 21.8105 129.795 22.4651 129.872C25.3533 130.101 28.2414 130.178 31.091 130.101C32.3618 130.063 32.3618 128.074 31.091 128.112C28.2029 128.188 25.3147 128.112 22.4651 127.882C22.7732 128.303 23.1198 128.724 23.4278 129.145C24.9297 122.909 26.316 116.673 27.5867 110.399C27.9333 108.6 28.3184 106.841 28.6265 105.042C28.742 104.507 28.4724 103.971 27.9333 103.818C27.4327 103.703 26.7781 103.971 26.701 104.507Z" fill="#231300"/>
<path d="M38.2525 107.147C39.9469 111.202 40.9866 115.487 41.7568 119.81C42.1419 121.952 42.4499 124.095 42.7965 126.237C42.8735 126.735 42.9505 127.194 43.3356 127.576C43.7592 127.997 44.2598 127.997 44.7989 127.921C45.184 127.882 45.4921 127.806 45.8387 127.691C47.456 127.079 48.9578 126.237 50.5367 125.549C51.0373 125.319 51.1528 124.63 50.8832 124.21C50.5752 123.712 50.0361 123.636 49.5355 123.865C48.1877 124.477 46.8784 125.128 45.5306 125.74C45.4536 125.778 45.338 125.816 45.261 125.855C45.5306 125.74 45.2225 125.855 45.184 125.893C45.0685 125.931 44.9145 125.969 44.7604 126.008C44.6449 126.046 45.03 126.008 44.8374 126.008C44.6449 126.008 44.1058 125.931 44.5679 126.161C44.9145 126.352 44.7989 126.237 44.7604 125.931C44.7219 125.663 44.6834 125.396 44.6449 125.128C44.0673 121.111 43.4126 117.055 42.3729 113.115C41.7953 110.896 41.1021 108.715 40.2164 106.611C40.0239 106.114 39.5618 105.769 38.9842 105.922C38.4836 106.037 38.06 106.649 38.2525 107.147Z" fill="#231300"/>
<path d="M75.1835 85.1476C76.9934 85.4919 77.1475 87.1753 76.4928 88.2465C75.7997 89.2794 73.7972 89.8533 71.9488 89.509C70.1389 89.1647 68.3291 88.0934 69.1377 86.8309C69.7924 85.798 73.3351 84.8033 75.1835 85.1476Z" fill="black"/>
<path d="M70.2543 85.4151C71.294 84.7648 73.797 83.464 74.1051 84.2291C74.2976 84.6882 71.3325 87.2515 69.4456 87.5958C68.2518 87.8254 69.2145 86.0655 70.2543 85.4151Z" fill="black"/>
<path d="M7.87025 79.6001C5.21317 82.1634 2.47909 85.0709 1.1313 88.5524C0.669196 89.7384 0.399638 91.1157 0.746213 92.3782C1.1313 93.6789 2.13251 94.6354 3.32627 95.171C5.40572 96.1274 7.79323 96.2039 10.0652 96.1274C11.2975 96.0892 11.2975 94.2145 10.0652 94.2528C8.21682 94.291 6.32992 94.2528 4.55853 93.6407C4.48152 93.6024 4.44301 93.6024 4.4045 93.5641C4.13494 93.4494 4.55853 93.6407 4.28898 93.5259C4.17345 93.4494 4.01942 93.4111 3.90389 93.3346C3.74986 93.2581 3.63434 93.1816 3.51881 93.1051C3.4803 93.0668 3.44179 93.0285 3.40329 93.0285C3.59583 93.1816 3.36478 92.9903 3.32627 92.952C3.24925 92.8755 3.17224 92.799 3.09522 92.7225C3.05671 92.6842 3.0182 92.6077 2.97969 92.5695C3.13373 92.7607 2.97969 92.6077 2.97969 92.5312C2.90268 92.4547 2.86417 92.3399 2.82566 92.2634C2.78715 92.2251 2.78715 92.1486 2.74864 92.1104C2.74864 92.0721 2.78715 92.2634 2.74864 92.0721C2.71014 91.9573 2.67163 91.8808 2.67163 91.766C2.67163 91.6895 2.59461 91.2687 2.63312 91.5747C2.59461 91.3069 2.59461 91.0774 2.63312 90.8096C2.63312 90.7331 2.63312 90.6566 2.67163 90.5801C2.63312 90.8479 2.67163 90.58 2.67163 90.5418C2.71014 90.427 2.71014 90.274 2.74864 90.1592C2.82566 89.8532 2.90268 89.5471 3.0182 89.241C3.05671 89.1645 3.21074 88.8202 3.13373 88.935C3.21074 88.7819 3.24925 88.6672 3.32627 88.5141C3.4803 88.1698 3.67284 87.8255 3.86538 87.4812C4.25047 86.7925 4.71257 86.1422 5.17467 85.53C6.40693 83.885 7.83174 82.3546 9.33356 80.9391C10.1037 80.0592 8.75594 78.7202 7.87025 79.6001Z" fill="#231300"/>
<path d="M9.75753 98.5385C10.4507 98.309 11.1053 98.0029 11.5289 97.4291C12.0295 96.7787 12.145 95.937 11.76 95.2101C11.6059 94.904 11.2979 94.6362 10.9898 94.445C10.6432 94.2537 10.2966 94.1772 9.91156 94.1389C9.6035 94.1006 9.25692 94.1389 8.94885 94.1772C8.48676 94.2537 8.10167 94.5597 7.83211 94.9423C7.67808 95.1719 7.56256 95.4779 7.44703 95.7457C7.37002 95.937 7.25449 96.1283 7.17747 96.3196C7.06195 96.6256 7.06195 97.0082 7.25449 97.3143C7.52405 97.7351 7.94764 97.8881 8.40974 97.9647C8.87184 98.0412 9.29543 98.0412 9.71902 97.9647C10.1811 97.8881 10.6047 97.6586 10.8743 97.276C11.1823 96.8169 11.1438 96.1283 10.7202 95.7075C10.4122 95.4014 9.87306 95.2484 9.44946 95.2866C9.06438 95.3249 8.71781 95.4014 8.37123 95.5927C8.02466 95.784 7.71659 96.09 7.52405 96.4344C7.33151 96.7404 7.25449 97.123 7.33151 97.4673C7.40852 97.8116 7.63957 98.0794 7.94764 98.2707C8.64079 98.7681 9.6035 98.7681 10.3737 98.3855C10.8358 98.156 10.9898 97.5056 10.7202 97.0847C10.4122 96.6256 9.91156 96.5109 9.41095 96.7404C9.37245 96.7404 9.37245 96.7787 9.33394 96.7787C9.41095 96.7404 9.48797 96.7022 9.56499 96.7022C9.44946 96.7404 9.33394 96.7787 9.21841 96.8169C9.29543 96.8169 9.37245 96.7787 9.48797 96.7787C9.37245 96.7787 9.25692 96.7787 9.10289 96.7787C9.17991 96.7787 9.25692 96.8169 9.37245 96.8169C9.25692 96.8169 9.1414 96.7787 9.02587 96.7404C9.10289 96.7787 9.17991 96.8169 9.25692 96.8169C9.1414 96.7787 9.06438 96.7022 8.94885 96.6639C9.02587 96.7022 9.06438 96.7787 9.1414 96.8169C9.10289 96.7787 9.06438 96.7787 9.06438 96.7404C9.10289 96.8169 9.1799 96.8552 9.21841 96.9317C9.21841 96.8934 9.17991 96.8935 9.17991 96.8552C9.21841 96.9317 9.25692 97.0082 9.25692 97.0847C9.25692 97.0465 9.21841 97.0465 9.21841 97.0082C9.21841 97.0847 9.25692 97.1613 9.25692 97.276C9.25692 97.2378 9.25692 97.1995 9.25692 97.1995C9.25692 97.276 9.21841 97.3525 9.21841 97.4673C9.21841 97.4291 9.25692 97.3908 9.25692 97.3525C9.21841 97.4291 9.17991 97.5056 9.17991 97.5821C9.21841 97.5056 9.25692 97.4291 9.29543 97.3525C9.25692 97.4291 9.1799 97.4673 9.1414 97.5438C9.21841 97.4673 9.29543 97.3525 9.41095 97.276C9.33394 97.3143 9.29543 97.3908 9.21841 97.4291C9.33394 97.3525 9.44946 97.276 9.56499 97.2378C9.48797 97.276 9.41095 97.3143 9.33394 97.3143C9.44946 97.276 9.6035 97.2378 9.71902 97.1995C9.642 97.1995 9.56499 97.2378 9.44946 97.2378C9.56499 97.2378 9.68051 97.2378 9.79604 97.2378C9.71902 97.2378 9.642 97.1995 9.52648 97.1995C9.6035 97.1995 9.68051 97.2378 9.71902 97.2378C9.642 97.1995 9.56499 97.1613 9.48797 97.1613C9.52648 97.1613 9.52648 97.1995 9.56499 97.1995C9.48797 97.1613 9.44946 97.0847 9.37245 97.0465C9.41096 97.0465 9.41095 97.0847 9.41095 97.0847C9.37245 97.0082 9.29543 96.97 9.25692 96.8935C9.25692 96.8935 9.29543 96.9317 9.29543 96.97C9.25692 96.8935 9.21841 96.8169 9.21841 96.7404C9.21841 96.7787 9.21841 96.7787 9.21841 96.8169C9.21841 96.7404 9.17991 96.6639 9.17991 96.5491C9.17991 96.5874 9.17991 96.5874 9.17991 96.6256C9.17991 96.5491 9.21841 96.4726 9.21841 96.3578C9.21841 96.3961 9.21841 96.4344 9.17991 96.4726C9.21841 96.3961 9.25692 96.3196 9.25692 96.2431C9.25692 96.2813 9.21841 96.3196 9.21841 96.3196C9.25692 96.2431 9.33394 96.2048 9.37245 96.1283C9.33394 96.1666 9.33394 96.1666 9.29543 96.2048C9.37245 96.1666 9.41095 96.09 9.48797 96.0518C9.44946 96.09 9.41095 96.1283 9.33394 96.1283C9.41095 96.09 9.48797 96.0518 9.56499 96.0518C9.44946 96.09 9.29543 96.1283 9.17991 96.1283C9.25692 96.1283 9.33394 96.09 9.44946 96.09C9.17991 96.1283 8.94886 96.1283 8.6793 96.09C8.75631 96.09 8.83333 96.1283 8.94885 96.1283C8.79482 96.09 8.64079 96.09 8.48676 96.0135C8.56377 96.0518 8.64079 96.09 8.71781 96.09C8.6793 96.09 8.6793 96.0518 8.64079 96.0518C8.71781 96.09 8.75631 96.1666 8.83333 96.2048C8.79482 96.2048 8.79482 96.1666 8.79482 96.1666C8.83333 96.2431 8.91035 96.2813 8.94885 96.3578V96.3196C8.98736 96.3961 9.02587 96.4726 9.02587 96.5491V96.5109C9.02587 96.5874 9.06438 96.6639 9.06438 96.7787C9.06438 96.7404 9.06438 96.7404 9.06438 96.7022C9.06438 96.7787 9.02587 96.8552 9.02587 96.97C9.02587 96.8935 9.06438 96.8552 9.06438 96.8169C9.02587 96.8934 8.98736 96.97 8.98736 97.0465C9.10289 96.8169 9.17991 96.6256 9.29543 96.3961C9.37245 96.2048 9.44946 96.0135 9.6035 95.8605C9.56499 95.937 9.48797 95.9753 9.44946 96.0518C9.48797 96.0135 9.52648 95.9753 9.56499 95.937C9.48797 95.9753 9.44946 96.0518 9.37245 96.09C9.41096 96.0518 9.44946 96.0135 9.52648 96.0135C9.44946 96.0518 9.37245 96.09 9.29543 96.09C9.37245 96.0518 9.44946 96.0518 9.52648 96.0518C9.44946 96.0518 9.37245 96.09 9.25692 96.09C9.52648 96.0518 9.79604 96.0518 10.0271 96.09C9.95007 96.09 9.87305 96.0518 9.75753 96.0518C9.91156 96.09 10.0656 96.1283 10.2196 96.1666C10.1426 96.1283 10.0656 96.09 9.98858 96.09C10.0656 96.1283 10.1811 96.1666 10.2581 96.2431C10.1811 96.2048 10.1426 96.1283 10.0656 96.09C10.1426 96.1283 10.1811 96.2048 10.2196 96.2431C10.1811 96.1666 10.1041 96.1283 10.0656 96.0518C10.1041 96.1283 10.1426 96.1666 10.1811 96.2431C10.1426 96.1666 10.1041 96.09 10.1041 96.0135C10.1426 96.09 10.1426 96.1666 10.1811 96.2431C10.1811 96.1666 10.1426 96.09 10.1426 95.9753C10.1426 96.0518 10.1426 96.1666 10.1426 96.2431C10.1426 96.1666 10.1811 96.09 10.1811 95.9753C10.1811 96.09 10.1426 96.2048 10.1041 96.3196C10.1426 96.2431 10.1811 96.1666 10.1811 96.09C10.1426 96.2048 10.0656 96.2813 10.0271 96.3578C10.0656 96.2813 10.1426 96.2431 10.1811 96.1666C10.1041 96.2813 9.98858 96.3961 9.87305 96.4726C9.95007 96.4344 9.98858 96.3578 10.0656 96.3196C9.87305 96.4726 9.68051 96.5491 9.48797 96.6639C9.56499 96.6256 9.642 96.5874 9.71902 96.5874C9.6035 96.6256 9.44946 96.7022 9.33394 96.7404C9.10289 96.8169 8.91035 96.97 8.75631 97.1613C8.64079 97.3525 8.60228 97.6586 8.6793 97.8881C8.71781 98.3472 9.21841 98.7298 9.75753 98.5385Z" fill="#231300"/>
<path d="M7.29278 97.2365C8.52504 97.2365 8.52504 95.3619 7.29278 95.3619C6.09902 95.3236 6.09902 97.2365 7.29278 97.2365Z" fill="#231300"/>
<path d="M30.2438 72.637C30.0898 72.5222 29.7432 72.5987 29.4736 72.7135C29.2041 72.8283 29.1656 72.943 28.973 73.0578C28.742 73.1726 28.4724 73.4787 27.9718 73.3256C27.5482 73.2109 22.9657 71.604 21.3099 71.0302C20.9248 70.8771 19.9236 70.6093 19.5 70.7241C18.8454 70.8771 18.5373 71.4127 18.4988 71.7571C18.0367 75.2385 19.423 75.9271 21.695 76.8071C25.5843 77.9548 27.0476 75.3915 27.2016 75.2003C27.3557 75.009 27.9333 74.7029 28.5109 74.5499C29.0886 74.3968 29.7817 74.129 30.0898 73.823C30.2823 73.5934 30.6674 72.9048 30.2438 72.637Z" fill="black"/>
<path d="M25.9309 74.397C25.9694 74.2823 25.9309 74.091 25.8154 73.9379C25.6613 73.8614 19.5 70.7243 19.5 72.6754C19.5 72.905 19.5 73.6319 19.654 74.0145C19.8081 74.397 20.0391 74.7414 20.3857 75.0474C20.7708 75.3535 22.1571 75.9273 23.2353 76.0804C24.9297 76.3482 25.8539 74.6266 25.9309 74.397Z" fill="white"/>
<path d="M41.7188 72.9052C41.8728 72.7904 42.2194 72.8287 42.4889 72.9435C42.7585 73.0582 42.797 73.1347 42.9896 73.2495C43.1821 73.3643 43.4902 73.6321 43.9908 73.4791C44.4144 73.326 48.8428 71.6044 50.4602 70.9923C50.8452 70.8393 51.8079 70.5332 52.2315 70.6097C52.8862 70.7245 53.2327 71.2219 53.2327 71.5279C53.8489 74.8181 52.5396 75.5067 50.3061 76.4632C46.5323 77.7639 44.992 75.3537 44.838 75.2007C44.6839 75.0476 44.1063 74.7416 43.5287 74.6268C42.951 74.512 42.2579 74.2825 41.9498 74.0147C41.6803 73.8234 41.2952 73.173 41.7188 72.9052Z" fill="black"/>
<path d="M46.0321 74.3967C45.9936 74.2819 45.9936 74.0906 46.1477 73.9759C46.3017 73.8611 52.1935 70.6092 52.309 72.4455C52.309 72.6368 52.3475 73.3637 52.1935 73.7463C52.0394 74.1289 51.8469 74.4732 51.5003 74.7793C51.1537 75.0853 49.7674 75.6975 48.7662 75.8887C47.1104 76.1948 46.1477 74.6262 46.0321 74.3967Z" fill="white"/>
<path d="M24.2363 75.4307C25.0232 75.4307 25.6611 74.7969 25.6611 74.0151C25.6611 73.2334 25.0232 72.5996 24.2363 72.5996C23.4494 72.5996 22.8115 73.2334 22.8115 74.0151C22.8115 74.7969 23.4494 75.4307 24.2363 75.4307Z" fill="black"/>
<path d="M50.3066 74.3203C51.0935 74.3203 51.7314 73.6866 51.7314 72.9048C51.7314 72.123 51.0935 71.4893 50.3066 71.4893C49.5197 71.4893 48.8818 72.123 48.8818 72.9048C48.8818 73.6866 49.5197 74.3203 50.3066 74.3203Z" fill="black"/>
<path d="M32.3617 79.1025C33.2474 79.5999 34.4026 79.6764 35.3653 79.7147C36.6746 79.7912 38.0224 79.7529 39.3317 79.5234C39.7168 79.4469 39.9478 78.9878 39.8708 78.6052C39.7553 78.1844 39.3317 77.9931 38.9466 78.0696C37.8684 78.2609 36.6361 78.2991 35.4808 78.2226C35.2113 78.2226 34.9032 78.1843 34.6337 78.1461C34.5951 78.1461 34.5181 78.1461 34.4796 78.1078C34.5951 78.1078 34.4026 78.1078 34.4026 78.1078C34.2871 78.0696 34.1716 78.0696 34.0175 78.0313C33.825 77.9931 33.6324 77.9548 33.4014 77.8783C33.3244 77.84 33.2474 77.84 33.1703 77.8018C33.3244 77.8783 33.2088 77.8018 33.1318 77.7635C32.2846 77.3044 31.5145 78.6052 32.3617 79.1025Z" fill="#231300"/>
<path d="M114.924 49.0715L72.1409 45.6283C71.1397 45.5901 70.3311 46.3552 70.3311 47.3117V125.549C70.3311 126.505 71.1397 127.27 72.1409 127.194L115.386 124.516C116.271 124.478 117.003 123.674 117.003 122.756V48.995C116.965 48.0768 115.809 49.1098 114.924 49.0715Z" fill="#1E70AC"/>
<path d="M74.2593 45.2842L71.5252 45.705L70.832 126.811L73.8742 128.571L80.3436 52.5149L74.2593 45.2842Z" fill="#1E70AC"/>
<path d="M109.301 96.0906C108.57 96.1289 107.992 95.5933 107.992 94.9046V94.7898C107.992 94.1012 108.57 93.5656 109.301 93.5273H109.34C110.072 93.5273 110.649 94.0247 110.649 94.7133V94.8281C110.611 95.5167 110.033 96.0524 109.301 96.0906Z" fill="#B19AF3"/>
<path d="M109.301 96.3198C108.454 96.358 107.723 95.6694 107.723 94.866C107.723 94.0626 108.416 93.3357 109.301 93.2974C110.149 93.2592 110.842 93.9478 110.842 94.7895C110.842 95.6311 110.149 96.3198 109.301 96.3198ZM109.301 93.7948C108.724 93.7948 108.223 94.2921 108.223 94.866C108.223 95.4399 108.685 95.8989 109.301 95.8607C109.879 95.8607 110.38 95.3633 110.38 94.7895C110.38 94.2156 109.879 93.7565 109.301 93.7948Z" fill="#D8DEE8"/>
<path d="M109.301 100.642C108.57 100.681 107.992 100.145 107.992 99.4564V99.3416C107.992 98.6529 108.57 98.1173 109.301 98.0791H109.34C110.072 98.0408 110.649 98.5764 110.649 99.2651V99.3798C110.611 100.03 110.033 100.604 109.301 100.642Z" fill="#B19AF3"/>
<path d="M109.301 100.872C108.454 100.91 107.723 100.259 107.723 99.4178C107.723 98.5762 108.416 97.8875 109.301 97.8493C110.149 97.811 110.842 98.4614 110.842 99.3031C110.842 100.145 110.149 100.833 109.301 100.872ZM109.301 98.3084C108.724 98.3084 108.223 98.8057 108.223 99.3796C108.223 99.9534 108.685 100.413 109.301 100.374C109.879 100.336 110.38 99.8769 110.38 99.3031C110.38 98.7292 109.879 98.3084 109.301 98.3084Z" fill="#D8DEE8"/>
<path d="M109.301 109.711C108.57 109.749 107.992 109.213 107.992 108.563V108.448C107.992 107.76 108.57 107.186 109.301 107.147H109.34C110.072 107.109 110.649 107.645 110.649 108.295V108.41C110.611 109.099 110.033 109.672 109.301 109.711Z" fill="#B19AF3"/>
<path d="M109.301 109.94C108.454 109.978 107.723 109.328 107.723 108.486C107.723 107.645 108.416 106.918 109.301 106.88C110.149 106.841 110.842 107.492 110.842 108.333C110.842 109.175 110.149 109.902 109.301 109.94ZM109.301 107.415C108.724 107.453 108.223 107.912 108.223 108.486C108.223 109.06 108.685 109.481 109.301 109.481C109.879 109.443 110.38 108.945 110.38 108.41C110.38 107.798 109.879 107.377 109.301 107.415Z" fill="#D8DEE8"/>
<path d="M116.541 46.9669L74.644 45.2836C73.6813 45.2453 72.9111 46.0105 72.9111 47.0052V127.002C72.9111 127.997 73.6813 128.762 74.644 128.685L116.541 125.969C117.388 125.931 118.081 125.089 118.081 124.171V48.7268C118.081 47.8086 117.388 47.0052 116.541 46.9669Z" fill="#D8DEE8"/>
<g opacity="0.3">
<path opacity="0.3" d="M99.4043 105.769C98.7111 96.6637 104.025 92.8762 101.984 84.6126C99.4813 74.3977 89.7772 73.9387 86.4655 63.9151C85.1947 60.0511 84.6941 54.2742 88.3139 45.8192L74.6049 45.2836C73.6422 45.2453 72.8721 46.0105 72.8721 47.0052V127.002C72.8721 127.997 73.6422 128.762 74.6049 128.685L111.996 126.237C102.523 118.624 99.8279 111.355 99.4043 105.769Z" fill="#D8DEE8"/>
</g>
<path d="M116.541 47.9625L74.6438 46.3174C74.2587 46.3174 73.9121 46.6234 73.9121 47.0443V126.926C73.9121 127.347 74.2202 127.653 74.6438 127.615L116.541 124.937C116.887 124.899 117.195 124.593 117.195 124.21V48.6894C117.157 48.3068 116.887 48.0007 116.541 47.9625Z" fill="#EBEFF2"/>
<path d="M96.1322 83.2739C88.2765 83.3505 81.7686 76.5406 81.7686 68.1621C81.7686 59.7454 88.2765 53.1268 96.1322 53.3564C103.834 53.5859 109.957 60.3575 109.957 68.4682C109.957 76.5788 103.834 83.1974 96.1322 83.2739Z" fill="#D8DEE8"/>
<path d="M109.032 68.4678C109.032 76.0429 103.294 82.2024 96.1315 82.2406C88.8149 82.2789 82.8076 75.9664 82.8076 68.1618C82.8076 60.3572 88.8534 54.1594 96.1315 54.389C103.333 54.5803 109.032 60.8928 109.032 68.4678Z" fill="white"/>
<path d="M111.842 88.6304L79.7648 89.1277C78.8791 89.1277 78.1475 89.8929 78.1475 90.8493C78.1475 91.7675 78.8791 92.5326 79.7648 92.4944L111.842 91.8823C112.651 91.8823 113.344 91.1171 113.344 90.2372C113.344 89.319 112.651 88.5921 111.842 88.6304Z" fill="#117DC1"/>
<path d="M111.843 94.9805L85.5802 95.5926C84.6946 95.6308 83.9629 96.396 83.9629 97.3142C83.9629 98.2324 84.6946 98.9593 85.5802 98.9593L111.843 98.2324C112.652 98.1941 113.345 97.4672 113.345 96.5873C113.345 95.6691 112.652 94.9805 111.843 94.9805Z" fill="#D8DEE8"/>
<path d="M79.8033 99.1123C78.8791 99.1505 78.1475 98.4236 78.1475 97.5437V97.3907C78.1475 96.5107 78.8791 95.7456 79.7648 95.7456H79.8033C80.689 95.7073 81.4207 96.4342 81.4207 97.3141V97.4672C81.3822 98.3471 80.689 99.074 79.8033 99.1123Z" fill="#117DC1"/>
<path d="M79.7653 99.4187C78.687 99.4569 77.8398 98.577 77.8398 97.4675C77.8398 96.358 78.7255 95.4399 79.7653 95.4016C80.8435 95.3633 81.6907 96.2433 81.6907 97.3527C81.6907 98.4622 80.8435 99.4187 79.7653 99.4187ZM79.7653 96.052C79.0336 96.052 78.456 96.7024 78.456 97.4675C78.456 98.2327 79.0336 98.8065 79.7653 98.8065C80.4969 98.7683 81.0745 98.1561 81.0745 97.391C81.0745 96.6258 80.4969 96.052 79.7653 96.052Z" fill="#117DC1"/>
<path d="M111.843 100.758L85.5802 101.6C84.6946 101.638 83.9629 102.403 83.9629 103.322C83.9629 104.24 84.6946 104.967 85.5802 104.928L111.843 104.01C112.652 103.972 113.345 103.245 113.345 102.327C113.345 101.409 112.652 100.72 111.843 100.758Z" fill="#D8DEE8"/>
<path d="M79.8033 105.118C78.8791 105.157 78.1475 104.468 78.1475 103.55V103.397C78.1475 102.517 78.8791 101.752 79.7648 101.713H79.8033C80.689 101.675 81.4207 102.402 81.4207 103.282V103.435C81.3822 104.353 80.689 105.08 79.8033 105.118Z" fill="#117DC1"/>
<path d="M79.7653 105.425C78.687 105.463 77.8398 104.583 77.8398 103.473C77.8398 102.364 78.7255 101.446 79.7653 101.407C80.8435 101.369 81.6907 102.249 81.6907 103.359C81.6907 104.468 80.8435 105.386 79.7653 105.425ZM79.7653 102.058C79.0336 102.096 78.456 102.708 78.456 103.473C78.456 104.239 79.0336 104.812 79.7653 104.812C80.4969 104.774 81.0745 104.162 81.0745 103.397C81.0745 102.632 80.4969 102.058 79.7653 102.058Z" fill="#117DC1"/>
<path d="M79.7653 111.431C78.687 111.469 77.8398 110.628 77.8398 109.518C77.8398 108.409 78.7255 107.491 79.7653 107.452C80.8435 107.414 81.6907 108.256 81.6907 109.365C81.6907 110.475 80.8435 111.393 79.7653 111.431ZM79.7653 108.065C79.0336 108.103 78.456 108.715 78.456 109.48C78.456 110.245 79.0336 110.819 79.7653 110.781C80.4969 110.743 81.0745 110.092 81.0745 109.365C81.0745 108.638 80.4969 108.026 79.7653 108.065Z" fill="#C1CEE2"/>
<path d="M97.9447 67.9718C99.7548 67.0358 100.458 64.8193 99.5164 63.0211C98.5743 61.2228 96.3433 60.5237 94.5332 61.4597C92.7232 62.3956 92.0195 64.6121 92.9616 66.4103C93.9037 68.2086 96.1347 68.9077 97.9447 67.9718Z" fill="#117DC1"/>
<path d="M90.8492 74.4616L102.276 74.4335C102.988 74.4335 103.399 73.647 103.016 73.0291C102.029 71.4842 100.002 69.209 96.4941 69.3214C93.0962 69.4337 91.0958 71.5123 90.1093 73.001C89.6709 73.619 90.1093 74.4616 90.8492 74.4616Z" fill="#117DC1"/>
<path d="M105.835 122.489C109.94 122.489 113.268 119.012 113.268 114.722C113.268 110.433 109.94 106.956 105.835 106.956C101.731 106.956 98.4033 110.433 98.4033 114.722C98.4033 119.012 101.731 122.489 105.835 122.489Z" fill="white"/>
<path d="M107.029 119.963L105.142 120.001C104.719 120.001 104.41 119.695 104.41 119.274L104.295 110.475C104.295 110.054 104.603 109.748 105.027 109.748L106.913 109.71C107.337 109.71 107.645 110.016 107.645 110.437L107.761 119.236C107.761 119.619 107.414 119.963 107.029 119.963Z" fill="#EC2327"/>
<path d="M111.149 113.803L111.188 115.678C111.188 116.099 110.88 116.405 110.456 116.405L101.599 116.519C101.176 116.519 100.868 116.213 100.868 115.792L100.829 113.918C100.829 113.497 101.137 113.191 101.561 113.191L110.418 113.076C110.803 113.076 111.149 113.42 111.149 113.803Z" fill="#EC2327"/>
<path d="M98.519 108.753C98.519 107.835 97.7489 107.07 96.7862 107.108L85.5802 107.529C84.6946 107.567 83.9629 108.332 83.9629 109.25C83.9629 110.168 84.6946 110.895 85.5802 110.857L96.9402 110.36C97.8259 110.36 98.519 109.633 98.519 108.753Z" fill="#D8DEE8"/>
<path d="M128.401 72.1798C127.746 73.7866 127.053 75.3552 126.245 76.8472C125.59 78.0715 124.858 79.334 124.011 80.367C123.818 80.5965 123.664 80.7878 123.472 80.9791C123.356 81.0939 123.279 81.1704 123.164 81.2851C123.125 81.3234 122.856 81.553 122.971 81.4764C122.779 81.6295 122.625 81.7442 122.394 81.8208C122.355 81.859 122.047 81.9738 122.24 81.8973C122.124 81.9355 122.047 81.9738 121.932 82.012C121.893 82.012 121.855 82.012 121.816 82.0503C121.624 82.0886 122.009 82.0503 121.778 82.0503C121.701 82.0503 121.624 82.0503 121.547 82.0503C121.315 82.0503 121.624 82.0886 121.392 82.0503C121.277 82.012 121.2 82.012 121.084 81.9738C121.277 82.0503 121.007 81.9355 120.969 81.8973C120.892 81.859 120.776 81.7825 120.699 81.706C120.815 81.7825 120.545 81.5912 120.507 81.553C120.391 81.4382 120.314 81.3617 120.199 81.2469C119.043 79.9461 118.389 77.9185 117.888 76.1969C117.58 75.1639 115.924 75.5847 116.232 76.656C116.771 78.4923 117.426 80.4435 118.62 81.9738C119.352 82.9302 120.353 83.7719 121.624 83.7719C122.817 83.7336 123.818 83.045 124.627 82.2416C125.705 81.1704 126.553 79.8314 127.284 78.5306C128.324 76.656 129.21 74.6666 130.018 72.6772C130.172 72.2563 129.826 71.759 129.441 71.6442C128.94 71.4529 128.555 71.759 128.401 72.1798Z" fill="black"/>
<path d="M111.572 73.6323C109.801 73.9766 109.685 75.5834 110.34 76.6164C110.995 77.6111 112.959 78.1849 114.691 77.8406C116.424 77.4963 118.196 76.5016 117.387 75.2773C116.732 74.2826 113.344 73.3262 111.572 73.6323Z" fill="black"/>
<path d="M116.347 73.9002C115.346 73.288 112.92 72.0255 112.612 72.7524C112.419 73.1733 115.307 75.66 117.079 76.0043C118.234 76.2339 117.31 74.5123 116.347 73.9002Z" fill="black"/>
<path d="M150.774 53.126C165.792 53.126 177.999 65.2154 177.999 80.1742C177.999 87.6345 174.957 94.3678 170.067 99.2266C171.106 103.397 172.878 107.605 175.92 107.605C173.84 110.398 164.329 106.687 160.093 105.577C157.205 106.61 154.047 107.184 150.812 107.184C135.794 107.184 123.587 95.0947 123.587 80.1359C123.548 65.2154 135.756 53.126 150.774 53.126Z" fill="#117DC1"/>
<path d="M177.961 78.9883C177.961 79.3709 177.999 79.7534 177.999 80.1743C177.999 87.6345 174.957 94.3679 170.066 99.2266C171.106 103.397 172.878 107.605 175.92 107.605C173.84 110.398 164.329 106.687 160.093 105.577C157.205 106.61 154.047 107.184 150.812 107.184C141.185 107.184 132.713 102.211 127.861 94.674C133.098 97.6198 139.067 99.2649 145.421 99.2649C159.477 99.3031 171.722 91.0777 177.961 78.9883Z" fill="#1E70AC"/>
<path d="M163.02 84.8795C163.174 85.4152 163.29 85.9508 163.405 86.4864C163.521 87.175 163.598 87.5958 163.675 88.208C163.829 89.7383 163.906 91.2303 163.945 92.7606C163.983 95.8978 163.752 98.9966 163.059 102.019C162.712 103.435 162.366 104.582 161.634 105.768C160.941 106.839 162.635 107.796 163.328 106.763C164.907 104.353 165.331 101.216 165.639 98.461C165.986 95.2091 166.024 91.919 165.716 88.6671C165.562 87.2133 165.369 85.7595 164.946 84.3822C164.561 83.1579 162.635 83.6553 163.02 84.8795Z" fill="#231300"/>
<path d="M160.708 109.902C160.901 111.586 162.403 112.389 163.327 112.236C164.29 112.083 164.867 110.591 164.675 108.907C164.482 107.224 163.635 105.311 162.48 105.503C161.517 105.617 160.477 108.219 160.708 109.902Z" fill="black"/>
<path d="M161.171 105.847C160.554 106.459 159.284 108.066 159.938 108.639C160.323 108.984 162.711 107.492 163.135 106.038C163.404 105.158 161.787 105.234 161.171 105.847Z" fill="black"/>
<path d="M150.003 104.124C150.003 107.605 150.388 111.087 150.774 114.53C151.197 118.585 151.736 122.641 152.429 126.658C152.506 127.117 152.583 127.538 152.66 127.997C152.66 128.112 152.699 128.188 152.699 128.303C152.699 128.265 152.699 128.303 152.699 128.418C153.084 128.188 153.161 128.035 152.968 128.035C152.93 127.997 152.583 128.035 152.583 128.035C152.314 128.035 152.083 128.035 151.813 128.073C150.157 128.112 148.502 128.15 146.846 128.188C145.575 128.226 145.575 130.177 146.846 130.139C148.386 130.101 149.888 130.063 151.428 130.024C152.121 130.024 152.968 130.101 153.662 129.871C154.393 129.642 154.74 128.877 154.663 128.15C154.547 127.232 154.355 126.313 154.201 125.395C154.047 124.401 153.893 123.406 153.739 122.411C153.123 118.165 152.622 113.88 152.275 109.595C152.121 107.758 152.006 105.922 151.967 104.086C151.967 102.823 150.003 102.823 150.003 104.124Z" fill="#231300"/>
<path d="M138.721 103.741C138.49 107.223 138.721 110.666 139.145 114.109C139.376 115.869 139.645 117.629 139.953 119.389C140.107 120.268 140.261 121.11 140.415 121.99C140.492 122.373 140.569 122.793 140.646 123.176C140.685 123.367 140.685 123.597 140.762 123.712C140.762 123.673 140.762 123.826 140.762 123.826C140.877 123.712 140.955 123.559 141.07 123.444C141.032 123.444 140.993 123.444 140.954 123.444C140.8 123.367 140.454 123.444 140.3 123.444C140.03 123.444 139.799 123.444 139.53 123.482C139.029 123.482 138.528 123.52 137.989 123.52C136.988 123.559 135.948 123.559 134.947 123.597C133.676 123.635 133.676 125.586 134.947 125.548C136.873 125.51 138.76 125.433 140.685 125.395C141.147 125.395 141.648 125.395 142.071 125.127C142.533 124.859 142.764 124.362 142.764 123.865C142.803 123.023 142.495 122.067 142.341 121.225C141.648 117.514 141.07 113.803 140.8 110.015C140.646 107.911 140.646 105.769 140.762 103.665C140.8 103.129 140.3 102.67 139.761 102.67C139.145 102.785 138.76 103.206 138.721 103.741Z" fill="#231300"/>
<path d="M134.948 67.2435C133.908 67.0139 132.945 66.8991 132.021 66.8991C131.751 66.2105 131.674 65.4454 131.829 64.6419C132.252 62.6143 134.216 61.3135 136.141 61.7343C138.067 62.1552 139.299 64.1446 138.875 66.1722C138.721 66.9757 138.298 67.626 137.759 68.1617C136.912 67.7791 135.949 67.473 134.948 67.2435Z" fill="black"/>
<path d="M137.771 67.0946C138.046 66.8957 138.168 66.596 138.042 66.4251C137.917 66.2542 137.593 66.2769 137.318 66.4758C137.042 66.6747 136.921 66.9745 137.046 67.1453C137.171 67.3162 137.496 67.2935 137.771 67.0946Z" fill="white"/>
<path d="M134.971 64.0433C135.083 63.527 134.804 63.0287 134.347 62.9304C133.889 62.8321 133.427 63.1709 133.315 63.6872C133.202 64.2035 133.482 64.7018 133.939 64.8001C134.397 64.8984 134.859 64.5596 134.971 64.0433Z" fill="white"/>
<path d="M153.316 71.222C152.276 70.9924 151.313 70.8777 150.389 70.8777C150.12 70.189 150.043 69.4239 150.197 68.6205C150.62 66.5928 152.584 65.292 154.51 65.7129C156.435 66.1337 157.667 68.1231 157.244 70.1508C157.09 70.9542 156.666 71.6046 156.127 72.1402C155.28 71.7193 154.356 71.4133 153.316 71.222Z" fill="black"/>
<path d="M156.165 71.0243C156.44 70.8254 156.562 70.5257 156.437 70.3548C156.312 70.1839 155.987 70.2066 155.712 70.4055C155.437 70.6044 155.315 70.9041 155.44 71.075C155.566 71.2459 155.89 71.2232 156.165 71.0243Z" fill="white"/>
<path d="M153.377 68.0169C153.49 67.5006 153.21 67.0024 152.753 66.9041C152.296 66.8057 151.834 67.1446 151.721 67.6609C151.609 68.1772 151.888 68.6754 152.346 68.7737C152.803 68.872 153.265 68.5332 153.377 68.0169Z" fill="white"/>
<path d="M139.028 70.0745C138.605 71.3753 138.797 72.5995 139.645 73.709C140.338 74.5889 141.262 75.0097 142.302 75.0862C143.996 75.201 145.228 74.4359 145.998 72.9438C146.268 72.4082 146.384 71.7578 146.538 71.1457C146.615 70.8779 146.307 70.6101 145.998 70.6101C144.574 70.6484 143.187 70.2658 141.84 69.8449C141.223 69.6537 140.684 69.3476 140.145 69.0415C139.722 68.812 139.375 68.9268 139.259 69.3858C139.144 69.6537 139.067 69.8832 139.028 70.0745Z" fill="black"/>
<path d="M70.7152 86.9851C70.7152 86.9085 70.7152 86.7938 70.7537 86.7172C70.7152 86.7938 70.7152 86.8703 70.7152 86.9851C70.7922 86.4112 70.9462 85.9138 71.1388 85.4165C71.1002 85.493 71.0617 85.5695 71.0617 85.646C71.1773 85.34 71.3698 85.0339 71.5238 84.7661C71.1773 84.9191 70.7922 85.0722 70.4456 85.1869C70.4841 85.1869 70.5611 85.2252 70.5996 85.2252C70.5226 85.1869 70.4456 85.1487 70.3686 85.1487C70.4456 85.1869 70.5226 85.2252 70.5611 85.2635C70.4841 85.2252 70.4456 85.1487 70.3686 85.1104C70.4456 85.1487 70.4841 85.2252 70.5611 85.3017C70.5226 85.2252 70.4456 85.1869 70.4071 85.1104C70.4456 85.1869 70.5226 85.2635 70.5226 85.34C70.4841 85.2635 70.4456 85.1869 70.4456 85.1104C70.4841 85.1869 70.4841 85.2635 70.5226 85.34C70.5226 85.2635 70.4841 85.1869 70.4841 85.0722C70.4841 85.1487 70.4841 85.2252 70.4841 85.3017C70.4841 85.2252 70.5226 85.1487 70.5226 85.0339C70.5226 85.1104 70.4841 85.1869 70.4456 85.2635C70.4841 85.1869 70.5226 85.1104 70.5226 85.0339C70.4841 85.1104 70.4456 85.1869 70.4071 85.2635C70.4456 85.1869 70.5226 85.1487 70.5611 85.0722C70.5226 85.1487 70.4456 85.1869 70.3686 85.2635C70.4456 85.2252 70.4841 85.1487 70.5611 85.1104C70.4841 85.1487 70.4456 85.1869 70.3686 85.2252C70.4456 85.1869 70.5226 85.1487 70.5996 85.1487C70.5611 85.1487 70.5226 85.1869 70.4456 85.1869C69.945 85.3017 69.6369 85.8756 69.791 86.3347C69.945 86.832 70.4456 87.1381 70.9462 86.9851C71.7549 86.7938 72.371 85.9904 72.371 85.1869C72.371 84.3453 71.7549 83.5801 70.9462 83.3888C70.5226 83.2741 70.099 83.4654 69.868 83.8097C69.2518 84.7661 68.9053 85.8756 68.8283 87.0233C68.7897 87.2529 68.9438 87.5207 69.0978 87.6737C69.2518 87.8267 69.5214 87.9797 69.7524 87.9415C69.9835 87.9415 70.2531 87.865 70.4071 87.6737C70.5996 87.4441 70.6766 87.2529 70.7152 86.9851Z" fill="black"/>
</svg>
