<svg width="150" height="150" viewBox="0 0 150 150" fill="none" xmlns="http://www.w3.org/2000/svg">
<path d="M49.1178 69.7988C50.1452 72.304 51.2659 74.9948 53.1027 77.0052C53.6942 77.6547 54.4725 78.3042 55.3753 78.4589C56.3715 78.6135 57.3055 78.1805 57.9592 77.4382C59.08 76.1701 59.6403 74.469 60.1073 72.8917C60.4186 71.871 58.7998 71.4071 58.4885 72.4587C58.1149 73.7268 57.679 75.0258 56.9007 76.1083C56.8074 76.232 56.963 76.0155 56.9007 76.1083C56.8696 76.1701 56.8074 76.2011 56.7762 76.2629C56.714 76.3248 56.6517 76.3866 56.5894 76.4485C56.5583 76.4794 56.3404 76.665 56.4338 76.6032C56.496 76.5413 56.3092 76.6959 56.247 76.7269C56.1847 76.7578 55.9668 76.8506 56.1847 76.7578C56.1225 76.7887 56.0602 76.7887 55.9979 76.8197C55.9668 76.8197 55.9357 76.8197 55.9045 76.8506C55.7489 76.9124 56.0602 76.8506 55.9668 76.8506C55.8734 76.8506 55.8111 76.8506 55.7178 76.8506C55.6244 76.8506 55.9357 76.9124 55.78 76.8506C55.7489 76.8506 55.7177 76.8506 55.6866 76.8197C55.6244 76.7887 55.5621 76.7887 55.4998 76.7578C55.313 76.7269 55.6244 76.8197 55.531 76.7578C55.4998 76.7269 55.4687 76.7269 55.4376 76.6959C55.3442 76.6341 55.2508 76.6032 55.1574 76.5413C55.0951 76.5104 55.0329 76.4485 54.9706 76.3866C55.1262 76.5104 54.9083 76.3248 54.8772 76.2939C54.7215 76.1392 54.5659 75.9846 54.4102 75.8299C54.0366 75.4278 53.9121 75.2423 53.6008 74.7783C53.2895 74.3144 52.9782 73.8195 52.7291 73.3247C52.0131 72.0257 51.4216 70.6957 50.8612 69.3348C50.6744 68.9018 50.3008 68.6235 49.8339 68.7472C49.3046 68.9018 48.9622 69.3967 49.1178 69.7988Z" fill="black"/>
<path d="M5.34694 84.6756C5.87618 83.5312 6.34315 82.6343 6.74786 81.9229C6.81012 81.7992 6.87239 81.6446 6.90352 81.5208C5.72052 79.3867 5.06675 76.9743 5.06675 74.3762V59.4066C5.06675 51.2104 11.8223 44.4988 20.0722 44.4988H39.6228C46.8454 44.4988 52.7604 50.3753 52.7604 57.5508V70.6338C52.7604 80.8713 44.3237 89.2531 34.0191 89.2531H20.0722C18.0486 89.2531 16.1185 88.851 14.344 88.1087C14.126 88.1396 13.9393 88.1706 13.8459 88.2015C6.87239 90.0263 4.84883 94.4492 4.84883 94.4492C4.84883 94.4492 2.48283 90.9233 5.34694 84.6756Z" fill="#EC2327"/>
<path d="M6.74812 81.892C6.81039 81.7683 6.87265 81.6136 6.90378 81.4899C5.72078 79.3558 5.06702 76.9434 5.06702 74.3453V68.5925C10.1103 77.7784 22.4696 84.2735 36.8835 84.2735C40.8061 84.2735 44.5419 83.7787 48.0598 82.9127C44.6042 86.7788 39.592 89.2531 34.0194 89.2531H20.0724C18.0489 89.2531 16.1187 88.851 14.3442 88.1087C14.1263 88.1397 13.9395 88.1706 13.8461 88.2015C6.87265 90.0263 4.8491 94.4492 4.8491 94.4492C4.8491 94.4492 2.45196 90.8924 5.31607 84.6756C5.87644 83.5312 6.34341 82.6034 6.74812 81.892Z" fill="#C91720"/>
<path d="M24.6179 86.1293C23.6529 91.2017 22.5633 96.274 21.4114 101.315C21.0689 102.738 20.7576 104.192 20.4152 105.615C20.2907 106.14 20.6642 106.573 21.1935 106.635C23.5283 106.821 25.8632 106.883 28.1669 106.821C29.1943 106.79 29.1943 105.182 28.1669 105.213C25.8321 105.274 23.4972 105.213 21.1935 105.027C21.4425 105.367 21.7227 105.707 21.9718 106.048C23.1859 101.006 24.3066 95.9647 25.334 90.8924C25.6142 89.4387 25.9255 88.016 26.1745 86.5623C26.2679 86.1293 26.05 85.6963 25.6142 85.5726C25.2094 85.4798 24.6802 85.6963 24.6179 86.1293Z" fill="#231300"/>
<path d="M33.9573 88.2634C35.3271 91.5419 36.1676 95.0059 36.7903 98.5009C37.1016 100.233 37.3506 101.965 37.6308 103.697C37.6931 104.099 37.7553 104.47 38.0667 104.78C38.4091 105.12 38.8138 105.12 39.2497 105.058C39.561 105.027 39.81 104.965 40.0902 104.872C41.3978 104.377 42.6119 103.697 43.8883 103.14C44.293 102.955 44.3864 102.398 44.1685 102.058C43.9194 101.656 43.4836 101.594 43.0789 101.779C41.9893 102.274 40.9308 102.8 39.8412 103.295C39.7789 103.326 39.6855 103.357 39.6232 103.388C39.8412 103.295 39.5921 103.388 39.561 103.419C39.4676 103.45 39.3431 103.48 39.2185 103.511C39.1251 103.542 39.4365 103.511 39.2808 103.511C39.1251 103.511 38.6893 103.45 39.0629 103.635C39.3431 103.79 39.2497 103.697 39.2185 103.45C39.1874 103.233 39.1563 103.017 39.1251 102.8C38.6582 99.5525 38.1289 96.274 37.2884 93.0883C36.8214 91.2944 36.261 89.5315 35.545 87.8304C35.3893 87.4283 35.0158 87.15 34.5488 87.2737C34.1441 87.3665 33.8016 87.8613 33.9573 88.2634Z" fill="#231300"/>
<path d="M63.8126 70.4791C65.2758 70.7575 65.4003 72.1184 64.8711 72.9844C64.3107 73.8195 62.6919 74.2834 61.1975 74.005C59.7344 73.7267 58.2712 72.8607 58.9249 71.84C59.4542 71.0049 62.3183 70.2008 63.8126 70.4791Z" fill="black"/>
<path d="M59.8276 70.6956C60.6681 70.1698 62.6917 69.1182 62.9407 69.7368C63.0964 70.108 60.6993 72.1802 59.1738 72.4586C58.2087 72.6441 58.987 71.2214 59.8276 70.6956Z" fill="black"/>
<path d="M9.39436 65.9945C7.24628 68.0667 5.03594 70.4173 3.94633 73.2318C3.57275 74.1906 3.35483 75.3041 3.63502 76.3248C3.94633 77.3763 4.75575 78.1496 5.72083 78.5826C7.40194 79.3558 9.3321 79.4177 11.1689 79.3558C12.1651 79.3249 12.1651 77.8093 11.1689 77.8403C9.67455 77.8712 8.1491 77.8403 6.71705 77.3454C6.65478 77.3145 6.62365 77.3145 6.59252 77.2835C6.3746 77.1908 6.71705 77.3454 6.49912 77.2526C6.40573 77.1908 6.2812 77.1598 6.18781 77.098C6.06328 77.0361 5.96989 76.9743 5.87649 76.9124C5.84536 76.8815 5.81423 76.8505 5.7831 76.8505C5.93876 76.9743 5.75197 76.8196 5.72083 76.7887C5.65857 76.7268 5.59631 76.665 5.53404 76.6031C5.50291 76.5722 5.47178 76.5103 5.44065 76.4794C5.56518 76.634 5.44065 76.5103 5.44065 76.4485C5.37839 76.3866 5.34726 76.2938 5.31612 76.232C5.28499 76.201 5.28499 76.1392 5.25386 76.1082C5.25386 76.0773 5.28499 76.232 5.25386 76.0773C5.22273 75.9845 5.1916 75.9227 5.1916 75.8299C5.1916 75.768 5.12933 75.4278 5.16047 75.6752C5.12933 75.4587 5.12933 75.2732 5.16047 75.0567C5.16047 74.9948 5.16047 74.9329 5.1916 74.8711C5.16047 75.0876 5.1916 74.8711 5.1916 74.8402C5.22273 74.7474 5.22273 74.6237 5.25386 74.5309C5.31612 74.2834 5.37839 74.036 5.47178 73.7886C5.50291 73.7267 5.62744 73.4484 5.56518 73.5411C5.62744 73.4174 5.65857 73.3246 5.72083 73.2009C5.84536 72.9226 6.00102 72.6442 6.15668 72.3658C6.46799 71.8091 6.84157 71.2833 7.21515 70.7885C8.21136 69.4585 9.36323 68.2213 10.5774 67.077C11.2 66.3656 10.1104 65.2831 9.39436 65.9945Z" fill="#231300"/>
<path d="M10.9196 81.3043C11.4799 81.1187 12.0092 80.8713 12.3516 80.4073C12.7563 79.8815 12.8497 79.2011 12.5384 78.6134C12.4139 78.366 12.1648 78.1495 11.9158 77.9949C11.6356 77.8402 11.3554 77.7784 11.0441 77.7474C10.795 77.7165 10.5149 77.7474 10.2658 77.7784C9.89223 77.8402 9.58092 78.0877 9.36299 78.3969C9.23847 78.5825 9.14507 78.83 9.05168 79.0465C8.98942 79.2011 8.89602 79.3557 8.83376 79.5104C8.74036 79.7578 8.74036 80.0671 8.89602 80.3145C9.11394 80.6548 9.45639 80.7785 9.82997 80.8403C10.2035 80.9022 10.546 80.9022 10.8884 80.8403C11.262 80.7785 11.6045 80.5929 11.8224 80.2836C12.0714 79.9125 12.0403 79.3557 11.6979 79.0155C11.4488 78.7681 11.013 78.6444 10.6705 78.6753C10.3592 78.7062 10.079 78.7681 9.79884 78.9227C9.51865 79.0774 9.2696 79.3248 9.11394 79.6032C8.95828 79.8506 8.89602 80.1599 8.95828 80.4383C9.02055 80.7166 9.20734 80.9331 9.45639 81.0878C10.0168 81.4899 10.795 81.4899 11.4177 81.1806C11.7913 80.995 11.9158 80.4692 11.6979 80.129C11.4488 79.7578 11.0441 79.665 10.6394 79.8506C10.6083 79.8506 10.6083 79.8815 10.5771 79.8815C10.6394 79.8506 10.7017 79.8197 10.7639 79.8197C10.6705 79.8506 10.5771 79.8815 10.4837 79.9125C10.546 79.9125 10.6083 79.8815 10.7017 79.8815C10.6083 79.8815 10.5149 79.8815 10.3903 79.8815C10.4526 79.8815 10.5149 79.9125 10.6083 79.9125C10.5149 79.9125 10.4215 79.8815 10.3281 79.8506C10.3903 79.8815 10.4526 79.9125 10.5149 79.9125C10.4215 79.8815 10.3592 79.8197 10.2658 79.7888C10.3281 79.8197 10.3592 79.8815 10.4215 79.9125C10.3903 79.8815 10.3592 79.8815 10.3592 79.8506C10.3903 79.9125 10.4526 79.9434 10.4837 80.0053C10.4837 79.9743 10.4526 79.9743 10.4526 79.9434C10.4837 80.0053 10.5149 80.0671 10.5149 80.129C10.5149 80.098 10.4837 80.098 10.4837 80.0671C10.4837 80.129 10.5149 80.1908 10.5149 80.2836C10.5149 80.2527 10.5149 80.2218 10.5149 80.2218C10.5149 80.2836 10.4837 80.3455 10.4837 80.4383C10.4837 80.4073 10.5149 80.3764 10.5149 80.3455C10.4837 80.4073 10.4526 80.4692 10.4526 80.531C10.4837 80.4692 10.5149 80.4073 10.546 80.3455C10.5149 80.4073 10.4526 80.4383 10.4215 80.5001C10.4837 80.4383 10.546 80.3455 10.6394 80.2836C10.5771 80.3145 10.546 80.3764 10.4837 80.4073C10.5771 80.3455 10.6705 80.2836 10.7639 80.2527C10.7017 80.2836 10.6394 80.3145 10.5771 80.3145C10.6705 80.2836 10.795 80.2527 10.8884 80.2218C10.8262 80.2218 10.7639 80.2527 10.6705 80.2527C10.7639 80.2527 10.8573 80.2527 10.9507 80.2527C10.8884 80.2527 10.8262 80.2218 10.7328 80.2218C10.795 80.2218 10.8573 80.2527 10.8884 80.2527C10.8262 80.2218 10.7639 80.1908 10.7017 80.1908C10.7328 80.1908 10.7328 80.2218 10.7639 80.2218C10.7017 80.1908 10.6705 80.129 10.6083 80.098C10.6394 80.098 10.6394 80.129 10.6394 80.129C10.6083 80.0671 10.546 80.0362 10.5149 79.9743C10.5149 79.9743 10.546 80.0053 10.546 80.0362C10.5149 79.9743 10.4837 79.9125 10.4837 79.8506C10.4837 79.8815 10.4837 79.8815 10.4837 79.9125C10.4837 79.8506 10.4526 79.7888 10.4526 79.696C10.4526 79.7269 10.4526 79.7269 10.4526 79.7578C10.4526 79.696 10.4837 79.6341 10.4837 79.5413C10.4837 79.5722 10.4837 79.6032 10.4526 79.6341C10.4837 79.5722 10.5149 79.5104 10.5149 79.4485C10.5149 79.4795 10.4837 79.5104 10.4837 79.5104C10.5149 79.4485 10.5771 79.4176 10.6083 79.3557C10.5771 79.3867 10.5771 79.3867 10.546 79.4176C10.6083 79.3867 10.6394 79.3248 10.7017 79.2939C10.6705 79.3248 10.6394 79.3557 10.5771 79.3557C10.6394 79.3248 10.7017 79.2939 10.7639 79.2939C10.6705 79.3248 10.546 79.3557 10.4526 79.3557C10.5149 79.3557 10.5771 79.3248 10.6705 79.3248C10.4526 79.3557 10.2658 79.3557 10.0479 79.3248C10.1102 79.3248 10.1724 79.3557 10.2658 79.3557C10.1413 79.3248 10.0168 79.3248 9.89223 79.263C9.9545 79.2939 10.0168 79.3248 10.079 79.3248C10.0479 79.3248 10.0479 79.2939 10.0168 79.2939C10.079 79.3248 10.1102 79.3867 10.1724 79.4176C10.1413 79.4176 10.1413 79.3867 10.1413 79.3867C10.1724 79.4485 10.2347 79.4795 10.2658 79.5413V79.5104C10.2969 79.5723 10.3281 79.6341 10.3281 79.696V79.665C10.3281 79.7269 10.3592 79.7888 10.3592 79.8815C10.3592 79.8506 10.3592 79.8506 10.3592 79.8197C10.3592 79.8815 10.3281 79.9434 10.3281 80.0362C10.3281 79.9743 10.3592 79.9434 10.3592 79.9125C10.3281 79.9743 10.2969 80.0362 10.2969 80.098C10.3903 79.9125 10.4526 79.7578 10.546 79.5722C10.6083 79.4176 10.6705 79.263 10.795 79.1392C10.7639 79.2011 10.7017 79.232 10.6705 79.2939C10.7017 79.263 10.7328 79.232 10.7639 79.2011C10.7017 79.232 10.6705 79.2939 10.6083 79.3248C10.6394 79.2939 10.6705 79.263 10.7328 79.263C10.6705 79.2939 10.6083 79.3248 10.546 79.3248C10.6083 79.2939 10.6705 79.2939 10.7328 79.2939C10.6705 79.2939 10.6083 79.3248 10.5149 79.3248C10.7328 79.2939 10.9507 79.2939 11.1375 79.3248C11.0752 79.3248 11.013 79.2939 10.9196 79.2939C11.0441 79.3248 11.1686 79.3557 11.2932 79.3867C11.2309 79.3557 11.1686 79.3248 11.1064 79.3248C11.1686 79.3557 11.262 79.3867 11.3243 79.4485C11.262 79.4176 11.2309 79.3557 11.1686 79.3248C11.2309 79.3557 11.262 79.4176 11.2932 79.4485C11.262 79.3867 11.1998 79.3557 11.1686 79.2939C11.1998 79.3557 11.2309 79.3867 11.262 79.4485C11.2309 79.3867 11.1998 79.3248 11.1998 79.263C11.2309 79.3248 11.2309 79.3867 11.262 79.4485C11.262 79.3867 11.2309 79.3248 11.2309 79.232C11.2309 79.2939 11.2309 79.3867 11.2309 79.4485C11.2309 79.3867 11.262 79.3248 11.262 79.232C11.262 79.3248 11.2309 79.4176 11.1998 79.5104C11.2309 79.4485 11.262 79.3867 11.262 79.3248C11.2309 79.4176 11.1686 79.4795 11.1375 79.5413C11.1686 79.4795 11.2309 79.4485 11.262 79.3867C11.1998 79.4795 11.1064 79.5722 11.013 79.6341C11.0752 79.6032 11.1064 79.5413 11.1686 79.5104C11.013 79.6341 10.8573 79.696 10.7017 79.7888C10.7639 79.7578 10.8262 79.7269 10.8884 79.7269C10.795 79.7578 10.6705 79.8197 10.5771 79.8506C10.3903 79.9125 10.2347 80.0362 10.1102 80.1908C10.0168 80.3455 9.98563 80.5929 10.0479 80.7785C10.079 81.1496 10.4837 81.4589 10.9196 81.3043Z" fill="#231300"/>
<path d="M8.92693 80.2528C9.92315 80.2528 9.92315 78.7373 8.92693 78.7373C7.96186 78.7063 7.96186 80.2528 8.92693 80.2528Z" fill="#231300"/>
<path d="M27.4818 60.3653C27.3573 60.2725 27.0771 60.3344 26.8592 60.4272C26.6413 60.52 26.6101 60.6128 26.4545 60.7055C26.2677 60.7983 26.0498 61.0458 25.6451 60.922C25.3026 60.8293 21.5979 59.5302 20.2593 59.0663C19.948 58.9426 19.1386 58.7261 18.7961 58.8189C18.2669 58.9426 18.0178 59.3756 17.9867 59.654C17.6131 62.4685 18.7338 63.0252 20.5706 63.7366C23.7149 64.6645 24.8979 62.5922 25.0224 62.4376C25.1469 62.2829 25.6139 62.0355 26.0809 61.9118C26.5479 61.7881 27.1082 61.5716 27.3573 61.3241C27.5129 61.1385 27.8243 60.5818 27.4818 60.3653Z" fill="black"/>
<path d="M23.9949 61.7881C24.026 61.6953 23.9949 61.5407 23.9015 61.417C23.777 61.3551 18.7959 58.8189 18.7959 60.3963C18.7959 60.5819 18.7959 61.1695 18.9204 61.4788C19.045 61.7881 19.2317 62.0665 19.5119 62.3139C19.8232 62.5613 20.944 63.0253 21.8157 63.149C23.1855 63.3655 23.9326 61.9737 23.9949 61.7881Z" fill="white"/>
<path d="M36.7593 60.5818C36.8839 60.489 37.164 60.52 37.382 60.6127C37.5999 60.7055 37.631 60.7674 37.7867 60.8602C37.9423 60.953 38.1914 61.1695 38.5961 61.0457C38.9385 60.922 42.5187 59.5302 43.8262 59.0354C44.1375 58.9116 44.9158 58.6642 45.2582 58.7261C45.7875 58.8189 46.0677 59.2209 46.0677 59.4684C46.5658 62.1283 45.5073 62.685 43.7017 63.4582C40.6508 64.5098 39.4055 62.5613 39.281 62.4376C39.1565 62.3138 38.6895 62.0664 38.2225 61.9736C37.7555 61.8808 37.1952 61.6953 36.9461 61.4788C36.7282 61.3241 36.4169 60.7983 36.7593 60.5818Z" fill="black"/>
<path d="M40.2458 61.7881C40.2147 61.6953 40.2147 61.5406 40.3392 61.4478C40.4637 61.3551 45.2269 58.7261 45.3203 60.2107C45.3203 60.3653 45.3514 60.953 45.2269 61.2623C45.1023 61.5716 44.9467 61.8499 44.6665 62.0974C44.3863 62.3448 43.2656 62.8397 42.4562 62.9943C41.1175 63.2417 40.3392 61.9736 40.2458 61.7881Z" fill="white"/>
<path d="M22.6255 62.6231C23.2617 62.6231 23.7774 62.1107 23.7774 61.4787C23.7774 60.8467 23.2617 60.3344 22.6255 60.3344C21.9893 60.3344 21.4736 60.8467 21.4736 61.4787C21.4736 62.1107 21.9893 62.6231 22.6255 62.6231Z" fill="black"/>
<path d="M43.7012 61.7262C44.3373 61.7262 44.853 61.2139 44.853 60.5819C44.853 59.9499 44.3373 59.4375 43.7012 59.4375C43.065 59.4375 42.5493 59.9499 42.5493 60.5819C42.5493 61.2139 43.065 61.7262 43.7012 61.7262Z" fill="black"/>
<path d="M29.1941 65.5924C29.9101 65.9945 30.8441 66.0564 31.6224 66.0873C32.6808 66.1492 33.7704 66.1182 34.8289 65.9327C35.1402 65.8708 35.327 65.4996 35.2648 65.1904C35.1714 64.8501 34.8289 64.6955 34.5176 64.7573C33.6459 64.912 32.6497 64.9429 31.7158 64.8811C31.4978 64.8811 31.2488 64.8501 31.0309 64.8192C30.9997 64.8192 30.9375 64.8192 30.9063 64.7883C30.9997 64.7883 30.8441 64.7883 30.8441 64.7883C30.7507 64.7573 30.6573 64.7573 30.5328 64.7264C30.3771 64.6955 30.2214 64.6646 30.0346 64.6027C29.9724 64.5718 29.9101 64.5718 29.8479 64.5408C29.9724 64.6027 29.879 64.5408 29.8167 64.5099C29.1318 64.1388 28.5092 65.1904 29.1941 65.5924Z" fill="#231300"/>
<path d="M95.9405 41.313L61.3533 38.5294C60.5439 38.4985 59.8901 39.1171 59.8901 39.8903V103.14C59.8901 103.913 60.5439 104.532 61.3533 104.47L96.3141 102.305C97.0301 102.274 97.6216 101.625 97.6216 100.882V41.2512C97.5905 40.5089 96.6565 41.344 95.9405 41.313Z" fill="#1E70AC"/>
<path d="M63.0652 38.2511L60.8548 38.5913L60.2944 104.161L62.7538 105.584L67.984 44.0967L63.0652 38.2511Z" fill="#1E70AC"/>
<path d="M91.3949 79.3249C90.8034 79.3559 90.3364 78.9228 90.3364 78.3661V78.2733C90.3364 77.7166 90.8034 77.2836 91.3949 77.2527H91.426C92.0175 77.2527 92.4845 77.6548 92.4845 78.2115V78.3043C92.4534 78.861 91.9864 79.294 91.3949 79.3249Z" fill="#B19AF3"/>
<path d="M91.3951 79.5104C90.7102 79.5413 90.1187 78.9846 90.1187 78.3351C90.1187 77.6856 90.679 77.098 91.3951 77.067C92.0799 77.0361 92.6403 77.5928 92.6403 78.2733C92.6403 78.9537 92.0799 79.5104 91.3951 79.5104ZM91.3951 77.4691C90.9281 77.4691 90.5234 77.8712 90.5234 78.3351C90.5234 78.7991 90.8969 79.1702 91.3951 79.1393C91.862 79.1393 92.2667 78.7372 92.2667 78.2733C92.2667 77.8093 91.862 77.4382 91.3951 77.4691Z" fill="#D8DEE8"/>
<path d="M91.3949 83.0054C90.8034 83.0364 90.3364 82.6034 90.3364 82.0466V81.9539C90.3364 81.3971 90.8034 80.9641 91.3949 80.9332H91.426C92.0175 80.9023 92.4845 81.3353 92.4845 81.892V81.9848C92.4534 82.5106 91.9864 82.9745 91.3949 83.0054Z" fill="#B19AF3"/>
<path d="M91.3951 83.191C90.7102 83.222 90.1187 82.6962 90.1187 82.0157C90.1187 81.3353 90.679 80.7786 91.3951 80.7476C92.0799 80.7167 92.6403 81.2425 92.6403 81.9229C92.6403 82.6034 92.0799 83.1601 91.3951 83.191ZM91.3951 81.1188C90.9281 81.1188 90.5234 81.5209 90.5234 81.9848C90.5234 82.4487 90.8969 82.8199 91.3951 82.789C91.862 82.758 92.2667 82.3869 92.2667 81.9229C92.2667 81.459 91.862 81.1188 91.3951 81.1188Z" fill="#D8DEE8"/>
<path d="M91.3949 90.3355C90.8034 90.3665 90.3364 89.9335 90.3364 89.4077V89.3149C90.3364 88.7581 90.8034 88.2942 91.3949 88.2633H91.426C92.0175 88.2324 92.4845 88.6654 92.4845 89.1912V89.2839C92.4534 89.8407 91.9864 90.3046 91.3949 90.3355Z" fill="#B19AF3"/>
<path d="M91.3951 90.5212C90.7102 90.5521 90.1187 90.0263 90.1187 89.3458C90.1187 88.6654 90.679 88.0778 91.3951 88.0468C92.0799 88.0159 92.6403 88.5417 92.6403 89.2221C92.6403 89.9026 92.0799 90.4902 91.3951 90.5212ZM91.3951 88.4798C90.9281 88.5108 90.5234 88.8819 90.5234 89.3458C90.5234 89.8098 90.8969 90.15 91.3951 90.15C91.862 90.1191 92.2667 89.717 92.2667 89.284C92.2667 88.7891 91.862 88.4489 91.3951 88.4798Z" fill="#D8DEE8"/>
<path d="M97.2482 39.612L63.377 38.2511C62.5987 38.2202 61.9761 38.8388 61.9761 39.6429V104.316C61.9761 105.12 62.5987 105.738 63.377 105.676L97.2482 103.48C97.9331 103.45 98.4935 102.769 98.4935 102.027V41.0347C98.4935 40.2924 97.9331 39.6429 97.2482 39.612Z" fill="#D8DEE8"/>
<g opacity="0.3">
<path opacity="0.3" d="M83.3945 87.1499C82.8341 79.7888 87.1303 76.7268 85.4803 70.0462C83.4568 61.7881 75.6116 61.417 72.9343 53.3136C71.9069 50.1897 71.5022 45.5194 74.4286 38.6841L63.3457 38.2511C62.5675 38.2202 61.9448 38.8388 61.9448 39.6429V104.316C61.9448 105.12 62.5675 105.738 63.3457 105.676L93.5745 103.697C85.9162 97.5421 83.7369 91.6656 83.3945 87.1499Z" fill="#D8DEE8"/>
</g>
<path d="M97.2478 40.4161L63.3767 39.0862C63.0653 39.0862 62.7852 39.3336 62.7852 39.6738V104.254C62.7852 104.594 63.0342 104.841 63.3767 104.81L97.2478 102.645C97.528 102.614 97.7771 102.367 97.7771 102.058V41.0038C97.7459 40.6945 97.528 40.4471 97.2478 40.4161Z" fill="#EBEFF2"/>
<path d="M80.7483 68.9637C74.3975 69.0255 69.1362 63.5201 69.1362 56.7467C69.1362 49.9423 74.3975 44.5916 80.7483 44.7771C86.9746 44.9627 91.9246 50.4372 91.9246 56.9941C91.9246 63.5511 86.9746 68.9018 80.7483 68.9637Z" fill="#D8DEE8"/>
<path d="M91.1772 56.9941C91.1772 63.118 86.5386 68.0976 80.7481 68.1285C74.8331 68.1594 69.9766 63.0561 69.9766 56.7466C69.9766 50.4371 74.8642 45.4266 80.7481 45.6122C86.5697 45.7668 91.1772 50.8701 91.1772 56.9941Z" fill="white"/>
<path d="M93.4496 73.2936L67.517 73.6957C66.801 73.6957 66.2095 74.3143 66.2095 75.0875C66.2095 75.8298 66.801 76.4484 67.517 76.4175L93.4496 75.9226C94.1034 75.9226 94.6638 75.304 94.6638 74.5927C94.6638 73.8504 94.1034 73.2627 93.4496 73.2936Z" fill="#117DC1"/>
<path d="M93.4499 78.428L72.2182 78.9228C71.5021 78.9538 70.9106 79.5724 70.9106 80.3146C70.9106 81.0569 71.5021 81.6446 72.2182 81.6446L93.4499 81.0569C94.1037 81.026 94.6641 80.4384 94.6641 79.727C94.6641 78.9847 94.1037 78.428 93.4499 78.428Z" fill="#D8DEE8"/>
<path d="M67.5491 81.7683C66.802 81.7993 66.2104 81.2116 66.2104 80.5002V80.3765C66.2104 79.6652 66.802 79.0466 67.518 79.0466H67.5491C68.2651 79.0156 68.8566 79.6033 68.8566 80.3147V80.4384C68.8255 81.1498 68.2651 81.7374 67.5491 81.7683Z" fill="#117DC1"/>
<path d="M67.5175 82.0157C66.6458 82.0467 65.9609 81.3353 65.9609 80.4383C65.9609 79.5414 66.677 78.7991 67.5175 78.7682C68.3892 78.7373 69.0741 79.4486 69.0741 80.3456C69.0741 81.2425 68.3892 82.0157 67.5175 82.0157ZM67.5175 79.294C66.926 79.294 66.459 79.8198 66.459 80.4383C66.459 81.0569 66.926 81.5209 67.5175 81.5209C68.109 81.4899 68.576 80.9951 68.576 80.3765C68.576 79.7579 68.109 79.294 67.5175 79.294Z" fill="#117DC1"/>
<path d="M93.4499 83.0983L72.2182 83.7787C71.5021 83.8096 70.9106 84.4282 70.9106 85.1705C70.9106 85.9128 71.5021 86.5005 72.2182 86.4695L93.4499 85.7272C94.1037 85.6963 94.6641 85.1087 94.6641 84.3664C94.6641 83.6241 94.1037 83.0673 93.4499 83.0983Z" fill="#D8DEE8"/>
<path d="M67.5491 86.6242C66.802 86.6552 66.2104 86.0984 66.2104 85.3561V85.2324C66.2104 84.521 66.802 83.9025 67.518 83.8715H67.5491C68.2651 83.8406 68.8566 84.4283 68.8566 85.1396V85.2633C68.8255 86.0056 68.2651 86.5933 67.5491 86.6242Z" fill="#117DC1"/>
<path d="M67.5175 86.8716C66.6458 86.9025 65.9609 86.1911 65.9609 85.2942C65.9609 84.3973 66.677 83.6549 67.5175 83.624C68.3892 83.5931 69.0741 84.3045 69.0741 85.2014C69.0741 86.0984 68.3892 86.8407 67.5175 86.8716ZM67.5175 84.1498C66.926 84.1807 66.459 84.6756 66.459 85.2942C66.459 85.9128 66.926 86.3767 67.5175 86.3767C68.109 86.3458 68.576 85.8509 68.576 85.2323C68.576 84.6138 68.109 84.1498 67.5175 84.1498Z" fill="#117DC1"/>
<path d="M67.5175 91.7274C66.6458 91.7583 65.9609 91.0779 65.9609 90.181C65.9609 89.284 66.677 88.5417 67.5175 88.5108C68.3892 88.4799 69.0741 89.1603 69.0741 90.0572C69.0741 90.9542 68.3892 91.6965 67.5175 91.7274ZM67.5175 89.0056C66.926 89.0366 66.459 89.5314 66.459 90.15C66.459 90.7686 66.926 91.2325 67.5175 91.2016C68.109 91.1707 68.576 90.6449 68.576 90.0572C68.576 89.4696 68.109 88.9747 67.5175 89.0056Z" fill="#C1CEE2"/>
<path d="M82.2147 56.5916C83.678 55.835 84.2468 54.0431 83.4853 52.5893C82.7237 51.1355 80.92 50.5704 79.4567 51.327C77.9934 52.0836 77.4245 53.8756 78.1861 55.3293C78.9477 56.7831 80.7514 57.3483 82.2147 56.5916Z" fill="#117DC1"/>
<path d="M76.4782 61.8393L85.716 61.8166C86.292 61.8166 86.6243 61.1808 86.3142 60.6812C85.5167 59.4323 83.8773 57.5929 81.0417 57.6838C78.2947 57.7746 76.6775 59.455 75.88 60.6585C75.5256 61.1581 75.88 61.8393 76.4782 61.8393Z" fill="#117DC1"/>
<path d="M88.5934 100.666C91.9117 100.666 94.6018 97.8549 94.6018 94.3874C94.6018 90.9198 91.9117 88.1088 88.5934 88.1088C85.275 88.1088 82.585 90.9198 82.585 94.3874C82.585 97.8549 85.275 100.666 88.5934 100.666Z" fill="white"/>
<path d="M89.558 98.6246L88.0325 98.6555C87.6901 98.6555 87.441 98.4081 87.441 98.0678L87.3477 90.9542C87.3477 90.6139 87.5967 90.3665 87.9392 90.3665L89.4646 90.3356C89.807 90.3356 90.0561 90.583 90.0561 90.9232L90.1495 98.0369C90.1495 98.3462 89.8693 98.6246 89.558 98.6246Z" fill="#EC2327"/>
<path d="M92.8892 93.645L92.9203 95.1606C92.9203 95.5008 92.6713 95.7482 92.3288 95.7482L85.1685 95.841C84.8261 95.841 84.577 95.5936 84.577 95.2534L84.5459 93.7378C84.5459 93.3976 84.795 93.1502 85.1374 93.1502L92.2977 93.0574C92.609 93.0574 92.8892 93.3357 92.8892 93.645Z" fill="#EC2327"/>
<path d="M82.6784 89.5624C82.6784 88.8201 82.0558 88.2015 81.2775 88.2324L72.2182 88.5726C71.5021 88.6036 70.9106 89.2222 70.9106 89.9644C70.9106 90.7067 71.5021 91.2944 72.2182 91.2635L81.402 90.8614C82.118 90.8614 82.6784 90.2737 82.6784 89.5624Z" fill="#D8DEE8"/>
<path d="M106.836 59.9943C106.307 61.2933 105.746 62.5614 105.093 63.7676C104.563 64.7573 103.972 65.778 103.287 66.6131C103.131 66.7987 103.007 66.9533 102.851 67.1079C102.758 67.2007 102.696 67.2626 102.602 67.3554C102.571 67.3863 102.353 67.5719 102.447 67.51C102.291 67.6337 102.166 67.7265 101.98 67.7884C101.948 67.8193 101.699 67.9121 101.855 67.8502C101.762 67.8812 101.699 67.9121 101.606 67.943C101.575 67.943 101.544 67.943 101.513 67.974C101.357 68.0049 101.668 67.974 101.481 67.974C101.419 67.974 101.357 67.974 101.295 67.974C101.108 67.974 101.357 68.0049 101.17 67.974C101.077 67.943 101.014 67.943 100.921 67.9121C101.077 67.974 100.859 67.8812 100.828 67.8502C100.765 67.8193 100.672 67.7575 100.61 67.6956C100.703 67.7575 100.485 67.6028 100.454 67.5719C100.361 67.4791 100.298 67.4172 100.205 67.3244C99.2711 66.2729 98.7419 64.6336 98.3372 63.2418C98.0881 62.4067 96.7495 62.7469 96.9985 63.613C97.4344 65.0976 97.9636 66.6749 98.9287 67.9121C99.5202 68.6853 100.33 69.3658 101.357 69.3658C102.322 69.3348 103.131 68.7781 103.785 68.1286C104.657 67.2626 105.342 66.1801 105.933 65.1285C106.774 63.613 107.49 62.0047 108.144 60.3963C108.268 60.0561 107.988 59.654 107.677 59.5613C107.272 59.4066 106.961 59.654 106.836 59.9943Z" fill="black"/>
<path d="M93.2314 61.1695C91.7993 61.4478 91.7059 62.7469 92.2352 63.5819C92.7644 64.3861 94.3521 64.85 95.753 64.5717C97.154 64.2933 98.586 63.4892 97.9322 62.4994C97.403 61.6953 94.6634 60.9221 93.2314 61.1695Z" fill="black"/>
<path d="M97.0916 61.386C96.2822 60.8911 94.3209 59.8705 94.0719 60.4581C93.9162 60.7983 96.2511 62.8087 97.6831 63.0871C98.6171 63.2727 97.8699 61.8808 97.0916 61.386Z" fill="black"/>
<path d="M124.923 44.5916C137.065 44.5916 146.933 54.3651 146.933 66.4584C146.933 72.4895 144.474 77.9331 140.52 81.861C141.361 85.2323 142.793 88.6345 145.252 88.6345C143.571 90.8923 135.882 87.8922 132.457 86.9953C130.122 87.8303 127.57 88.2943 124.954 88.2943C112.813 88.2943 102.944 78.5207 102.944 66.4275C102.913 54.3651 112.782 44.5916 124.923 44.5916Z" fill="#117DC1"/>
<path d="M146.903 65.4996C146.903 65.8089 146.934 66.1182 146.934 66.4584C146.934 72.4896 144.474 77.9331 140.521 81.8611C141.361 85.2324 142.793 88.6346 145.253 88.6346C143.571 90.8924 135.882 87.8923 132.458 86.9953C130.123 87.8304 127.57 88.2943 124.955 88.2943C117.172 88.2943 110.323 84.2736 106.4 78.1805C110.634 80.5621 115.46 81.892 120.596 81.892C131.959 81.923 141.859 75.2732 146.903 65.4996Z" fill="#1E70AC"/>
<path d="M134.823 70.2626C134.948 70.6956 135.041 71.1286 135.134 71.5616C135.228 72.1183 135.29 72.4586 135.352 72.9534C135.477 74.1906 135.539 75.3968 135.57 76.634C135.601 79.1702 135.415 81.6754 134.854 84.1188C134.574 85.2632 134.294 86.1911 133.702 87.1499C133.142 88.0159 134.512 88.7891 135.072 87.954C136.349 86.0055 136.691 83.4693 136.94 81.2424C137.22 78.6134 137.251 75.9535 137.002 73.3246C136.878 72.1493 136.722 70.974 136.38 69.8605C136.068 68.8708 134.512 69.2729 134.823 70.2626Z" fill="#231300"/>
<path d="M132.956 90.4903C133.111 91.8512 134.325 92.5007 135.072 92.377C135.851 92.2532 136.318 91.047 136.162 89.6861C136.006 88.3253 135.322 86.7788 134.388 86.9335C133.609 87.0262 132.769 89.1294 132.956 90.4903Z" fill="black"/>
<path d="M133.329 87.2117C132.831 87.7066 131.804 89.0056 132.333 89.4696C132.644 89.7479 134.575 88.5417 134.917 87.3664C135.135 86.655 133.827 86.7169 133.329 87.2117Z" fill="black"/>
<path d="M124.301 85.8199C124.301 88.6345 124.612 91.449 124.923 94.2326C125.266 97.5111 125.702 100.79 126.262 104.037C126.324 104.408 126.387 104.749 126.449 105.12C126.449 105.212 126.48 105.274 126.48 105.367C126.48 105.336 126.48 105.367 126.48 105.46C126.791 105.274 126.854 105.151 126.698 105.151C126.667 105.12 126.387 105.151 126.387 105.151C126.169 105.151 125.982 105.151 125.764 105.182C124.425 105.212 123.087 105.243 121.748 105.274C120.721 105.305 120.721 106.883 121.748 106.852C122.993 106.821 124.207 106.79 125.453 106.759C126.013 106.759 126.698 106.821 127.258 106.635C127.85 106.45 128.13 105.831 128.068 105.243C127.974 104.501 127.819 103.759 127.694 103.016C127.57 102.212 127.445 101.408 127.321 100.604C126.822 97.1709 126.418 93.7069 126.138 90.2428C126.013 88.7582 125.92 87.2736 125.889 85.789C125.889 84.7684 124.301 84.7684 124.301 85.8199Z" fill="#231300"/>
<path d="M115.179 85.5107C114.993 88.3252 115.179 91.1088 115.522 93.8924C115.709 95.3152 115.926 96.7379 116.176 98.1606C116.3 98.872 116.425 99.5524 116.549 100.264C116.611 100.573 116.674 100.913 116.736 101.223C116.767 101.377 116.767 101.563 116.829 101.656C116.829 101.625 116.829 101.748 116.829 101.748C116.923 101.656 116.985 101.532 117.078 101.439C117.047 101.439 117.016 101.439 116.985 101.439C116.86 101.377 116.58 101.439 116.456 101.439C116.238 101.439 116.051 101.439 115.833 101.47C115.428 101.47 115.024 101.501 114.588 101.501C113.778 101.532 112.938 101.532 112.128 101.563C111.101 101.594 111.101 103.171 112.128 103.14C113.685 103.109 115.21 103.047 116.767 103.016C117.141 103.016 117.545 103.016 117.888 102.8C118.261 102.583 118.448 102.181 118.448 101.779C118.479 101.099 118.23 100.326 118.106 99.6452C117.545 96.6451 117.078 93.645 116.86 90.583C116.736 88.8819 116.736 87.1499 116.829 85.4488C116.86 85.0158 116.456 84.6447 116.02 84.6447C115.522 84.7374 115.21 85.0777 115.179 85.5107Z" fill="#231300"/>
<path d="M112.128 56.0044C111.288 55.8188 110.509 55.726 109.762 55.726C109.544 55.1693 109.482 54.5507 109.606 53.9012C109.949 52.262 111.537 51.2104 113.093 51.5506C114.65 51.8908 115.646 53.4992 115.303 55.1384C115.179 55.7879 114.837 56.3137 114.401 56.7467C113.716 56.4374 112.937 56.19 112.128 56.0044Z" fill="black"/>
<path d="M114.41 55.8842C114.632 55.7234 114.731 55.4811 114.629 55.3429C114.528 55.2048 114.266 55.2231 114.043 55.3839C113.821 55.5447 113.723 55.787 113.824 55.9252C113.925 56.0633 114.187 56.045 114.41 55.8842Z" fill="white"/>
<path d="M112.147 53.4174C112.238 53.0001 112.012 52.5973 111.643 52.5178C111.273 52.4383 110.9 52.7122 110.809 53.1296C110.718 53.547 110.944 53.9498 111.313 54.0293C111.683 54.1088 112.057 53.8348 112.147 53.4174Z" fill="white"/>
<path d="M126.978 59.221C126.138 59.0354 125.359 58.9426 124.612 58.9426C124.394 58.3859 124.332 57.7673 124.457 57.1178C124.799 55.4785 126.387 54.427 127.943 54.7672C129.5 55.1074 130.496 56.7157 130.154 58.3549C130.029 59.0045 129.687 59.5303 129.251 59.9633C128.566 59.623 127.819 59.3756 126.978 59.221Z" fill="black"/>
<path d="M129.282 59.0612C129.505 58.9004 129.603 58.6581 129.502 58.5199C129.401 58.3818 129.138 58.4001 128.916 58.5609C128.694 58.7217 128.595 58.964 128.696 59.1022C128.797 59.2403 129.06 59.222 129.282 59.0612Z" fill="white"/>
<path d="M127.028 56.6302C127.119 56.2128 126.893 55.81 126.523 55.7306C126.153 55.6511 125.78 55.925 125.689 56.3424C125.598 56.7598 125.824 57.1626 126.194 57.2421C126.564 57.3215 126.937 57.0476 127.028 56.6302Z" fill="white"/>
<path d="M115.428 58.2931C115.086 59.3447 115.241 60.3344 115.926 61.2314C116.487 61.9427 117.234 62.2829 118.074 62.3448C119.444 62.4376 120.44 61.819 121.063 60.6128C121.281 60.1798 121.374 59.654 121.499 59.1591C121.561 58.9426 121.312 58.7261 121.063 58.7261C119.911 58.757 118.79 58.4478 117.701 58.1075C117.203 57.9529 116.767 57.7055 116.331 57.458C115.989 57.2724 115.708 57.3652 115.615 57.7364C115.522 57.9529 115.459 58.1385 115.428 58.2931Z" fill="black"/>
<path d="M60.2012 71.9637C60.2012 71.9019 60.2012 71.8091 60.2323 71.7472C60.2012 71.8091 60.2012 71.8709 60.2012 71.9637C60.2635 71.4998 60.388 71.0977 60.5436 70.6956C60.5125 70.7575 60.4814 70.8193 60.4814 70.8812C60.5748 70.6338 60.7304 70.3863 60.855 70.1698C60.5748 70.2936 60.2635 70.4173 59.9833 70.5101C60.0144 70.5101 60.0767 70.541 60.1078 70.541C60.0455 70.5101 59.9833 70.4791 59.921 70.4791C59.9833 70.5101 60.0455 70.541 60.0767 70.5719C60.0144 70.541 59.9833 70.4791 59.921 70.4482C59.9833 70.4791 60.0144 70.541 60.0767 70.6028C60.0455 70.541 59.9833 70.5101 59.9521 70.4482C59.9833 70.5101 60.0455 70.5719 60.0455 70.6338C60.0144 70.5719 59.9833 70.5101 59.9833 70.4482C60.0144 70.5101 60.0144 70.5719 60.0455 70.6338C60.0455 70.5719 60.0144 70.5101 60.0144 70.4173C60.0144 70.4791 60.0144 70.541 60.0144 70.6028C60.0144 70.541 60.0455 70.4791 60.0455 70.3863C60.0455 70.4482 60.0144 70.5101 59.9833 70.5719C60.0144 70.5101 60.0455 70.4482 60.0455 70.3863C60.0144 70.4482 59.9833 70.5101 59.9521 70.5719C59.9833 70.5101 60.0455 70.4791 60.0767 70.4173C60.0455 70.4791 59.9833 70.5101 59.921 70.5719C59.9833 70.541 60.0144 70.4791 60.0767 70.4482C60.0144 70.4791 59.9833 70.5101 59.921 70.541C59.9833 70.5101 60.0455 70.4791 60.1078 70.4791C60.0767 70.4791 60.0455 70.5101 59.9833 70.5101C59.5786 70.6028 59.3295 71.0668 59.454 71.4379C59.5786 71.84 59.9833 72.0874 60.388 71.9637C61.0417 71.8091 61.5399 71.1596 61.5399 70.5101C61.5399 69.8296 61.0417 69.211 60.388 69.0564C60.0455 68.9636 59.7031 69.1183 59.5163 69.3966C59.0182 70.1698 58.738 71.0668 58.6757 71.9946C58.6446 72.1802 58.7691 72.3967 58.8937 72.5204C59.0182 72.6442 59.2361 72.7679 59.4229 72.7369C59.6097 72.7369 59.8276 72.6751 59.9521 72.5204C60.1078 72.3349 60.1701 72.1802 60.2012 71.9637Z" fill="black"/>
</svg>
