<svg width="150" height="150" viewBox="0 0 150 150" fill="none" xmlns="http://www.w3.org/2000/svg">
<path d="M102.864 59.1967C107.142 59.5512 110.029 59.7905 113.185 60.1872L113.819 60.2134C122.327 60.5673 129 67.6081 129 76.1233V115.108C129 123.226 122.945 129.968 115.058 130.949C111.556 131.705 109.675 131.774 107.386 131.859C106.52 131.891 105.594 131.925 104.5 132C104.585 131.786 104.798 131.518 105.073 131.237C83.2076 131.639 68.4743 131.556 52.4654 131.151C43.8405 130.932 37 123.842 37 115.214V76.0852C37 67.5855 43.6523 60.5504 52.1446 60.1926C70.5399 59.4174 85.1553 59.3087 101.836 59.7876C101.128 59.5218 100.599 59.2463 100.5 59C101.336 59.07 102.121 59.1351 102.864 59.1967Z" fill="#0070C0"/>
<path d="M36.4306 60.7709C27.3902 61.4545 20.5 69.0543 20.5 78.0878V113.286C20.5 122.605 27.8166 130.32 37.1477 130.691C61.5718 131.663 79.4554 131.6 102.826 130.677C112.168 130.308 119.5 122.59 119.5 113.259V78.0507C119.5 69.0349 112.635 61.4398 103.61 60.7493C79.1056 58.8744 60.9249 58.9187 36.4306 60.7709Z" fill="white" stroke="#0070C0" stroke-width="3" stroke-linecap="round" stroke-linejoin="round"/>
<path fill-rule="evenodd" clip-rule="evenodd" d="M74.166 31.5C70.5161 31.5 67.1316 32.8034 64.7318 34.9506C62.3538 37.0783 61.166 39.8116 61.166 42.5V60.5H49.166V42.5C49.166 36.171 51.9818 30.2563 56.7302 26.0077C61.4567 21.7787 67.7377 19.5 74.166 19.5C80.5943 19.5 86.8753 21.7787 91.6018 26.0077C96.3502 30.2563 99.166 36.171 99.166 42.5V60.5H87.166V42.5C87.166 39.8116 85.9782 37.0783 83.6003 34.9506C81.2004 32.8034 77.8159 31.5 74.166 31.5Z" fill="#0070C0"/>
<path fill-rule="evenodd" clip-rule="evenodd" d="M69.166 31.5C65.5161 31.5 62.1316 32.8034 59.7318 34.9506C57.3538 37.0783 56.166 39.8116 56.166 42.5V59.5L44.166 60V42.5C44.166 36.171 46.9818 30.2563 51.7302 26.0077C56.4567 21.7787 62.7377 19.5 69.166 19.5C75.5943 19.5 81.8753 21.7787 86.6018 26.0077C91.3502 30.2563 94.166 36.171 94.166 42.5V60L82.166 59.5V42.5C82.166 39.8116 80.9782 37.0783 78.6003 34.9506C76.2004 32.8034 72.8159 31.5 69.166 31.5Z" fill="white"/>
<path fill-rule="evenodd" clip-rule="evenodd" d="M50.73 24.8899C55.7476 20.4005 62.3907 18 69.166 18C75.9413 18 82.5845 20.4005 87.602 24.8899C92.6463 29.4032 95.666 35.7154 95.666 42.5V60C95.666 60.4087 95.4993 60.7996 95.2044 61.0825C94.9094 61.3654 94.5119 61.5157 94.1036 61.4987L82.1036 60.9987C81.3001 60.9652 80.666 60.3041 80.666 59.5V42.5C80.666 40.2655 79.6808 37.9302 77.6001 36.0685C75.4907 34.1812 72.4682 33 69.166 33C65.8639 33 62.8413 34.1812 60.7319 36.0685C58.6512 37.9302 57.666 40.2655 57.666 42.5V59.5C57.666 60.3041 57.0319 60.9652 56.2285 60.9987L44.2285 61.4987C43.8202 61.5157 43.4226 61.3654 43.1277 61.0825C42.8327 60.7996 42.666 60.4087 42.666 60V42.5C42.666 35.7154 45.6857 29.4032 50.73 24.8899ZM69.166 21C63.0848 21 57.1659 23.157 52.7304 27.1256C48.2779 31.1094 45.666 36.6266 45.666 42.5V58.4362L54.666 58.0612V42.5C54.666 39.3577 56.0564 36.2264 58.7316 33.8328C61.4219 31.4256 65.1683 30 69.166 30C73.1637 30 76.9101 31.4256 79.6005 33.8328C82.2757 36.2264 83.666 39.3577 83.666 42.5V58.0612L92.666 58.4362V42.5C92.666 36.6266 90.0541 31.1094 85.6016 27.1256C81.1661 23.157 75.2473 21 69.166 21Z" fill="#0070C0"/>
<path d="M68.2757 99.4777C74.3398 99.8445 79.58 94.779 79.9801 88.1637C80.3802 81.5483 75.7886 75.8882 69.7246 75.5215C63.6605 75.1547 58.4203 80.2202 58.0202 86.8355C57.6201 93.4509 62.2117 99.111 68.2757 99.4777Z" fill="#F2F8FC"/>
<path fill-rule="evenodd" clip-rule="evenodd" d="M56.5229 86.7455C56.9654 79.4285 62.8041 73.6007 69.815 74.0247C76.826 74.4487 81.9198 80.9377 81.4773 88.2547C81.066 95.0551 75.9935 100.569 69.6508 100.973C69.625 104.158 69.6382 106.325 69.6506 108.373C69.6588 109.728 69.6668 111.03 69.6629 112.541C69.6607 113.37 68.9875 114.039 68.159 114.037C67.3306 114.035 66.6608 113.362 66.6629 112.534C66.6666 111.074 66.6589 109.786 66.6508 108.436C66.6382 106.332 66.6246 104.076 66.6523 100.782C60.4462 99.5805 56.1133 93.5176 56.5229 86.7455ZM78.4827 88.0736C78.2422 92.0509 76.0638 95.2996 73.1063 96.9066C68.6125 95.759 65.2162 92.1671 65.2162 87.6296C65.2162 82.9613 67.6406 78.7977 71.9975 77.5011C75.946 78.9026 78.7832 83.1062 78.4827 88.0736ZM71.0342 77.2206C71.3523 77.2935 71.6647 77.3841 71.9704 77.4915L71.753 77.4265C71.4723 77.3424 71.2489 77.2755 71.0342 77.2206Z" fill="#0070C0"/>
</svg>
