<svg width="176" height="175" viewBox="0 0 176 175" fill="none" xmlns="http://www.w3.org/2000/svg">
<defs>
    <linearGradient id="paint0_linear_6048_37161" x1="111.796" y1="12.6236" x2="127.337" y2="62.4765" gradientUnits="userSpaceOnUse">
        <stop stop-color="#2EC7FF"/>
        <stop offset="1" stop-color="#0074EA"/>
    </linearGradient>
    <linearGradient id="paint1_linear_6048_37161" x1="27953.4" y1="4756.07" x2="27864.9" y2="2667.04" gradientUnits="userSpaceOnUse">
        <stop stop-color="#2EC7FF"/>
        <stop offset="1" stop-color="#0074EA"/>
    </linearGradient>
</defs>
<path fill-rule="evenodd" clip-rule="evenodd" d="M119.218 131.777C110.937 127.629 109.369 130.253 115.365 123.036C115.58 122.763 115.738 122.449 115.827 122.113C115.916 121.777 115.935 121.426 115.884 121.081V121.081L116.672 107.774C116.676 107.637 116.648 107.501 116.591 107.376C116.534 107.251 116.449 107.141 116.342 107.055C116.236 106.968 116.111 106.908 115.978 106.878C115.844 106.848 115.706 106.849 115.573 106.882C106.616 109.342 80.4711 115.384 70.957 116.937L64.7328 114.361C60.0795 112.439 52.729 114.34 52.2844 117.58C52.0384 118.282 52.2429 121.254 51.1908 121.367L26.8097 126.642C26.6101 126.683 26.4313 126.794 26.3046 126.954C26.1779 127.115 26.1112 127.315 26.1162 127.519C26.6734 148.749 22.7996 142.005 49.531 147.327C51.3538 147.645 53.9146 148.669 54.7415 150.302L59.0896 160.265C60.4352 163.353 68.1502 163.978 72.1455 161.321C76.4699 158.849 85.9988 150.424 91.4939 151.078C96.4584 150.254 118.486 153.919 119.651 147.05H119.743C119.509 146.592 120.339 131.515 119.218 131.777Z" fill="#FFA403"/>
<path fill-rule="evenodd" clip-rule="evenodd" d="M111.708 137.361C117.932 137.331 122.173 133.57 118.88 130.997L108.255 122.688C106.948 121.664 106.773 120.308 107.763 119.079L115.89 109.024C118.708 104.633 110.487 102.821 106.479 103.74C101.524 104.234 84.5761 109.119 80.0414 106.849L64.9551 100.729C60.284 98.8344 52.8654 100.813 52.4 104.076L50.9181 114.602C50.4646 118.541 32.613 122.489 29.7529 124.187C24.3378 126.124 24.898 130.241 30.6895 131.143C34.8863 132.479 52.2815 132.63 54.6141 136.986L58.8969 146.982C60.2277 150.079 67.9931 150.641 72.0359 147.934L85.077 139.196C88.936 136.135 106.957 137.825 111.708 137.361Z" fill="#FFD601"/>
<path d="M109.74 105.677C116.714 107.673 109.23 111.068 110.166 112.609C111.871 113.418 114.316 109.381 114.479 107.917C115.17 104.906 107.745 103.142 109.737 105.665L109.74 105.677Z" fill="white"/>
<path d="M108.047 113.727C107.792 114.153 106.198 115.116 106.862 115.726C107.878 116.539 108.895 114.873 109.529 114.304C110.205 113.337 108.489 113.007 108.032 113.727H108.047Z" fill="white"/>
<path d="M59.4037 101.03C55.4677 101.327 53.2714 105.168 53.1558 108.812C53.0373 109.651 54.8363 109.387 54.9342 108.649C55.1179 106.673 55.684 104.21 57.1838 103.062C57.3396 102.94 57.5018 102.827 57.6698 102.723V102.723C57.7588 102.654 58.3871 102.404 58.2626 102.455C58.4937 102.377 58.7293 102.314 58.968 102.264H58.9502C59.9758 102.354 60.9568 101.039 59.4126 101.027L59.4037 101.03Z" fill="white"/>
<path d="M53.1203 111.109C52.7676 112.067 52.646 113.537 52.4563 114.545C52.3882 114.974 52.9424 115.14 53.2655 115.096C54.8482 114.977 54.2791 112.475 54.7474 111.404C55.2809 110.493 53.4967 110.252 53.1054 111.106L53.1203 111.109Z" fill="white"/>
<path d="M61.8608 146.949C64.0452 148.895 67.4655 147.743 69.6795 146.47C70.0026 146.283 70.3553 145.875 70.0856 145.509C68.7933 144.319 65.779 148.213 63.2153 145.884C62.5958 145.316 61.0842 146.235 61.8608 146.949Z" fill="white"/>
<path d="M72.4212 144.649C73.5297 143.56 82.6051 139.256 81.5737 138.402C80.6489 137.06 72.9161 143.061 71.2297 143.778C70.299 144.56 71.7602 145.31 72.4152 144.655L72.4212 144.649Z" fill="white"/>
<path d="M114.076 135.941C118.575 136.334 120.125 130.345 116.61 131.181C116.512 131.22 115.816 131.527 116.085 131.705C117.289 132.556 116.714 134.502 115.555 135.12L115.59 135.1L115.427 135.18L115.49 135.153L115.407 135.186C115.614 135.162 115.223 135.227 115.407 135.186C115.534 135.156 115.333 135.186 115.306 135.186C114.938 135.043 113.056 135.7 114.082 135.933L114.076 135.941Z" fill="white"/>
<path d="M38.9557 129.742C35.9415 129.283 32.7849 128.917 29.9188 127.915C29.5009 127.701 29.2342 127.135 29.5335 126.725C29.5957 126.612 29.6461 126.645 29.4802 126.671C30.4938 126.671 30.9295 125.321 29.6521 125.428C28.4665 125.532 27.2809 126.677 27.6959 127.915C28.9259 130.099 32.118 129.626 34.2313 130.325C35.8822 130.39 38.1555 131.726 39.4863 130.456C39.676 130.063 39.3173 129.783 38.9557 129.747V129.742Z" fill="white"/>
<path d="M32.1744 125.365C32.5745 125.068 35.3013 124.592 34.9101 123.798C34.1572 123.253 32.2425 124.512 31.4808 124.666C30.2627 125.211 31.4304 125.812 32.1714 125.362L32.1744 125.365Z" fill="white"/>
<path d="M91.4998 58.1186C99.4757 61.3137 108.59 61.6588 116.942 59.8619C118.584 59.4722 117.938 56.8869 116.308 57.3302C115.331 57.5751 114.341 57.7678 113.344 57.9073C113.284 57.9073 112.944 57.9609 113.29 57.9073C109.134 58.4124 104.93 58.3984 100.777 57.8657C98.1093 57.4849 95.4151 56.9286 92.8988 55.8843C91.7814 55.0841 89.7719 56.6995 91.482 58.0918L91.4998 58.1186Z" fill="#231300"/>
<path d="M66.7334 24.0251C35.3843 23.0553 18.496 64.2976 41.1135 85.8545C39.7382 91.4326 37.3612 97.0791 33.3659 97.0791C36.1282 100.804 48.7455 95.8326 54.3858 94.3719C107.878 111.249 122.713 26.4795 66.7334 24.0251Z" fill="#117DC1"/>
<path d="M30.6509 58.7166C30.4229 63.7234 31.2353 68.7231 33.0365 73.3977C34.8378 78.0723 37.5884 82.3195 41.1135 85.8693C39.7382 91.4475 37.3612 97.094 33.3659 97.094C36.1282 100.819 48.7455 95.8475 54.3858 94.3868C62.1092 97.1941 70.5548 97.2783 78.3322 94.6254C86.1096 91.9726 92.7554 86.7409 97.1757 79.7914C73.8587 93.759 42.0264 82.7307 30.6509 58.7166Z" fill="#1E70AC"/>
<path d="M42.2161 67.2607C42.4621 75.4746 53.5738 78.1908 59.8365 74.8796C61.5496 74.1061 67.6019 69.4473 65.1715 67.5641C63.8318 66.8025 63.1857 68.4239 62.5336 69.2896C62.0192 69.9273 61.4563 70.5241 60.8501 71.0746C59.7387 72.22 56.6592 73.523 55.3936 73.5558C54.4104 73.6837 53.4158 73.6967 52.4297 73.5944C52.3052 73.5944 51.9792 73.4725 52.3734 73.5944C51.3232 73.449 50.2949 73.1742 49.3117 72.7763C49.1161 72.7019 49.4184 72.8209 49.4302 72.8269C48.6001 72.4757 47.8158 72.0241 47.0947 71.4822C46.982 71.4019 47.1125 71.4167 47.2073 71.5685C46.1077 70.6343 45.7698 70.2952 45.1889 69.1528C45.1237 69.0189 45.0822 68.7482 45.1889 69.1528C45.0567 68.7625 44.9458 68.3652 44.8569 67.9628C44.8154 67.7516 44.8895 68.3198 44.8717 68.0907C45.3223 65.9606 42.6548 64.9253 42.2339 67.2428L42.2161 67.2607Z" fill="#231300"/>
<path d="M66.0103 67.6355C67.5485 67.6593 67.5485 65.2317 66.0103 65.2555C64.472 65.2793 64.472 67.6385 66.0103 67.6355Z" fill="black"/>
<path d="M65.1359 92.9706C65.0381 100.39 63.9266 108.997 63.0967 115.738C62.7025 118.642 62.2817 121.545 61.7689 124.431C61.6 125.377 61.271 126.421 61.7511 127.323C62.4239 128.584 63.9474 128.409 65.1537 128.442L72.1011 128.629C72.4559 128.626 72.7953 128.483 73.046 128.231C73.2966 127.978 73.4384 127.637 73.4407 127.281C73.4339 126.926 73.2907 126.588 73.041 126.337C72.7913 126.086 72.4545 125.941 72.1011 125.934L66.0399 125.77C65.4026 125.731 64.2408 125.737 63.6154 125.713L63.7695 125.731C63.6243 125.693 63.6391 125.702 63.811 125.761C64.1519 125.934 64.0363 126.011 64.1667 126.228V126.302C64.1667 126.231 64.1667 126.157 64.1667 126.085C65.9184 115.902 67.51 103.898 67.8271 92.9974C67.8538 91.257 65.1151 91.2421 65.1418 92.9974L65.1359 92.9706Z" fill="#231300"/>
<path d="M80.4148 92.5065C80.7379 97.6384 80.3703 102.806 79.6975 107.896C79.2618 111.142 78.512 115.28 77.8718 118.779C76.9174 121.632 79.333 122.542 81.7248 122.271C83.103 122.322 86.8879 122.399 88.3136 122.447C90.0504 122.447 90.0445 119.769 88.3136 119.769C87.8423 119.769 79.49 119.528 79.9791 119.543L79.8813 119.516C79.9683 119.539 80.05 119.578 80.1217 119.632C80.1934 119.686 80.2538 119.754 80.2992 119.832C80.3259 119.879 80.4177 120.296 80.3881 120.004C80.3585 119.713 80.3229 120.245 80.3881 119.93C82.0627 110.901 83.678 101.717 83.0942 92.4946C83.0912 90.7215 80.3348 90.7215 80.4148 92.5065Z" fill="#231300"/>
<path d="M64.9195 68.3734C64.8909 68.0766 64.8909 67.7777 64.9195 67.4809L64.8751 67.7992C64.8958 67.6862 64.9255 67.5821 64.9551 67.472C64.9848 67.3619 64.8128 67.713 64.9284 67.5553C64.9551 67.5166 65.0677 67.356 64.9284 67.5226C64.7891 67.6892 64.9107 67.5642 64.9284 67.5226C65.0144 67.4184 64.6854 67.6713 64.8543 67.5761C64.8869 67.5583 64.9255 67.5404 64.9581 67.5196C64.7476 67.6594 64.7565 67.5969 64.8988 67.5702L64.5817 67.6148C64.6418 67.6088 64.7023 67.6088 64.7625 67.6148L64.4453 67.5731C64.5088 67.582 64.5714 67.5969 64.632 67.6178C64.2171 67.4184 64.7565 67.7308 64.3831 67.475C64.4173 67.5187 64.4572 67.5577 64.5016 67.591C64.5965 67.6802 64.3623 67.353 64.4572 67.5345L64.5579 67.7219C64.6735 67.9391 64.469 67.4601 64.5579 67.6981C64.8194 68.3901 65.0314 69.0999 65.1922 69.8222L65.1507 69.5039C65.1715 69.6898 65.1715 69.8773 65.1507 70.0632L65.1952 69.7449C65.1884 69.8094 65.1755 69.8732 65.1567 69.9353C65.3256 69.5396 65.3345 69.6199 65.625 69.4563C65.5675 69.4622 65.5109 69.4741 65.456 69.492L65.7731 69.4474C65.6499 69.4593 65.5259 69.4593 65.4027 69.4474L65.7198 69.492C65.6353 69.4621 65.5478 69.4412 65.459 69.4295C65.871 69.6288 65.3226 69.3135 65.705 69.5723C65.6724 69.5456 65.6427 69.5128 65.6131 69.4831C65.3612 69.0101 65.0677 67.356 63.4939 67.9956C62.0623 68.9952 63.651 71.5061 65.0055 71.7976C68.7371 72.4938 67.5959 67.228 65.8947 65.6632C64.0926 64.262 62.0623 66.4992 62.498 68.4032C62.498 69.9353 64.9136 69.9323 64.8692 68.4032L64.9195 68.3734Z" fill="black"/>
<path d="M89.0605 47.5454C90.5063 47.4971 91.9532 47.5967 93.3789 47.8429C95.7737 44.3265 93.0529 38.9179 88.8263 39.1738C84.5939 39.1738 82.1842 44.7162 84.7717 48.0988C86.1792 47.7705 87.616 47.5851 89.0605 47.5454Z" fill="black"/>
<path d="M84.7955 45.4629C85.2904 44.9631 86.6005 46.3554 86.0729 46.8225C85.5453 47.2896 84.2679 45.93 84.7955 45.4629Z" fill="white"/>
<path d="M91.0552 41.4555C92.6942 41.3812 92.7742 44.2282 91.1322 44.2461C89.4932 44.3115 89.425 41.4764 91.0552 41.4555Z" fill="white"/>
<path d="M61.4458 48.3338C62.8916 48.2884 64.3382 48.388 65.7642 48.6313C68.1591 45.1178 65.4323 39.7063 61.2117 39.9621C56.9852 39.9621 54.5666 45.5045 57.1541 48.8871C58.5626 48.5587 60.0004 48.3733 61.4458 48.3338V48.3338Z" fill="black"/>
<path d="M57.1778 46.2482C57.6728 45.7484 58.9828 47.1407 58.4582 47.6048C57.9336 48.0689 56.6532 46.7153 57.1778 46.2482Z" fill="white"/>
<path d="M63.4376 42.244C65.0766 42.1696 65.1566 45.0137 63.5176 45.0345C61.8756 45.1089 61.7955 42.2648 63.4376 42.244Z" fill="white"/>
<path d="M119.224 50.6572L125.211 62.6435C126.24 64.8926 122.141 64.726 121.002 65.1246C119.592 66.3146 113.207 52.1507 112.526 51.6806L119.224 50.6572Z" fill="#3D3D3D"/>
<path d="M101.046 41.6967C95.7115 44.0767 98.6754 52.8737 104.339 51.8116L101.046 41.6967Z" fill="#3D3D3D"/>
<path d="M146.409 54.8342C146.409 54.8342 125.914 50.7049 109.686 53.6055C104.494 54.498 101.826 50.333 100.818 45.8259L101.358 47.483C99.5023 43.2555 99.2059 38.326 103.921 35.9519C118.723 28.678 132.837 13.1962 132.837 13.1962L146.409 54.8342Z" fill="url(#paint0_linear_6048_37161)"/>
<path d="M109.686 53.6144C125.914 50.7138 146.409 54.8431 146.409 54.8431L141.37 39.3434C127.79 46.3941 110.303 47.8043 101.547 48.0393C102.392 51.7491 105.898 54.3195 109.686 53.6144Z" fill="url(#paint1_linear_6048_37161)"/>
<path d="M132.852 13.1842C141.569 9.87009 155.396 52.3352 146.409 54.8342C137.692 58.1364 123.866 15.6713 132.852 13.1842Z" fill="#2571B7"/>
<path d="M137.168 26.4437L130.576 27.2678C131.08 33.4677 134.153 42.1428 137.331 46.7808L142.636 43.2435L137.168 26.4437Z" fill="#18B8EA"/>
<path d="M142.66 33.9377C146.199 44.9899 140.787 46.7659 137.144 35.7495C133.605 24.7004 139.014 22.9184 142.66 33.9377Z" fill="white"/>
<path d="M141.492 34.3215C143.552 40.6612 140.395 41.6579 138.324 35.3539C136.252 29.0498 139.42 28.0175 141.492 34.3215Z" fill="#3D3D3D"/>
<path d="M120.869 56.5627C120.941 56.5737 121.012 56.5937 121.08 56.6222L120.783 56.5002C120.85 56.5321 120.913 56.5699 120.973 56.6133L120.73 56.4258C120.848 56.5238 120.956 56.6346 121.05 56.7561L120.863 56.5151C121.337 57.1068 121.735 57.7554 122.049 58.4459L121.927 58.1484C122.036 58.4009 122.115 58.6656 122.161 58.9367L122.12 58.6184C122.126 58.6887 122.126 58.7593 122.12 58.8296L122.164 58.5113C122.156 58.5606 122.144 58.6093 122.129 58.6571L122.247 58.3596C122.235 58.3899 122.218 58.4181 122.197 58.4429L122.384 58.2019C122.362 58.2294 122.336 58.2535 122.307 58.2733L122.55 58.0859L122.502 58.1127L122.799 57.9907C122.766 58.007 122.731 58.019 122.695 58.0264L123.012 57.9818C122.959 57.9877 122.905 57.9877 122.852 57.9818L123.169 58.0234C123.103 58.0138 123.039 57.9969 122.976 57.9728L123.273 58.0918C123.213 58.0629 123.157 58.028 123.104 57.9877L123.344 58.1751C123.265 58.1065 123.193 58.0308 123.128 57.949L123.314 58.19C122.88 57.5023 122.506 56.7787 122.194 56.0272L122.312 56.3247C122.247 56.1639 122.197 55.9977 122.161 55.8279L122.206 56.1462C122.194 56.0474 122.194 55.9475 122.206 55.8487L122.161 56.167C122.174 56.1064 122.191 56.0468 122.212 55.9885L122.09 56.286C123.131 52.7993 116.64 54.2749 121.906 60.091C122.973 60.9092 124.693 60.0583 124.529 58.672C122.873 51.5736 117.938 54.8372 120.872 56.5895L120.869 56.5627Z" fill="black"/>
<path d="M80.8298 52.0853C81.0876 60.7812 68.6155 59.737 69.9256 51.0798C69.9256 50.6841 70.4383 50.4074 70.8829 50.5205C72.8983 51.0322 74.9523 50.9905 76.9974 50.8566C78.7165 50.8209 81.2447 49.0389 80.8298 52.0853Z" fill="black"/>
</svg>
