<svg width="175" height="175" viewBox="0 0 175 175" fill="none" xmlns="http://www.w3.org/2000/svg">
<path d="M137.357 117.964C136.339 115.776 135.433 114.003 134.641 112.645C134.528 112.381 134.415 112.117 134.302 111.853C136.565 107.78 137.848 103.065 137.848 98.0855V69.3805C137.848 53.6135 124.947 40.7133 109.18 40.7133H71.7997C57.9941 40.7133 46.7158 51.9916 46.7158 65.7971V90.9564C46.7158 110.684 62.86 126.791 82.5499 126.791H109.18C113.065 126.791 116.724 125.998 120.119 124.603C120.572 124.678 120.911 124.754 121.062 124.791C134.415 128.299 138.262 136.786 138.262 136.786C138.262 136.786 142.827 129.997 137.357 117.964Z" fill="#EC2327"/>
<path d="M134.679 112.683C134.566 112.419 134.453 112.155 134.34 111.891C136.603 107.817 137.885 103.102 137.885 98.1232V87.0712C128.229 104.762 104.654 117.247 77.0804 117.247C69.6118 117.247 62.4073 116.304 55.7308 114.607C62.2941 122.075 71.9128 126.79 82.5876 126.79H109.218C113.103 126.79 116.762 125.998 120.157 124.603C120.609 124.678 120.949 124.754 121.1 124.791C134.453 128.299 138.3 136.786 138.3 136.786C138.3 136.786 142.864 129.959 137.395 117.964C136.376 115.776 135.433 114.041 134.679 112.683Z" fill="#C91720"/>
<path d="M97.5625 121.623C99.4485 131.43 101.485 141.2 103.711 150.931C104.314 153.647 104.956 156.363 105.597 159.079C106.087 158.438 106.578 157.796 107.068 157.155C102.617 157.532 98.166 157.646 93.7151 157.532C92.9229 157.495 92.1308 158.249 92.1685 159.079C92.2063 159.946 92.8475 160.588 93.7151 160.625C98.166 160.776 102.617 160.625 107.068 160.248C108.086 160.173 108.803 159.343 108.539 158.324C106.238 148.63 104.088 138.861 102.089 129.054C101.523 126.3 100.995 123.584 100.467 120.831C100.316 120.039 99.3353 119.511 98.5809 119.775C97.7888 120.001 97.4116 120.755 97.5625 121.623Z" fill="#231300"/>
<path d="M83.6059 123.132C83.2664 128.677 83.6059 134.221 84.2848 139.691C84.6243 142.52 85.0769 145.349 85.5673 148.14C85.7936 149.46 86.0577 150.818 86.284 152.138C86.3971 152.817 86.548 153.459 86.6612 154.138C86.6612 154.251 86.6989 154.364 86.7366 154.439C86.6989 154.062 86.6989 154.553 86.6989 154.59C86.5857 154.251 87.0384 154.024 87.227 153.874C87.4156 153.874 87.4156 153.874 87.227 153.874C87.1893 153.874 87.1516 153.874 87.0761 153.874C83.9453 153.987 80.7769 154.062 77.6084 154.138C76.8162 154.175 76.0241 154.817 76.0618 155.684C76.0996 156.514 76.7408 157.231 77.6084 157.231C80.5505 157.155 83.4927 157.08 86.3971 157.004C87.1516 156.967 87.9437 157.004 88.5849 156.627C89.377 156.174 89.7542 155.269 89.6788 154.364C89.6411 153.685 89.4525 152.968 89.3393 152.289C89.1884 151.497 89.0376 150.705 88.9244 149.913C87.906 144.18 87.0007 138.71 86.6612 132.901C86.4349 129.657 86.4349 126.376 86.6235 123.132C86.6612 122.34 85.8691 121.547 85.0769 121.585C84.2848 121.623 83.6813 122.264 83.6059 123.132Z" fill="#231300"/>
<path d="M81.9841 62.4023C84.3982 62.855 86.85 63.0813 89.2641 63.1567C90.6975 63.1944 92.1685 62.7041 93.6019 62.4401C102.353 60.7426 111.179 60.1768 120.081 60.9312C121.817 61.0821 123.552 61.3462 125.287 61.6102C126.456 61.7988 126.758 62.1006 126.946 63.3076C127.211 64.7787 126.871 66.0235 125.551 66.9287C124.193 67.8717 123.552 69.2674 123.174 70.8139C122.684 72.7376 122.307 74.6613 121.779 76.5474C121.477 77.6412 121.062 78.7351 120.572 79.7536C119.629 81.715 118.082 82.8089 115.894 83.1861C112.273 83.8273 108.614 84.28 104.956 84.0914C102.73 83.9782 100.58 83.5633 98.6187 82.5448C95.752 81.036 94.0923 78.5465 92.9607 75.6421C92.2817 73.9069 91.7159 72.0964 91.1501 70.3235C90.8483 69.3805 90.2071 68.8525 89.2641 68.7393C88.3588 68.6639 87.4535 68.6639 86.586 68.777C85.7561 68.8525 85.228 69.3428 84.9263 70.1727C84.0587 72.5867 83.1912 74.9631 82.2482 77.3395C80.8902 80.6966 78.363 82.6203 74.855 83.3747C70.2532 84.3554 65.689 84.3931 61.0872 83.4124C60.031 83.1861 58.9371 83.0352 57.9941 82.5448C56.1458 81.6018 55.2406 79.7913 54.6748 77.9053C53.9958 75.6798 53.43 73.4166 52.9019 71.1534C52.487 69.4183 51.8458 67.8717 50.337 66.7401C49.2054 65.9103 48.9036 63.5716 49.6957 62.4023C49.9598 62.0251 50.4878 61.6102 50.9405 61.5725C55.0142 61.0821 72.2901 60.3654 81.9841 62.4023Z" fill="black"/>
<path d="M56.2966 73.9447C56.4098 76.0947 57.2396 78.1316 58.9748 79.4518C60.2572 80.4325 61.766 80.9606 63.3503 81.1115C63.8784 81.1492 64.4819 81.1869 65.01 81.036C65.538 80.9229 65.8398 80.3193 65.6889 79.829C65.538 79.3009 65.01 78.9991 64.4819 79.15C64.331 79.1877 64.1801 79.15 64.5196 79.15C64.4442 79.15 64.331 79.15 64.2556 79.1877C64.0292 79.1877 63.8029 79.1877 63.5766 79.1877C63.4634 79.1877 63.3126 79.15 63.1994 79.15C62.9731 79.1123 63.2748 79.15 63.2371 79.15C63.1617 79.15 63.0862 79.1123 63.0108 79.1123C62.709 79.0746 62.4073 78.9991 62.1055 78.886C61.9546 78.8483 61.8038 78.8105 61.6529 78.7351C61.5774 78.6974 61.502 78.6597 61.4266 78.6597C61.3134 78.6219 61.6152 78.7351 61.4643 78.6974C61.4266 78.6597 61.3511 78.6597 61.3134 78.6219C60.9739 78.4711 60.6722 78.2825 60.3704 78.0939C60.295 78.0561 60.2195 77.9807 60.1441 77.943C59.9932 77.8298 60.295 78.0561 60.1064 77.9053C59.9555 77.7921 59.8046 77.6412 59.6537 77.4903C59.5406 77.3772 59.3897 77.2263 59.2765 77.0754C59.2011 76.9623 59.3897 77.2263 59.2765 77.1131C59.2388 77.0754 59.2388 77.0377 59.2011 77.0377C59.1256 76.9245 59.0502 76.8114 58.9748 76.7359C58.8616 76.5473 58.7484 76.321 58.6353 76.0947C58.6353 76.0947 58.5598 75.9438 58.6353 76.057C58.673 76.1701 58.5976 75.9815 58.5976 75.9438C58.5598 75.8307 58.5221 75.7175 58.4844 75.5666C58.409 75.3026 58.3335 75.0385 58.2958 74.7745C58.2958 74.6991 58.2581 74.6613 58.2581 74.5859C58.2581 74.4727 58.2581 74.6991 58.2581 74.5105C58.2581 74.3219 58.2204 74.171 58.2204 73.9824C58.1826 73.4543 57.8054 73.0016 57.2396 73.0016C56.787 72.9639 56.2966 73.3788 56.2966 73.9447Z" fill="#898989"/>
<path d="M95.4124 74.6236C95.5256 76.7737 96.3555 78.8105 98.0906 80.1308C99.3731 81.1115 100.882 81.6396 102.466 81.7904C102.994 81.8282 103.598 81.8659 104.126 81.715C104.654 81.6018 104.956 80.9983 104.805 80.508C104.654 79.9799 104.126 79.6781 103.598 79.829C103.447 79.8667 103.296 79.829 103.635 79.829C103.56 79.829 103.447 79.829 103.371 79.8667C103.145 79.8667 102.919 79.8667 102.692 79.8667C102.579 79.8667 102.428 79.829 102.315 79.829C102.089 79.7913 102.391 79.829 102.353 79.829C102.278 79.829 102.202 79.7913 102.127 79.7913C101.825 79.7536 101.523 79.6781 101.221 79.5649C101.07 79.5272 100.92 79.4895 100.769 79.4141C100.693 79.3764 100.618 79.3386 100.542 79.3386C100.429 79.3009 100.731 79.4141 100.58 79.3763C100.542 79.3386 100.467 79.3386 100.429 79.3009C100.09 79.15 99.788 78.9614 99.4862 78.7728C99.4108 78.7351 99.3353 78.6597 99.2599 78.6219C99.109 78.5088 99.4108 78.7351 99.2222 78.5842C99.0713 78.4711 98.9204 78.3202 98.7695 78.1693C98.6564 78.0561 98.5055 77.9053 98.3923 77.7544C98.3169 77.6412 98.5055 77.9053 98.3923 77.7921C98.3546 77.7544 98.3546 77.7167 98.3169 77.7167C98.2415 77.6035 98.166 77.4903 98.0906 77.4149C97.9774 77.2263 97.8642 77 97.7511 76.7737C97.7511 76.7737 97.6756 76.6228 97.7511 76.7359C97.7888 76.8491 97.7134 76.6605 97.7134 76.6228C97.6757 76.5096 97.6379 76.3965 97.6002 76.2456C97.5248 75.9815 97.4493 75.7175 97.4116 75.4535C97.4116 75.378 97.3739 75.3403 97.3739 75.2649C97.3739 75.1517 97.3739 75.378 97.3739 75.1894C97.3739 75.0008 97.3362 74.8499 97.3362 74.6613C97.2985 74.1333 96.9213 73.6806 96.3554 73.6806C95.8651 73.6429 95.3747 74.0955 95.4124 74.6236Z" fill="#898989"/>
<path d="M83.5683 84.1668C86.2841 84.4686 88.9999 84.4686 91.7158 84.2045C92.357 84.1291 92.9983 83.6765 92.9606 82.9598C92.9228 82.3185 92.3947 81.6396 91.7158 81.715C88.9999 81.9791 86.2841 81.9791 83.5683 81.6773C82.927 81.6019 82.2858 82.3185 82.3235 82.9221C82.3235 83.6765 82.8516 84.0914 83.5683 84.1668Z" fill="#231300"/>
<path d="M129.22 45.0269C129.609 40.5438 113.839 35.5153 93.9969 33.7955C74.1549 32.0757 57.7549 34.3158 57.3663 38.7989C56.9777 43.282 72.7478 48.3104 92.5897 50.0303C112.432 51.7501 128.832 49.51 129.22 45.0269Z" fill="black"/>
<path d="M89.8298 14.875C87.2649 15.7426 77.7971 36.3377 77.7971 36.3377C77.7971 36.3377 81.2296 44.0704 88.9623 44.0704C96.6949 44.0704 111.293 40.6378 111.293 40.6378C111.293 40.6378 107.86 20.0427 106.125 17.44C105.446 16.4215 100.127 19.1751 98.3923 19.1751C96.6572 19.1751 92.5834 14.875 90.6597 14.875C89.8298 14.875 89.8298 14.875 89.8298 14.875Z" fill="black"/>
<path d="M79.155 33.1692C79.155 33.1692 82.2104 38.2614 93.3755 38.7895C106.125 39.393 110.915 36.1491 110.915 36.1491L110.387 34.0368C110.387 34.0368 101.863 36.1491 97.1098 36.1491C85.4166 36.1491 80.3244 30.6797 80.3244 30.6797L79.155 33.1692Z" fill="#117DC1"/>
<path d="M114.574 94.6908C114.461 94.9925 114.31 95.332 114.197 95.6338C114.159 95.7092 114.121 95.8978 114.235 95.5583C114.197 95.6337 114.159 95.7092 114.121 95.7846C114.046 95.9732 113.971 96.1241 113.895 96.3127C113.631 96.954 113.329 97.5575 113.028 98.1987C112.462 99.4058 111.858 100.575 111.179 101.744C110.538 102.876 109.821 103.97 109.067 104.988C108.992 105.101 108.69 105.403 108.992 105.101C108.878 105.215 108.803 105.366 108.69 105.479C108.501 105.705 108.275 105.969 108.086 106.195C107.671 106.648 107.256 107.101 106.804 107.516C106.615 107.704 106.427 107.893 106.2 108.044C106.087 108.157 105.974 108.232 105.861 108.308C105.823 108.345 105.785 108.383 105.71 108.421C105.484 108.609 106.012 108.195 105.71 108.421C105.257 108.76 104.805 109.062 104.314 109.364C104.05 109.515 103.824 109.628 103.56 109.779C103.447 109.817 103.371 109.892 103.258 109.93C103.107 110.005 103.032 110.118 103.334 109.892C103.258 109.93 103.183 109.967 103.107 110.005C102.579 110.194 102.051 110.382 101.523 110.495C101.334 110.533 100.882 110.722 100.693 110.646C100.806 110.684 101.033 110.609 100.844 110.609C100.769 110.609 100.655 110.646 100.58 110.646C100.429 110.646 100.278 110.684 100.127 110.684C99.5238 110.722 98.8826 110.722 98.279 110.646C98.1282 110.646 97.6755 110.495 98.1282 110.646C98.015 110.609 97.8641 110.609 97.751 110.571C97.3738 110.495 97.0343 110.42 96.6571 110.345C95.9781 110.194 95.3369 109.967 94.6956 109.703C94.5825 109.666 94.4693 109.628 94.3561 109.59C94.0544 109.477 94.6202 109.703 94.2807 109.552C94.0921 109.477 93.9035 109.402 93.7149 109.288C93.3 109.1 92.8851 108.874 92.4701 108.685C91.5649 108.195 90.6973 107.629 89.8297 107.063C87.8683 105.743 86.1332 104.234 84.2849 102.499C83.6814 101.933 82.6629 101.858 82.0971 102.499C81.5313 103.102 81.4559 104.083 82.0971 104.687C85.1525 107.591 88.5095 110.345 92.357 112.08C95.0351 113.287 98.015 114.079 100.995 113.702C106.502 112.985 110.463 108.836 113.254 104.309C114.951 101.556 116.309 98.5759 117.516 95.5583C117.818 94.8039 117.177 93.8232 116.422 93.6346C115.593 93.4083 114.914 93.8986 114.574 94.6908Z" fill="#231300"/>
<path d="M84.2848 101.028C82.7759 100.122 79.1548 98.3496 78.853 99.6698C78.6644 100.462 83.1531 104.234 85.7558 104.536C87.3778 104.724 85.7936 101.895 84.2848 101.028Z" fill="black"/>
<path d="M53.1657 92.0126C50.2235 91.9371 48.8656 89.2213 46.6401 87.9388C43.1321 85.9774 40.7935 82.7334 36.2671 82.922C37.0215 81.6396 40.3409 81.979 41.3593 82.394C43.962 83.5256 46.0743 85.4116 48.1866 87.3353C48.9033 88.0143 49.6954 88.6178 50.4498 89.2967C51.3551 90.202 52.2604 91.1073 53.1657 92.0126Z" fill="#D1D1D1"/>
<path d="M86.2462 131.77C85.2278 129.318 84.1716 126.904 83.4926 124.301C83.4172 123.999 83.3418 123.697 83.2663 123.433C83.2286 123.282 83.1909 123.094 83.1532 122.943C83.1532 122.943 83.1532 122.943 83.1154 122.943C82.5496 120.906 81.3426 114.795 81.3426 114.795C80.5882 108.459 81.1163 102.122 81.5689 95.7846C81.7575 93.0687 81.5312 90.2397 83.3795 87.9388C84.6242 86.3922 83.7944 85.8642 82.361 85.5247C79.9092 84.9212 77.646 85.7887 75.3828 86.5054C69.1213 88.5046 62.9352 90.8055 56.3342 91.4845C54.9008 91.6353 53.5052 91.6731 52.185 90.9564C49.62 90.8809 49.4691 89.4853 46.527 87.373C40.9444 83.3369 37.8891 82.5825 37.8891 82.5825C37.3987 82.8088 35.6636 82.5448 35.5127 83.601C36.5689 86.0528 36.9083 88.6177 36.8329 91.2581C36.4934 98.0478 36.4934 104.875 36.6443 111.702H36.682L36.7197 125.433C36.682 125.734 36.6443 126.036 36.5689 126.338C35.475 131.091 37.1347 134.259 41.5102 136.107C45.0559 137.842 48.6016 139.615 52.1473 141.35C55.014 142.935 57.7298 142.595 60.7852 141.464C66.3677 139.427 82.6251 135.24 84.9637 134.561C86.7743 133.995 86.8875 133.278 86.2462 131.77Z" fill="#E4E4E4"/>
<path d="M85.0015 131.883C82.097 133.656 78.5891 134.335 75.1188 135.089C75.1943 135.278 75.232 135.504 75.3074 135.692C78.5891 134.863 81.9084 133.995 85.1901 133.165C77.9478 135.919 68.9327 138.257 61.351 140.143C61.2756 139.955 62.6335 139.238 62.558 139.05C65.7265 138.22 68.9327 137.428 72.1012 136.598C72.0635 136.447 71.9881 136.258 71.9503 136.107C67.0844 137.277 64.1423 138.107 59.2764 139.314C59.2387 139.125 57.2395 139.314 57.1641 139.163C66.4809 136.711 75.7601 134.297 85.0015 131.883Z" fill="#D1D1D1"/>
<path d="M53.5807 97.2557C53.9579 109.93 54.3351 122.604 54.7123 135.315C54.486 135.315 54.2219 135.353 53.9956 135.353C53.5807 122.679 53.2035 110.005 52.7886 97.2934C53.0903 97.2934 53.3166 97.2557 53.5807 97.2557Z" fill="#D1D1D1"/>
<path d="M39.0959 89.2967C39.0959 89.2967 39.1714 95.86 39.1337 96.803C39.0959 97.746 49.6953 102.838 49.6953 102.838L50.3365 94.0871L39.1337 88.9572L39.0959 89.2967Z" fill="#D1D1D1"/>
<path d="M57.6543 95.2942L77.8345 91.0319L78.0986 92.6161L57.9183 96.539L57.6543 95.2942Z" fill="#D1D1D1"/>
<path d="M57.5791 97.482L57.4659 100.311L78.2874 95.4451L78.0611 93.8608L57.5791 97.482Z" fill="#D1D1D1"/>
<path d="M39.813 103.065L43.6981 105.705L43.5473 117.587C43.5473 117.587 38.6436 116.455 38.6814 115.512C38.7191 114.569 39.813 103.065 39.813 103.065Z" fill="#D1D1D1"/>
<path d="M45.5461 106.422L49.8085 108.157L49.3559 111.25L45.1312 109.213L45.5461 106.422Z" fill="#D1D1D1"/>
<path d="M39.6996 119.096L49.4314 123.924C49.6577 124.037 49.7709 124.263 49.7709 124.527L49.4691 132.863C49.4691 133.316 49.0542 133.58 48.677 133.429L39.6242 129.167C39.4356 129.091 39.2847 128.865 39.2847 128.639L38.8698 119.737C38.8698 119.246 39.3224 118.907 39.6996 119.096Z" fill="#D1D1D1"/>
<path d="M65.0853 111.174C59.1632 111.778 60.0685 112.532 59.3518 107.063C59.2387 106.195 59.1255 105.29 59.1255 104.422C59.1255 103.479 59.3895 102.65 60.4834 102.461C65.6133 101.556 70.6678 100.085 75.8732 99.632C77.1557 99.5189 77.7215 99.8206 77.9478 101.216C79.2303 108.534 78.8908 109.1 71.7617 109.892C69.3099 110.156 67.0467 111.438 65.0853 111.174Z" fill="#D1D1D1"/>
<path d="M68.7818 127.696C68.8572 128.412 68.9326 129.129 69.0458 129.846C69.3098 131.43 68.7441 132.335 67.1975 132.939C60.6342 135.542 61.9922 134.523 61.3132 129.544C61.3132 129.469 61.3132 129.393 61.2755 129.318C60.7474 124.49 61.3509 123.811 66.0282 123.207C67.801 122.981 68.5177 123.547 68.5177 125.319C68.5554 126.074 68.7063 126.866 68.7818 127.696Z" fill="#D1D1D1"/>
<path d="M78.6267 113.211C72.5915 114.192 66.5563 115.135 60.5588 116.116C60.3325 114.795 60.8228 114.682 61.2378 114.607C66.4054 113.739 71.5731 112.909 76.7407 112.08C77.382 111.966 78.0232 111.966 78.589 112.608C78.6267 112.834 78.6267 113.023 78.6267 113.211Z" fill="#D1D1D1"/>
<path d="M78.589 115.814C72.5538 116.795 66.5186 117.738 60.5211 118.718C60.2948 117.398 60.7851 117.285 61.2 117.21C66.3677 116.342 71.5354 115.512 76.703 114.682C77.3442 114.569 77.9855 114.569 78.5513 115.21C78.589 115.399 78.589 115.625 78.589 115.814Z" fill="#D1D1D1"/>
<path d="M79.117 118.643C73.0817 119.624 67.0465 120.567 61.049 121.547C60.8227 120.227 61.3131 120.114 61.728 120.039C66.8957 119.171 72.0633 118.341 77.231 117.511C77.8722 117.398 78.5134 117.398 79.0792 118.039C79.0792 118.266 79.117 118.454 79.117 118.643Z" fill="#D1D1D1"/>
<path d="M77.6084 101.292C75.1943 102.122 75.3075 104.951 76.4013 106.573C77.4952 108.195 80.3242 108.836 82.7383 108.006C85.1524 107.176 87.3779 105.177 86.0577 103.215C84.9638 101.556 79.9847 100.462 77.6084 101.292Z" fill="black"/>
<path d="M37.097 98.425C37.1725 98.01 37.3234 97.7083 37.6628 97.5197C37.3234 97.4442 36.9462 97.3311 36.6067 97.2556C36.9084 97.8214 37.1348 98.425 37.1725 99.0285C37.2102 99.368 37.1725 99.7074 37.1348 99.9715C37.1348 100.047 37.097 100.122 37.097 100.198C37.097 100.236 37.0216 100.386 37.0593 100.311C37.0593 100.311 36.9462 100.5 36.9839 100.424C36.9839 100.462 36.833 100.537 36.8707 100.537C36.9084 100.5 37.0216 100.462 36.8707 100.537C36.9839 100.5 36.9084 100.537 36.833 100.537C36.7576 100.537 36.9084 100.575 36.7953 100.537C36.569 100.424 36.9084 100.613 36.7198 100.5C36.6821 100.5 36.6821 100.462 36.6444 100.462C36.6821 100.5 36.6821 100.5 36.6444 100.462C36.6067 100.424 36.5312 100.386 36.4935 100.311C36.569 100.386 36.4181 100.198 36.4181 100.198C36.4181 100.16 36.3804 100.16 36.3804 100.122C36.4181 100.16 36.4181 100.16 36.3804 100.122C36.1918 99.5188 36.569 98.8022 36.833 98.2741C36.3804 98.2741 35.9277 98.2741 35.4751 98.2741C35.8146 98.8399 35.89 99.5188 35.5882 100.085C36.0032 100.047 36.4181 99.9715 36.833 99.9338C36.4558 99.5566 36.1918 99.1416 36.0786 98.6136C36.0032 98.1986 36.154 97.9723 36.3804 97.7083C36.4181 97.6706 36.5312 97.5951 36.4181 97.6706C36.4558 97.6328 36.4935 97.6328 36.5312 97.5951C36.569 97.5574 36.6067 97.5574 36.6444 97.5197C36.5312 97.5574 36.6444 97.5197 36.6444 97.5197C36.6444 97.5197 36.8707 97.482 36.7576 97.482C36.6444 97.5197 36.8707 97.482 36.8707 97.482C36.9084 97.482 37.0216 97.5197 36.8707 97.482C36.9084 97.482 37.097 97.5574 36.9462 97.482C37.097 97.5574 37.1725 97.6328 37.2479 97.7837C37.2479 97.8214 37.3234 97.9723 37.2856 97.8592C37.3234 97.8969 37.3234 97.9723 37.3234 98.01C37.3611 98.1609 37.3988 98.2741 37.3988 98.425C37.3988 98.3118 37.3988 98.4627 37.3988 98.4627C37.3988 98.5004 37.3988 98.5758 37.3988 98.6136C37.3988 98.7644 37.3988 98.9153 37.3988 99.0662C37.3988 99.3303 37.3988 99.632 37.3611 99.8583C37.3234 100.122 37.2479 100.386 37.097 100.613C36.9839 100.764 36.833 100.914 36.6821 100.99C36.569 101.065 36.6067 101.028 36.4558 101.103C36.4181 101.103 36.3426 101.141 36.3049 101.141C36.4181 101.141 36.3049 101.141 36.2672 101.141C36.2295 101.141 36.154 101.141 36.1163 101.103C36.1918 101.141 36.0032 101.028 36.0032 101.028C35.89 100.952 36.0032 101.065 35.9654 100.99C35.9277 100.952 35.89 100.914 35.8523 100.877C35.89 100.914 35.89 100.99 35.8523 100.877C35.8523 100.839 35.7391 100.613 35.7768 100.726C35.7391 100.613 35.7014 100.5 35.6637 100.349C35.6637 100.311 35.626 100.236 35.626 100.198C35.6637 100.349 35.626 100.122 35.626 100.085C35.5128 98.7267 35.9277 97.3311 36.4181 96.0863C36.569 95.7091 36.2672 95.2188 35.89 95.1433C35.4374 95.0302 35.0602 95.2942 34.947 95.6714C34.6452 96.5012 34.3812 97.3688 34.268 98.2364C34.1549 99.0285 34.0417 99.8206 34.1926 100.613C34.3058 101.292 34.6452 101.933 35.211 102.348C35.89 102.8 36.7953 102.763 37.512 102.386C39.0208 101.556 39.2094 99.5188 38.9453 98.01C38.8322 97.2556 38.455 96.5012 37.7383 96.1618C37.0593 95.8223 36.2295 95.9354 35.5882 96.3504C34.8716 96.8407 34.4189 97.6328 34.4566 98.5381C34.4944 99.5188 34.9847 100.386 35.6637 101.065C36.0032 101.405 36.6444 101.367 36.9084 100.914C37.4365 99.8583 37.4365 98.5758 36.7953 97.5197C36.4935 97.067 35.7391 96.9916 35.4374 97.5197C34.947 98.4627 34.4566 99.5943 34.8716 100.65C35.2488 101.593 36.2672 102.31 37.2856 102.008C38.3795 101.707 38.6813 100.462 38.719 99.4434C38.7567 98.3872 38.455 97.3311 37.9269 96.4258C37.7383 96.0863 37.2102 95.9354 36.8707 96.1618C36.2295 96.5767 35.7391 97.2179 35.5882 98.01C35.5128 98.425 35.7014 98.8399 36.1163 98.953C36.5312 99.0662 37.0216 98.8399 37.097 98.425Z" fill="#231300"/>
</svg>
