<svg width="175" height="175" viewBox="0 0 175 175" fill="none" xmlns="http://www.w3.org/2000/svg">
<path d="M70.0611 56.6314C71.6399 56.6314 71.6399 54.2098 70.0611 54.2098C68.4822 54.2098 68.4822 56.6314 70.0611 56.6314Z" fill="#231300"/>
<path d="M35.5397 39C16.6788 39 1.35962 54.2519 1.35962 73.0725C1.35962 82.4616 5.15741 90.916 11.3021 97.0762C9.97932 102.302 7.76038 107.612 3.9626 107.612C6.56557 111.096 18.5137 106.423 23.8476 105.063C27.4747 106.38 31.4432 107.103 35.5397 107.103C54.4433 107.103 69.7625 91.8506 69.7625 73.03C69.7625 54.2519 54.4433 39 35.5397 39Z" fill="#117DC1"/>
<path d="M1.40229 71.5853C1.40229 72.0951 1.35962 72.5624 1.35962 73.0723C1.35962 82.4613 5.15741 90.9157 11.3021 97.0759C9.97932 102.302 7.76038 107.612 3.9626 107.612C6.56557 111.096 18.5137 106.423 23.8476 105.063C27.4747 106.38 31.4432 107.102 35.5397 107.102C47.6585 107.102 58.2838 100.815 64.3858 91.3405C57.8144 95.0367 50.3041 97.1184 42.3245 97.1184C24.6157 97.1609 9.21122 86.8372 1.40229 71.5853Z" fill="#1E70AC"/>
<path d="M101.041 77.9159C100.273 79.7427 99.4619 81.612 98.5231 83.3964C98.0964 84.2036 97.627 85.0108 97.1577 85.7755C96.9443 86.0729 96.7736 86.3703 96.5602 86.7101C96.4322 86.8801 96.3469 87.0075 96.2189 87.1775C96.0055 87.4749 96.3896 87.0075 96.1335 87.2624C96.0482 87.3474 96.0055 87.4324 95.9202 87.5173C95.7068 87.7722 95.4935 87.9847 95.2801 88.2396C95.1947 88.3245 95.0667 88.452 94.9814 88.537C94.896 88.6219 94.4693 88.9618 94.768 88.7494C94.5547 88.9193 94.3413 89.0468 94.0853 89.1742C94.0426 89.2167 93.9999 89.2167 93.9573 89.2592C93.7439 89.3867 94.1706 89.2167 94.0426 89.2167C93.9146 89.2167 93.7866 89.3017 93.6586 89.3442C93.6159 89.3442 93.5306 89.3442 93.4879 89.3867C93.3599 89.4291 93.8293 89.3867 93.5732 89.3867C93.4452 89.3867 93.3599 89.3867 93.2319 89.3867C92.9332 89.3867 93.4879 89.4716 93.1465 89.3867C93.0185 89.3442 92.9332 89.3017 92.8051 89.3017C93.1892 89.3867 92.8051 89.3017 92.7198 89.2592C92.5918 89.1742 92.5064 89.1317 92.3784 89.0468C92.6771 89.2592 92.3357 89.0043 92.2504 88.9193C92.1224 88.7919 92.037 88.7069 91.909 88.5794C91.8237 88.4945 91.781 88.4095 91.6957 88.367C91.8664 88.5794 91.653 88.3245 91.653 88.2821C91.525 88.1121 91.397 87.8997 91.2689 87.6873C91.0129 87.2624 90.7996 86.8376 90.5862 86.3703C90.0315 85.2232 89.6474 83.9911 89.2634 82.7166C88.794 81.1447 86.319 81.8244 86.7884 83.3964C87.4285 85.6055 88.1966 87.8997 89.6048 89.7265C90.5435 90.9161 91.8237 92.0207 93.4025 91.9357C94.8534 91.8932 96.1335 91.0435 97.115 90.0239C98.3951 88.7494 99.3766 87.1775 100.23 85.648C101.51 83.3964 102.534 81.0172 103.516 78.6381C103.772 78.0008 103.217 77.2361 102.62 77.0662C101.852 76.8538 101.297 77.2786 101.041 77.9159Z" fill="black"/>
<path d="M170.254 101.325C169.444 99.583 168.718 98.181 168.121 97.1189C168.035 96.9065 167.95 96.6941 167.865 96.4816C169.657 93.2528 170.681 89.5142 170.681 85.5631V62.749C170.681 50.2161 160.397 39.9774 147.809 39.9774H117.981C106.972 39.9774 97.9684 48.9416 97.9684 59.9026V79.8702C97.9684 95.547 110.855 108.335 126.558 108.335H147.809C150.881 108.335 153.826 107.698 156.514 106.593C156.855 106.635 157.154 106.72 157.282 106.72C167.95 109.524 170.98 116.279 170.98 116.279C170.98 116.279 174.607 110.841 170.254 101.325Z" fill="#EC2327"/>
<path d="M168.121 97.1184C168.035 96.906 167.95 96.6936 167.865 96.4811C169.657 93.2523 170.681 89.5137 170.681 85.5626V76.7684C162.957 90.8307 144.182 100.73 122.163 100.73C116.189 100.73 110.471 100.007 105.137 98.6478C110.386 104.553 118.067 108.334 126.558 108.334H147.809C150.881 108.334 153.826 107.697 156.514 106.592C156.855 106.635 157.154 106.72 157.282 106.72C167.95 109.524 170.98 116.279 170.98 116.279C170.98 116.279 174.607 110.841 170.254 101.324C169.444 99.5825 168.718 98.1805 168.121 97.1184Z" fill="#C91720"/>
<path d="M138.507 104.214C140 111.988 141.622 119.72 143.371 127.41C143.883 129.577 144.395 131.786 144.908 133.953C145.292 133.443 145.676 132.933 146.102 132.423C142.561 132.721 139.019 132.806 135.434 132.721C133.856 132.678 133.856 135.1 135.434 135.142C138.976 135.27 142.561 135.142 146.102 134.845C146.913 134.76 147.468 134.123 147.297 133.315C145.462 125.626 143.755 117.894 142.177 110.161C141.75 107.952 141.28 105.786 140.896 103.576C140.768 102.939 140 102.557 139.403 102.727C138.72 102.897 138.421 103.534 138.507 104.214Z" fill="black"/>
<path d="M124.254 106.126C122.334 110.799 121.097 115.685 120.158 120.613C119.688 123.12 119.304 125.626 118.92 128.133C118.835 128.727 118.75 129.322 118.664 129.875C118.622 130.002 118.536 130.384 118.579 130.427C118.451 129.96 119.646 130.214 119.134 130.045C118.963 130.002 118.792 130.002 118.622 130.002C118.323 130.002 118.75 130.045 118.75 130.045C118.75 130.045 118.536 130.002 118.494 130.002C118.28 129.96 118.109 129.875 117.896 129.79C117.811 129.747 117.683 129.705 117.981 129.832C117.896 129.79 117.811 129.747 117.768 129.747C117.597 129.662 117.469 129.62 117.299 129.535C116.915 129.365 116.573 129.195 116.189 129.025C115.08 128.473 113.928 127.963 112.776 127.453C112.178 127.198 111.453 127.283 111.111 127.878C110.813 128.388 110.941 129.28 111.538 129.535C113.288 130.299 114.994 131.192 116.744 131.956C118.195 132.594 120.328 133.146 120.926 131.149C121.097 130.597 121.139 129.96 121.225 129.365C121.31 128.685 121.438 128.005 121.523 127.326C121.737 126.008 121.95 124.649 122.163 123.332C122.633 120.655 123.145 118.021 123.828 115.43C124.553 112.498 125.492 109.61 126.644 106.848C126.9 106.253 126.388 105.531 125.79 105.361C125.065 105.106 124.51 105.531 124.254 106.126Z" fill="black"/>
<path d="M81.113 79.6581C78.8514 80.0829 78.6807 82.1646 79.4915 83.4816C80.3449 84.7562 82.8199 85.4784 85.0815 85.0536C87.3431 84.6287 89.562 83.3117 88.5379 81.7398C87.7271 80.4228 83.3746 79.2332 81.113 79.6581Z" fill="black"/>
<path d="M87.1724 79.9554C85.8923 79.1907 82.8199 77.5338 82.3932 78.511C82.1798 79.0633 85.8069 82.2496 88.1539 82.6744C89.6474 82.9718 88.4526 80.7626 87.1724 79.9554Z" fill="black"/>
<path d="M162.403 74.4321C165.433 77.3635 168.377 80.4649 170.084 84.331C169.956 84.0761 170.084 84.3735 170.126 84.4159C170.169 84.5009 170.212 84.5859 170.212 84.6708C170.297 84.8408 170.34 85.0107 170.382 85.1807C170.51 85.563 170.596 85.9029 170.638 86.2852C170.638 86.3702 170.681 86.6251 170.638 86.2852C170.638 86.3702 170.638 86.4552 170.681 86.5402C170.681 86.7101 170.681 86.8375 170.681 87.0075C170.681 87.1774 170.681 87.3049 170.638 87.4748C170.638 87.7297 170.681 87.2199 170.638 87.4748C170.596 87.5598 170.596 87.6448 170.596 87.7722C170.553 87.8997 170.51 88.0271 170.468 88.197C170.425 88.282 170.34 88.4944 170.468 88.197C170.425 88.2395 170.425 88.3245 170.382 88.4095C170.297 88.5369 170.254 88.6644 170.169 88.7918C170.126 88.8343 170.126 88.8768 170.084 88.9193C170.254 88.6219 170.084 88.9193 170.041 88.9618C169.956 89.0892 169.828 89.1742 169.7 89.3016C169.657 89.3441 169.572 89.3866 169.529 89.4716C169.742 89.2592 169.572 89.4291 169.486 89.4716C169.145 89.684 168.846 89.8964 168.462 90.0664C168.164 90.1938 168.676 89.9814 168.377 90.1088C168.249 90.1513 168.121 90.1938 167.993 90.2363C167.737 90.3213 167.523 90.4062 167.267 90.4487C166.713 90.5762 166.158 90.7036 165.561 90.7886C164.323 90.9585 162.702 91.001 161.336 90.9585C159.843 90.9161 159.843 93.2527 161.336 93.2952C165.091 93.3801 170.937 93.2527 172.644 89.0892C173.241 87.6448 173.028 85.9454 172.559 84.5009C171.919 82.5891 170.852 80.8472 169.7 79.2328C167.993 76.9387 166.073 74.8145 164.024 72.8177C163 71.7131 161.336 73.37 162.403 74.4321Z" fill="black"/>
<path d="M162.403 93.9325C162.232 93.89 162.104 93.805 161.933 93.7625C162.019 93.805 162.104 93.8475 162.232 93.89C161.976 93.7625 161.72 93.6351 161.507 93.4651C161.592 93.5076 161.677 93.5926 161.763 93.6351C161.635 93.5076 161.507 93.3802 161.379 93.2527C161.421 93.3377 161.507 93.4227 161.549 93.5076C161.464 93.3802 161.421 93.2952 161.336 93.1678C161.379 93.2527 161.421 93.3377 161.464 93.4651C161.421 93.3377 161.379 93.1678 161.336 93.0403C161.336 93.1253 161.379 93.2527 161.379 93.3377C161.379 93.2102 161.379 93.1253 161.379 92.9978C161.379 93.0828 161.336 93.2102 161.336 93.2952C161.336 93.2102 161.379 93.1253 161.421 92.9978C161.379 93.0828 161.336 93.1678 161.293 93.2952C161.336 93.2102 161.379 93.1253 161.421 93.0403C161.379 93.1253 161.293 93.2102 161.251 93.2952C161.293 93.2102 161.379 93.1678 161.464 93.0828C161.379 93.1253 161.293 93.2102 161.208 93.2527C161.293 93.1678 161.421 93.1253 161.507 93.0828C161.421 93.1253 161.336 93.1678 161.208 93.2102C161.379 93.1253 161.549 93.0828 161.763 93.0828C161.677 93.0828 161.549 93.1253 161.464 93.1253C161.763 93.0828 162.104 93.0828 162.403 93.1253C162.318 93.1253 162.19 93.0828 162.104 93.0828C162.19 93.0828 162.275 93.1253 162.36 93.1678C162.275 93.1253 162.19 93.0828 162.062 93.0403C162.147 93.0828 162.19 93.0828 162.232 93.1678C162.147 93.1253 162.062 93.0403 161.976 92.9978C162.019 93.0403 162.062 93.0828 162.104 93.1253C162.062 93.0403 161.976 92.9553 161.933 92.8704C162.104 93.0828 162.19 93.2952 162.275 93.5501C162.403 93.805 162.531 94.1024 162.659 94.3573C162.616 94.2724 162.574 94.1874 162.531 94.0599C162.574 94.1449 162.574 94.1874 162.574 94.2723C162.574 94.1874 162.531 94.0599 162.531 93.975C162.531 94.0174 162.531 94.0599 162.531 94.0599C162.531 93.975 162.574 93.8475 162.574 93.7625V93.805C162.616 93.7201 162.659 93.6351 162.702 93.5076C162.702 93.5076 162.702 93.5501 162.659 93.5501C162.702 93.4651 162.787 93.3802 162.83 93.2952C162.83 93.3377 162.787 93.3377 162.787 93.3377C162.872 93.2952 162.958 93.2102 163.043 93.1678C163 93.1678 163 93.2102 162.958 93.2102C163.043 93.1678 163.128 93.1253 163.256 93.0828C163.086 93.1678 162.872 93.1678 162.702 93.2102C162.787 93.2102 162.915 93.1678 163 93.1678C162.702 93.2102 162.36 93.2102 162.062 93.1678C162.147 93.1678 162.275 93.2102 162.36 93.2102C162.19 93.1678 162.019 93.1678 161.891 93.0828C161.976 93.1253 162.062 93.1678 162.19 93.2102C162.147 93.1678 162.061 93.1678 162.019 93.1253C162.104 93.1678 162.19 93.2527 162.275 93.2952C162.232 93.2527 162.19 93.2102 162.19 93.2102C162.232 93.2952 162.318 93.3802 162.36 93.4651C162.318 93.4227 162.318 93.3802 162.275 93.3377C162.318 93.4227 162.36 93.5076 162.403 93.6351C162.403 93.5926 162.36 93.5501 162.36 93.5076C162.36 93.5926 162.403 93.7201 162.403 93.805C162.403 93.7625 162.403 93.7625 162.403 93.7201C162.403 93.805 162.36 93.9325 162.36 94.0174C162.403 93.975 162.403 93.9325 162.403 93.9325C162.36 94.0174 162.318 94.1024 162.275 94.1874C162.275 94.1449 162.318 94.1449 162.318 94.1024C162.275 94.1874 162.19 94.2724 162.147 94.3573C162.147 94.3148 162.19 94.3148 162.232 94.2723C162.147 94.3148 162.062 94.3998 161.976 94.4423C162.019 94.4423 162.019 94.3998 162.062 94.3998C161.976 94.4423 161.891 94.4848 161.763 94.5273C161.848 94.4848 161.933 94.4848 162.019 94.4848C161.933 94.4848 161.805 94.5273 161.72 94.5273C161.848 94.5273 162.019 94.5273 162.147 94.5273C162.062 94.5273 161.933 94.4848 161.848 94.4848C162.019 94.5273 162.147 94.5697 162.318 94.6122C162.232 94.5697 162.147 94.5273 162.019 94.4848C162.19 94.5697 162.318 94.6122 162.446 94.7397C162.36 94.6972 162.275 94.6122 162.19 94.5697C162.318 94.6547 162.403 94.7822 162.488 94.8671C162.446 94.7822 162.36 94.6972 162.318 94.6122C162.36 94.6972 162.446 94.7822 162.488 94.8671C162.446 94.7822 162.403 94.6972 162.36 94.5697C162.403 94.6122 162.403 94.6547 162.403 94.7397C162.403 94.6547 162.36 94.5273 162.36 94.4423C162.36 94.4848 162.36 94.5273 162.36 94.5697C162.36 94.4848 162.403 94.3573 162.403 94.2723C162.403 94.3148 162.403 94.3573 162.36 94.3573C162.403 94.2724 162.446 94.1874 162.488 94.0599C162.488 94.1024 162.446 94.1024 162.446 94.1449C162.488 94.0599 162.574 93.975 162.616 93.89C162.574 93.9325 162.531 93.975 162.488 93.975C162.574 93.9325 162.659 93.8475 162.744 93.805C162.616 93.89 162.531 93.9325 162.403 94.0174C162.488 93.975 162.574 93.9325 162.702 93.89C162.574 93.9325 162.403 93.975 162.275 94.0174C162.36 94.0174 162.488 93.975 162.574 93.975C162.403 93.975 162.275 93.975 162.104 93.975C162.19 93.975 162.318 94.0174 162.403 94.0174C162.232 93.975 162.104 93.9325 161.976 93.89C162.062 93.9325 162.147 93.975 162.275 94.0174C162.232 94.0174 162.232 93.975 162.19 93.975C161.891 93.8475 161.592 93.7625 161.293 93.8475C161.037 93.9325 160.739 94.1449 160.611 94.3998C160.312 94.9096 160.44 95.7168 161.037 96.0142C161.933 96.439 162.958 96.4815 163.811 96.0142C164.451 95.6743 164.878 95.0796 164.75 94.3148C164.664 93.805 164.366 93.3377 163.982 92.9978C163.256 92.3606 162.318 92.0632 161.379 92.2756C160.653 92.403 160.099 93.0403 160.099 93.7625C160.099 94.3998 160.483 94.9946 161.08 95.2495C161.549 95.4619 162.062 95.5469 162.616 95.5469C162.83 95.5469 163.043 95.5469 163.299 95.5044C163.512 95.4619 163.768 95.4619 163.982 95.3769C164.366 95.2495 164.707 95.0371 164.878 94.6547C165.049 94.2724 165.091 93.8475 164.963 93.4651C164.793 93.0403 164.579 92.6155 164.366 92.1906C164.152 91.7658 163.896 91.3409 163.47 91.086C163.043 90.8311 162.531 90.7462 162.062 90.7462C161.208 90.7462 160.355 90.9161 159.757 91.5109C158.946 92.2756 158.904 93.5926 159.459 94.5273C159.971 95.4194 160.909 95.8867 161.848 96.1841C162.446 96.3966 163.171 95.9717 163.299 95.3769C163.342 94.7397 163 94.1449 162.403 93.9325Z" fill="#231300"/>
<path d="M164.75 94.5697C166.243 94.5697 166.243 92.233 164.75 92.233C163.256 92.233 163.256 94.5697 164.75 94.5697Z" fill="#231300"/>
<path d="M34.0462 103.237C34.0462 107.868 33.4915 112.498 33.0221 117.087C32.4674 122.27 31.7846 127.325 30.8885 132.466C30.7605 133.273 30.5045 134.123 30.9739 134.888C31.614 135.907 32.8941 135.78 33.9182 135.822C36.1372 135.865 38.3134 135.95 40.5323 135.992C42.1539 136.035 42.1112 133.571 40.5323 133.528C38.6975 133.486 36.8199 133.443 34.985 133.358C34.5583 133.358 34.1316 133.316 33.7049 133.316C33.4488 133.316 33.1928 133.316 32.9795 133.316C32.9795 133.316 32.7234 133.273 32.7234 133.316C32.7661 133.273 33.1501 133.698 33.1928 133.698C33.2782 133.741 33.1075 133.783 33.2355 133.698C33.2355 133.698 33.2782 133.571 33.2355 133.698C33.2782 133.571 33.2782 133.486 33.2782 133.358C33.3208 133.103 33.3635 132.806 33.4062 132.551C33.8329 130.214 34.1743 127.878 34.473 125.541C35.1984 120.315 35.7958 115.047 36.2225 109.779C36.3932 107.613 36.5639 105.403 36.5639 103.237C36.5212 101.665 34.0462 101.622 34.0462 103.237Z" fill="black"/>
<path d="M48.2132 102.812C48.5119 107.485 48.1705 112.201 47.5731 116.831C47.2744 119.168 46.8477 121.505 46.4637 123.841C46.2503 125.031 45.9943 126.221 45.8236 127.41C45.6102 128.642 46.0369 129.874 47.4451 130.087C48.7253 130.257 50.1334 130.172 51.4136 130.214C52.7791 130.257 54.1873 130.299 55.5528 130.342C57.1743 130.384 57.1316 127.92 55.5528 127.877C53.2911 127.835 50.9869 127.75 48.7253 127.708C48.4692 127.708 48.2132 127.708 47.9998 127.708C47.9572 127.708 47.7011 127.708 47.7438 127.708C47.9572 127.623 48.0852 128.09 48.2132 128.132C48.2559 128.132 48.2559 127.962 48.2132 128.047C48.1705 128.175 48.2559 127.835 48.2559 127.877C48.3412 127.538 48.3839 127.198 48.4266 126.858C48.6399 125.796 48.8106 124.734 49.024 123.671C49.7921 119.253 50.4748 114.835 50.7308 110.374C50.8589 107.867 50.9015 105.361 50.7308 102.854C50.6882 102.174 50.1761 101.622 49.4934 101.622C48.8106 101.58 48.1705 102.132 48.2132 102.812Z" fill="black"/>
<path d="M136.501 64.1929C136.714 64.0654 137.141 64.1504 137.483 64.2778C137.824 64.4478 137.824 64.5752 138.08 64.7027C138.336 64.8726 138.677 65.255 139.317 65.0425C139.872 64.8726 145.505 62.9183 147.51 62.1961C147.98 62.0262 149.217 61.6863 149.729 61.8137C150.54 62.0262 150.924 62.6634 150.924 63.0883C151.479 67.4217 149.815 68.2289 146.956 69.291C142.176 70.7354 140.342 67.5491 140.171 67.2942C140 67.0818 139.275 66.6569 138.592 66.487C137.909 66.3171 137.013 65.9772 136.629 65.5948C136.416 65.3824 135.989 64.4902 136.501 64.1929Z" fill="black"/>
<path d="M141.835 66.3597C141.792 66.2323 141.835 65.9774 142.006 65.8075C142.176 65.68 149.772 61.8139 149.772 64.193C149.772 64.448 149.772 65.3826 149.559 65.8499C149.345 66.3173 149.089 66.7846 148.663 67.167C148.236 67.5493 146.444 68.2715 145.163 68.4415C143.03 68.7814 141.92 66.6571 141.835 66.3597Z" fill="white"/>
<path d="M122.377 64.5328C122.163 64.4053 121.737 64.4478 121.438 64.5753C121.097 64.7027 121.054 64.8302 120.798 64.9576C120.542 65.0851 120.201 65.4249 119.56 65.2125C119.048 65.0426 113.544 62.9184 111.624 62.1536C111.154 61.9837 109.959 61.6014 109.447 61.6863C108.636 61.8138 108.21 62.4086 108.21 62.8334C107.442 66.9119 109.106 67.7616 111.837 68.9087C116.488 70.4806 118.408 67.5492 118.579 67.3367C118.75 67.1243 119.475 66.7845 120.201 66.657C120.883 66.5295 121.779 66.2322 122.163 65.8923C122.377 65.6374 122.889 64.8302 122.377 64.5328Z" fill="black"/>
<path d="M117.043 66.3595C117.086 66.2321 117.086 65.9772 116.915 65.8497C116.744 65.7223 109.447 61.6862 109.362 63.9804C109.362 64.2353 109.319 65.1275 109.49 65.5523C109.661 66.0197 109.917 66.4445 110.343 66.8269C110.77 67.2092 112.477 67.9739 113.714 68.1864C115.72 68.5687 116.915 66.6144 117.043 66.3595Z" fill="white"/>
<path d="M143.883 67.6762C144.873 67.6762 145.676 66.8773 145.676 65.8919C145.676 64.9064 144.873 64.1075 143.883 64.1075C142.894 64.1075 142.091 64.9064 142.091 65.8919C142.091 66.8773 142.894 67.6762 143.883 67.6762Z" fill="black"/>
<path d="M111.794 66.3172C112.784 66.3172 113.586 65.5183 113.586 64.5329C113.586 63.5474 112.784 62.7485 111.794 62.7485C110.804 62.7485 110.002 63.5474 110.002 64.5329C110.002 65.5183 110.804 66.3172 111.794 66.3172Z" fill="black"/>
<path d="M132.959 70.5659C132.874 70.6084 132.661 70.6934 132.917 70.6084C132.831 70.6509 132.746 70.6934 132.661 70.6934C132.405 70.7783 132.191 70.8208 131.935 70.8633C131.295 70.9907 130.826 71.0332 130.1 71.0757C128.692 71.1607 127.156 71.1607 125.791 70.9058C125.278 70.8208 124.809 71.0332 124.638 71.543C124.51 72.0104 124.809 72.6052 125.278 72.6901C126.9 72.9875 128.564 73.03 130.186 72.945C131.381 72.8601 132.831 72.7751 133.898 72.1803C134.922 71.5855 134.026 69.9711 132.959 70.5659Z" fill="#231300"/>
<path d="M55.4247 57.0135C56.7475 56.8861 57.985 56.9286 59.1371 57.0135C59.6065 56.2063 59.8199 55.2292 59.7345 54.2096C59.4785 51.618 57.2596 49.6637 54.7846 49.9186C52.3096 50.1311 50.4747 52.4677 50.7308 55.0593C50.8161 56.0789 51.2428 56.9711 51.7976 57.6933C52.907 57.3959 54.1018 57.141 55.4247 57.0135Z" fill="black"/>
<path d="M52.8528 56.5783C53.0293 56.3893 52.9066 55.99 52.5788 55.6864C52.2509 55.3828 51.842 55.2899 51.6655 55.4789C51.4889 55.6679 51.6116 56.0672 51.9395 56.3708C52.2673 56.6744 52.6762 56.7673 52.8528 56.5783Z" fill="white"/>
<path d="M57.0286 54.1186C57.6152 54.0642 58.0412 53.4898 57.98 52.8357C57.9188 52.1815 57.3936 51.6953 56.807 51.7497C56.2203 51.8041 55.7944 52.3785 55.8556 53.0327C55.9168 53.6868 56.4419 54.173 57.0286 54.1186Z" fill="white"/>
<path d="M31.9126 59.2226C33.2354 59.0952 34.4729 59.1376 35.625 59.2226C36.0944 58.4154 36.3078 57.4383 36.2224 56.4186C35.9664 53.8271 33.7475 51.8728 31.2725 52.1277C28.7975 52.3401 26.9627 54.6768 27.2187 57.2683C27.304 58.288 27.7307 59.1801 28.2855 59.9024C29.3523 59.5625 30.5897 59.3501 31.9126 59.2226Z" fill="black"/>
<path d="M29.2933 58.7625C29.4699 58.5736 29.3472 58.1743 29.0193 57.8707C28.6915 57.5671 28.2826 57.4742 28.106 57.6631C27.9295 57.8521 28.0522 58.2514 28.38 58.555C28.7079 58.8586 29.1168 58.9515 29.2933 58.7625Z" fill="white"/>
<path d="M33.4762 56.3295C34.0628 56.2751 34.4888 55.7007 34.4276 55.0465C34.3664 54.3924 33.8412 53.9062 33.2546 53.9606C32.6679 54.015 32.242 54.5894 32.3032 55.2435C32.3644 55.8977 32.8896 56.3839 33.4762 56.3295Z" fill="white"/>
<path d="M49.92 59.945C50.2614 61.6443 49.8347 63.1313 48.5972 64.3633C47.6157 65.3405 46.4209 65.7653 45.0554 65.6804C42.9218 65.5529 41.5137 64.4058 40.7882 62.4515C40.5322 61.7293 40.4895 60.8796 40.4042 60.1149C40.3615 59.775 40.7882 59.4776 41.1723 59.5201C42.9645 59.775 44.7567 59.5201 46.5063 59.2227C47.2744 59.0953 48.0424 58.7554 48.7679 58.5005C49.3226 58.2881 49.7493 58.458 49.8347 59.0953C49.8347 59.3927 49.8773 59.6901 49.92 59.945Z" fill="black"/>
<path d="M90.4583 73.5826L85.0817 71.5009L80.1317 60.7948C79.5343 59.5203 77.9981 58.8405 76.6326 59.2229L63.6178 63.2164L56.7903 60.5824L54.6567 66.9125C54.486 67.4224 54.486 67.9747 54.742 68.5694L62.8923 86.9652C63.4471 88.2397 64.9832 88.9195 66.3061 88.4521L86.8312 81.3572C87.5566 81.1023 88.0687 80.55 88.282 79.9128L90.4583 73.5826Z" fill="#1D914C"/>
<path d="M56.9183 62.2817L65.0686 80.6774C65.6233 81.952 67.1595 82.6317 68.4823 82.1644L89.0074 75.0695C90.3302 74.6022 90.9277 73.2002 90.3303 71.9256L82.2653 54.507C81.6679 53.2325 80.1317 52.5528 78.7662 52.9351L58.2838 59.2228C56.9609 59.6052 56.3635 61.0072 56.9183 62.2817Z" fill="#33B576"/>
<path d="M67.5436 70.6083C69.5065 71.9678 71.4267 73.3273 73.603 74.3895C74.2857 74.7293 75.0538 74.7718 75.7366 74.3895C76.334 74.0496 76.846 73.2849 76.7607 72.5626C76.718 72.1378 76.7607 71.7554 76.8034 71.3306C76.8034 71.1606 76.8887 70.7783 76.7607 71.458C76.8034 71.3306 76.8034 71.2031 76.8034 71.0757C76.846 70.8208 76.8887 70.5659 76.9314 70.311C77.1874 69.1214 77.4861 67.9743 77.8275 66.8272C78.1689 65.6802 78.5529 64.5331 79.0223 63.386C79.065 63.2585 79.1076 63.1736 79.1503 63.0461C79.2783 62.7062 79.2357 62.9187 79.1076 63.1311C79.2357 62.9187 79.321 62.6638 79.4063 62.4513C79.577 62.069 79.7477 61.7291 79.9611 61.3892C80.5585 60.4546 80.2171 59.0526 79.193 58.5003C78.1689 57.948 76.9314 58.2454 76.2913 59.265C75.7366 60.1997 75.3098 61.2193 74.9258 62.1964C74.4564 63.3435 74.0724 64.5331 73.6883 65.7226C73.3469 66.9122 73.0056 68.1018 72.7495 69.3338C72.5362 70.3534 72.3228 71.458 72.4082 72.5201C73.475 71.9254 74.5417 71.3306 75.5659 70.6933C73.3896 69.6312 71.4694 68.2717 69.5065 66.9122C68.6104 66.2749 67.1169 66.6998 66.6048 67.6769C66.2207 68.824 66.5621 69.9711 67.5436 70.6083Z" fill="white"/>
<path d="M23.9756 80.8471C25.5972 81.3994 27.3467 81.7393 29.0536 81.9942C31.3152 82.3341 33.6195 82.5465 35.8811 82.6315C40.6176 82.8439 45.4395 82.6739 50.0908 81.7818C52.139 81.3569 54.2299 80.8046 56.0221 79.7425C57.3876 78.9353 56.1502 76.8111 54.7847 77.6183C54.486 77.7882 54.1446 77.9582 53.8032 78.1281C53.7179 78.1706 53.6325 78.2131 53.5472 78.2556C53.2485 78.383 53.8032 78.1706 53.4618 78.2981C53.2485 78.383 53.0351 78.468 52.7791 78.553C51.883 78.8504 50.9869 79.1053 50.0481 79.3177C47.8718 79.785 46.0369 79.9974 43.7753 80.1674C41.4284 80.3373 39.0814 80.3373 36.7345 80.2523C35.5824 80.2099 34.4302 80.1674 33.3208 80.0399C32.8087 79.9974 32.254 79.9549 31.7419 79.9125C31.4859 79.87 31.2298 79.87 30.9738 79.8275C30.8458 79.8275 30.7178 79.785 30.5898 79.785C30.5471 79.785 30.0777 79.7 30.2911 79.7425C28.3708 79.4876 26.4506 79.1477 24.6157 78.5105C23.9756 78.2981 23.2502 78.7654 23.0795 79.3602C22.9088 79.9974 23.3356 80.6347 23.9756 80.8471Z" fill="black"/>
<path d="M60.6305 77.1933C62.8922 78.0005 63.5749 80.2521 63.0628 81.5267C62.5508 82.7587 60.2892 83.1411 58.0276 82.3339C55.766 81.5267 53.291 79.7848 53.9311 78.2554C54.4005 76.9808 58.3263 76.3861 60.6305 77.1933Z" fill="black"/>
<path d="M54.8273 76.5988C55.8514 75.9615 58.4971 74.7295 59.0945 75.7916C59.4359 76.4288 56.6195 79.2328 54.4859 79.3603C53.1204 79.4027 53.7605 77.236 54.8273 76.5988Z" fill="black"/>
<path d="M72.2801 55.1865C72.2801 55.144 72.2375 55.1015 72.2375 55.059C72.2375 55.1865 72.2801 55.2714 72.2801 55.3989C72.2801 55.3139 72.2801 55.2714 72.2801 55.1865C72.2801 55.3139 72.2375 55.3989 72.2375 55.5263C72.2375 55.4414 72.2801 55.3989 72.2801 55.3139C72.2375 55.3989 72.1948 55.5263 72.1521 55.6113C72.1948 55.5263 72.2375 55.4839 72.2801 55.4414C72.2375 55.5263 72.1521 55.6113 72.1095 55.6963C72.1521 55.6538 72.1948 55.5688 72.2801 55.5263C72.1948 55.5688 72.1095 55.6538 72.0241 55.6963C72.1095 55.6538 72.1948 55.6113 72.2375 55.5688C72.1521 55.6113 72.0241 55.6538 71.9388 55.6963C72.0668 55.6538 72.2375 55.6113 72.4082 55.5688C72.2801 55.5688 72.1948 55.6113 72.0668 55.6113C72.1948 55.6113 72.3228 55.5688 72.4508 55.6113C72.3228 55.6113 72.2375 55.5688 72.1095 55.5688C72.1521 55.5688 72.2375 55.6113 72.2801 55.6113C72.1948 55.5688 72.0668 55.5263 71.9814 55.4839C72.0241 55.4839 72.0668 55.5263 72.1095 55.5688C72.0241 55.5263 71.9388 55.4414 71.8534 55.3989C71.8961 55.4414 71.8961 55.4414 71.9388 55.4839C71.8961 55.3989 71.8108 55.3139 71.7681 55.2289C71.8108 55.2714 71.8107 55.3139 71.8107 55.3139C71.7681 55.2289 71.7254 55.1015 71.6827 55.0165C71.6827 55.059 71.7254 55.1015 71.7254 55.144C71.7254 55.0165 71.6827 54.9316 71.6827 54.8041C71.6827 54.8466 71.6827 54.9316 71.6827 54.974C71.6827 54.8466 71.7254 54.7616 71.7254 54.6342C71.7254 54.6766 71.6827 54.7616 71.6827 54.8041C71.7254 54.7191 71.7681 54.5917 71.8107 54.5067C71.7681 54.5917 71.7254 54.6342 71.6827 54.6767C71.7254 54.5917 71.8108 54.5067 71.8534 54.4217C71.8108 54.4642 71.7681 54.5067 71.7254 54.5492C71.8108 54.5067 71.8961 54.4217 71.9814 54.3793C71.9388 54.4217 71.8534 54.4642 71.7681 54.5067C71.8534 54.4642 71.9814 54.4217 72.0668 54.3793C71.9388 54.4217 71.8108 54.4642 71.6827 54.4642C71.8108 54.4642 71.8961 54.4217 72.0241 54.4217C71.8534 54.4642 71.6401 54.4642 71.4694 54.4642C71.1707 54.4642 70.8293 54.5917 70.6159 54.8041C70.4026 55.0165 70.2319 55.3564 70.2746 55.6538C70.2746 55.9512 70.4026 56.2911 70.6159 56.5035C70.872 56.7159 71.128 56.8434 71.4694 56.8434C72.4082 56.8858 73.475 56.6734 74.115 55.9512C74.5417 55.4414 74.8405 54.7616 74.6698 54.0819C74.5844 53.742 74.3284 53.4446 74.0297 53.2747C73.7737 53.1472 73.5603 53.1047 73.2616 53.0622C73.0482 53.0622 72.8775 53.0622 72.6642 53.0622C72.3655 53.0622 72.0241 53.1897 71.8107 53.4021C71.5974 53.6145 71.4267 53.9544 71.4694 54.2518C71.5121 54.9316 72.0241 55.4414 72.7069 55.4839C72.9202 55.4839 73.1763 55.4839 73.3896 55.4839C73.2616 55.4839 73.1763 55.4414 73.0482 55.4414H73.0909C73.0056 55.3989 72.8775 55.3564 72.7922 55.3139C72.7922 55.3139 72.8349 55.3139 72.8349 55.3564C72.7495 55.3139 72.6642 55.2289 72.5788 55.1865C72.5788 55.1865 72.5788 55.1865 72.5788 55.2289C72.5362 55.144 72.4508 55.059 72.4082 54.974C72.4082 54.974 72.4082 54.974 72.4082 55.0165C72.3655 54.9316 72.3228 54.8041 72.2801 54.7191V54.7616C72.2801 54.6342 72.2375 54.5492 72.2375 54.4217C72.2375 54.4642 72.2375 54.4642 72.2375 54.5067C72.2375 54.3793 72.2801 54.2943 72.2801 54.1668C72.2801 54.2518 72.2375 54.3368 72.2375 54.4217C72.2801 54.3368 72.3228 54.2093 72.3655 54.1244C72.3228 54.2093 72.2801 54.2943 72.1948 54.3793C72.2375 54.2943 72.3228 54.2093 72.3655 54.1244C72.2801 54.2093 72.2375 54.2943 72.1521 54.3368C72.2375 54.2943 72.3228 54.2093 72.4082 54.1668C72.2801 54.2518 72.1948 54.2943 72.0668 54.3793C72.1521 54.3368 72.2801 54.2943 72.3655 54.2518C72.1948 54.3368 72.0241 54.3793 71.8534 54.3793C71.9814 54.3793 72.0668 54.3368 72.1948 54.3368C71.9388 54.3793 71.6827 54.3793 71.4694 54.3368C71.4694 55.144 71.4694 55.9512 71.4694 56.7584C72.0241 56.7584 72.6215 56.7159 73.1336 56.4185C73.4323 56.2486 73.6883 55.9937 73.859 55.6963C74.0297 55.3989 74.1577 55.059 74.115 54.6767C74.115 54.2518 73.9443 53.827 73.6456 53.5296C73.5176 53.4021 73.3896 53.2747 73.2189 53.2322C72.9202 53.1047 72.7069 53.0622 72.4082 53.0198C72.1095 52.9773 71.8108 53.0622 71.5547 53.1047C71.2987 53.1472 71 53.2747 70.7866 53.4021C70.6159 53.5296 70.4453 53.6145 70.3172 53.7845C70.1039 54.0394 70.0185 54.2093 69.8905 54.5067C69.8052 54.6767 69.8052 54.8891 69.8052 55.059C69.8052 55.144 69.8052 55.2714 69.8479 55.3564C69.8479 55.4414 69.8905 55.5688 69.8905 55.6538C69.9332 55.8237 70.0185 55.9512 70.1039 56.0786C70.1892 56.2061 70.3172 56.3335 70.4453 56.376C70.7013 56.546 71.0853 56.5884 71.384 56.5035C71.6827 56.4185 71.9814 56.2061 72.1095 55.9512C72.3228 55.8662 72.4082 55.4839 72.2801 55.1865Z" fill="#231300"/>
</svg>
