<svg width="176" height="175" viewBox="0 0 176 175" fill="none" xmlns="http://www.w3.org/2000/svg">
<path d="M145.76 66.2984V140.708C145.76 142.108 144.64 143.228 143.24 143.228H34.075C32.675 143.228 31.555 142.108 31.555 140.708V66.4734C31.555 65.0034 32.745 63.7784 34.25 63.7784H143.275C144.64 63.7784 145.76 64.8984 145.76 66.2984Z" fill="#24A7FF"/>
<path d="M141.14 69.1334H36.175V132.763H141.14V69.1334Z" fill="#BFEDF8"/>
<path d="M36.175 94.9284C36.175 94.9284 63.335 95.0684 82.62 110.363C112.825 134.303 141.14 103.538 141.14 103.538V132.763H36.175V94.9284Z" fill="#BFEDF8"/>
<path d="M141.14 69.1334H36.175V74.7684H141.14V69.1334Z" fill="#80D2F3"/>
<path d="M160.145 145.223H17.625C17.275 145.223 16.995 144.943 16.995 144.593V140.393C16.995 140.043 17.275 139.763 17.625 139.763H160.11C160.46 139.763 160.74 140.043 160.74 140.393V144.593C160.775 144.943 160.495 145.223 160.145 145.223Z" fill="#007DE0"/>
<path d="M160.145 145.223H17.625C17.275 145.223 16.995 144.943 16.995 144.593V140.393C16.995 140.043 17.275 139.763 17.625 139.763H160.11C160.46 139.763 160.74 140.043 160.74 140.393V144.593C160.775 144.943 160.495 145.223 160.145 145.223Z" fill="#0083CC"/>
<path d="M100.82 142.038H77.265C76.985 142.038 76.74 141.793 76.74 141.513V139.763H101.345V141.513C101.345 141.793 101.1 142.038 100.82 142.038Z" fill="#494949"/>
<path opacity="0.22" d="M124.2 126.673H57.245C55.32 126.673 53.745 125.098 53.745 123.173V84.9884C53.745 83.0634 55.32 81.4884 57.245 81.4884H124.2C126.125 81.4884 127.7 83.0634 127.7 84.9884V123.173C127.7 125.098 126.16 126.673 124.2 126.673Z" fill="#007DE0"/>
<path d="M121.785 124.363H54.83C52.905 124.363 51.33 122.788 51.33 120.863V82.7134C51.33 80.7884 52.905 79.2134 54.83 79.2134H121.785C123.71 79.2134 125.285 80.7884 125.285 82.7134V120.898C125.285 122.823 123.71 124.363 121.785 124.363Z" fill="white"/>
<path d="M52.345 118.238C52.625 119.533 52.975 120.863 53.395 122.123C53.745 123.138 54.13 124.153 54.725 125.063C55.145 125.728 55.74 126.393 56.51 126.638C57.315 126.883 58.12 126.568 58.75 126.078C59.87 125.168 60.605 123.768 61.235 122.508C61.55 121.843 60.57 121.248 60.22 121.913C59.695 122.963 59.135 124.083 58.26 124.923C58.12 125.063 58.015 125.168 57.84 125.273C57.7 125.343 57.525 125.448 57.49 125.483C57.245 125.588 57.07 125.588 56.895 125.518C56.72 125.483 56.475 125.308 56.335 125.168C56.09 124.923 55.88 124.678 55.705 124.398C55.215 123.593 54.865 122.718 54.55 121.843C54.095 120.548 53.78 119.218 53.465 117.888C53.325 117.188 52.17 117.503 52.345 118.238Z" fill="black"/>
<path d="M64.735 120.968C65.89 121.388 65.785 122.543 65.225 123.138C64.385 124.468 59.415 123.208 60.57 121.388C61.165 120.793 63.58 120.548 64.735 120.968Z" fill="black"/>
<path d="M61.481 120.618C62.216 120.303 64.001 119.743 64.141 120.268C64.211 120.583 61.971 121.948 60.711 121.983C59.941 121.983 60.746 120.898 61.481 120.618Z" fill="black"/>
<path d="M40.62 102.418C24.485 99.0933 12.235 118.938 22.035 131.748C20.845 134.478 19.13 137.138 17.065 136.788C18.185 138.923 25.115 137.488 28.16 137.243C54.305 150.543 69.355 108.578 40.62 102.418Z" fill="#117DC1"/>
<path d="M18.99 117.223C17.835 122.473 19.095 127.898 21.965 131.993C20.775 134.723 19.095 137.383 17.03 137.068C18.115 139.203 24.975 137.768 27.95 137.488C35.3 141.898 45.625 140.043 51.015 133.743C38.065 138.853 22.63 130.488 18.99 117.223Z" fill="#1E70AC"/>
<path d="M27.25 123.173C26.13 125.693 25.675 128.423 25.465 131.153C25.325 133.253 25.36 135.353 25.535 137.453C25.57 137.943 25.535 138.608 25.885 139.028C26.025 139.203 26.34 139.273 26.55 139.203C26.865 139.133 27.04 138.818 27.04 138.538C27.04 137.663 25.71 137.663 25.675 138.538C25.675 138.573 25.71 138.363 25.71 138.363C25.885 138.188 26.025 138.048 26.2 137.873C26.41 137.943 26.655 137.978 26.865 138.048C27.565 138.888 27.005 138.398 27.04 138.293C27.04 138.293 27.04 138.258 27.04 138.223C27.075 138.153 27.005 137.978 27.04 138.153C27.005 137.908 26.97 137.663 26.97 137.418C26.9 136.613 26.865 135.773 26.83 134.968C26.76 132.623 26.865 130.208 27.285 127.898C27.53 126.498 27.915 125.133 28.475 123.838C28.615 123.488 28.58 123.103 28.23 122.893C27.88 122.753 27.39 122.823 27.25 123.173Z" fill="#231300"/>
<path d="M27.145 140.919C26.795 142.039 25.71 142.424 25.08 142.214C23.54 141.724 24.975 137.279 26.445 137.699C27.04 137.909 27.46 139.799 27.145 140.919Z" fill="black"/>
<path d="M27.285 138.118C27.635 138.608 28.3 139.833 27.81 140.183C27.495 140.358 26.06 139.063 25.955 138.048C25.85 137.348 26.935 137.628 27.285 138.118Z" fill="black"/>
<path d="M32.675 138.748C33.445 138.363 34.25 138.013 35.125 137.838C35.72 137.733 36.245 137.733 36.77 137.908C36.945 137.978 36.875 137.943 37.015 138.013C37.155 138.083 37.26 138.153 37.365 138.223C37.505 138.293 37.715 138.503 37.89 138.713C37.995 138.853 38.17 139.063 38.31 139.308C38.45 139.553 38.59 139.833 38.66 140.008C39.64 142.458 39.57 145.153 39.78 147.743C39.85 148.548 39.85 149.808 40.935 149.808C41.25 149.808 41.53 149.598 41.81 149.493C42.16 149.353 42.545 149.248 42.895 149.108C43.735 148.793 44.54 148.478 45.38 148.128C45.695 147.988 45.905 147.708 45.835 147.358C45.765 147.043 45.38 146.798 45.065 146.903C44.295 147.218 43.525 147.533 42.755 147.813C42.405 147.953 42.02 148.093 41.67 148.198C41.495 148.268 41.32 148.303 41.145 148.373C41.075 148.408 40.9 148.513 40.83 148.548C40.935 148.548 41.04 148.548 41.18 148.548C41.215 148.548 41.215 148.898 41.215 148.653C41.215 148.583 41.215 148.548 41.18 148.478C41.18 148.373 41.145 148.233 41.145 148.128C41.11 147.883 41.11 147.603 41.075 147.358C41.04 146.798 41.005 146.203 40.97 145.643C40.9 144.383 40.76 143.088 40.55 141.828C40.165 139.728 39.255 137.138 36.91 136.578C35.265 136.193 33.585 136.858 32.15 137.593C31.31 138.013 31.94 139.098 32.675 138.748Z" fill="#231300"/>
<path d="M45.065 138.363C45.835 137.978 46.64 137.628 47.515 137.453C48.11 137.348 48.635 137.348 49.16 137.523C49.335 137.593 49.265 137.558 49.44 137.628C49.58 137.698 49.685 137.768 49.79 137.838C49.86 137.908 49.86 137.873 50 138.013C50.105 138.118 50.21 138.223 50.28 138.328C50.525 138.608 50.875 139.273 51.05 139.658C51.995 142.108 51.96 144.803 52.135 147.393C52.17 147.708 52.17 147.988 52.205 148.303C52.275 148.933 52.73 149.563 53.465 149.423C53.71 149.388 53.92 149.213 54.13 149.143C54.445 149.038 54.795 148.898 55.11 148.758C55.845 148.478 56.545 148.163 57.28 147.813C58.015 147.463 57.385 146.343 56.65 146.728C56.02 147.043 55.39 147.323 54.725 147.568C54.41 147.673 54.13 147.813 53.815 147.918C53.605 147.988 53.36 148.163 53.15 148.198C53.255 148.198 53.36 148.198 53.5 148.198C53.535 148.198 53.535 148.548 53.535 148.303C53.535 148.233 53.535 148.198 53.5 148.128C53.5 148.023 53.465 147.883 53.465 147.778C53.43 147.533 53.43 147.253 53.395 147.008C53.36 146.448 53.325 145.853 53.29 145.293C53.22 144.033 53.08 142.738 52.87 141.478C52.485 139.378 51.575 136.788 49.23 136.228C47.585 135.843 45.905 136.508 44.47 137.243C43.7 137.628 44.33 138.748 45.065 138.363Z" fill="#231300"/>
<path d="M49.895 114.423C50.63 114.388 51.33 114.458 51.96 114.563C52.24 114.108 52.38 113.583 52.38 113.023C52.345 111.553 51.155 110.398 49.755 110.468C48.355 110.503 47.27 111.728 47.305 113.198C47.34 113.758 47.515 114.283 47.83 114.703C48.46 114.528 49.16 114.423 49.895 114.423Z" fill="black"/>
<path d="M48.4635 114.094C48.5613 114.001 48.4997 113.778 48.326 113.596C48.1523 113.415 47.9322 113.343 47.8344 113.437C47.7367 113.53 47.7982 113.753 47.972 113.935C48.1457 114.117 48.3657 114.188 48.4635 114.094Z" fill="white"/>
<path d="M50.8635 112.848C51.1919 112.837 51.4478 112.53 51.4351 112.163C51.4224 111.796 51.1458 111.508 50.8174 111.519C50.489 111.531 50.2331 111.837 50.2458 112.204C50.2585 112.572 50.535 112.86 50.8635 112.848Z" fill="white"/>
<path d="M36.7 114.878C37.435 114.843 38.135 114.913 38.765 115.018C39.045 114.563 39.185 114.038 39.185 113.478C39.15 112.008 37.96 110.853 36.56 110.923C35.16 110.958 34.075 112.183 34.11 113.653C34.145 114.213 34.32 114.738 34.635 115.158C35.265 114.983 35.965 114.878 36.7 114.878Z" fill="black"/>
<path d="M35.2654 114.545C35.3631 114.451 35.3016 114.228 35.1279 114.047C34.9541 113.865 34.7341 113.794 34.6363 113.887C34.5385 113.981 34.6001 114.204 34.7738 114.385C34.9475 114.567 35.1676 114.638 35.2654 114.545Z" fill="white"/>
<path d="M37.6684 113.303C37.9968 113.292 38.2527 112.985 38.24 112.618C38.2273 112.251 37.9508 111.963 37.6224 111.974C37.2939 111.986 37.038 112.292 37.0507 112.659C37.0634 113.026 37.34 113.315 37.6684 113.303Z" fill="white"/>
<path d="M46.22 116.033C46.36 117.013 46.045 117.818 45.345 118.483C44.75 119.008 44.085 119.183 43.315 119.113C42.125 118.973 41.39 118.273 41.04 117.188C40.9 116.768 40.935 116.313 40.9 115.858C40.9 115.683 41.145 115.508 41.355 115.578C42.335 115.788 43.35 115.683 44.33 115.578C44.75 115.508 45.205 115.368 45.625 115.228C45.94 115.123 46.15 115.228 46.185 115.578C46.185 115.683 46.185 115.858 46.22 116.033Z" fill="black"/>
<path d="M111.67 113.023H66.065C64.42 113.023 63.09 111.693 63.09 110.048V90.2034C63.09 88.5584 64.42 87.2284 66.065 87.2284H111.67C113.315 87.2284 114.645 88.5584 114.645 90.2034V110.048C114.645 111.693 113.315 113.023 111.67 113.023Z" fill="#117DC1"/>
<path d="M71.455 111.413L78.21 119.883L84.545 110.503L71.455 111.413Z" fill="#117DC1"/>
<path d="M78.5667 98.7708C78.5667 98.4398 78.6632 98.164 78.8563 97.9433C79.0562 97.7226 79.3528 97.6123 79.7458 97.6123C80.1389 97.6123 80.4354 97.7226 80.6354 97.9433C80.8422 98.164 80.9457 98.4398 80.9457 98.7708C80.9457 99.088 80.8422 99.3535 80.6354 99.5672C80.4354 99.781 80.1389 99.8879 79.7458 99.8879C79.3528 99.8879 79.0562 99.781 78.8563 99.5672C78.6632 99.3535 78.5667 99.088 78.5667 98.7708Z" fill="white"/>
<path d="M89.4067 98.7708C89.4067 98.4398 89.5032 98.164 89.6963 97.9433C89.8963 97.7226 90.1928 97.6123 90.5858 97.6123C90.9789 97.6123 91.2754 97.7226 91.4754 97.9433C91.6822 98.164 91.7857 98.4398 91.7857 98.7708C91.7857 99.088 91.6822 99.3535 91.4754 99.5672C91.2754 99.781 90.9789 99.8879 90.5858 99.8879C90.1928 99.8879 89.8963 99.781 89.6963 99.5672C89.5032 99.3535 89.4067 99.088 89.4067 98.7708Z" fill="white"/>
<path d="M100.247 98.7708C100.247 98.4398 100.343 98.164 100.536 97.9433C100.736 97.7226 101.033 97.6123 101.426 97.6123C101.819 97.6123 102.115 97.7226 102.315 97.9433C102.522 98.164 102.626 98.4398 102.626 98.7708C102.626 99.088 102.522 99.3535 102.315 99.5672C102.115 99.781 101.819 99.8879 101.426 99.8879C101.033 99.8879 100.736 99.781 100.536 99.5672C100.343 99.3535 100.247 99.088 100.247 98.7708Z" fill="white"/>
<path d="M133.825 68.1184L127.105 70.7434C125.39 71.4084 123.5 70.5684 122.835 68.8534L109.745 35.1134C109.08 33.3984 111.145 29.4084 112.825 28.7434L118.355 28.2184C120.07 27.5534 121.96 28.3934 122.625 30.1084L137.01 62.4834C137.675 64.1984 135.505 67.4534 133.825 68.1184Z" fill="#117DC1"/>
<path d="M141.245 38.6834L145.025 43.6534C145.69 45.3684 144.045 48.9034 141.98 49.7084L108.66 62.6234C106.945 63.2884 105.055 62.4484 104.39 60.7334L101.765 54.0134C101.1 52.2984 102.36 48.3784 104.705 47.2584L136.975 36.8284C138.655 36.1284 140.58 36.9684 141.245 38.6834Z" fill="#117DC1"/>
<path d="M135.155 65.5284L127.98 68.2934C126.405 68.9234 124.62 68.1184 123.99 66.5434L110.9 32.8034C110.27 31.2284 111.075 29.4434 112.65 28.8134L119.825 26.0484C121.4 25.4184 123.185 26.2234 123.815 27.7984L136.905 61.5384C137.5 63.1484 136.73 64.9334 135.155 65.5284Z" fill="#2BA3E0"/>
<path d="M142.505 36.5134L144.815 42.4984C145.55 44.4234 144.605 46.5584 142.715 47.2934L110.13 59.9284C108.205 60.6634 106.07 59.7184 105.335 57.8284L103.025 51.8434C102.29 49.9184 103.235 47.7834 105.125 47.0484L137.71 34.4134C139.6 33.6784 141.735 34.6234 142.505 36.5134Z" fill="#2BA3E0"/>
</svg>
