<svg width="176" height="175" viewBox="0 0 176 175" fill="none" xmlns="http://www.w3.org/2000/svg">
<path d="M116.762 97.9944C115.198 106.816 113.514 115.638 111.75 124.42C111.268 126.906 110.747 129.352 110.226 131.838C110.106 132.52 111.108 132.801 111.268 132.119C113.113 123.337 114.837 114.556 116.441 105.734C116.882 103.247 117.363 100.761 117.805 98.2751C117.885 97.5935 116.882 97.3128 116.762 97.9944Z" fill="#C4C4C4"/>
<path d="M111.79 128.871C113.354 128.269 114.837 127.227 115.759 125.783C117.203 123.578 116.682 120.851 115.439 118.686C114.156 116.48 112.311 114.676 110.386 113.072C109.584 112.39 108.461 113.553 109.263 114.195C110.907 115.598 112.511 117.082 113.674 118.886C114.035 119.448 114.436 120.089 114.677 120.731C114.797 121.011 114.877 121.292 114.958 121.613C115.038 121.894 115.078 122.134 115.078 122.295C115.078 122.535 115.118 122.816 115.078 123.057C115.078 123.377 115.078 123.297 114.998 123.658C114.958 123.859 114.877 124.059 114.797 124.26C114.717 124.46 114.877 124.099 114.797 124.3C114.797 124.34 114.757 124.38 114.757 124.42C114.717 124.54 114.637 124.661 114.597 124.741C114.516 124.901 114.396 125.062 114.276 125.222C114.236 125.262 114.156 125.382 114.276 125.222C114.236 125.262 114.236 125.302 114.196 125.302C114.115 125.382 114.035 125.503 113.955 125.583C113.835 125.743 113.674 125.864 113.514 125.984C113.434 126.024 113.394 126.104 113.313 126.144C113.273 126.184 113.233 126.224 113.193 126.224C113.033 126.345 113.354 126.104 113.193 126.224C112.872 126.465 112.511 126.706 112.151 126.866C111.99 126.946 111.87 127.026 111.709 127.107C111.629 127.147 111.549 127.187 111.469 127.227C111.75 127.107 111.469 127.227 111.429 127.227C111.028 127.387 110.747 127.788 110.867 128.229C110.907 128.711 111.389 129.031 111.79 128.871Z" fill="black"/>
<path d="M67.1189 107.137C69.4446 113.793 71.2892 120.57 72.6125 127.508C72.7328 128.189 73.7754 127.908 73.6551 127.227C72.3318 120.33 70.4872 113.513 68.1614 106.856C67.8808 106.215 66.8783 106.495 67.1189 107.137Z" fill="#C4C4C4"/>
<path fill-rule="evenodd" clip-rule="evenodd" d="M132.682 46.3864C136.651 41.2536 133.203 33.6347 126.787 33.4743L106.176 33.0733C103.649 33.0332 101.284 31.7099 99.8801 29.5045L88.5319 11.7805C86.6473 8.85324 83.4794 7.81065 80.5922 8.37205C77.665 8.53244 74.8179 10.377 73.6951 13.7053L66.9584 33.7951C66.1163 36.2813 64.1915 38.166 61.7455 38.8477L41.816 44.5017C35.6407 46.2661 34.1169 54.5266 39.2096 58.4964L55.6504 71.3283C57.6553 72.8921 58.8182 75.4184 58.6979 78.0249L57.7756 99.2776C57.4949 105.854 64.6326 109.904 69.8857 106.135L86.8077 93.9845C88.0107 93.1424 89.4141 92.6612 90.8176 92.581C92.2211 92.3003 93.6647 92.3805 95.0281 92.9018L114.356 100.36C120.331 102.686 126.306 96.9117 124.421 90.6161L118.406 70.2857C117.684 67.7995 118.165 65.0727 119.769 63.0277L132.682 46.3864Z" fill="#FFD601"/>
<path d="M132.842 46.1457C136.812 41.013 133.363 33.3941 126.947 33.2337L106.336 32.8327C103.81 32.7926 101.444 31.4693 100.041 29.2638L88.6924 11.5399C87.5696 9.77548 85.9657 8.69279 84.2414 8.2517C83.0785 7.9309 81.9156 7.9309 80.7527 8.1715C77.8255 8.3319 74.9784 10.1765 73.8556 13.5047L72.2115 18.437C73.2942 16.031 75.4997 14.7077 77.7854 14.5874C78.7477 14.3869 79.7903 14.427 80.7527 14.6676C82.1963 15.0686 83.5597 15.9508 84.5221 17.4746L94.146 32.4718C95.3489 34.3164 97.3138 35.4392 99.4792 35.4793L116.922 35.8402C122.336 35.9605 125.263 42.3764 121.895 46.7472L111.028 60.8221C109.705 62.5464 109.263 64.8321 109.905 66.9574L114.998 84.16C115.88 87.2076 114.637 90.0547 112.471 91.6186C110.827 92.8215 108.622 93.2225 106.457 92.3804L90.136 86.0447C89.9355 85.9645 89.735 85.8843 89.5345 85.8442C88.5721 85.5635 87.5696 85.5635 86.5671 85.764C85.3642 85.8442 84.2013 86.2051 83.1587 86.967L68.8432 97.2726C64.3921 100.44 58.3772 97.032 58.6178 91.4582L59.3797 73.4936C59.4599 71.2881 58.4975 69.1628 56.8133 67.8396L42.8186 56.9325C38.4878 53.5641 39.8111 46.5868 45.024 45.1031L61.8658 40.3313C63.951 39.7298 65.5951 38.1258 66.2768 36.0406L66.8783 34.2362C65.956 36.3614 64.1114 38.0055 61.9059 38.607L42.0166 44.261C35.8413 46.0254 34.3175 54.2859 39.4101 58.2558L55.8509 71.0876C57.8559 72.6515 59.0188 75.1778 58.8985 77.7842L57.9762 99.037C57.6955 105.613 64.8332 109.663 70.0862 105.934L87.0082 93.7839C88.2112 92.9418 89.6147 92.4606 91.0182 92.3804C92.1811 92.1399 93.344 92.18 94.5068 92.4607C94.7474 92.5408 94.988 92.6211 95.2286 92.7012L114.557 100.16C117.123 101.162 119.729 100.641 121.654 99.2375C124.221 97.3929 125.664 93.9844 124.622 90.4156L118.607 70.0851C117.885 67.599 118.366 64.8722 119.97 62.8271L132.842 46.1457Z" fill="#FFDC4A"/>
<path fill-rule="evenodd" clip-rule="evenodd" d="M90.0156 87.5282C88.6122 87.6084 87.2087 88.0896 86.0057 88.9317L69.0837 101.082C64.9134 104.089 59.4999 102.084 57.6554 97.8338L57.5752 99.2373C57.2945 105.814 64.4322 109.864 69.6852 106.094L86.6072 93.9441C87.8102 93.102 89.2137 92.6208 90.6171 92.5406L90.0156 87.5282Z" fill="#F9B117"/>
<path d="M55.9311 69.6841L38.4477 56.0102C37.4051 55.2082 36.0417 54.0854 36.162 53.123C35.6006 55.93 36.4828 59.0176 39.0492 61.0226L55.49 73.8545C57.9761 76.3406 58.8182 78.5862 58.2969 85.764L58.9385 76.3406C59.0989 73.7342 57.9361 71.248 55.9311 69.6841Z" fill="#F9B117"/>
<path fill-rule="evenodd" clip-rule="evenodd" d="M90.0157 87.5284C91.4192 87.2477 92.9029 87.3279 94.2662 87.8492L113.755 95.3077C118.567 97.1522 123.378 93.824 124.18 89.2526L124.581 90.5759C126.466 96.8715 120.411 102.646 114.396 100.32L94.9078 92.8616C93.5444 92.3403 92.0608 92.22 90.6573 92.5408L90.0157 87.5284Z" fill="#F9B117"/>
<path d="M118.166 58.9375L131.96 41.0932C132.762 40.0506 133.844 38.607 133.484 37.6847C134.687 40.2912 134.606 43.5393 132.561 46.1457L119.609 62.9073C117.765 65.995 117.885 68.4009 120.09 75.2981L116.802 66.2356C116.08 63.7494 116.602 60.9825 118.166 58.9375Z" fill="#F9B117"/>
<path d="M81.9957 11.2592C78.5071 10.8181 76.061 13.9459 74.9382 16.793C74.2966 18.4371 73.8555 20.1613 73.3743 21.8455C72.8129 23.6901 72.2916 25.5347 71.7302 27.4193C71.1287 29.5446 70.4871 31.6298 69.8857 33.7551C69.5248 34.958 71.4094 35.4793 71.7703 34.2764C72.7728 30.8278 73.7753 27.3792 74.7778 23.9307C75.259 22.2866 75.7402 20.6024 76.2214 18.9583C76.6625 17.595 77.1838 16.1514 78.1061 15.0286C79.0684 13.8657 80.4318 13.0637 81.9556 13.2642C82.4769 13.3444 82.918 12.783 82.918 12.3018C82.9982 11.6602 82.5571 11.3394 81.9957 11.2592Z" fill="white"/>
<path d="M85.9656 15.0686C87.2087 15.0686 87.2087 13.1037 85.9656 13.1037C84.7225 13.1037 84.6824 15.0686 85.9656 15.0686Z" fill="white"/>
<path d="M115.719 93.2625C117.243 93.7036 119.008 93.1422 120.05 91.8991C120.652 91.1372 120.972 90.2951 121.053 89.3327C121.133 88.3302 120.892 87.3277 120.652 86.4054C120.531 85.9242 119.93 85.5633 119.449 85.7237C118.927 85.8841 118.647 86.4054 118.767 86.9267C118.968 87.7287 119.128 88.3703 119.128 89.1322C119.128 89.2525 119.128 89.3327 119.128 89.453C119.128 89.6535 119.168 89.4129 119.088 89.6134C119.048 89.7738 119.008 89.9342 118.968 90.0946C118.927 90.2149 119.048 89.9342 118.968 90.0946C118.927 90.1748 118.887 90.2149 118.847 90.2951C118.807 90.3753 118.767 90.4154 118.727 90.4956C118.687 90.5357 118.567 90.6961 118.687 90.5357C118.607 90.656 118.486 90.7362 118.406 90.8565C118.366 90.8966 118.286 90.9367 118.246 91.0169C118.166 91.0971 118.366 90.9367 118.246 91.0169C118.125 91.0971 118.005 91.1773 117.845 91.2575C117.765 91.2976 117.724 91.3377 117.644 91.3377C117.805 91.2575 117.684 91.2976 117.604 91.3377C117.484 91.3778 117.323 91.4179 117.203 91.458C117.083 91.4981 117.083 91.4981 117.203 91.458C117.123 91.458 117.043 91.458 116.963 91.458C116.802 91.458 116.682 91.458 116.521 91.458C116.682 91.458 116.602 91.458 116.481 91.458C116.401 91.458 116.321 91.4179 116.281 91.4179C115.8 91.2575 115.198 91.5783 115.078 92.0996C114.917 92.5808 115.198 93.1021 115.719 93.2625Z" fill="white"/>
<path d="M117.925 81.9547C119.168 81.9547 119.168 79.9898 117.925 79.9898C116.682 79.9898 116.682 81.9547 117.925 81.9547Z" fill="white"/>
<path d="M40.573 50.8375C40.5329 50.7974 40.4126 50.6771 40.5329 50.7974C40.6532 50.9177 40.5329 50.7573 40.4928 50.7573C40.4527 50.6771 40.4126 50.5969 40.3725 50.5167C40.3324 50.4365 40.3725 50.3563 40.3725 50.5568C40.3725 50.5167 40.3324 50.4766 40.3324 50.4365C40.2923 50.3563 40.2923 50.236 40.2522 50.1157C40.2522 50.0756 40.2121 49.8751 40.2522 50.0756C40.2923 50.236 40.2522 50.0756 40.2522 50.0355C40.2522 49.9152 40.2522 49.835 40.2522 49.7147C40.2522 49.6746 40.2522 49.5944 40.2522 49.5543C40.2522 49.5944 40.2121 49.7548 40.2522 49.6345C40.2923 49.5142 40.2923 49.434 40.3324 49.3538C40.3324 49.3137 40.3725 49.2736 40.3725 49.2335C40.3324 49.434 40.3324 49.3538 40.3725 49.2736C40.4126 49.1934 40.4527 49.1132 40.4928 49.033C40.5329 48.9929 40.5329 48.9528 40.573 48.9127C40.6532 48.8325 40.4126 49.0731 40.5329 48.9528C40.573 48.8726 40.6532 48.8325 40.7334 48.7523C40.7735 48.7122 40.8136 48.6721 40.8537 48.6721C40.974 48.5518 40.7334 48.7523 40.8136 48.7122C40.8938 48.6721 40.974 48.632 41.0542 48.5919C41.0943 48.5518 41.1344 48.5518 41.1745 48.5117C41.2547 48.4716 40.9339 48.5919 41.1344 48.5518C41.2146 48.5117 41.3349 48.5117 41.4151 48.4716C41.8962 48.3513 42.2571 47.7498 42.0968 47.2686C41.9364 46.7473 41.4151 46.4666 40.8938 46.5869C39.7309 46.8676 38.8487 47.7498 38.4878 48.8726C38.0868 50.0355 38.4477 51.3588 39.2497 52.2811C39.5705 52.682 40.2923 52.6419 40.6131 52.2811C40.974 51.7999 40.9339 51.2786 40.573 50.8375Z" fill="white"/>
<path d="M44.3824 47.3485C45.6255 47.3485 45.6255 45.3836 44.3824 45.3836C43.1393 45.3836 43.1393 47.3485 44.3824 47.3485Z" fill="white"/>
<path d="M126.266 36.6018C126.787 36.5617 127.268 36.5216 127.669 36.6419C127.91 36.7221 127.99 36.7221 128.15 36.8023C128.271 36.8424 128.351 36.9226 128.431 36.9627C128.591 37.0429 128.391 36.9226 128.511 37.0429C128.591 37.1231 128.672 37.2033 128.752 37.2835C128.792 37.3236 128.912 37.484 128.832 37.3637C128.952 37.5241 129.032 37.6444 129.113 37.8048C129.193 37.9652 129.073 37.6845 129.153 37.885C129.193 37.9652 129.193 38.0454 129.233 38.1256C129.233 38.1657 129.273 38.4063 129.273 38.286C129.273 38.1657 129.273 38.4063 129.273 38.4464C129.273 38.6469 129.313 38.3261 129.273 38.4865C129.233 38.6068 129.233 38.687 129.193 38.8073C129.153 38.9677 129.113 39.0078 128.992 39.2484C128.792 39.6494 128.511 40.0504 128.23 40.4514C127.709 41.2133 127.108 41.8549 126.546 42.6168C126.266 42.9776 126.506 43.5791 126.867 43.8197C127.308 44.1004 127.789 43.8999 128.07 43.4989C128.11 43.4588 128.15 43.4187 128.15 43.3786C128.11 43.4588 128.11 43.4187 128.19 43.3385C128.271 43.2583 128.351 43.138 128.431 43.0578C128.591 42.8573 128.752 42.6569 128.912 42.4163C129.273 41.9351 129.634 41.4539 129.995 40.9727C130.516 40.1707 131.118 39.1682 131.037 38.1657C130.957 37.2033 130.436 36.281 129.674 35.7196C128.712 34.9577 127.469 34.7171 126.266 34.8374C125.784 34.8775 125.383 35.1983 125.383 35.7196C125.424 36.1206 125.825 36.6419 126.266 36.6018Z" fill="white"/>
<path d="M125.504 46.1858C126.626 46.1858 126.626 44.4215 125.504 44.4215C124.381 44.4215 124.381 46.1858 125.504 46.1858Z" fill="white"/>
<path d="M62.347 98.4353C63.7906 99.6784 65.956 99.8789 67.6401 99.0368C68.5223 98.5957 69.3644 97.9942 70.1664 97.4328C72.8932 95.5882 75.5798 93.6234 78.2264 91.6184C79.5096 90.656 80.7527 89.6936 81.9957 88.7312C82.3165 88.4906 82.2764 87.9292 81.9957 87.6486C81.6749 87.3278 81.2338 87.408 80.9131 87.6486C78.7076 89.453 76.3818 91.1372 74.0961 92.7813C71.8907 94.3853 69.7253 96.0293 67.3594 97.4328C67.199 97.513 67.0386 97.6333 66.8782 97.7135C66.8381 97.7536 66.6376 97.8338 66.798 97.7536C66.9584 97.6734 66.4371 97.8739 66.397 97.8739C65.3946 98.1546 64.2317 98.0744 63.3896 97.3526C62.7079 96.711 61.6252 97.7536 62.347 98.4353Z" fill="white"/>
<path d="M61.1841 96.3102C62.3069 96.3102 62.3069 94.5458 61.1841 94.5458C60.0613 94.5458 60.0613 96.3102 61.1841 96.3102Z" fill="white"/>
<path d="M97.7548 112.551C86.567 109.663 75.2189 116.681 72.4119 128.229C71.0084 133.964 72.0109 139.778 74.7377 144.47C73.1738 147.477 71.0485 150.404 68.8431 149.803C69.8857 152.329 77.6249 151.287 80.9932 151.287C82.9581 152.65 85.1636 153.693 87.6096 154.334C98.7974 157.221 110.146 150.204 112.952 138.655C115.759 127.147 108.943 115.438 97.7548 112.551Z" fill="#117DC1"/>
<path d="M72.6525 127.347C72.5723 127.628 72.4921 127.949 72.4119 128.23C71.0084 133.964 72.0109 139.778 74.7377 144.47C73.1738 147.477 71.0486 150.405 68.8431 149.803C69.8857 152.329 77.6249 151.287 80.9932 151.287C82.9581 152.65 85.1636 153.693 87.6096 154.334C94.7874 156.179 102.045 153.933 107.018 149.081C102.567 150.365 97.835 150.485 93.1033 149.282C82.6373 146.555 75.0184 137.854 72.6525 127.347Z" fill="#1E70AC"/>
<path d="M80.7527 163.798C80.9131 166.083 82.9181 167.848 85.2839 167.727L103.088 166.885C105.454 166.765 107.258 164.84 107.098 162.555L106.497 152.891L80.1512 154.174L80.7527 163.798Z" fill="#9E9E9E"/>
<path d="M106.497 152.971L80.1512 154.254L80.2715 156.179L100.321 155.216L100.923 164.88C100.963 165.682 100.762 166.444 100.401 167.126L103.088 167.005C105.454 166.885 107.258 164.96 107.098 162.675L106.497 152.971Z" fill="#939393"/>
<path d="M106.256 154.254L80.1912 155.337C79.1888 155.377 78.3467 154.695 78.3066 153.813C78.2665 152.931 79.0284 152.169 80.0308 152.129L106.096 151.046C107.098 151.006 107.94 151.688 107.98 152.57C108.06 153.452 107.258 154.214 106.256 154.254Z" fill="#C4C4C4"/>
<path d="M91.4592 151.567C93.4642 150.645 95.79 149.683 98.0355 149.923C98.1558 149.923 97.9152 149.923 98.0355 149.923C98.0756 149.923 98.1157 149.923 98.1558 149.923C98.236 149.923 98.3563 149.963 98.4365 149.963C98.5969 150.003 98.7573 150.044 98.9177 150.124C98.7573 150.084 98.9177 150.124 98.9979 150.164C99.0781 150.204 99.1182 150.244 99.1984 150.244C99.2786 150.284 99.3187 150.324 99.3989 150.364C99.5593 150.485 99.3989 150.364 99.4791 150.404C99.5994 150.485 99.6796 150.605 99.7999 150.685C99.84 150.725 99.9202 150.846 99.84 150.725C99.8801 150.805 99.9202 150.846 100 150.926C100.081 151.046 100.161 151.166 100.201 151.287C100.281 151.407 100.241 151.327 100.241 151.327C100.281 151.407 100.321 151.487 100.321 151.567C100.401 151.848 100.482 152.169 100.522 152.49C100.562 152.65 100.522 152.49 100.522 152.49C100.522 152.53 100.522 152.57 100.522 152.61C100.522 152.69 100.522 152.77 100.562 152.851C100.562 153.011 100.602 153.211 100.602 153.412C100.602 153.773 100.602 154.134 100.562 154.495C100.522 154.896 100.482 155.216 100.442 155.497C100.201 156.941 99.84 158.384 99.3588 159.788C99.0781 160.63 98.4365 161.753 99.1984 162.515C99.5994 162.916 100.281 163.036 100.762 163.196C101.725 163.517 102.687 163.878 103.609 164.239C104.01 164.399 104.451 164.078 104.572 163.677C104.692 163.236 104.411 162.875 104.01 162.715C103.128 162.354 102.246 162.033 101.364 161.753C101.043 161.632 100.762 161.552 100.442 161.432C100.361 161.392 100.241 161.352 100.161 161.312C100.081 161.271 100.081 161.271 100.241 161.352C100.361 161.552 100.361 161.552 100.321 161.352C100.321 161.472 100.321 161.632 100.321 161.753C100.401 161.191 100.682 160.63 100.883 160.068C101.083 159.427 101.284 158.785 101.444 158.144C101.805 156.74 102.086 155.337 102.126 153.893C102.166 152.61 102.045 151.247 101.364 150.164C100.642 148.961 99.3588 148.359 97.9954 148.239C95.5093 148.039 92.9429 149.121 90.7374 150.124C90.3364 150.284 90.2562 150.846 90.4567 151.206C90.6171 151.688 91.0582 151.768 91.4592 151.567Z" fill="black"/>
<path d="M70.9283 101.523C72.2917 108.3 73.6951 115.077 75.2189 121.813C76.7427 128.55 78.3467 135.287 80.071 141.983C81.0333 145.753 81.9957 149.482 83.0383 153.251C83.1987 153.893 84.2413 153.612 84.0809 152.971C82.2764 146.314 80.5522 139.618 78.9482 132.881C77.3041 126.184 75.7803 119.407 74.3367 112.671C73.5347 108.861 72.7327 105.052 71.9709 101.242C71.8105 100.601 70.808 100.881 70.9283 101.523Z" fill="#C4C4C4"/>
<path d="M105.374 149.963C106.938 149.442 108.782 148.921 110.266 149.522C110.146 149.482 110.466 149.642 110.507 149.642C110.547 149.683 110.867 149.883 110.747 149.803C110.867 149.883 110.948 149.963 111.028 150.084C111.068 150.124 111.108 150.164 111.148 150.244C111.188 150.324 111.188 150.324 111.148 150.244C111.188 150.284 111.188 150.324 111.228 150.364C111.589 150.886 111.71 151.206 111.83 151.848C112.07 152.931 111.95 154.494 111.79 155.617C111.549 156.981 111.228 158.344 110.787 159.667C110.667 159.988 110.547 160.309 110.466 160.67C110.346 161.351 110.787 161.913 111.389 162.153C112.672 162.635 113.955 163.076 115.238 163.557C115.639 163.717 116.08 163.397 116.201 162.996C116.321 162.554 116.04 162.194 115.639 162.033C114.757 161.672 113.875 161.351 112.993 161.071C112.672 160.951 112.391 160.87 112.07 160.75C111.99 160.71 111.87 160.67 111.79 160.63C111.71 160.59 111.71 160.59 111.87 160.67C111.99 160.87 111.99 160.87 111.95 160.67C111.95 160.79 111.95 160.951 111.95 161.071C112.03 160.509 112.311 159.948 112.471 159.427C112.632 158.825 112.792 158.264 112.953 157.662C113.273 156.379 113.474 155.056 113.514 153.733C113.594 151.367 112.872 148.72 110.346 147.958C108.582 147.437 106.577 147.918 104.893 148.52C104.01 148.8 104.451 150.324 105.374 149.963Z" fill="black"/>
<path d="M113.474 97.2726C112.471 104.09 111.389 110.906 110.186 117.723C108.983 124.741 107.659 131.718 106.216 138.655C105.334 143.066 104.411 147.477 103.449 151.928C103.289 152.61 104.331 152.891 104.492 152.209C106.096 144.67 107.659 137.091 109.103 129.513C110.386 122.776 111.589 115.999 112.672 109.182C113.313 105.333 113.915 101.443 114.476 97.5533C114.597 96.9117 113.554 96.631 113.474 97.2726Z" fill="#C4C4C4"/>
<path d="M82.4368 157.783C85.0433 157.823 87.6096 157.783 90.2161 157.582C90.9379 157.542 90.9379 156.419 90.2161 156.46C87.6096 156.62 85.0433 156.7 82.4368 156.66C81.715 156.66 81.715 157.783 82.4368 157.783Z" fill="#939393"/>
<path d="M82.3165 160.75C84.7626 160.911 87.2487 160.87 89.6948 160.71C90.4166 160.67 90.4166 159.547 89.6948 159.587C87.2487 159.788 84.7626 159.788 82.3165 159.627C81.5947 159.587 81.5947 160.71 82.3165 160.75Z" fill="#939393"/>
<path d="M83.4393 156.78C84.0007 159.828 84.3616 162.876 84.5621 165.963C84.6022 166.685 85.725 166.685 85.6849 165.963C85.4844 162.795 85.1235 159.627 84.522 156.5C84.4017 155.738 83.319 156.059 83.4393 156.78Z" fill="#939393"/>
<path d="M87.4894 157.021C87.8904 159.547 88.2914 162.114 88.6122 164.64C88.6523 164.961 88.8528 165.201 89.1736 165.201C89.4543 165.201 89.7751 164.961 89.735 164.64C89.3741 161.993 89.0132 159.347 88.5721 156.7C88.532 156.379 88.1711 156.219 87.8904 156.299C87.5696 156.42 87.4493 156.7 87.4894 157.021Z" fill="#939393"/>
<path d="M84.9229 164.239C87.0883 164.6 89.2537 164.52 91.379 163.958C92.0606 163.758 91.7799 162.675 91.0982 162.876C89.2136 163.397 87.2086 163.517 85.2437 163.156C84.963 163.116 84.6422 163.236 84.562 163.557C84.4818 163.798 84.6422 164.159 84.9229 164.239Z" fill="#939393"/>
<path d="M58.6177 45.3439C59.0989 44.1409 60.5024 43.4191 61.7455 43.78C62.9485 44.1409 63.7906 45.5444 63.55 46.8276C64.0312 44.8226 66.5975 43.6998 68.3218 44.7825C70.0461 45.8652 70.2466 48.7523 68.7629 50.0756C70.7679 48.7523 73.5348 48.7122 75.5798 49.9954C75.0184 51.5593 73.0536 51.9603 71.4496 52.0806C67.0787 52.4415 62.7079 52.7623 58.337 53.1232C55.1291 53.3638 51.7607 53.6044 48.7934 52.2811C48.5528 52.1608 48.3523 52.0806 48.1919 51.8801C47.7107 51.3187 48.1117 50.3162 48.7934 50.0355C49.4751 49.7147 50.2369 49.835 50.9587 49.9954C51.3196 50.0756 51.7206 50.1157 52.0013 49.8751C52.2419 49.6746 52.282 49.3538 52.3622 49.0731C52.9236 46.7073 56.1717 45.5845 58.0163 47.1083" fill="white"/>
<path d="M107.499 58.2157C108.421 55.8097 111.228 54.4063 113.634 55.1281C116.04 55.8498 117.684 58.5766 117.243 61.1029C118.165 57.133 123.258 54.9677 126.667 57.0929C130.035 59.2182 130.476 64.8722 127.509 67.5589C131.479 64.9524 136.892 64.8722 140.942 67.3985C139.859 70.4862 135.97 71.2481 132.762 71.4887C124.14 72.1704 115.519 72.852 106.898 73.4936C100.562 73.9748 93.9053 74.456 88.0508 71.8496C87.6097 71.6491 87.1686 71.4085 86.8478 71.0476C85.8854 69.9248 86.7275 68 88.0508 67.3985C89.374 66.7569 90.8978 67.0376 92.3414 67.3183C93.0231 67.4386 93.8251 67.5589 94.3865 67.0777C94.8276 66.6767 94.9078 66.0351 95.0682 65.4737C96.191 60.8222 102.607 58.6167 106.216 61.6242" fill="white"/>
<path d="M103.97 124.34C104.772 124.3 105.534 124.34 106.256 124.46C106.537 123.979 106.737 123.378 106.697 122.736C106.617 121.132 105.294 119.889 103.77 119.929C102.246 120.009 101.043 121.373 101.123 122.977C101.163 123.618 101.364 124.18 101.725 124.621C102.406 124.5 103.168 124.38 103.97 124.34Z" fill="black"/>
<path d="M102.393 123.985C102.504 123.876 102.442 123.634 102.256 123.445C102.07 123.256 101.829 123.19 101.718 123.299C101.608 123.408 101.669 123.649 101.856 123.839C102.042 124.028 102.283 124.094 102.393 123.985Z" fill="white"/>
<path d="M105.006 122.573C105.382 122.555 105.671 122.217 105.652 121.819C105.632 121.421 105.312 121.113 104.936 121.131C104.56 121.149 104.271 121.487 104.29 121.885C104.309 122.283 104.63 122.591 105.006 122.573Z" fill="white"/>
<path d="M89.4142 125.061C90.2162 125.021 90.9781 125.061 91.6999 125.182C91.9806 124.7 92.1811 124.099 92.141 123.457C92.0608 121.853 90.7375 120.61 89.2137 120.65C87.6899 120.731 86.4869 122.094 86.5671 123.698C86.6072 124.34 86.8077 124.901 87.1686 125.342C87.8503 125.222 88.6122 125.101 89.4142 125.061Z" fill="black"/>
<path d="M87.824 124.688C87.9344 124.58 87.8729 124.338 87.6865 124.149C87.5 123.959 87.2593 123.894 87.1488 124.002C87.0384 124.111 87.0999 124.353 87.2864 124.542C87.4728 124.732 87.7135 124.797 87.824 124.688Z" fill="white"/>
<path d="M90.491 123.293C90.867 123.275 91.1561 122.937 91.1367 122.539C91.1173 122.141 90.7967 121.833 90.4206 121.852C90.0446 121.87 89.7555 122.208 89.7749 122.606C89.7943 123.004 90.1149 123.312 90.491 123.293Z" fill="white"/>
<path d="M100.201 125.863C100.361 126.946 100.04 127.828 99.2385 128.55C98.5969 129.111 97.835 129.352 97.033 129.272C95.7499 129.152 94.8677 128.39 94.5068 127.187C94.3464 126.746 94.3865 126.224 94.3464 125.743C94.3464 125.543 94.587 125.382 94.8276 125.422C95.9103 125.623 97.033 125.543 98.1157 125.382C98.5969 125.302 99.0781 125.142 99.5192 124.981C99.8801 124.861 100.121 124.981 100.161 125.382C100.161 125.503 100.161 125.703 100.201 125.863Z" fill="black"/>
<path d="M90.6572 132.119C91.2186 131.117 92.5018 131.036 93.1835 131.397C93.8652 131.758 93.9454 132.881 93.384 133.924C92.8226 134.926 91.7399 135.929 90.8978 135.487C90.2562 135.127 90.0958 133.162 90.6572 132.119Z" fill="black"/>
<path d="M90.0557 134.886C89.7349 134.325 89.1735 132.921 89.8151 132.761C90.176 132.64 91.6196 134.284 91.5795 135.327C91.5394 135.969 90.3765 135.447 90.0557 134.886Z" fill="black"/>
<path d="M79.5096 132.48C79.5497 135.126 80.7527 137.773 82.9581 139.337C84.923 140.74 87.4493 140.821 89.374 139.297C90.7775 138.174 91.5795 136.41 92.1008 134.725C92.3414 133.883 91.0582 133.563 90.8176 134.365C90.176 136.45 88.8126 139.016 86.4067 139.136C84.522 139.217 82.8378 137.813 81.8754 136.169C81.2339 135.046 80.9131 133.803 80.873 132.52C80.8329 131.598 79.5096 131.598 79.5096 132.48Z" fill="#231300"/>
<path d="M108.542 114.275C107.659 113.072 108.06 111.708 108.662 111.227C109.304 110.746 110.507 111.347 111.389 112.55C112.271 113.753 112.912 115.478 112.151 116.039C111.509 116.48 109.384 115.478 108.542 114.275Z" fill="black"/>
<path d="M111.028 116.641C110.186 116.601 108.181 116.28 108.221 115.398C108.261 114.876 110.948 114.275 112.231 115.117C113.073 115.598 111.91 116.681 111.028 116.641Z" fill="black"/>
</svg>
