<svg width="176" height="175" viewBox="0 0 176 175" fill="none" xmlns="http://www.w3.org/2000/svg">
<path d="M71.012 84.1662C72.3957 86.5597 75.3128 87.6817 77.9307 86.7467C81.2591 85.5874 82.8298 82.1841 83.129 78.8557C83.3908 75.9387 82.7176 72.9468 81.82 70.1794C81.6331 69.581 81.0347 69.207 80.4363 69.394C79.8753 69.5436 79.464 70.2168 79.651 70.7777C80.0997 72.0493 80.4363 73.3956 80.6981 74.7045C80.8103 75.3029 80.8477 75.6395 80.8851 76.2753C80.9225 76.7988 80.9599 77.285 80.9225 77.8086C80.9225 78.2948 80.8851 78.7809 80.8477 79.2671C80.8477 79.4167 80.8477 79.2297 80.8477 79.1923C80.8477 79.2671 80.8477 79.3045 80.8103 79.3793C80.8103 79.4915 80.7729 79.5663 80.7729 79.6411C80.7355 79.8655 80.6981 80.0899 80.6233 80.3142C80.5111 80.6882 80.3989 81.0996 80.2493 81.4736C80.2493 81.511 80.1371 81.7354 80.2119 81.5858C80.2867 81.4362 80.1745 81.698 80.1371 81.7354C80.0623 81.885 79.9875 82.072 79.8753 82.2215C79.7258 82.5207 79.5388 82.8199 79.3144 83.0817C79.4266 82.8947 79.3892 83.0069 79.3144 83.0817C79.277 83.1565 79.2022 83.1939 79.1648 83.2687C79.0526 83.3809 78.9404 83.4931 78.8282 83.6053C78.716 83.7175 78.6038 83.7923 78.529 83.9045C78.342 84.0914 78.6786 83.7923 78.529 83.9045C78.4542 83.9419 78.3794 84.0166 78.342 84.054C78.1176 84.2036 77.8559 84.3532 77.5941 84.4654C77.4445 84.5402 77.5193 84.5028 77.6315 84.4654C77.5567 84.5028 77.5193 84.5028 77.4445 84.5402C77.3323 84.5776 77.1827 84.615 77.0705 84.6524C76.9583 84.6898 76.8087 84.7272 76.6591 84.7272C76.5843 84.7272 76.5469 84.7646 76.4721 84.7646C76.2103 84.802 76.7339 84.7646 76.5095 84.7646C76.2477 84.7646 75.986 84.802 75.7242 84.7646C75.6494 84.7646 75.612 84.7646 75.5372 84.7646C75.3502 84.7646 75.799 84.802 75.612 84.7646C75.4624 84.7272 75.3502 84.7272 75.2006 84.6898C75.051 84.6524 74.9388 84.615 74.7892 84.5776C74.7144 84.5402 74.6396 84.5028 74.5648 84.5028C74.7518 84.5402 74.7518 84.5776 74.5648 84.5028C74.303 84.3906 74.0787 84.2036 73.8169 84.054C73.8169 84.054 74.0039 84.241 73.8169 84.054C73.7795 84.0166 73.7047 83.9793 73.6673 83.9045C73.5551 83.7923 73.4429 83.6801 73.3307 83.5679C73.2933 83.4931 73.2185 83.4557 73.1811 83.3809C73.0689 83.2687 73.3307 83.6053 73.1811 83.3809C73.1063 83.2313 72.9941 83.1191 72.9193 82.9695C72.2462 81.7728 70.2641 82.8947 71.012 84.1662Z" fill="#231300"/>
<path d="M43.4123 45.9081C26.0596 45.9081 11.9979 59.9697 11.9979 77.3224C11.9979 85.9614 15.4759 93.815 21.1604 99.4995C19.9637 104.324 17.9068 109.223 14.4288 109.223C16.8223 112.439 27.8173 108.138 32.7164 106.867C36.0823 108.101 39.6725 108.737 43.4497 108.737C60.8024 108.737 74.864 94.6751 74.864 77.3224C74.864 59.9697 60.765 45.9081 43.4123 45.9081Z" fill="#117DC1"/>
<path d="M12.0353 75.9761C11.9979 76.4249 11.9979 76.8737 11.9979 77.3225C11.9979 85.9614 15.4759 93.815 21.1604 99.4995C19.9637 104.324 17.9068 109.223 14.4288 109.223C16.8223 112.439 27.8173 108.138 32.7164 106.867C36.0823 108.101 39.6725 108.737 43.4497 108.737C54.5943 108.737 64.3552 102.94 69.9275 94.189C63.9064 97.5922 56.9878 99.5369 49.6577 99.5369C33.3896 99.5743 19.2157 90.0004 12.0353 75.9761Z" fill="#1E70AC"/>
<path d="M34.9229 104.324C34.9229 108.438 34.4367 112.551 33.9879 116.628C33.4644 121.228 32.9034 125.678 32.0806 130.241C31.931 131.026 31.744 131.811 32.2302 132.485C32.866 133.307 33.9879 133.195 34.8855 133.195C36.7928 133.233 38.6627 133.307 40.57 133.345C41.9911 133.382 41.9911 131.176 40.57 131.138C38.9993 131.101 37.3912 131.063 35.8204 131.026C35.4091 131.026 35.0351 130.989 34.6237 130.989C34.4367 130.989 34.2497 130.989 34.0627 130.989C33.9879 130.989 33.8757 130.951 33.8009 130.989C33.6514 131.026 33.5766 130.876 33.8757 131.138C33.9505 131.213 33.9879 131.25 34.0627 131.325C34.0627 131.325 34.0627 131.363 34.1001 131.363C34.1001 131.363 34.1375 131.176 34.1001 131.25C34.1001 131.288 34.1375 131.101 34.1375 131.026C34.1749 130.802 34.2123 130.54 34.2497 130.315C34.6237 128.221 34.9229 126.164 35.2221 124.07C35.8578 119.433 36.4188 114.758 36.7928 110.083C36.9424 108.138 37.092 106.194 37.092 104.286C37.1294 102.94 34.9229 102.94 34.9229 104.324Z" fill="#231300"/>
<path d="M47.1147 104.324C47.3765 108.512 47.0773 112.701 46.5163 116.852C46.2171 118.947 45.8806 121.041 45.5066 123.135C45.3196 124.182 45.0952 125.192 44.9456 126.239C44.8708 126.725 44.8334 127.211 45.0952 127.66C45.3944 128.221 45.9179 128.483 46.5163 128.558C47.6383 128.67 48.7602 128.633 49.8821 128.67C51.1163 128.707 52.313 128.745 53.5471 128.782C54.9683 128.82 54.9683 126.613 53.5471 126.576C51.6024 126.538 49.6577 126.464 47.6757 126.426C47.4139 126.426 47.1895 126.426 46.9277 126.389C46.9651 126.389 46.6285 126.351 46.6285 126.389C46.8155 126.389 46.9277 126.501 47.0025 126.725C47.0773 126.725 46.8529 127.024 47.0399 126.65C47.0399 126.65 46.9651 127.062 47.0773 126.538C47.1147 126.314 47.1521 126.052 47.2269 125.828C47.4139 124.818 47.6009 123.846 47.7505 122.836C48.4236 118.947 49.022 115.02 49.2464 111.056C49.396 108.812 49.396 106.605 49.2464 104.361C49.209 103.763 48.7602 103.277 48.1618 103.277C47.6383 103.202 47.0773 103.726 47.1147 104.324Z" fill="#231300"/>
<path d="M12.9703 85.1761C9.79145 90.8232 8.59472 97.3678 9.52967 103.8C9.60446 104.399 10.3898 104.735 10.9134 104.586C11.5492 104.399 11.8109 103.8 11.6987 103.202C10.876 97.4426 12.0353 91.4216 14.915 86.3354C15.6629 85.0265 13.7182 83.9045 12.9703 85.1761Z" fill="#231300"/>
<path d="M13.8678 106.232C13.8678 108.176 12.0353 109.373 10.7264 109.373C9.41745 109.373 8.3703 107.765 8.3703 105.82C8.3703 103.876 9.15566 101.482 10.7264 101.482C11.9979 101.482 13.8678 104.25 13.8678 106.232Z" fill="black"/>
<path d="M12.5215 101.669C13.4565 102.267 15.4386 103.838 14.6532 104.66C14.2044 105.109 10.689 103.875 9.90365 102.304C9.41748 101.257 11.5866 101.07 12.5215 101.669Z" fill="black"/>
<path d="M78.0803 64.4575C78.9404 62.438 81.4087 62.5128 82.7924 63.4478C84.1761 64.3827 84.6249 66.7762 83.7648 68.7957C82.9046 70.8152 81.0347 72.7225 79.3518 71.6005C78.0055 70.703 77.2201 66.5144 78.0803 64.4575Z" fill="black"/>
<path d="M77.5192 70.142C76.8087 68.8705 75.3501 65.8039 76.5469 65.5421C77.2574 65.3925 80.3989 69.1697 80.5485 71.3762C80.6607 72.7599 78.2672 71.3762 77.5192 70.142Z" fill="black"/>
<path d="M43.113 68.6087C43.2626 68.5339 43.5618 68.4965 43.7488 68.6087C43.8984 68.6835 44.048 68.9453 44.048 69.1697C44.1602 70.7404 45.2447 71.9746 46.8154 72.2737C48.1618 72.5355 49.6951 71.7128 50.2935 70.3664C50.4804 69.9177 50.5552 69.4315 50.5926 68.9453C50.63 68.5339 50.817 68.3095 51.191 68.2721C51.565 68.2348 51.7894 68.4965 51.8268 68.9453C51.939 70.5908 50.7422 72.4981 49.2463 73.1339C47.0024 74.0688 44.6838 73.3583 43.4122 71.3014C43.0756 70.7404 42.6643 68.8331 43.113 68.6087Z" fill="black"/>
<path d="M58.8203 66.4771C60.1292 66.4397 61.3634 66.5519 62.4853 66.7388C62.9715 65.9535 63.2707 65.0185 63.2333 64.0088C63.1585 61.3909 61.1016 59.3714 58.6333 59.4088C56.165 59.4836 54.2203 61.6527 54.2951 64.2332C54.3325 65.2429 54.6691 66.1779 55.1927 66.9258C56.2772 66.664 57.5113 66.5145 58.8203 66.4771Z" fill="black"/>
<path d="M56.3004 65.8439C56.4806 65.6736 56.3851 65.2801 56.0871 64.9648C55.7892 64.6496 55.4016 64.532 55.2215 64.7023C55.0414 64.8725 55.1369 65.2661 55.4348 65.5814C55.7327 65.8966 56.1203 66.0141 56.3004 65.8439Z" fill="white"/>
<path d="M60.5754 63.7096C61.1742 63.6925 61.6443 63.1431 61.6255 62.4825C61.6067 61.8218 61.1061 61.3 60.5073 61.317C59.9086 61.3341 59.4385 61.8835 59.4573 62.5442C59.4761 63.2048 59.9767 63.7266 60.5754 63.7096Z" fill="white"/>
<path d="M36.9424 66.9258C38.214 66.8884 39.4107 67.0006 40.5326 67.1876C41.0188 66.4023 41.2806 65.5047 41.2806 64.495C41.2058 61.9519 39.1863 59.9324 36.7554 60.0072C34.3246 60.082 32.4173 62.2137 32.4921 64.7568C32.5295 65.7665 32.866 66.664 33.3896 67.3746C34.4741 67.1128 35.6709 66.9632 36.9424 66.9258Z" fill="black"/>
<path d="M34.4584 66.347C34.6385 66.1768 34.543 65.7832 34.2451 65.4679C33.9472 65.1527 33.5596 65.0352 33.3795 65.2054C33.1993 65.3757 33.2948 65.7692 33.5928 66.0845C33.8907 66.3997 34.2782 66.5173 34.4584 66.347Z" fill="white"/>
<path d="M38.658 64.1956C39.2361 64.1791 39.69 63.6469 39.6718 63.0069C39.6536 62.3669 39.1702 61.8613 38.5921 61.8778C38.014 61.8943 37.5601 62.4264 37.5783 63.0665C37.5966 63.7065 38.08 64.212 38.658 64.1956Z" fill="white"/>
<path d="M102.09 80.8753C101.417 82.5582 100.631 84.3159 99.7337 85.9614C99.3597 86.7094 98.9483 87.42 98.4995 88.0931C98.3125 88.3923 98.1256 88.6915 97.9012 88.9907C97.789 89.1403 97.7142 89.2525 97.602 89.4021C97.415 89.6638 97.7516 89.2151 97.5646 89.4768C97.4898 89.5516 97.4524 89.6264 97.3776 89.7012C97.1906 89.9256 97.0036 90.15 96.7792 90.3744C96.667 90.4866 96.5548 90.5988 96.4426 90.6736C96.3678 90.7484 96.0313 91.0102 96.2931 90.8232C96.1061 90.9728 95.8817 91.1224 95.6573 91.2345C95.6199 91.2719 95.5451 91.272 95.5077 91.3094C95.2833 91.4215 95.7695 91.2346 95.5451 91.3094C95.4329 91.3467 95.3207 91.3841 95.1711 91.4215C95.1337 91.4215 95.0963 91.4215 95.0589 91.4589C94.8345 91.5337 95.3581 91.4589 95.1337 91.4589C95.0589 91.4589 94.9467 91.4589 94.8345 91.4589C94.5353 91.4589 95.0589 91.5337 94.7971 91.4589C94.6849 91.4215 94.5727 91.3841 94.4606 91.3468C94.7971 91.4215 94.4979 91.3467 94.3858 91.3094C94.2736 91.2346 94.1988 91.1972 94.0866 91.1224C94.3858 91.3094 94.0492 91.085 93.9744 91.0102C93.8622 90.898 93.75 90.7858 93.6378 90.6362C93.6004 90.5988 93.5256 90.524 93.4882 90.4492C93.4508 90.3744 93.4508 90.4118 93.5256 90.524C93.4882 90.4866 93.4508 90.4118 93.4134 90.3744C93.3012 90.2248 93.189 90.0378 93.0768 89.8508C92.815 89.4395 92.6281 89.0281 92.4037 88.6167C91.9175 87.6069 91.5435 86.4102 91.2069 85.2883C90.7581 83.8298 88.5143 84.4655 88.9257 85.924C89.524 87.9435 90.2346 90.1126 91.5435 91.7955C92.3663 92.9175 93.563 93.8524 95.0215 93.815C96.3678 93.7776 97.5272 92.9923 98.4247 92.0573C99.6215 90.8606 100.519 89.4021 101.342 87.9435C102.501 85.8866 103.436 83.7176 104.334 81.5111C104.558 80.9127 104.072 80.2021 103.511 80.0526C102.875 79.8656 102.352 80.2769 102.09 80.8753Z" fill="#231300"/>
<path d="M165.704 102.417C164.956 100.808 164.283 99.5369 163.722 98.5271C163.647 98.3401 163.572 98.1531 163.497 97.9661C165.143 94.9743 166.078 91.5337 166.078 87.9061V66.851C166.078 55.295 156.616 45.8333 145.06 45.8333H117.685C107.587 45.8333 99.2849 54.0983 99.2849 64.2331V82.6704C99.2849 97.106 111.103 108.924 125.538 108.924H145.06C147.902 108.924 150.595 108.363 153.063 107.316C153.4 107.39 153.624 107.428 153.736 107.465C163.535 110.046 166.34 116.254 166.34 116.254C166.34 116.254 169.705 111.242 165.704 102.417Z" fill="#EC2327"/>
<path d="M163.722 98.5271C163.647 98.3401 163.572 98.1531 163.497 97.9661C165.143 94.9743 166.078 91.5337 166.078 87.9061V79.7907C159.01 92.7304 141.732 101.893 121.537 101.893C116.039 101.893 110.804 101.22 105.867 99.9856C110.691 105.446 117.722 108.924 125.538 108.924H145.06C147.902 108.924 150.595 108.363 153.063 107.316C153.4 107.39 153.624 107.428 153.736 107.465C163.535 110.046 166.34 116.254 166.34 116.254C166.34 116.254 169.668 111.242 165.666 102.454C164.956 100.808 164.283 99.5369 163.722 98.5271Z" fill="#C91720"/>
<path d="M135.748 71.5258C135.935 71.4136 136.346 71.451 136.646 71.6006C136.945 71.7502 136.982 71.8624 137.244 71.9746C137.468 72.1241 137.805 72.4607 138.403 72.2737C138.889 72.1241 144.162 70.1047 146.032 69.3941C146.481 69.2071 147.641 68.8705 148.127 68.9827C148.875 69.1323 149.286 69.7307 149.286 70.142C149.922 74.2184 148.351 75.0038 145.733 76.1257C141.283 77.5843 139.488 74.6298 139.338 74.4428C139.189 74.2184 138.478 73.8819 137.805 73.7323C137.132 73.5827 136.309 73.2835 135.972 72.9469C135.711 72.6477 135.262 71.8624 135.748 71.5258Z" fill="black"/>
<path d="M140.834 73.4705C140.797 73.3583 140.797 73.0965 140.946 72.9469C141.096 72.7973 148.127 68.9827 148.202 71.2266C148.202 71.4884 148.239 72.3485 148.052 72.7973C147.865 73.2461 147.641 73.6574 147.229 74.0314C146.818 74.4054 145.172 75.116 143.976 75.3404C142.031 75.7143 140.946 73.7322 140.834 73.4705Z" fill="white"/>
<path d="M122.509 72.1989C122.322 72.0867 121.911 72.1241 121.612 72.2737C121.312 72.3859 121.275 72.5355 121.051 72.6477C120.826 72.7973 120.49 73.0964 119.891 72.9468C119.405 72.7973 114.207 70.9274 112.337 70.2542C111.888 70.1046 110.766 69.768 110.28 69.8802C109.532 70.0298 109.158 70.5908 109.121 71.0021C108.522 74.8541 110.056 75.6395 112.673 76.6493C117.086 78.033 118.807 75.2281 118.956 75.0037C119.106 74.8167 119.816 74.4428 120.452 74.3306C121.088 74.2184 121.911 73.8818 122.285 73.5826C122.546 73.2834 122.995 72.4981 122.509 72.1989Z" fill="black"/>
<path d="M117.535 74.0688C117.573 73.9566 117.573 73.6948 117.386 73.5826C117.236 73.433 110.28 69.8428 110.243 72.0119C110.243 72.2737 110.205 73.0964 110.392 73.5078C110.579 73.9192 110.804 74.3305 111.215 74.7045C111.626 75.0411 113.234 75.7143 114.431 75.9013C116.338 76.2004 117.423 74.3305 117.535 74.0688Z" fill="white"/>
<path d="M136.571 105.109C137.954 112.29 139.45 119.433 141.058 126.538C141.507 128.558 141.993 130.54 142.48 132.559C142.854 132.073 143.19 131.624 143.564 131.138C140.311 131.4 137.057 131.512 133.766 131.4C132.307 131.363 132.307 133.606 133.766 133.644C137.02 133.756 140.311 133.644 143.564 133.382C144.312 133.307 144.836 132.709 144.649 131.961C142.966 124.855 141.395 117.75 139.937 110.569C139.525 108.55 139.151 106.53 138.74 104.511C138.628 103.912 137.917 103.576 137.356 103.725C136.72 103.875 136.459 104.511 136.571 105.109Z" fill="#231300"/>
<path d="M123.444 106.867C121.686 111.168 120.527 115.693 119.667 120.293C119.255 122.574 118.881 124.855 118.545 127.174C118.47 127.735 118.395 128.259 118.32 128.82C118.32 128.932 118.283 129.044 118.246 129.194C118.246 129.268 118.246 129.455 118.208 129.343C118.433 129.231 118.62 129.156 118.844 129.044C118.807 129.044 118.769 129.044 118.694 129.007C118.545 128.969 118.358 128.969 118.208 128.969C117.909 128.969 118.283 128.969 118.283 129.007C118.283 129.007 118.096 128.969 118.059 128.969C117.872 128.932 117.685 128.857 117.498 128.782C117.76 128.894 117.498 128.782 117.386 128.745C117.236 128.67 117.086 128.595 116.937 128.52C116.6 128.371 116.264 128.184 115.927 128.034C114.917 127.548 113.87 127.062 112.823 126.613C112.262 126.351 111.626 126.463 111.29 127.024C111.028 127.511 111.14 128.296 111.701 128.558C113.309 129.268 114.842 130.054 116.451 130.764C117.76 131.325 119.779 131.886 120.34 130.016C120.49 129.53 120.527 128.969 120.602 128.446C120.677 127.81 120.789 127.174 120.901 126.538C121.088 125.267 121.275 124.033 121.499 122.761C121.911 120.33 122.397 117.937 122.995 115.543C123.668 112.813 124.529 110.158 125.576 107.577C125.8 107.016 125.314 106.343 124.79 106.194C124.192 105.932 123.706 106.306 123.444 106.867Z" fill="#231300"/>
<path d="M145.135 73.8444C146.064 73.8444 146.818 73.0909 146.818 72.1615C146.818 71.232 146.064 70.4786 145.135 70.4786C144.205 70.4786 143.452 71.232 143.452 72.1615C143.452 73.0909 144.205 73.8444 145.135 73.8444Z" fill="black"/>
<path d="M114.543 74.9664C115.473 74.9664 116.226 74.2129 116.226 73.2834C116.226 72.354 115.473 71.6005 114.543 71.6005C113.614 71.6005 112.86 72.354 112.86 73.2834C112.86 74.2129 113.614 74.9664 114.543 74.9664Z" fill="black"/>
<path d="M92.1792 78.4069C91.6557 76.3874 89.711 76.3126 88.5516 77.1354C87.3923 77.9582 86.9061 80.3142 87.4297 82.3337C87.9533 84.3532 89.2622 86.3353 90.6459 85.3256C91.8052 84.5402 92.7028 80.4638 92.1792 78.4069Z" fill="black"/>
<path d="M92.2166 84.0167C92.8523 82.8199 94.1987 79.8655 93.3011 79.5663C92.7775 79.3793 90.0475 82.9321 89.7857 85.0638C89.5987 86.4101 91.5808 85.2134 92.2166 84.0167Z" fill="black"/>
<path d="M158.486 77.6217C160.019 79.1176 161.515 80.7257 162.862 82.4086C162.936 82.4834 163.049 82.6704 163.198 82.8574C163.348 83.0444 163.497 83.2314 163.61 83.4184C163.871 83.7923 164.133 84.1663 164.358 84.5403C164.806 85.2509 165.18 85.9614 165.517 86.7094C165.442 86.5224 165.517 86.7094 165.554 86.7842C165.592 86.859 165.629 86.9712 165.666 87.046C165.741 87.1956 165.779 87.3825 165.853 87.5321C165.966 87.8687 166.04 88.1679 166.078 88.5045C166.078 88.5419 166.078 88.5793 166.078 88.6167C166.115 88.7663 166.04 88.3923 166.078 88.5419C166.078 88.6167 166.078 88.6915 166.115 88.7663C166.115 88.9159 166.115 89.0655 166.115 89.215C166.115 89.3646 166.078 89.5142 166.078 89.6638C166.078 89.7386 166.115 89.4394 166.078 89.6264C166.078 89.7012 166.04 89.776 166.04 89.8508C166.003 90.0004 165.966 90.1126 165.928 90.2622C165.928 90.2996 165.816 90.4866 165.891 90.337C165.966 90.1874 165.853 90.4118 165.853 90.4492C165.779 90.5614 165.704 90.6736 165.629 90.7858C165.592 90.8232 165.479 91.0102 165.592 90.8606C165.704 90.711 165.554 90.9354 165.517 90.9354C165.405 91.0476 165.33 91.1597 165.218 91.2345C165.18 91.2719 165.105 91.3093 165.068 91.3841C164.993 91.4589 165.143 91.3093 165.143 91.3093C165.105 91.3467 165.068 91.3841 165.031 91.3841C164.732 91.5711 164.47 91.7581 164.133 91.8703C164.096 91.9077 164.021 91.9077 163.984 91.9451C164.058 91.9077 164.096 91.9077 163.984 91.9451C163.871 91.9825 163.797 92.0199 163.684 92.0573C163.46 92.1321 163.236 92.2069 163.011 92.2817C162.488 92.4313 162.001 92.5061 161.478 92.5809C161.366 92.5809 161.44 92.5809 161.478 92.5809C161.403 92.5809 161.328 92.6183 161.253 92.6183C161.104 92.6183 160.954 92.6557 160.805 92.6557C160.468 92.6931 160.132 92.6931 159.832 92.7305C159.084 92.7679 158.336 92.7679 157.626 92.7305C156.242 92.6931 156.242 94.8622 157.626 94.8996C161.104 95.0118 166.452 94.8622 168.023 91.0102C168.584 89.6638 168.397 88.0931 167.948 86.7468C167.349 84.9891 166.377 83.381 165.292 81.885C163.759 79.7907 161.964 77.846 160.094 76.0135C159.047 75.116 157.514 76.6493 158.486 77.6217Z" fill="#231300"/>
<path d="M158.486 95.6475C158.336 95.6101 158.187 95.5353 158.037 95.4979C158.112 95.5353 158.224 95.5727 158.299 95.6101C158.075 95.4979 157.85 95.3857 157.626 95.2361C157.701 95.3109 157.775 95.3483 157.85 95.4231C157.701 95.3109 157.588 95.1987 157.514 95.0865C157.588 95.1613 157.626 95.2361 157.701 95.3109C157.626 95.1987 157.551 95.1239 157.514 94.9743C157.551 95.0491 157.588 95.1613 157.626 95.2361C157.588 95.1239 157.551 94.9743 157.514 94.8247C157.514 94.9369 157.551 95.0117 157.551 95.1239C157.551 95.0117 157.551 94.8995 157.551 94.8247C157.551 94.9369 157.514 95.0117 157.514 95.1239C157.514 95.0491 157.551 94.9369 157.588 94.8621C157.551 94.9369 157.514 95.0491 157.476 95.1239C157.514 95.0491 157.551 94.9743 157.626 94.8995C157.551 94.9743 157.514 95.0491 157.439 95.1239C157.476 95.0491 157.551 95.0117 157.626 94.9369C157.551 95.0117 157.476 95.0491 157.401 95.1239C157.476 95.0491 157.588 95.0117 157.701 94.9743C157.626 95.0117 157.514 95.0491 157.439 95.0865C157.588 95.0117 157.775 94.9743 157.962 94.9369C157.85 94.9369 157.775 94.9743 157.663 94.9743C157.962 94.9369 158.262 94.9369 158.523 94.9743C158.411 94.9743 158.336 94.9369 158.224 94.9369C158.299 94.9369 158.411 94.9743 158.486 95.0117C158.411 94.9743 158.299 94.9369 158.224 94.8995C158.299 94.9369 158.336 94.9743 158.374 95.0117C158.299 94.9369 158.224 94.8995 158.149 94.8247C158.187 94.8621 158.224 94.8995 158.262 94.9743C158.187 94.8995 158.149 94.8247 158.075 94.7499C158.224 94.9369 158.299 95.1613 158.411 95.3857C158.523 95.6475 158.636 95.8718 158.748 96.1336C158.71 96.0588 158.673 95.9466 158.636 95.8718C158.673 95.9466 158.673 95.984 158.71 96.0588C158.71 95.9466 158.673 95.8718 158.673 95.7596C158.673 95.797 158.673 95.8344 158.673 95.8344C158.673 95.7223 158.71 95.6475 158.71 95.5353V95.5727C158.748 95.4979 158.785 95.3857 158.823 95.3109C158.823 95.3109 158.823 95.3483 158.785 95.3483C158.86 95.2735 158.897 95.1987 158.972 95.1239C158.972 95.1613 158.935 95.1613 158.935 95.1987C159.01 95.1239 159.084 95.0865 159.159 95.0117C159.122 95.0117 159.122 95.0491 159.084 95.0491C159.159 95.0117 159.271 94.9743 159.346 94.9369C159.197 95.0117 159.01 95.0117 158.823 95.0491C158.935 95.0491 159.01 95.0117 159.122 95.0117C158.823 95.0491 158.523 95.0491 158.262 95.0117C158.374 95.0117 158.449 95.0491 158.561 95.0491C158.411 95.0117 158.262 95.0117 158.112 94.9369C158.187 94.9743 158.299 95.0117 158.374 95.0491C158.299 95.0117 158.262 95.0117 158.224 94.9743C158.299 95.0491 158.374 95.0865 158.449 95.1613C158.411 95.1239 158.374 95.0865 158.336 95.0491C158.411 95.1239 158.449 95.1987 158.523 95.2735C158.486 95.2361 158.486 95.1987 158.449 95.1613C158.486 95.2361 158.523 95.3483 158.561 95.4231C158.561 95.3857 158.523 95.3483 158.523 95.3109C158.523 95.4231 158.561 95.4979 158.561 95.6101C158.561 95.5727 158.561 95.5727 158.561 95.5353C158.561 95.6475 158.523 95.7223 158.523 95.8344C158.486 95.6475 158.486 95.6475 158.486 95.6475C158.449 95.7223 158.411 95.797 158.374 95.8718C158.374 95.8344 158.411 95.8344 158.411 95.797C158.336 95.8718 158.299 95.9466 158.224 96.0214C158.224 95.984 158.262 95.984 158.299 95.9466C158.224 96.0214 158.149 96.0588 158.075 96.1336C158.112 96.0962 158.112 96.0962 158.149 96.0962C158.075 96.1336 157.962 96.171 157.888 96.2084C157.962 96.171 158.037 96.171 158.112 96.1336C158 96.1336 157.925 96.171 157.813 96.171C157.962 96.171 158.075 96.171 158.224 96.171C158.112 96.171 158.037 96.1336 157.925 96.1336C158.075 96.171 158.224 96.2084 158.374 96.2458C158.299 96.2084 158.187 96.171 158.112 96.1336C158.262 96.2084 158.374 96.2832 158.486 96.358C158.411 96.2832 158.336 96.2458 158.262 96.171C158.374 96.2458 158.449 96.358 158.561 96.4702C158.486 96.3954 158.449 96.3206 158.374 96.2458C158.449 96.3206 158.486 96.3954 158.523 96.5076C158.486 96.4328 158.449 96.3206 158.411 96.2458C158.449 96.2832 158.449 96.358 158.449 96.3954C158.449 96.2832 158.411 96.2084 158.411 96.0962C158.411 96.1336 158.411 96.171 158.411 96.2084C158.411 96.0962 158.449 96.0214 158.449 95.9092C158.449 95.9466 158.449 95.984 158.411 96.0214C158.449 95.9466 158.486 95.8344 158.523 95.7596C158.523 95.797 158.486 95.7971 158.486 95.8344C158.561 95.7597 158.598 95.6849 158.673 95.6101C158.636 95.6475 158.598 95.6849 158.561 95.7222C158.636 95.6475 158.71 95.6101 158.785 95.5353C158.673 95.6101 158.561 95.6849 158.449 95.7222C158.523 95.6849 158.636 95.6475 158.71 95.6101C158.561 95.6475 158.449 95.6849 158.299 95.7222C158.411 95.7222 158.486 95.6848 158.598 95.6848C158.449 95.6848 158.299 95.6848 158.187 95.6848C158.299 95.6848 158.374 95.7222 158.486 95.7222C158.336 95.6849 158.224 95.6475 158.075 95.6101C158.149 95.6475 158.262 95.6849 158.336 95.7222C158.299 95.7222 158.262 95.6848 158.262 95.6848C158 95.5727 157.701 95.4979 157.439 95.5727C157.177 95.6475 156.915 95.8344 156.803 96.0588C156.541 96.545 156.654 97.2556 157.177 97.5174C158 97.9287 158.935 97.9287 159.758 97.48C160.356 97.1808 160.73 96.6198 160.618 95.9092C160.543 95.4605 160.281 95.0117 159.945 94.6751C159.271 94.0767 158.411 93.815 157.551 94.0019C156.878 94.1141 156.354 94.7125 156.354 95.3857C156.354 95.9466 156.728 96.545 157.252 96.7694C157.701 96.9564 158.187 97.0312 158.636 97.0686C158.823 97.0686 159.047 97.0686 159.234 97.0312C159.458 96.9938 159.645 96.9938 159.87 96.919C160.206 96.8068 160.543 96.5824 160.693 96.2832C160.88 95.9466 160.917 95.5353 160.767 95.1613C160.618 94.7499 160.393 94.3759 160.206 93.9646C160.019 93.5532 159.795 93.1792 159.384 92.9174C159.01 92.6556 158.523 92.6182 158.075 92.6182C157.327 92.6182 156.504 92.8052 155.943 93.3288C155.195 94.0393 155.158 95.2361 155.644 96.0962C156.13 96.919 156.99 97.3304 157.85 97.6295C158.374 97.8165 159.047 97.4052 159.159 96.8816C159.384 96.358 159.047 95.8344 158.486 95.6475Z" fill="#231300"/>
<path d="M160.655 96.2085C162.039 96.2085 162.039 94.0394 160.655 94.0394C159.271 94.0394 159.271 96.2085 160.655 96.2085Z" fill="#231300"/>
<path d="M131.821 77.659C131.746 77.6964 131.672 77.7338 131.597 77.7712C131.784 77.659 131.597 77.7712 131.485 77.8086C131.26 77.8834 131.036 77.9582 130.811 77.9956C130.176 78.1452 129.727 78.1826 129.091 78.2574C128.381 78.3322 127.707 78.3321 126.997 78.3321C126.361 78.3321 125.613 78.2948 125.052 78.1826C124.603 78.1078 124.117 78.2948 123.968 78.7809C123.855 79.1923 124.117 79.7907 124.566 79.8655C126.099 80.1273 127.633 80.1273 129.166 79.9777C130.288 79.8655 131.672 79.7907 132.644 79.1549C133.654 78.5939 132.794 77.0606 131.821 77.659Z" fill="#231300"/>
</svg>
