<svg width="176" height="175" viewBox="0 0 176 175" fill="none" xmlns="http://www.w3.org/2000/svg">
<path d="M120.246 60.7698C121.263 63.2795 122.349 65.7892 123.637 68.1971C124.689 70.1642 125.842 72.0634 127.3 73.7591C128.385 74.9801 129.81 76.2349 131.472 76.5062C133.337 76.8115 135.067 76.0653 136.321 74.6409C138.356 72.3347 139.408 69.2485 140.256 66.3657C140.493 65.5179 139.95 64.4665 139.069 64.2969C138.153 64.0934 137.237 64.5683 137 65.484C136.796 66.2301 136.559 66.9423 136.288 67.6884C136.186 68.0276 136.05 68.3328 135.914 68.6719C135.847 68.8076 135.813 68.9433 135.745 69.1128C135.643 69.4181 135.745 69.1128 135.779 69.045C135.745 69.1467 135.711 69.2485 135.643 69.3163C135.202 70.2659 134.727 71.2155 134.117 72.0634C134.083 72.0973 134.049 72.1312 134.049 72.1652C133.947 72.3347 134.287 71.8599 134.151 72.0295C134.083 72.0973 134.015 72.1652 133.981 72.233C133.846 72.3686 133.71 72.5382 133.574 72.6739C133.473 72.7756 133.337 72.8774 133.201 72.9791C133.574 72.606 133.439 72.8095 133.269 72.9113C133.201 72.9452 133.133 73.013 133.066 73.0469C132.964 73.1148 132.523 73.3183 132.828 73.1826C133.167 73.0469 132.693 73.2165 132.591 73.2504C132.523 73.2843 132.455 73.2843 132.387 73.2843C132.184 73.3522 132.896 73.2504 132.591 73.2504C132.455 73.2504 132.319 73.2504 132.15 73.2504C132.116 73.2504 132.082 73.2504 132.082 73.2504C131.845 73.2504 132.421 73.2843 132.353 73.2843C132.319 73.3183 132.218 73.2504 132.15 73.2504C132.014 73.2165 131.845 73.1826 131.709 73.1148C131.438 73.013 131.777 73.1487 131.879 73.1826C131.811 73.1487 131.743 73.1148 131.675 73.0808C131.539 73.013 131.404 72.9452 131.268 72.8434C131.132 72.7417 130.997 72.6739 130.861 72.5721C130.658 72.4365 131.2 72.8434 130.963 72.64C130.895 72.5721 130.793 72.5043 130.726 72.4365C130.42 72.1991 130.149 71.9277 129.912 71.6225C129.64 71.3173 129.369 70.9781 129.098 70.639C129.437 71.046 129.165 70.7407 129.098 70.639C129.03 70.5372 128.962 70.4694 128.894 70.3677C128.758 70.1642 128.623 69.9946 128.487 69.7911C127.911 68.9093 127.368 68.0276 126.859 67.0779C126.215 65.9248 125.638 64.7378 125.096 63.5508C124.79 62.9064 124.519 62.2621 124.248 61.6516C124.18 61.482 124.112 61.3124 124.01 61.1429C123.976 61.075 123.976 61.0411 123.943 60.9733C123.875 60.7698 124.078 61.2785 123.943 60.9733C123.807 60.6341 123.637 60.2611 123.502 59.9219C123.163 59.108 122.349 58.4297 121.433 58.7349C120.653 58.9384 119.907 59.888 120.246 60.7698Z" fill="#231300"/>
<path d="M139.34 64.3649C139.272 64.1614 139.238 63.924 139.204 63.7205C139.238 63.8562 139.238 63.9918 139.272 64.1275C139.204 63.6188 139.204 63.1439 139.272 62.6352C139.238 62.7709 139.238 62.9065 139.204 63.0422C139.272 62.6352 139.34 62.2622 139.476 61.8891C139.611 61.516 139.51 61.0073 139.306 60.7021C139.103 60.3629 138.763 60.0577 138.39 59.9899C137.983 59.8881 137.543 59.922 137.203 60.1594C136.864 60.3968 136.627 60.7021 136.491 61.0751C136.016 62.3978 136.016 63.8222 136.322 65.1788C136.423 65.5519 136.695 65.925 137.034 66.0945C137.373 66.298 137.848 66.3659 138.221 66.2641C139.069 66.0267 139.544 65.2128 139.34 64.3649Z" fill="#231300"/>
<path d="M138.695 69.0789C138.933 69.3502 139.34 69.5537 139.645 69.6555C139.849 69.7233 140.052 69.7572 140.289 69.7572C140.595 69.7572 140.934 69.7233 141.239 69.6216C141.782 69.4859 142.29 69.2485 142.765 68.9772C143.376 68.6041 143.918 68.0954 144.257 67.451C144.631 66.671 144.766 65.8909 144.868 65.0431C144.936 64.3309 144.936 63.5508 144.732 62.8386C144.461 61.9568 143.952 61.2446 143.172 60.7359C141.714 59.7524 139.543 60.1254 138.424 61.4481C137.814 62.1942 137.373 63.0421 137.339 64.0256C137.305 64.9752 137.712 65.7892 138.153 66.5692C138.662 67.5188 140.052 67.8919 140.934 67.3153C141.883 66.7049 142.189 65.5179 141.68 64.5343C141.544 64.2969 141.409 64.0595 141.307 63.8221C141.375 63.9917 141.443 64.1613 141.51 64.2969C141.443 64.1274 141.409 63.9917 141.375 63.8221C141.409 63.9917 141.409 64.1952 141.443 64.3648C141.443 64.2291 141.409 64.0934 141.443 63.9917C141.409 64.1613 141.409 64.3648 141.375 64.5343C141.409 64.3648 141.443 64.1952 141.51 64.0256C141.443 64.1952 141.375 64.3648 141.307 64.5004C141.375 64.3309 141.476 64.1613 141.612 63.9917C141.51 64.1274 141.409 64.263 141.307 64.3987C141.409 64.263 141.544 64.1274 141.68 64.0256C141.544 64.1274 141.409 64.2291 141.273 64.3309C141.375 64.2291 141.51 64.1613 141.646 64.0934C141.476 64.1613 141.307 64.2291 141.171 64.2969C141.273 64.263 141.409 64.2291 141.51 64.1952C141.341 64.2291 141.137 64.2291 140.968 64.263C141.171 64.2291 141.341 64.2291 141.544 64.263C141.375 64.2291 141.171 64.2291 141.002 64.1952C141.137 64.2291 141.273 64.263 141.409 64.3309C141.239 64.263 141.07 64.1952 140.934 64.1274C141.036 64.1613 141.137 64.2291 141.239 64.2969C141.103 64.1952 140.968 64.0934 140.832 63.9917C140.934 64.0595 141.036 64.1613 141.103 64.263C141.002 64.1274 140.9 63.9917 140.798 63.856C140.866 63.9578 140.934 64.0934 141.002 64.1952C140.934 64.0256 140.866 63.856 140.798 63.7204C140.9 63.9239 140.934 64.1274 140.968 64.3648C140.934 64.1952 140.934 63.9917 140.9 63.8221C140.968 64.263 140.934 64.7039 140.866 65.1448C140.9 64.9752 140.9 64.7717 140.934 64.6022C140.866 65.0091 140.798 65.4161 140.663 65.8231C140.73 65.6535 140.798 65.484 140.866 65.3483C140.798 65.484 140.73 65.6196 140.629 65.7553C140.73 65.6196 140.832 65.484 140.934 65.3483C140.866 65.45 140.764 65.5518 140.663 65.6196C140.798 65.5179 140.934 65.4161 141.07 65.3144C140.798 65.5179 140.493 65.6535 140.222 65.7892C140.391 65.7214 140.561 65.6535 140.696 65.5857C140.459 65.6874 140.222 65.7553 139.984 65.8231C140.154 65.7892 140.357 65.7892 140.527 65.7553C140.459 65.7553 140.391 65.7553 140.323 65.7553C140.493 65.7892 140.696 65.7892 140.866 65.8231C140.832 65.8231 140.832 65.8231 140.798 65.8231C140.968 65.8909 141.137 65.9588 141.273 66.0266C141.273 66.0266 141.273 66.0266 141.239 66.0266C141.375 66.1283 141.51 66.2301 141.646 66.3318L141.612 66.2979C141.307 65.9248 140.663 65.6874 140.188 65.6874C139.679 65.6874 139.102 65.9248 138.763 66.2979C138.39 66.671 138.153 67.1797 138.153 67.7223C138.119 68.1971 138.322 68.638 138.695 69.0789Z" fill="#231300"/>
<path d="M79.2771 21.7C53.2984 21.7 32.2374 42.7611 32.2374 68.7397C32.2374 81.6952 37.4602 93.3958 45.9389 101.908C44.1414 109.132 41.0552 116.458 35.8323 116.458C39.4273 121.308 55.8759 114.83 63.2015 112.931C68.2209 114.762 73.6134 115.746 79.2771 115.746C105.256 115.746 126.317 94.6845 126.317 68.7058C126.317 42.7611 105.256 21.7 79.2771 21.7Z" fill="#117DC1"/>
<path d="M32.2711 66.705C32.2372 67.3833 32.2032 68.0615 32.2032 68.7398C32.2032 81.6953 37.4261 93.3958 45.9048 101.908C44.1073 109.132 41.0211 116.458 35.7982 116.458C39.3932 121.308 55.8418 114.83 63.1674 112.931C68.1868 114.762 73.5792 115.746 79.243 115.746C95.929 115.746 110.546 107.063 118.889 93.9724C109.868 99.0596 99.524 101.976 88.5695 101.976C64.2188 102.01 43.022 87.7321 32.2711 66.705Z" fill="#1E70AC"/>
<path d="M47.3291 77.7949C47.0917 82.4073 50.8563 86.1379 54.7565 87.8676C59.708 90.072 65.4396 90.106 70.3233 87.6641C73.4774 86.104 76.021 83.4926 77.8524 80.5081C78.3272 79.728 78.0559 78.5749 77.2419 78.168C76.3941 77.7271 75.4105 77.9645 74.9018 78.7784C74.6983 79.1176 74.4948 79.4228 74.2574 79.762C74.1557 79.9315 74.054 80.0672 73.9183 80.2368C73.8844 80.3046 73.8166 80.3724 73.7826 80.4063C73.5792 80.6777 74.02 80.1011 73.7487 80.4402C73.2739 81.0168 72.7991 81.5594 72.2904 82.0682C72.0869 82.2716 71.8495 82.5091 71.6121 82.6786C71.4764 82.7804 71.3408 82.8821 71.239 83.0178C71.1712 83.0856 71.0695 83.1534 71.0016 83.2213C70.7642 83.4247 71.3069 82.9839 71.0355 83.1873C70.5268 83.5604 69.9842 83.9335 69.4076 84.2387C69.1363 84.4083 68.865 84.5439 68.5598 84.6796C68.4241 84.7474 68.3224 84.8153 68.1867 84.8492C68.0511 84.917 67.5084 85.1205 68.051 84.917C67.4745 85.1205 66.9319 85.3579 66.3214 85.5275C65.7448 85.697 65.1344 85.8327 64.5239 85.9344C64.4561 85.9344 64.3883 85.9684 64.3204 85.9684C64.0491 86.0023 64.49 85.9344 64.5239 85.9344C64.3883 85.9344 64.2187 85.9684 64.083 86.0023C63.7778 86.0362 63.4386 86.0701 63.1334 86.0701C62.5569 86.104 61.9803 86.104 61.4038 86.0701C61.1324 86.0701 60.8611 86.0362 60.5898 86.0023C60.522 86.0023 60.0133 85.9344 60.3524 85.9684C60.6916 86.0023 60.1828 85.9344 60.0811 85.9344C58.9958 85.7649 57.9105 85.4596 56.8592 85.0527C56.7574 85.0187 56.6218 84.9509 56.52 84.917C56.1131 84.7474 56.8931 85.0866 56.4861 84.917C56.2487 84.8153 55.9774 84.6796 55.74 84.5779C55.2652 84.3404 54.8243 84.0691 54.3834 83.7978C54.1799 83.6622 53.9764 83.5265 53.8069 83.3908C53.7729 83.3569 53.7051 83.323 53.6712 83.2891C53.4677 83.1534 53.8408 83.4248 53.8408 83.4248C53.739 83.323 53.6034 83.2552 53.5016 83.1534C53.1286 82.8482 52.7894 82.5091 52.4503 82.1699C52.2807 81.9664 52.1111 81.7629 51.9415 81.5594C51.8059 81.3899 52.2129 81.9325 52.0772 81.729C52.0433 81.6612 52.0094 81.6273 51.9415 81.5594C51.8737 81.4577 51.772 81.3559 51.7041 81.2203C51.5685 81.0168 51.4328 80.8133 51.3311 80.6098C51.2633 80.5081 51.1954 80.3724 51.1615 80.2707C51.1276 80.2368 51.1276 80.2028 51.0937 80.1689C50.958 79.8976 51.1276 80.2707 51.1615 80.3385C51.0258 79.8637 50.8224 79.4228 50.7545 78.9141C50.7545 78.8802 50.7545 78.8463 50.7206 78.7784C50.6528 78.4054 50.7545 79.1176 50.7545 78.948C50.7545 78.8463 50.7206 78.7106 50.7206 78.6089C50.7206 78.3375 50.7206 78.1001 50.7206 77.8288C50.7545 76.947 49.9067 76.0652 49.0249 76.1331C48.0753 76.0992 47.397 76.8114 47.3291 77.7949Z" fill="black"/>
<path d="M83.8215 50.9345C84.025 50.8328 84.4998 50.7989 84.7372 50.9345C84.9746 51.0702 85.1442 51.4433 85.1781 51.7485C85.3816 54.0547 87.0095 55.8183 89.3157 56.2252C91.3167 56.5644 93.5551 55.3774 94.4029 53.3764C94.6742 52.732 94.776 52.0198 94.8438 51.3076C94.8777 50.6971 95.1491 50.3919 95.6917 50.3241C96.2682 50.2562 96.6074 50.6293 96.6413 51.2737C96.8448 53.6816 95.1151 56.4965 92.9107 57.4801C89.621 58.9045 86.2295 57.921 84.3303 54.8686C83.7876 54.0208 83.1432 51.2737 83.8215 50.9345Z" fill="black"/>
<path d="M104.51 47.3395C106.273 47.2717 107.935 47.3735 109.461 47.6109C110.105 46.5595 110.479 45.2707 110.445 43.9142C110.309 40.387 107.494 37.6738 104.136 37.8095C100.779 37.9452 98.2014 40.8957 98.337 44.4229C98.4049 45.7795 98.8797 47.0343 99.5919 48.0518C101.118 47.6448 102.746 47.4074 104.51 47.3395Z" fill="black"/>
<path d="M101.067 46.5457C101.309 46.3111 101.178 45.7829 100.774 45.3658C100.37 44.9487 99.8465 44.8008 99.6043 45.0353C99.3622 45.2699 99.4933 45.7981 99.8973 46.2152C100.301 46.6323 100.825 46.7803 101.067 46.5457Z" fill="white"/>
<path d="M106.849 43.5409C107.654 43.5081 108.278 42.7685 108.242 41.8888C108.206 41.0092 107.524 40.3227 106.72 40.3555C105.915 40.3883 105.292 41.1279 105.327 42.0076C105.363 42.8872 106.045 43.5737 106.849 43.5409Z" fill="white"/>
<path d="M72.9009 48.6283C74.6645 48.5605 76.3263 48.6623 77.8525 48.8997C78.4969 47.8483 78.8699 46.5596 78.836 45.203C78.7003 41.6758 75.8854 38.9627 72.5279 39.0983C69.2042 39.234 66.5928 42.1846 66.7284 45.7117C66.7963 47.0683 67.2711 48.3231 67.9833 49.3406C69.5095 48.9336 71.1713 48.6962 72.9009 48.6283Z" fill="black"/>
<path d="M69.4603 47.837C69.7025 47.6024 69.5713 47.0742 69.1674 46.6571C68.7634 46.24 68.2396 46.092 67.9975 46.3266C67.7553 46.5611 67.8864 47.0894 68.2904 47.5065C68.6943 47.9236 69.2181 48.0715 69.4603 47.837Z" fill="white"/>
<path d="M75.2399 44.8301C76.0447 44.7973 76.668 44.0576 76.6322 43.178C76.5963 42.2984 75.9149 41.6119 75.1101 41.6447C74.3053 41.6775 73.682 42.4171 73.7179 43.2968C73.7537 44.1764 74.4352 44.8629 75.2399 44.8301Z" fill="white"/>
<path d="M78.3274 78.2697C79.1413 78.2697 79.9214 77.5575 79.8875 76.7096C79.8535 75.8617 79.2092 75.1495 78.3274 75.1495C77.5134 75.1495 76.7334 75.8617 76.7673 76.7096C76.8012 77.5575 77.4456 78.2697 78.3274 78.2697Z" fill="black"/>
<path d="M136.186 58.9722C136.321 60.1932 136.423 61.4141 136.559 62.635C136.593 63.042 136.695 63.4151 137 63.7203C137.271 63.9916 137.712 64.1951 138.085 64.1612C138.492 64.1273 138.899 64.0255 139.17 63.7203C139.442 63.449 139.679 63.042 139.611 62.635C139.476 61.4141 139.374 60.1932 139.238 58.9722C139.204 58.5653 139.102 58.1922 138.797 57.887C138.526 57.6157 138.085 57.4122 137.712 57.4461C137.305 57.48 136.898 57.5817 136.627 57.887C136.389 58.1583 136.152 58.5653 136.186 58.9722Z" fill="#231300"/>
<path d="M77.2759 112.049C77.2759 114.525 77.1063 116.966 76.9367 119.442C76.6993 122.698 76.3602 125.92 76.021 129.142C75.8176 130.871 75.6141 132.601 75.4106 134.331C75.3088 135.179 75.2071 136.06 75.0714 136.908C75.0036 137.315 74.9697 137.756 74.9019 138.163C74.8679 138.401 74.9697 137.79 74.9019 138.163C74.9019 138.265 74.8679 138.367 74.8679 138.468C74.834 138.672 74.8001 138.909 74.7662 139.113C74.3592 142.131 73.8844 145.15 73.3757 148.168C73.1722 149.253 72.7991 150.508 73.3757 151.526C74.1896 152.916 75.9532 152.713 77.3437 152.746C79.9891 152.814 82.6344 152.882 85.2798 152.95C86.0937 152.984 86.8738 152.238 86.8399 151.39C86.8059 150.542 86.1616 149.864 85.2798 149.83C83.0075 149.762 80.7013 149.694 78.429 149.66C77.8864 149.66 77.3098 149.626 76.7672 149.626C76.4958 149.626 76.2245 149.626 75.9193 149.592C75.8176 149.592 75.7158 149.592 75.648 149.592C75.4784 149.592 75.4784 149.592 75.7158 149.592C75.5802 149.558 75.5802 149.558 75.6819 149.592C75.7158 149.592 75.7497 149.626 75.7497 149.626C75.9532 149.728 76.055 149.898 76.1567 150.067C76.2585 150.372 76.1906 150.169 76.1906 150.067C76.1567 149.83 76.1228 150.406 76.1906 150.033C76.1906 149.965 76.2245 149.932 76.2245 149.864C76.2924 149.525 76.3602 149.185 76.3941 148.846C76.9028 145.896 77.3437 142.945 77.7507 139.995C78.6664 133.415 79.4464 126.836 79.9552 120.222C80.1586 117.475 80.3621 114.728 80.3621 111.981C80.3621 111.167 79.6499 110.387 78.8021 110.421C77.9881 110.557 77.2759 111.201 77.2759 112.049Z" fill="black"/>
<path d="M94.8777 111.506C95.2507 117.34 94.8437 123.207 94.0637 129.006C94.0298 129.176 94.0637 129.04 94.0637 129.006C94.0637 129.074 94.0298 129.176 94.0298 129.244C93.9959 129.413 93.9959 129.583 93.962 129.752C93.8941 130.125 93.8602 130.532 93.7924 130.905C93.6906 131.618 93.5889 132.33 93.4532 133.042C93.2158 134.5 92.9784 135.959 92.7071 137.417C92.4697 138.841 92.1984 140.266 91.9271 141.69C91.7575 142.504 91.5879 143.352 91.9271 144.166C92.334 145.116 93.148 145.523 94.1315 145.624C94.9116 145.692 95.7255 145.692 96.5056 145.692C97.3195 145.726 98.1335 145.726 98.9474 145.76C100.609 145.794 102.305 145.862 103.967 145.896C104.781 145.93 105.561 145.184 105.527 144.336C105.493 143.488 104.849 142.809 103.967 142.776C101.152 142.708 98.337 142.64 95.522 142.538C95.1829 142.538 94.8437 142.504 94.5046 142.504C94.4368 142.504 94.0637 142.436 94.2672 142.504C94.4707 142.572 94.2672 142.504 94.2333 142.47C94.4028 142.538 94.6063 142.674 94.7081 142.843C94.7759 142.945 94.7759 143.284 94.8098 143.047C94.8437 142.742 94.742 143.25 94.8098 142.945C94.8777 142.606 94.9455 142.233 95.0133 141.894C95.2507 140.537 95.522 139.147 95.7594 137.79C96.743 132.228 97.5908 126.598 97.93 120.934C98.1335 117.78 98.1335 114.626 97.93 111.472C97.8961 110.658 97.2517 109.878 96.3699 109.912C95.6238 109.98 94.8098 110.624 94.8777 111.506Z" fill="black"/>
<path fill-rule="evenodd" clip-rule="evenodd" d="M123.332 33.6379C123.332 33.4344 123.298 33.2309 123.298 33.0613C123.23 32.2813 123.095 32.1457 122.315 32.0778C121.297 32.01 120.314 31.9761 119.296 31.8743C117.872 31.7387 116.414 31.5013 114.989 31.3656C114.413 31.2978 113.802 31.2639 113.226 31.196C112.174 31.0943 111.157 31.0265 110.105 30.9247C109.597 30.8908 109.088 30.8569 108.545 30.7891C107.257 30.6873 106.036 30.823 104.747 30.9586C103.899 31.0604 103.051 31.1282 102.237 31.23C101.084 31.3995 99.931 31.603 98.7779 31.8404C97.3874 32.1457 95.9629 32.4509 94.5724 32.79C92.9445 33.1631 91.3166 33.2988 89.6548 33.2988C88.0269 33.2988 86.399 33.1631 84.805 32.79C83.4145 32.4509 82.024 32.1457 80.5996 31.8404C79.4804 31.603 78.2934 31.3995 77.1403 31.23C76.2924 31.1282 75.4785 31.0604 74.6306 30.9586C73.3757 30.823 72.1209 30.6873 70.8321 30.7891C70.3234 30.823 69.8147 30.8569 69.2721 30.9247C68.2207 30.9925 67.2033 31.0943 66.1519 31.196C65.5753 31.23 64.9649 31.2978 64.3883 31.3656C62.9639 31.5013 61.5056 31.7048 60.0812 31.8743C59.0637 31.9761 58.0802 32.01 57.0627 32.0778C56.2827 32.1457 56.1131 32.3152 56.0792 33.0613C56.0792 33.2648 56.0453 33.4683 56.0453 33.6379C56.0114 34.4858 56.0114 35.2997 55.9775 36.1476C55.9775 36.4867 56.0453 36.8259 56.4523 36.9276C57.4358 37.1989 57.9445 37.9112 58.1141 38.8947C58.3176 40.0817 58.555 41.3026 58.7585 42.4896C59.0976 44.355 59.5385 46.2203 60.2846 47.9838C60.929 49.51 61.7769 50.8666 63.2352 51.6805C64.2188 52.2232 65.2701 52.6641 66.3215 53.0032C68.119 53.5458 69.9843 53.7833 71.8835 53.6815C77.1742 53.3763 81.9562 50.9005 84.4659 46.0846C85.4494 44.1515 86.2294 42.1166 86.9416 40.0478C87.8234 37.4363 91.4523 37.3685 92.368 40.0478C93.0802 42.1166 93.8602 44.1515 94.8438 46.0846C97.3195 50.9005 102.102 53.3763 107.392 53.6815C109.291 53.7833 111.157 53.5458 112.954 53.0032C114.006 52.6641 115.057 52.2232 116.04 51.6805C117.533 50.8666 118.381 49.4761 118.991 47.9838C119.737 46.2203 120.178 44.3889 120.517 42.4896C120.721 41.3026 120.958 40.0817 121.162 38.8947C121.331 37.8772 121.84 37.1989 122.823 36.9276C123.23 36.8259 123.298 36.4867 123.298 36.1476C123.366 35.2997 123.332 34.4519 123.332 33.6379ZM83.3806 42.761C83.0075 44.1515 82.4988 45.4741 81.7527 46.6951C79.8874 49.7474 76.5298 51.511 73.0027 51.8162C71.7817 51.9179 70.493 51.9519 69.306 51.8162C68.4581 51.7145 67.6441 51.5788 66.8641 51.2057C66.5589 51.0701 66.2197 50.9344 65.9145 50.7988C65.6432 50.6631 65.3719 50.5274 65.1345 50.3918C63.5744 49.5778 62.6587 48.2891 62.2178 46.6272C61.4717 43.7445 61.2003 40.7939 61.5395 37.8094C61.6073 37.2329 61.8108 36.6224 61.9804 36.0458C62.3195 35.0284 63.1335 34.5536 64.0153 34.1466C65.3719 33.5701 66.8302 33.2648 68.2885 33.0613C70.5269 32.79 72.7653 32.7222 75.0036 32.9257C77.1742 33.1292 79.2769 33.5701 81.244 34.4858C81.6509 34.6893 82.024 34.9267 82.3971 35.198C82.5327 35.3336 82.7023 35.4354 82.8379 35.571C83.0075 35.7406 83.1093 35.978 83.2449 36.1815C83.3806 36.385 83.5162 36.5546 83.618 36.7581C83.8554 37.1989 83.8893 37.6738 83.991 38.1486C84.0928 39.7086 83.7876 41.2348 83.3806 42.761ZM117.194 46.6272C116.753 48.2891 115.837 49.6117 114.277 50.3918C114.006 50.5274 113.768 50.697 113.497 50.7988C113.192 50.9344 112.852 51.0701 112.547 51.2057C111.767 51.5788 110.953 51.7145 110.105 51.8162C108.884 51.9519 107.596 51.9179 106.409 51.8162C102.882 51.4771 99.5579 49.7474 97.6926 46.6951C96.9465 45.4741 96.4378 44.1515 96.0647 42.761C95.6577 41.2348 95.3525 39.7086 95.4203 38.1486C95.5221 37.6738 95.556 37.1989 95.7934 36.7581C95.8951 36.5546 96.0647 36.385 96.1664 36.1815C96.3021 35.978 96.4038 35.7745 96.5734 35.571C96.7091 35.4354 96.8787 35.2997 97.0143 35.198C97.3535 34.9267 97.7604 34.6893 98.1674 34.4858C100.134 33.5701 102.271 33.1292 104.408 32.9257C106.646 32.7222 108.884 32.7561 111.123 33.0613C112.581 33.2648 114.04 33.5362 115.396 34.1466C116.312 34.5197 117.126 35.0284 117.431 36.0458C117.601 36.6224 117.804 37.1989 117.872 37.8094C118.245 40.76 117.974 43.7106 117.194 46.6272Z" fill="#010101"/>
<path fill-rule="evenodd" clip-rule="evenodd" d="M58.9959 34.8587C58.9959 35.7744 58.7585 36.5205 58.4533 36.5205C58.148 36.5205 57.9106 35.7744 57.9106 34.8587C57.9106 33.943 58.148 33.1969 58.4533 33.1969C58.7585 33.1969 58.9959 33.943 58.9959 34.8587Z" fill="#79C2DC"/>
<path fill-rule="evenodd" clip-rule="evenodd" d="M121.331 34.8587C121.331 35.7744 121.094 36.5205 120.789 36.5205C120.483 36.5205 120.246 35.7744 120.246 34.8587C120.246 33.943 120.483 33.1969 120.789 33.1969C121.094 33.1969 121.331 33.943 121.331 34.8587Z" fill="#79C2DC"/>
<path opacity="0.5" fill-rule="evenodd" clip-rule="evenodd" d="M64.49 35.8085C64.49 35.8085 63.3369 36.4868 63.1673 38.8269C62.9978 41.167 63.1334 43.8802 64.2187 43.9141C65.27 43.948 64.7274 39.573 66.7962 37.8773C68.865 36.1815 73.8505 35.9441 74.2575 35.1641C74.6984 34.3841 66.7962 33.7397 64.49 35.8085Z" fill="#79C2DC"/>
<path opacity="0.5" fill-rule="evenodd" clip-rule="evenodd" d="M99.1848 35.8085C99.1848 35.8085 98.0317 36.4868 97.8622 38.8269C97.6926 41.167 97.8282 43.8802 98.9135 43.9141C99.9649 43.948 99.4222 39.573 101.491 37.8773C103.56 36.1815 108.545 35.9441 108.952 35.1641C109.359 34.3841 101.491 33.7397 99.1848 35.8085Z" fill="#79C2DC"/>
<path d="M76.1905 77.5915C77.2758 77.5915 77.3097 75.8958 76.1905 75.8958C75.1053 75.8618 75.1053 77.5915 76.1905 77.5915Z" fill="black"/>
<path d="M92.1984 76.0991C91.8592 76.0652 91.5201 76.0313 91.1809 75.9974C91.147 74.166 90.8757 72.5042 88.7052 71.9955C88.2304 71.8598 87.7556 71.4528 87.7216 70.978C87.6538 69.8588 86.9416 69.8927 86.1276 69.9606C85.7885 69.9945 85.4493 69.9606 85.1441 69.9606C83.991 69.9606 82.8379 69.9606 81.6509 69.9606C81.2439 69.9606 80.9387 70.0284 80.8709 70.5032C80.6674 71.6224 79.8534 72.0972 78.8699 72.4703C77.9203 72.8094 77.2759 73.5216 77.3437 74.6747C77.3776 75.1495 77.3437 75.5904 77.3437 76.0652C76.9707 76.1331 76.5976 76.167 76.2245 76.2348C76.2245 75.5904 76.1228 74.98 76.1906 74.3356C76.3263 73.1486 76.7333 71.9615 78.022 71.6224C79.5482 71.1815 80.023 70.2997 79.7856 68.8414C82.3292 68.8075 84.8728 68.7736 87.4164 68.7736C87.8912 68.8075 88.3321 68.8414 88.8069 68.8414C88.8069 69.1127 88.8408 69.384 88.8069 69.6553C88.7052 70.5371 89.0104 71.0798 89.8922 71.385C91.5879 71.9615 92.4358 73.1146 92.2323 74.98C92.1645 75.2852 92.1984 75.6922 92.1984 76.0991Z" fill="#B2C8F1"/>
<path d="M90.9774 85.8328C91.3844 85.8328 91.7914 85.7989 92.1984 85.7989C92.1984 87.0199 92.2323 88.2747 92.1984 89.4956C92.1984 90.7844 91.4523 91.5644 90.1635 91.5984C86.1955 91.6323 82.2274 91.6323 78.2255 91.5984C77.0724 91.5984 76.1906 90.6826 76.1567 89.4617C76.1228 88.2408 76.1906 86.9859 76.1906 85.765C76.5637 85.7989 76.9368 85.7989 77.3437 85.8328C77.3437 86.8842 77.3437 87.9356 77.3437 88.9869C77.3437 90.2757 77.4794 90.4113 78.7681 90.3774C79.4804 90.3774 80.2265 90.3774 80.9387 90.3774C82.3631 90.3774 83.7536 90.3774 85.178 90.3774C85.8563 90.3774 86.5007 90.3774 87.179 90.3774C87.586 90.3774 87.993 90.3774 88.3999 90.3774C88.7391 90.3774 89.0782 90.3435 89.3835 90.4113C91.0792 90.7505 91.554 89.1904 90.9774 87.7999C90.9774 87.1555 90.9774 86.4772 90.9774 85.8328Z" fill="#B2C8F1"/>
<path d="M88.7729 68.7737C88.2981 68.7398 87.8572 68.7059 87.3824 68.7059C87.552 67.7223 87.145 67.4849 86.1954 67.4849C83.7536 67.5528 81.3456 67.4849 78.9037 67.4849C78.9377 67.1458 78.9377 66.8406 78.9716 66.5014C81.2778 66.5014 83.6179 66.5014 85.9241 66.5014C87.4842 66.5014 87.6877 66.264 87.2807 64.7039C87.2468 64.5683 87.2129 64.4326 87.1789 64.3309C89.5869 64.1952 89.553 64.1952 89.5869 66.5692C89.5869 66.9423 89.3495 67.451 90.0278 67.5867C90.3669 67.6545 90.2991 68.0615 90.2652 68.3667C90.1974 68.7059 89.926 68.7398 89.6547 68.7398C89.3834 68.7398 89.0782 68.7737 88.7729 68.7737Z" fill="#B2B2B2"/>
<path d="M87.179 64.3308C87.2129 64.4665 87.2468 64.6022 87.2807 64.7039C87.6538 66.264 87.4842 66.5014 85.9241 66.5014C83.6179 66.5014 81.2778 66.5014 78.9716 66.5014C78.802 64.2969 78.802 64.263 81.0065 64.2969C83.0414 64.2969 85.1102 64.3308 87.179 64.3308Z" fill="#D3D3D3"/>
<path d="M78.9037 67.5189C81.3456 67.5189 83.7536 67.5867 86.1954 67.5189C87.145 67.4849 87.552 67.7563 87.3824 68.7398C84.8388 68.7737 82.2952 68.8076 79.7516 68.8076C79.4803 68.8076 79.209 68.7737 78.9716 68.7737C78.5646 68.7737 78.2594 68.7398 78.1915 68.231C78.1576 67.6884 78.395 67.4849 78.9037 67.5189Z" fill="#D3D3D3"/>
<path d="M80.9386 90.3774C80.2264 90.3774 79.4803 90.3774 78.7681 90.3774C78.7681 90.0382 78.4628 89.8687 78.3272 89.6313C77.7845 88.7834 77.9202 87.6642 78.7341 87.1894C79.3785 86.8163 79.4464 86.6128 78.7681 86.2398C78.6663 86.1719 78.6324 85.9685 78.5646 85.7989C80.5655 85.7989 82.5665 85.7989 84.5675 85.7989C84.6353 86.1041 84.7371 86.4433 84.771 86.7485C84.8388 87.1216 85.0084 87.1894 85.3136 87.0537C85.551 86.952 85.8223 86.8163 85.6867 86.4772C85.5849 86.2398 85.4493 86.0024 85.3475 85.765C86.5006 85.7311 87.6198 85.7311 88.7729 85.6971C89.4851 85.7311 90.2313 85.7311 90.9435 85.765C90.9435 86.4093 90.9435 87.0876 90.9435 87.732C90.333 88.3086 89.6208 88.6816 88.739 88.546C88.4677 88.3764 88.1285 87.8338 87.9929 88.5121C87.8233 89.2243 87.3824 89.6991 87.145 90.3435C86.4667 90.3435 85.8223 90.3435 85.144 90.3435C85.0423 89.6991 84.1944 89.4278 84.2623 88.6138C84.2962 88.3425 83.9909 88.4103 83.8214 88.5121C83.0752 88.919 82.363 88.8173 81.583 88.3425C81.6508 89.2243 81.2099 89.7669 80.9386 90.3774Z" fill="#FDFDFD"/>
<path d="M77.3438 75.9975C77.3438 75.5227 77.3777 75.0818 77.3438 74.607C77.2759 73.4878 77.9203 72.7756 78.8699 72.4025C79.8874 72.0294 80.6674 71.5886 80.8709 70.4355C80.9387 69.9946 81.244 69.8928 81.6509 69.8928C82.804 69.9267 83.9571 69.8928 85.1441 69.8928C85.0763 71.012 85.5511 71.7242 86.6703 72.1312C87.4164 72.4025 88.2982 72.6399 88.3661 73.6913C87.9252 73.8269 87.4504 73.9626 87.0095 74.1322C86.8399 72.9112 86.1616 72.1651 85.1441 72.1312C84.2963 72.0634 83.5502 72.8095 83.3467 73.9965C83.2788 74.4374 83.0414 74.4713 82.7023 74.5391C81.9562 74.7087 81.3118 75.0479 81.3457 75.9636C81.1422 75.9975 80.9387 76.0314 80.7352 76.0992C80.7352 76.0653 80.7352 75.9975 80.7352 75.9636C80.7013 75.4548 80.7352 74.98 80.6674 74.4713C80.5996 74.0304 80.3283 73.6574 79.7856 73.7252C79.243 73.7591 78.9377 74.0643 78.9377 74.607C78.9038 75.0818 78.9377 75.5227 78.9038 75.9975C78.9038 76.0653 78.9038 76.0992 78.9377 76.1331C78.429 76.1331 77.8864 76.0653 77.3438 75.9975Z" fill="#E7EBF5"/>
<path d="M81.3457 75.9976C81.3457 75.0819 81.9562 74.7428 82.7023 74.5732C83.0414 74.5054 83.2788 74.4715 83.3467 74.0306C83.5163 72.8436 84.2624 72.0974 85.1442 72.1653C86.1277 72.2331 86.8399 72.9453 87.0095 74.1662C87.4504 74.0306 87.9252 73.8949 88.3661 73.7253C89.8922 74.3019 90.1635 74.641 90.1635 75.9976C89.6887 76.0316 89.2478 76.0994 88.773 76.1333C88.0269 76.0994 87.3147 76.0655 86.5686 75.9976C86.5007 75.7941 86.5347 75.3533 86.3651 75.455C85.8564 75.7941 85.1781 75.5567 84.7711 75.9976C83.6519 76.1333 82.4988 76.1333 81.3457 75.9976Z" fill="#FDFDFD"/>
<path d="M80.7691 76.1331C80.7691 78.2697 80.7691 80.4064 80.7691 82.543C80.7691 83.2213 80.4978 83.7639 79.7517 83.73C79.1073 83.6961 78.9377 83.1874 78.9377 82.5769C78.9717 80.4403 78.9717 78.3036 78.9717 76.167C78.9377 76.1331 78.9377 76.0653 78.9377 76.0313C79.5482 76.167 80.1587 76.2348 80.7691 75.9974C80.7691 76.0314 80.7691 76.0992 80.7691 76.1331Z" fill="#F2F2F2"/>
<path d="M78.5646 85.8328C78.6324 85.9684 78.6664 86.2058 78.7681 86.2737C79.4125 86.6467 79.3786 86.8163 78.7342 87.2233C77.9202 87.6981 77.7846 88.8173 78.3272 89.6651C78.4968 89.9025 78.7681 90.0721 78.7681 90.4113C77.5133 90.4452 77.3437 90.2756 77.3437 89.0208C77.3437 87.9694 77.3437 86.918 77.3437 85.8667C77.7507 85.8328 78.1576 85.8328 78.5646 85.8328Z" fill="#E0E9F8"/>
<path d="M91.2148 75.9974C90.8757 76.1331 90.5365 76.0992 90.1974 75.9974C89.7226 76.0314 89.2817 76.0992 88.8069 76.1331C88.0608 76.0992 87.3486 76.0653 86.6024 75.9974C85.992 76.1331 85.3815 76.1331 84.771 75.9974C83.6179 76.1331 82.4988 76.1331 81.3457 75.9974C81.1422 76.0314 80.9387 76.0653 80.7352 76.1331C80.7352 78.2697 80.7352 80.4064 80.7352 82.543C80.7352 83.2213 80.4639 83.7639 79.7177 83.73C79.0734 83.6961 78.9038 83.1874 78.9038 82.5769C78.9377 80.4403 78.9377 78.3036 78.9377 76.167C78.3951 76.0992 77.8524 76.0653 77.3098 75.9974C76.9367 76.0653 76.5637 76.0992 76.1906 76.167C76.1906 79.355 76.1906 82.543 76.1906 85.7649C76.5637 85.7988 76.9367 85.7988 77.3437 85.8327C77.7507 85.8327 78.1577 85.8327 78.5646 85.8327C80.5656 85.8327 82.5666 85.8327 84.5675 85.8327C84.8389 85.8327 85.1102 85.8327 85.3815 85.8327C86.5346 85.7988 87.6538 85.7988 88.8069 85.7649C88.8069 82.543 88.8069 79.355 88.8069 76.1331C88.8069 79.355 88.8069 82.543 88.8069 85.7649C89.5191 85.7988 90.2652 85.7988 90.9774 85.8327C91.3844 85.8327 91.7914 85.7988 92.1984 85.7988C92.1984 82.5769 92.1984 79.3211 92.1984 76.0992C91.8592 76.0653 91.554 76.0314 91.2148 75.9974Z" fill="#B2B2B2"/>
<path d="M85.3816 85.8328C85.4834 86.0702 85.619 86.3076 85.7208 86.545C85.8564 86.8841 85.5851 87.0198 85.3477 87.1215C85.0425 87.2572 84.839 87.1554 84.8051 86.8163C84.7711 86.4771 84.6694 86.1719 84.6016 85.8667C84.839 85.8328 85.1103 85.8328 85.3816 85.8328Z" fill="#E7EBF5"/>
<path d="M84.7711 75.9976C85.212 75.5228 85.8903 75.7941 86.3651 75.455C86.5347 75.3532 86.5347 75.7941 86.5686 75.9976C85.992 76.1333 85.3816 76.1333 84.7711 75.9976Z" fill="#E7EBF5"/>
<path d="M90.1635 75.9976C90.1635 74.641 89.8922 74.3019 88.366 73.7253C88.2982 72.674 87.4164 72.4026 86.6703 72.1652C85.5511 71.7922 85.0763 71.08 85.1441 69.9269C85.4832 69.9269 85.8224 69.9269 86.1276 69.9269C86.9077 69.859 87.6199 69.8251 87.7216 70.9443C87.7555 71.4191 88.2303 71.86 88.7051 71.9617C90.8757 72.5044 91.147 74.1323 91.1809 75.9637C90.8757 76.1333 90.5026 76.1333 90.1635 75.9976Z" fill="#C9D8F5"/>
<path d="M80.9387 90.3773C81.1761 89.7329 81.6509 89.1903 81.617 88.3763C82.397 88.8512 83.1092 88.9529 83.8553 88.5459C84.0249 88.4442 84.3301 88.3763 84.2962 88.6477C84.2284 89.4277 85.0423 89.699 85.178 90.3773C83.7875 90.3773 82.3631 90.3773 80.9387 90.3773Z" fill="#E0E9F8"/>
<path d="M88.773 88.6139C89.6547 88.7495 90.367 88.4104 90.9774 87.7999C91.554 89.2244 91.0792 90.7505 89.3834 90.4114C89.0782 90.3436 88.7051 90.4114 88.3999 90.3775C88.5016 89.8009 88.6373 89.1904 88.773 88.6139Z" fill="#C9D8F5"/>
<path d="M88.773 88.6139C88.6374 89.2243 88.5017 89.8009 88.3661 90.4113C87.9591 90.4113 87.5521 90.4113 87.1451 90.4113C87.3825 89.767 87.8573 89.2922 87.993 88.58C88.1626 87.9017 88.5356 88.4443 88.773 88.6139Z" fill="#E0E9F8"/>
<path d="M80.7691 75.9975C80.1587 76.2349 79.5482 76.201 78.9377 76.0314C78.9377 75.5566 78.9377 75.1157 78.9717 74.6409C79.0056 74.0983 79.2769 73.793 79.8195 73.7591C80.3622 73.7252 80.6335 74.0983 80.7013 74.5052C80.7691 74.98 80.7352 75.4888 80.7691 75.9975Z" fill="#FDFDFD"/>
<path d="M75.8854 80.9491C75.8515 80.5421 75.8515 80.1691 75.8854 79.7621C75.8515 79.8977 75.8515 80.0334 75.8176 80.1691C75.8515 80.0334 75.8854 79.8977 75.9193 79.7282C75.9872 79.5247 75.7159 80.0334 75.8854 79.8299C75.9193 79.796 76.055 79.5586 75.8854 79.796C75.7498 79.9995 75.8515 79.8638 75.8854 79.796C75.9872 79.6603 75.5802 79.9995 75.7837 79.8638C75.8176 79.8299 75.8854 79.8299 75.9193 79.796C75.648 79.9656 75.648 79.8977 75.8515 79.8638C75.7158 79.8977 75.5802 79.8977 75.4445 79.9316C75.5124 79.9316 75.6141 79.9316 75.6819 79.9316C75.5463 79.8977 75.4106 79.8977 75.275 79.8638C75.3428 79.8638 75.4445 79.8977 75.5124 79.9316C75.275 79.8299 75.241 79.796 75.3428 79.8638C75.4445 79.9317 75.4106 79.8977 75.2071 79.7282C75.241 79.7621 75.3089 79.8299 75.3767 79.8638C75.5124 79.9656 75.2071 79.5586 75.3089 79.796C75.3428 79.8638 75.4106 79.9656 75.4445 80.0334C75.5802 80.3047 75.3428 79.6942 75.4445 79.9995C75.5124 80.1691 75.5463 80.3386 75.6141 80.5082C75.8515 81.2543 76.1567 82.0005 76.2924 82.7805C76.2585 82.6448 76.2585 82.5092 76.2246 82.3735C76.2585 82.6109 76.2585 82.8483 76.2246 83.0857C76.2585 82.9501 76.2585 82.8144 76.2924 82.6787L76.2585 82.9162C76.2924 82.8483 76.3263 82.7805 76.3602 82.7127C76.4281 82.6109 76.4959 82.5092 76.5976 82.4413C76.6994 82.3735 76.7333 82.3396 76.6655 82.3735C76.5637 82.4413 76.6315 82.4074 76.869 82.3057C76.8011 82.3057 76.6994 82.3396 76.6315 82.3396C76.7672 82.3057 76.9029 82.3057 77.0385 82.2718C76.869 82.2718 76.7333 82.2718 76.5637 82.2718C76.6994 82.3057 76.835 82.3057 76.9707 82.3396C76.869 82.3396 76.6994 82.2379 76.6315 82.2718C76.869 82.3735 76.9029 82.4074 76.8011 82.3396C76.6994 82.2718 76.7333 82.3057 76.9368 82.4753C76.9029 82.4413 76.869 82.4074 76.835 82.3735C76.9707 82.577 77.0046 82.6109 76.9368 82.5092C76.9029 82.4074 76.835 82.3396 76.8011 82.2379C76.5976 81.8309 76.3941 81.39 76.2246 80.983C76.055 80.6439 75.648 80.3725 75.3089 80.2708C74.9358 80.1691 74.4271 80.203 74.1219 80.4404C73.3418 80.9491 73.2062 81.763 73.5792 82.577C73.8166 83.0518 73.9862 83.5605 74.2575 84.0353C74.6645 84.7136 75.3089 85.2224 76.0889 85.3919C76.835 85.5276 77.6151 85.5276 78.2595 85.1206C79.0734 84.6458 79.3786 83.6962 79.3786 82.8144C79.3447 82.1361 79.1752 81.4578 78.9717 80.8134C78.8021 80.3047 78.6664 79.796 78.4629 79.2873C78.1916 78.5751 77.8525 77.9307 77.242 77.4559C76.5976 76.9471 75.6819 76.7437 74.9019 77.015C74.0201 77.3202 73.4096 77.9985 73.0366 78.8803C72.7653 79.5586 72.7653 80.3047 72.8331 81.0169C72.9009 81.8309 73.5114 82.6109 74.3932 82.577C75.1054 82.4413 75.9193 81.797 75.8854 80.9491Z" fill="black"/>
</svg>
