<svg width="22" height="18" viewBox="0 0 22 18" fill="none" xmlns="http://www.w3.org/2000/svg">
<path d="M5.28152 16.1359L1 9L5.28152 1.86412C5.34816 1.75307 5.44242 1.66116 5.55512 1.59735C5.66782 1.53354 5.79513 1.5 5.92464 1.5H19.75C19.9489 1.5 20.1397 1.57902 20.2803 1.71967C20.421 1.86032 20.5 2.05109 20.5 2.25V15.75C20.5 15.9489 20.421 16.1397 20.2803 16.2803C20.1397 16.421 19.9489 16.5 19.75 16.5H5.92464C5.79513 16.5 5.66782 16.4665 5.55512 16.4027C5.44242 16.3388 5.34816 16.2469 5.28152 16.1359V16.1359Z" stroke="#757575" stroke-width="1.5" stroke-linecap="round" stroke-linejoin="round"/>
<path d="M14.5 6.75L10 11.25" stroke="#757575" stroke-width="1.5" stroke-linecap="round" stroke-linejoin="round"/>
<path d="M14.5 11.25L10 6.75" stroke="#757575" stroke-width="1.5" stroke-linecap="round" stroke-linejoin="round"/>
</svg>
