<svg width="24" height="24" viewBox="0 0 24 24" fill="none" xmlns="http://www.w3.org/2000/svg">
<radialGradient id="paint0_radial_9665:3646" cx="0" cy="0" r="1" gradientUnits="userSpaceOnUse" gradientTransform="translate(22.5 22.5) rotate(-134.444) scale(31.8655 84.7244)">
<stop offset="0.302173" stop-color="#FF9966"/>
<stop offset="0.859375" stop-color="#FF5E62"/>
</radialGradient>
<path d="M21.1746 9.63895C20.8209 9.27017 20.4553 8.88895 20.3171 8.55487C20.1901 8.24799 20.1824 7.73969 20.175 7.24805C20.1612 6.33316 20.1455 5.29623 19.4247 4.57535C18.7038 3.85446 17.6668 3.83881 16.752 3.82498C16.2603 3.81757 15.752 3.80988 15.4451 3.68289C15.1111 3.54474 14.7298 3.17908 14.3611 2.82541C13.7133 2.20413 12.979 1.5 12 1.5C11.021 1.5 10.2868 2.20413 9.63895 2.82541C9.27017 3.17908 8.88895 3.54474 8.55487 3.68289C8.24799 3.80988 7.73969 3.81757 7.24805 3.82498C6.33316 3.83881 5.29623 3.85446 4.57535 4.57535C3.85446 5.29623 3.83881 6.33316 3.82498 7.24805C3.81757 7.73969 3.80988 8.24798 3.68289 8.55487C3.54474 8.88885 3.17908 9.27017 2.82541 9.63895C2.20413 10.2867 1.5 11.021 1.5 12C1.5 12.979 2.20413 13.7132 2.82541 14.3611C3.17908 14.7298 3.54474 15.1111 3.68289 15.4451C3.80988 15.752 3.81757 16.2603 3.82498 16.752C3.83881 17.6668 3.85446 18.7038 4.57535 19.4247C5.29623 20.1455 6.33316 20.1612 7.24805 20.175C7.73969 20.1824 8.24798 20.1901 8.55487 20.3171C8.88885 20.4553 9.27017 20.8209 9.63895 21.1746C10.2867 21.7959 11.021 22.5 12 22.5C12.979 22.5 13.7132 21.7959 14.3611 21.1746C14.7298 20.8209 15.1111 20.4553 15.4451 20.3171C15.752 20.1901 16.2603 20.1824 16.752 20.175C17.6668 20.1612 18.7038 20.1455 19.4247 19.4247C20.1455 18.7038 20.1612 17.6668 20.175 16.752C20.1824 16.2603 20.1901 15.752 20.3171 15.4451C20.4553 15.1111 20.8209 14.7298 21.1746 14.3611C21.7959 13.7133 22.5 12.979 22.5 12C22.5 11.021 21.7959 10.2868 21.1746 9.63895Z" fill="url(#paint0_radial_9665:3646)"/>
<path fill-rule="evenodd" clip-rule="evenodd" d="M16.0595 7.94026C16.3133 8.1941 16.3133 8.60566 16.0595 8.8595L8.8595 16.0595C8.60566 16.3133 8.1941 16.3133 7.94026 16.0595C7.68642 15.8057 7.68642 15.3941 7.94026 15.1403L15.1403 7.94026C15.3941 7.68642 15.8057 7.68642 16.0595 7.94026Z" fill="white"/>
<path fill-rule="evenodd" clip-rule="evenodd" d="M9.39998 8.64998C8.98576 8.64998 8.64998 8.98576 8.64998 9.39998C8.64998 9.81419 8.98576 10.15 9.39998 10.15C9.81419 10.15 10.15 9.81419 10.15 9.39998C10.15 8.98576 9.81419 8.64998 9.39998 8.64998ZM7.34998 9.39998C7.34998 8.26779 8.26779 7.34998 9.39998 7.34998C10.5322 7.34998 11.45 8.26779 11.45 9.39998C11.45 10.5322 10.5322 11.45 9.39998 11.45C8.26779 11.45 7.34998 10.5322 7.34998 9.39998Z" fill="white"/>
<path fill-rule="evenodd" clip-rule="evenodd" d="M14.5999 13.8499C14.1857 13.8499 13.8499 14.1857 13.8499 14.5999C13.8499 15.0141 14.1857 15.3499 14.5999 15.3499C15.0141 15.3499 15.3499 15.0141 15.3499 14.5999C15.3499 14.1857 15.0141 13.8499 14.5999 13.8499ZM12.5499 14.5999C12.5499 13.4677 13.4677 12.5499 14.5999 12.5499C15.7321 12.5499 16.6499 13.4677 16.6499 14.5999C16.6499 15.7321 15.7321 16.6499 14.5999 16.6499C13.4677 16.6499 12.5499 15.7321 12.5499 14.5999Z" fill="white"/>
<defs>
</defs>
</svg>
