<svg width="40" height="40" viewBox="0 0 40 40" fill="none" xmlns="http://www.w3.org/2000/svg">
<rect width="40" height="40" rx="8" fill="#E5F2F9" fill-opacity="0.8"/>
<g opacity="0.8">
<path d="M28.25 19.75H24.25V13.25C24.25 10.9 22.35 9 20 9C17.65 9 15.75 10.9 15.75 13.25V18.525H11.75V13.25C11.75 8.7 15.45 5 20 5C24.55 5 28.25 8.7 28.25 13.25V19.75Z" fill="white"/>
<path d="M11.75 16.75C11.325 16.75 11 16.425 11 16V13.25C11 12.825 11.325 12.5 11.75 12.5C12.175 12.5 12.5 12.825 12.5 13.25V16C12.5 16.425 12.175 16.75 11.75 16.75Z" fill="#111111"/>
<path d="M15.75 16.75C15.325 16.75 15 16.425 15 16V13.25C15 10.5 17.25 8.25 20 8.25C21.2 8.25 22.35 8.675 23.25 9.45C23.575 9.725 23.6 10.2 23.325 10.5C23.05 10.825 22.575 10.85 22.275 10.575C21.65 10.05 20.825 9.75 20 9.75C18.075 9.75 16.5 11.325 16.5 13.25V16C16.5 16.425 16.175 16.75 15.75 16.75Z" fill="#111111" stroke="#111111" stroke-width="0.2"/>
<path opacity="0.4" d="M28.75 35H11.25C9.875 35 8.75 33.875 8.75 32.5V21.5C8.75 20.125 9.875 19 11.25 19H28.75C30.125 19 31.25 20.125 31.25 21.5V32.5C31.25 33.875 30.125 35 28.75 35Z" fill="#0070C0"/>
<path d="M29 18.25V13.25C29 8.275 24.975 4.25 20 4.25C17.575 4.25 15.3 5.2 13.6 6.925C13.3 7.225 13.3 7.7 13.6 7.975C13.9 8.275 14.375 8.275 14.65 7.975C16.1 6.55 17.975 5.75 20 5.75C24.125 5.75 27.5 9.125 27.5 13.25V19C27.5 19.425 27.825 19.75 28.25 19.75H28.75C29.725 19.75 30.5 20.525 30.5 21.5V32.5C30.5 33.475 29.725 34.25 28.75 34.25H11.25C10.275 34.25 9.5 33.475 9.5 32.5V21.5C9.5 20.525 10.275 19.75 11.25 19.75H24.25C24.675 19.75 25 19.425 25 19V13.25C25 12.825 24.675 12.5 24.25 12.5C23.825 12.5 23.5 12.825 23.5 13.25V18.25H11.25C9.45 18.25 8 19.7 8 21.5V32.5C8 34.3 9.45 35.75 11.25 35.75H28.75C30.55 35.75 32 34.3 32 32.5V21.5C32 19.8 30.675 18.4 29 18.25Z" fill="#111111" stroke="#111111" stroke-width="0.2"/>
<path d="M18 25.75V28.25C18 28.675 18.325 29 18.75 29H21.25C21.675 29 22 28.675 22 28.25V25.75C22 25.325 21.675 25 21.25 25H18.75C18.325 25 18 25.325 18 25.75Z" fill="#FFF2D9"/>
</g>
</svg>
