<svg width="40" height="40" viewBox="0 0 40 40" fill="none" xmlns="http://www.w3.org/2000/svg">
<rect width="40" height="40" rx="8" fill="#E5F2F9" fill-opacity="0.8"/>
<path d="M34.0622 18.4097V31.1757C34.0622 32.2228 33.2247 33.0679 32.1872 33.0679H7.81293C6.77546 33.0679 5.93799 32.2228 5.93799 31.1757V18.4097L9.68788 20.3902H9.70038L18.8376 25.209C19.5626 25.5874 20.4376 25.5874 21.1625 25.209L30.2998 20.3902H30.3123L34.0622 18.4097Z" fill="#FFF5E2"/>
<path d="M34.0624 15.912V18.4097L30.3125 20.3902V12.7583L33.0749 14.2468C33.6749 14.5748 34.0624 15.2182 34.0624 15.912Z" fill="#EFEFEF"/>
<path d="M9.68788 12.7583V20.3902L5.93799 18.4097V15.912C5.93799 15.2182 6.32548 14.5748 6.92546 14.2468L9.68788 12.7583Z" fill="#EFEFEF"/>
<path d="M30.3124 8.46923V20.3901H30.2999L21.1627 25.2089C20.4377 25.5874 19.5627 25.5874 18.8377 25.2089L9.70049 20.3901H9.68799V8.46923C9.68799 7.08161 10.813 5.94629 12.1879 5.94629H27.8125C29.1874 5.94629 30.3124 7.08161 30.3124 8.46923Z" fill="white"/>
<path d="M8.75041 31.1757V19.8944L5.93799 18.4097V31.1757C5.93799 32.2228 6.77546 33.0679 7.81294 33.0679H10.6254C9.58788 33.0679 8.75041 32.2228 8.75041 31.1757Z" fill="#FFE7C3"/>
<path d="M21.65 25.209C22.375 25.5874 23.2499 25.5874 23.9749 25.209L33.1122 20.3902H33.1247L34.0621 19.8944V18.4097L30.3122 20.3902H30.2997L21.4062 25.0803L21.65 25.209Z" fill="#D5DBE1"/>
<path d="M12.5129 20.3901H12.5004V8.46923C12.5004 7.08161 13.6254 5.94629 15.0003 5.94629H12.1879C10.813 5.94629 9.68799 7.08161 9.68799 8.46923V20.3901H9.70049L18.8377 25.2089C19.5627 25.5874 20.4377 25.5874 21.1627 25.2089L21.4064 25.0803L12.5129 20.3901Z" fill="#DCDCDC"/>
<path d="M32.1872 34.014H7.81291C6.26295 34.014 5.00049 32.7412 5.00049 31.1757V15.9119C5.00049 14.8687 5.56672 13.9125 6.48045 13.4154L9.24662 11.9244C9.7041 11.6784 10.2716 11.8537 10.5153 12.3129C10.7591 12.7746 10.5878 13.3473 10.1303 13.5933L7.36792 15.0818C7.06918 15.2433 6.87543 15.57 6.87543 15.9119V31.1757C6.87543 31.6979 7.29667 32.1218 7.81291 32.1218H32.1872C32.7034 32.1218 33.1247 31.6979 33.1247 31.1757V15.9119C33.1247 15.57 32.9309 15.2433 32.6297 15.0793L29.871 13.5933C29.4148 13.3473 29.2423 12.7746 29.486 12.3129C29.7285 11.8537 30.2985 11.6784 30.7547 11.9244L33.5172 13.4129C34.4334 13.9125 34.9996 14.8687 34.9996 15.9119V31.1757C34.9996 32.7412 33.7372 34.014 32.1872 34.014Z" fill="#525556"/>
<path d="M19.999 26.4388C19.4515 26.4388 18.9053 26.3089 18.4078 26.0491L5.5032 19.2472C5.04446 19.0063 4.86696 18.4336 5.10696 17.9706C5.3457 17.5089 5.91068 17.326 6.37317 17.5707L19.2728 24.37C19.7253 24.6072 20.274 24.6072 20.7315 24.3675L33.6274 17.5707C34.0899 17.3273 34.6536 17.5089 34.8936 17.9706C35.1323 18.4336 34.9561 19.005 34.4974 19.2472L21.5977 26.0465C21.0952 26.3089 20.5478 26.4388 19.999 26.4388Z" fill="#525556"/>
<path d="M30.3124 21.336C29.7949 21.336 29.3749 20.9122 29.3749 20.3899V8.46904C29.3749 7.59989 28.6737 6.8922 27.8124 6.8922H12.1879C11.3267 6.8922 10.6254 7.59989 10.6254 8.46904V20.3899C10.6254 20.9122 10.2054 21.336 9.68796 21.336C9.17048 21.336 8.75049 20.9122 8.75049 20.3899V8.46904C8.75049 6.55665 10.2917 5 12.1879 5H27.8124C29.7086 5 31.2498 6.55665 31.2498 8.46904V20.3899C31.2498 20.9122 30.8299 21.336 30.3124 21.336Z" fill="#525556"/>
<path opacity="0.3" d="M25.8414 11.9122H13.6154C13.1535 11.9122 12.8003 11.5558 12.8003 11.0897C12.8003 10.6235 13.1535 10.2671 13.6154 10.2671H25.8414C26.3033 10.2671 26.6565 10.6235 26.6565 11.0897C26.6565 11.5558 26.3033 11.9122 25.8414 11.9122Z" fill="#0070C0"/>
<path opacity="0.3" d="M19.185 16.025H13.6154C13.1535 16.025 12.8003 15.6686 12.8003 15.2025C12.8003 14.7363 13.1535 14.3799 13.6154 14.3799H19.185C19.6469 14.3799 20.0001 14.7363 20.0001 15.2025C20.0001 15.6686 19.6469 16.025 19.185 16.025Z" fill="#0070C0"/>
</svg>
