<svg width="40" height="40" viewBox="0 0 40 40" fill="none" xmlns="http://www.w3.org/2000/svg">
<rect width="40" height="40" rx="8" fill="#E5F2F9" fill-opacity="0.8"/>
<g opacity="0.8">
<path opacity="0.4" d="M27.5859 35.1725H12.4135C11.7238 35.1725 11.1445 34.5932 11.1445 33.9035V6.0966C11.1445 5.40695 11.7238 4.82764 12.4135 4.82764H27.5859C28.2756 4.82764 28.8549 5.40695 28.8549 6.0966V33.9035C28.8549 34.5932 28.2756 35.1725 27.5859 35.1725Z" fill="#0070C0"/>
<path d="M28.8549 9.37939H11.1445V29.6001H28.8549V9.37939Z" fill="#F7F7FB"/>
<path d="M28.8548 30.4276H11.1445C10.6755 30.4276 10.3169 30.069 10.3169 29.6C10.3169 29.1311 10.6755 28.7725 11.1445 28.7725H28.8548C29.3238 28.7725 29.6824 29.1311 29.6824 29.6C29.6824 30.069 29.2962 30.4276 28.8548 30.4276Z" fill="#111111"/>
<path d="M28.8548 10.2069H11.1445C10.6755 10.2069 10.3169 9.84831 10.3169 9.37934C10.3169 8.91038 10.6755 8.55176 11.1445 8.55176H28.8548C29.3238 8.55176 29.6824 8.91038 29.6824 9.37934C29.6824 9.84831 29.2962 10.2069 28.8548 10.2069Z" fill="#111111"/>
<g opacity="0.2">
<path opacity="0.2" d="M27.5858 4.82764H25.0479C25.7375 4.82764 26.3168 5.40695 26.3168 6.0966V33.9035C26.3168 34.5932 25.7375 35.1725 25.0479 35.1725H27.5858C28.2754 35.1725 28.8547 34.5932 28.8547 33.9035V6.0966C28.8547 5.40695 28.2754 4.82764 27.5858 4.82764Z" fill="#0C0F13"/>
</g>
<path d="M27.5859 36H12.4134C11.2548 36 10.3169 35.0621 10.3169 33.9034V6.09655C10.3169 4.93793 11.2548 4 12.4134 4H27.5859C28.7445 4 29.6824 4.93793 29.6824 6.09655V33.9034C29.6824 35.0621 28.7445 36 27.5859 36ZM12.4134 5.65517C12.1652 5.65517 11.9721 5.84828 11.9721 6.09655V33.9034C11.9721 34.1517 12.1652 34.3448 12.4134 34.3448H27.5859C27.8341 34.3448 28.0272 34.1517 28.0272 33.9034V6.09655C28.0272 5.84828 27.8341 5.65517 27.5859 5.65517H12.4134Z" fill="#111111"/>
<path d="M22.5373 7.91738H17.4614C16.9924 7.91738 16.6338 7.55876 16.6338 7.08979C16.6338 6.62083 16.9924 6.26221 17.4614 6.26221H22.5097C22.9786 6.26221 23.3373 6.62083 23.3373 7.08979C23.3373 7.55876 22.9786 7.91738 22.5373 7.91738Z" fill="#111111"/>
<path d="M19.9997 33.3519C19.4756 33.3519 19.0342 32.9106 19.0342 32.3864C19.0342 31.8623 19.4756 31.4209 19.9997 31.4209C20.5238 31.4209 20.9652 31.8623 20.9652 32.3864C20.9652 32.9106 20.5238 33.3519 19.9997 33.3519Z" fill="#111111"/>
</g>
</svg>
