<svg width="40" height="40" viewBox="0 0 40 40" fill="none" xmlns="http://www.w3.org/2000/svg">
<rect width="40" height="40" rx="8" fill="#F7F7F7"/>
<g opacity="0.8">
<path d="M32.0131 21.4361C32.0131 28.7011 26.123 34.5905 18.858 34.5905C17.0759 34.5905 15.3769 34.2362 13.8275 33.5938C9.59194 31.8394 6.47223 27.9364 5.82723 23.244C5.74543 22.6533 5.70361 22.0494 5.70361 21.4361C5.70361 14.1705 11.5931 8.28101 18.858 8.28101C26.123 8.28101 32.0131 14.1705 32.0131 21.4361Z" fill="#F7F7F7"/>
<path d="M33.655 20.4636L26.1431 25.4379C25.6079 25.7924 24.9597 25.9331 24.326 25.8317C23.6909 25.7306 23.041 25.8694 22.5045 26.2247L21.4992 26.8908L15.8694 18.5923L17.2506 12.6252C17.3581 12.1608 17.4112 11.69 17.4112 11.221C17.4112 10.0077 17.0564 8.81013 16.3758 7.7821C16.2085 7.52934 16.1286 7.24326 16.1286 6.96109C16.1286 6.47833 16.3627 6.00498 16.7954 5.71845C17.3786 5.33196 18.1516 5.40388 18.6536 5.89078L19.5484 6.75751C20.5718 7.75039 21.3611 8.95926 21.857 10.2961L22.3423 11.6024L27.3388 8.30117C28.1369 7.77291 29.2166 8.00383 29.726 8.82116C30.2175 9.60861 29.9652 10.6491 29.1909 11.1617C29.1814 11.1679 29.181 11.1778 29.184 11.1854C29.1883 11.1934 29.1978 11.1991 29.2083 11.1948C29.4057 11.1185 29.6123 11.0817 29.8172 11.0817C30.1442 11.0817 30.4684 11.1759 30.7458 11.3552C30.9367 11.4788 31.1058 11.6431 31.2396 11.8446C31.4974 12.2343 31.5744 12.6913 31.49 13.116C31.3574 13.7853 30.8712 14.13 30.7756 14.195C30.7593 14.2063 30.755 14.2286 30.7662 14.2456C30.7662 14.2463 30.7669 14.2467 30.7676 14.2467C30.7782 14.2619 30.8 14.2662 30.8156 14.2561C30.9517 14.223 31.0902 14.2074 31.229 14.2074C31.5672 14.2074 31.9039 14.3037 32.1899 14.4859C32.3834 14.6095 32.5546 14.7731 32.687 14.9735C33.2065 15.7577 32.9916 16.815 32.2067 17.3345C32.1874 17.3476 32.1681 17.3607 32.1488 17.3731C32.1376 17.3821 32.1343 17.3963 32.1401 17.4064C32.1412 17.4087 32.1438 17.4112 32.1463 17.4126C32.155 17.4195 32.1688 17.42 32.1801 17.4112C32.6677 17.2451 33.1984 17.3207 33.6256 17.5974C33.8223 17.7235 33.9965 17.8933 34.1343 18.102C34.6539 18.8871 34.4393 19.9441 33.655 20.4636Z" fill="#F7F7F7"/>
<path opacity="0.3" d="M21.5714 28.4656L18.4025 30.5642L13.8274 33.5941C9.59186 31.8395 6.47214 27.9367 5.82715 23.2441L11.1367 19.728L14.3687 17.5876C14.7408 17.3408 15.2428 17.4433 15.4894 17.816L21.7998 27.3441C22.0466 27.717 21.9441 28.2184 21.5714 28.4656Z" fill="#949494"/>
<path d="M30.746 11.355L28.2465 12.6925C27.8917 12.8819 27.4521 12.7831 27.2136 12.4602L29.1842 11.1852C29.1886 11.1934 29.198 11.199 29.2086 11.1946C29.406 11.1183 29.6125 11.0815 29.8175 11.0815C30.1447 11.0815 30.4687 11.176 30.746 11.355Z" fill="#FAC5AA"/>
<path d="M32.1904 14.486L29.7453 15.7935C29.3905 15.9833 28.9509 15.8847 28.7124 15.5618L30.683 14.2868L30.768 14.2468C30.7786 14.262 30.8004 14.2663 30.816 14.2562C30.9523 14.2231 31.0909 14.2075 31.2294 14.2075C31.5679 14.2075 31.9045 14.3036 32.1904 14.486Z" fill="#949494"/>
<path d="M33.6258 17.5975L31.4721 18.7496C31.1182 18.9387 30.6784 18.8401 30.4395 18.5173L32.1465 17.4127C32.1552 17.4196 32.169 17.4201 32.1803 17.4113C32.6678 17.2452 33.1986 17.3208 33.6258 17.5975Z" fill="#FAC5AA"/>
<path d="M34.2312 17.8435C33.9189 17.372 33.4455 17.0471 32.8952 16.9239C33.2502 16.2449 33.2358 15.3977 32.7836 14.715C32.4619 14.2291 31.9766 13.9152 31.4483 13.7964C31.5425 13.6167 31.6121 13.4228 31.6537 13.2183C31.7691 12.6496 31.6565 12.0701 31.3359 11.5864C31.0237 11.1146 30.5503 10.7897 30 10.6668C30.355 9.98779 30.3405 9.14059 29.8883 8.45769C29.2273 7.45929 27.8766 7.18471 26.878 7.84601L24.7158 9.278C23.5632 8.69344 22.3373 8.27869 21.065 8.04248C20.6629 7.43195 20.1953 6.8644 19.6719 6.35704L18.7773 5.49008C18.1222 4.85497 17.0949 4.75961 16.3343 5.26352C15.4345 5.85934 15.1873 7.07625 15.7831 7.97607C15.8065 8.01168 15.8295 8.04753 15.8522 8.08338C12.92 8.67667 10.2477 10.2327 8.26975 12.5128C6.12338 14.9873 4.94116 18.1565 4.94116 21.4363C4.94116 22.065 4.98413 22.6948 5.06915 23.3079C5.72425 28.0737 8.89889 32.1808 13.3539 34.0266C15.006 34.7114 16.759 35.0588 18.5634 35.0588C21.4212 35.0588 24.1567 34.1836 26.4745 32.528C28.742 30.9081 30.4384 28.6725 31.3807 26.0632C31.4688 25.8201 31.3426 25.5514 31.0995 25.4637C30.8562 25.3759 30.5878 25.5018 30.5 25.7452C29.6225 28.1751 28.0423 30.2569 25.9299 31.7658C23.7721 33.3074 21.2247 34.1222 18.5634 34.1222C17.1875 34.1222 15.844 33.9051 14.5581 33.4768L18.3683 30.9536C18.3686 30.9533 18.3688 30.9533 18.369 30.9531C18.3693 30.9531 18.3693 30.9529 18.3695 30.9526L21.5361 28.8557H21.5363C21.8205 28.6673 22.0147 28.3796 22.0827 28.0452C22.1507 27.7109 22.0846 27.3699 21.8961 27.0857L21.8543 27.0223L22.4694 26.6149C22.9083 26.3242 23.4361 26.2102 23.9559 26.2936C24.7084 26.4145 25.4727 26.2491 26.1078 25.8283L31.2098 22.4497C31.1749 22.8922 31.1174 23.3322 31.0372 23.7649C30.9899 24.0193 31.1579 24.2638 31.4122 24.3109C31.441 24.3164 31.4699 24.3189 31.4982 24.3189C31.7194 24.3189 31.9161 24.1613 31.958 23.9359C32.0878 23.2376 32.1625 22.5223 32.1818 21.806L33.6195 20.8538C34.1032 20.5335 34.4334 20.0439 34.5487 19.4754C34.6643 18.9067 34.5515 18.3272 34.2312 17.8435ZM23.8065 9.88002L22.3757 10.8276L22.094 10.0687C21.9763 9.75204 21.8414 9.4416 21.6921 9.13783C22.418 9.32189 23.1248 9.57005 23.8065 9.88002ZM8.97724 13.1266C10.8782 10.9352 13.4676 9.46205 16.3003 8.95125C16.7548 10.0524 16.8637 11.2826 16.5921 12.4552L15.4504 17.3878C15.2709 17.1962 15.0379 17.0641 14.7755 17.0108C14.4409 16.9425 14.1002 17.0089 13.8159 17.1974L10.5818 19.3389C10.5816 19.3389 10.5816 19.3389 10.5813 19.3391C10.5813 19.3391 10.5811 19.3391 10.5811 19.3394L5.91658 22.4283C5.89107 22.0992 5.87774 21.7677 5.87774 21.4363C5.87774 18.3821 6.97862 15.4308 8.97724 13.1266ZM21.165 27.8584C21.1468 27.9476 21.0949 28.0246 21.0188 28.0749H21.0191L18.2378 29.9166L13.0758 22.2183C12.9317 22.0034 12.6408 21.9462 12.426 22.0903C12.2114 22.2344 12.1539 22.525 12.298 22.7399L17.4568 30.4338L13.4864 33.0632C9.54112 31.3375 6.71782 27.6932 6.03905 23.4526L10.7091 20.3701L11.2465 21.1721C11.3371 21.3067 11.4851 21.3796 11.636 21.3796C11.7256 21.3796 11.8164 21.3541 11.8964 21.3003C12.1112 21.1562 12.1686 20.8653 12.0246 20.6505L11.4908 19.8543L14.3332 17.9781C14.4088 17.9278 14.4995 17.9104 14.5887 17.9285C14.6778 17.9467 14.7548 17.9986 14.8051 18.0744L21.1153 27.6029C21.1654 27.6785 21.1831 27.7693 21.165 27.8584ZM33.631 19.2888C33.5653 19.6123 33.3775 19.8908 33.1023 20.073L31.4586 21.1615C31.4582 21.1617 31.4577 21.1622 31.457 21.1624L25.5905 25.0475C25.1517 25.3382 24.6238 25.4524 24.1041 25.3688C23.3518 25.2481 22.5875 25.4134 21.9522 25.8341L21.3371 26.2415L16.1689 18.4375L17.5048 12.6666C17.8488 11.1799 17.6675 9.61394 17.0122 8.24974C17.0062 8.23549 16.9998 8.2217 16.9924 8.20815C16.8665 7.95033 16.7236 7.7001 16.5639 7.45884C16.2532 6.98963 16.3821 6.3552 16.8516 6.04431C17.2482 5.78167 17.784 5.83131 18.1255 6.16242L19.02 7.02961C19.9876 7.9678 20.747 9.1314 21.2158 10.3947L21.7029 11.707C21.7038 11.7095 21.7047 11.7116 21.7057 11.7139C21.7068 11.7169 21.7082 11.7201 21.7093 11.7231C21.7128 11.7311 21.716 11.7385 21.7194 11.7447C21.7289 11.7644 21.7392 11.784 21.7516 11.8026C21.8945 12.0184 22.185 12.0774 22.4005 11.9345L27.3952 8.62703C27.9632 8.25089 28.7314 8.40691 29.1075 8.97492C29.4837 9.54294 29.3277 10.3111 28.7597 10.6872L28.3261 10.9745C28.3261 10.9745 28.3258 10.9745 28.3256 10.9747L27.3585 11.6153C27.3571 11.6162 27.3562 11.6172 27.3548 11.6178C27.3493 11.6218 27.344 11.6254 27.3396 11.6291C27.1397 11.7759 27.088 12.0551 27.2266 12.2642C27.3693 12.48 27.6599 12.539 27.8757 12.3961L28.8435 11.755C29.1186 11.5733 29.4478 11.5092 29.7711 11.5749C30.0944 11.6406 30.3732 11.8283 30.5552 12.1036C30.7374 12.3786 30.8017 12.7084 30.736 13.0317C30.6703 13.3552 30.4825 13.6337 30.2073 13.8159L28.8061 14.744C28.5903 14.8867 28.5313 15.1771 28.6742 15.3929C28.7642 15.5289 28.9131 15.6027 29.065 15.6027C29.1537 15.6027 29.2436 15.5774 29.3231 15.5248L29.54 15.3812L30.2904 14.8842C30.8587 14.508 31.6266 14.664 32.0028 15.232C32.3789 15.8003 32.2229 16.5682 31.6549 16.9446L30.955 17.4081C30.9513 17.4104 30.9476 17.4129 30.9439 17.4154L30.2537 17.8724C30.0379 18.0151 29.9789 18.3058 30.1218 18.5216C30.2119 18.6576 30.3608 18.7314 30.5126 18.7314C30.6013 18.7314 30.6912 18.7061 30.7707 18.6535L30.9876 18.5099C30.9876 18.5099 30.9876 18.5096 30.9878 18.5096L31.7383 18.0128C32.0133 17.8306 32.3428 17.7663 32.6664 17.8322C32.9899 17.8977 33.2684 18.0857 33.4506 18.3607C33.6326 18.6358 33.6967 18.9655 33.631 19.2888Z" fill="#949494" stroke="#949494" stroke-width="0.8"/>
</g>
</svg>
