<svg width="24" height="24" viewBox="0 0 24 24" fill="none" xmlns="http://www.w3.org/2000/svg">
<rect width="24" height="24"/>
<path d="M21.1365 11.9999H18.1365C17.7387 11.9999 17.3571 12.158 17.0758 12.4393C16.7945 12.7206 16.6365 13.1021 16.6365 13.4999V17.2499C16.6365 17.6478 16.7945 18.0293 17.0758 18.3106C17.3571 18.5919 17.7387 18.7499 18.1365 18.7499H19.6365C20.0343 18.7499 20.4158 18.5919 20.6971 18.3106C20.9784 18.0293 21.1365 17.6478 21.1365 17.2499M21.1365 11.9999V17.2499M21.1365 11.9999C21.1365 10.8123 20.9014 9.63641 20.4449 8.54004C19.9883 7.44367 19.3192 6.4485 18.4763 5.6119C17.6333 4.7753 16.6331 4.11382 15.5333 3.66557C14.4335 3.21733 13.2558 2.99119 12.0682 3.0002C10.8806 2.99119 9.70299 3.21733 8.60319 3.66557C7.50339 4.11382 6.50318 4.7753 5.66021 5.6119C4.81725 6.4485 4.1482 7.44367 3.69163 8.54004C3.23506 9.63641 3 10.8123 3 11.9999M21.1365 17.2499V19.5C21.1365 20.2956 20.8204 21.0587 20.2578 21.6213C19.6952 22.1839 18.9321 22.5 18.1365 22.5H12.75M3 11.9999V17.2499C3 17.6478 3.15804 18.0293 3.43934 18.3106C3.72064 18.5919 4.10218 18.7499 4.5 18.7499H6C6.39782 18.7499 6.77936 18.5919 7.06066 18.3106C7.34196 18.0293 7.5 17.6478 7.5 17.2499V13.4999C7.5 13.1021 7.34196 12.7206 7.06066 12.4393C6.77936 12.158 6.39782 11.9999 6 11.9999H3Z" stroke="#212121" stroke-width="1.5" stroke-linecap="round" stroke-linejoin="round"/>
</svg>
