<svg width="40" height="40" viewBox="0 0 40 40" fill="none" xmlns="http://www.w3.org/2000/svg">
<rect width="40" height="40" rx="8" fill="#E5F2F9" fill-opacity="0.8"/>
<g opacity="0.8" clip-path="url(#clip0)">
<path fill-rule="evenodd" clip-rule="evenodd" d="M20.0845 7.125C27.1138 7.125 32.8105 12.822 32.8105 19.8513C32.8105 26.8806 27.1138 32.5774 20.0845 32.5774C17.9421 32.5774 15.8506 32.0474 13.9722 31.0161L13.0894 30.5315L8.34424 31.814L9.63794 27.1973L9.09985 26.2805C7.95239 24.325 7.35815 22.1184 7.35815 19.8513C7.35815 12.822 13.0552 7.125 20.0845 7.125ZM12.7693 33.2075C14.9402 34.3994 17.4331 35.0774 20.0845 35.0774C28.4937 35.0774 35.3105 28.2605 35.3105 19.8513C35.3105 11.4419 28.4937 4.625 20.0845 4.625C11.675 4.625 4.85815 11.4419 4.85815 19.8513C4.85815 22.6584 5.61865 25.2878 6.94385 27.5459L4.75 35.375L12.7693 33.2075Z" fill="white"/>
<path fill-rule="evenodd" clip-rule="evenodd" d="M32.8108 19.8513C32.8108 12.822 27.114 7.125 20.0847 7.125C13.0554 7.125 7.3584 12.822 7.3584 19.8513C7.3584 22.1184 7.95264 24.325 9.10034 26.2805L9.63818 27.1973L8.34448 31.814L13.0896 30.5315L13.9727 31.0161C15.8508 32.0474 17.9424 32.5774 20.0847 32.5774C27.114 32.5774 32.8108 26.8806 32.8108 19.8513ZM16.4539 19.2021C17.0264 20.1938 18.0259 21.3083 18.9497 22.0237C20.0657 22.8877 21.8162 24.0229 22.3853 23.5195C22.6538 23.282 23.3928 22.2112 23.4912 22.1348C23.5898 22.0581 23.9177 21.5105 24.6919 21.8857C25.4658 22.2612 27.397 23.2192 27.397 23.2192C27.397 23.2192 27.8154 23.3882 27.7976 24.0439C27.78 24.6995 27.7515 24.8674 27.7515 24.8674C27.7515 24.8674 27.4709 27.1157 24.4021 27.2053C23.0129 27.2458 21.4043 26.6794 19.979 25.9524C17.5461 24.7119 16.0266 23.3408 14.4016 21.2083C13.2981 19.7603 12.1958 17.8577 12.3906 16.1665C12.7288 13.2322 14.5947 12.9617 14.5947 12.9617C14.5947 12.9617 14.7637 12.9414 15.4197 12.9548C16.0754 12.9683 16.2241 13.3943 16.2241 13.3943C16.2241 13.3943 17.1301 15.4634 17.4683 16.2544C17.8064 17.0454 17.4412 17.3901 17.3601 17.4849C17.2791 17.5796 16.7922 18.1543 16.542 18.4111C16.2917 18.668 16.3513 19.0242 16.4539 19.2021Z" fill="#33B576"/>
<path fill-rule="evenodd" clip-rule="evenodd" d="M17.4678 16.2541C17.13 15.4631 16.2239 13.3942 16.2239 13.3942C16.2239 13.3942 16.0753 12.9682 15.4193 12.9548C14.7635 12.9414 14.5943 12.9616 14.5943 12.9616C14.5943 12.9616 12.7283 13.2321 12.3902 16.1665C12.1954 17.8576 13.2977 19.76 14.4012 21.2082C16.0264 23.3408 17.546 24.7119 19.9786 25.9524C21.4041 26.6792 23.0128 27.2458 24.4019 27.2053C27.4708 27.1157 27.7513 24.8674 27.7513 24.8674C27.7513 24.8674 27.7796 24.6994 27.7974 24.0437C27.8153 23.3882 27.3968 23.2192 27.3968 23.2192C27.3968 23.2192 25.4656 22.2612 24.6915 21.8857C23.9175 21.5102 23.5894 22.0581 23.491 22.1345C23.3926 22.2111 22.6534 23.2819 22.3848 23.5195C21.816 24.0229 20.0653 22.8877 18.9493 22.0236C18.0257 21.3083 17.0262 20.1938 16.4537 19.2021C16.3509 19.0241 16.2913 18.6679 16.5416 18.4109C16.7918 18.154 17.2786 17.5793 17.3597 17.4848C17.441 17.3901 17.806 17.0454 17.4678 16.2541Z" fill="white"/>
<path d="M31.293 8.64258C28.2991 5.64893 24.3184 4 20.0845 4C16.7544 4 13.5672 5.02148 10.8675 6.95435C10.5867 7.15527 10.522 7.54565 10.7229 7.82642C10.9241 8.10718 11.3145 8.17163 11.595 7.9707C14.0813 6.19092 17.0169 5.25 20.0845 5.25C28.1355 5.25 34.6856 11.8 34.6856 19.8513C34.6856 27.9023 28.1355 34.4524 20.0845 34.4524C17.6319 34.4524 15.2063 33.8325 13.0701 32.6597C12.9283 32.582 12.762 32.5623 12.6062 32.6042L5.64872 34.4846L7.54569 27.7146C7.59159 27.551 7.56889 27.376 7.48295 27.2297C6.1746 25.0002 5.48319 22.449 5.48319 19.8513C5.48319 16.7834 6.42411 13.8479 8.2039 11.3618C8.40483 11.0813 8.34013 10.6909 8.05961 10.49C7.77885 10.2891 7.38847 10.3535 7.18754 10.6343C5.25468 13.3337 4.23319 16.521 4.23319 19.8513C4.23319 22.5815 4.93705 25.2649 6.27128 27.6301L4.14823 35.2063C4.08744 35.4229 4.14799 35.6553 4.30595 35.8149C4.42509 35.9348 4.58549 36 4.75004 36C4.80448 36 4.85917 35.9929 4.91313 35.9783L12.6922 33.876C14.9571 35.0715 17.5074 35.7024 20.0843 35.7024C24.3184 35.7024 28.2991 34.0537 31.2928 31.0596C34.2867 28.0659 35.9356 24.0852 35.9356 19.8511C35.9356 15.6172 34.2869 11.6367 31.293 8.64258Z" fill="#111111" stroke="#111111" stroke-width="0.2"/>
<path d="M30.3296 27.4275C30.6167 27.6191 31.0049 27.5417 31.1965 27.2546C32.6614 25.0598 33.4358 22.4998 33.4358 19.8511C33.4358 16.2847 32.0471 12.9316 29.5256 10.4102C27.0042 7.88867 23.6514 6.5 20.0847 6.5C16.5181 6.5 13.165 7.88867 10.6436 10.4102C8.12207 12.9316 6.7334 16.2847 6.7334 19.8513C6.7334 22.2268 7.36548 24.5593 8.56128 26.5969L8.9646 27.2844L7.74268 31.6453C7.68188 31.8616 7.74219 32.094 7.90039 32.2537C8.05859 32.4133 8.29053 32.4758 8.50757 32.4172L13.0095 31.2004L13.6716 31.564C15.6243 32.636 17.8418 33.2024 20.0845 33.2024C22.7334 33.2024 25.2935 32.428 27.488 30.9629C27.7751 30.7715 27.8525 30.3833 27.6609 30.0962C27.4692 29.8091 27.0813 29.7317 26.7942 29.9233C24.8057 31.2507 22.4856 31.9524 20.0845 31.9524C18.0515 31.9524 16.042 31.4392 14.2732 30.4683L13.3904 29.9834C13.2488 29.9058 13.0825 29.886 12.9265 29.928L9.24292 30.9236L10.24 27.3657C10.2856 27.2021 10.2632 27.0271 10.1772 26.8809L9.63916 25.9641C8.55591 24.1182 7.9834 22.0044 7.9834 19.8511C7.9834 13.1785 13.4121 7.75 20.0847 7.75C26.7573 7.75 32.1858 13.1785 32.1858 19.8513C32.1858 22.252 31.4841 24.572 30.1567 26.5608C29.9651 26.8479 30.0425 27.2358 30.3296 27.4275Z" fill="#111111" stroke="#111111" stroke-width="0.2"/>
<path d="M17.8007 17.9314L17.8419 17.8833C18.4017 17.2549 18.2604 16.5169 18.0431 16.0086C17.722 15.2578 16.8822 13.3389 16.8026 13.1573C16.6786 12.8438 16.2648 12.3472 15.4325 12.3299C14.7836 12.3167 14.5702 12.335 14.5204 12.3411C14.5152 12.3416 14.5101 12.3423 14.5052 12.343C14.4095 12.357 12.1586 12.7212 11.7699 16.095C11.5912 17.646 12.3094 19.4937 13.9047 21.5872C15.6708 23.9048 17.2943 25.285 19.6952 26.5091C20.8907 27.1187 22.6371 27.8323 24.2628 27.8323C24.3155 27.8323 24.3683 27.8316 24.4205 27.8299C26.2465 27.7767 27.2215 27.0179 27.7179 26.3907C28.2447 25.7249 28.3548 25.0689 28.3707 24.9551C28.3812 24.8829 28.4066 24.6548 28.4227 24.0608C28.4452 23.2286 27.9686 22.7915 27.6615 22.6526C27.4879 22.5664 25.6984 21.6792 24.9647 21.3235C24.4694 21.083 23.7411 20.9458 23.0856 21.657C23.0821 21.6607 23.079 21.6643 23.0758 21.6675C22.9872 21.7449 22.8995 21.8604 22.6332 22.2168C22.4691 22.4363 22.1417 22.8743 22.0026 23.0205C21.7086 23.0413 20.7257 22.6084 19.3324 21.5296C18.4542 20.8494 17.5165 19.7906 16.9977 18.8936C16.9925 18.8809 16.9894 18.8577 16.9908 18.846C17.2059 18.6248 17.556 18.2183 17.8007 17.9314ZM18.567 22.5179C18.9835 22.8404 19.8002 23.4412 20.5897 23.8418C20.963 24.031 22.099 24.6075 22.7994 23.9876C22.9928 23.8164 23.2674 23.4558 23.6341 22.9651C23.7399 22.8238 23.8697 22.6502 23.92 22.5901C23.9527 22.5603 23.9798 22.531 24.0045 22.5042C24.1171 22.3821 24.1683 22.3265 24.4191 22.448C25.172 22.8133 27.0504 23.7449 27.1178 23.7781C27.141 23.8013 27.1771 23.8767 27.173 24.0269C27.159 24.545 27.1388 24.7322 27.1346 24.7674C27.1319 24.7803 27.1332 24.7725 27.1317 24.7867C27.1244 24.8291 27.0458 25.2481 26.7013 25.6595C26.2154 26.24 25.4359 26.5498 24.3841 26.5804C22.9779 26.6221 21.3673 25.9588 20.2628 25.3955C18.0157 24.2496 16.5619 23.012 14.8986 20.8294C13.5255 19.0276 12.8729 17.4397 13.0113 16.2378C13.2721 13.9749 14.5123 13.6194 14.6786 13.5818C14.7372 13.5782 14.9354 13.5699 15.4066 13.5796C15.5568 13.5828 15.6302 13.6226 15.6525 13.6468C15.6835 13.7176 16.5646 15.7303 16.8934 16.4998C17.0577 16.8843 16.9569 16.9976 16.9083 17.052C16.8995 17.0618 16.892 17.0706 16.8854 17.0779L16.8495 17.1201C16.4884 17.5432 16.2342 17.8311 16.0941 17.9749C15.6327 18.449 15.6764 19.1053 15.9127 19.5144C16.5138 20.5559 17.5558 21.7347 18.567 22.5179Z" fill="#111111" stroke="#111111" stroke-width="0.2"/>
</g>
<defs>
<clipPath id="clip0">
<rect width="32" height="32" fill="white" transform="translate(4 4)"/>
</clipPath>
</defs>
</svg>
